G04 #@! TF.FileFunction,Legend,Bot*
%FSLAX46Y46*%
G04 Gerber Fmt 4.6, Leading zero omitted, Abs format (unit mm)*
G04 Created by KiCad (PCBNEW 4.0.5+dfsg1-4) date Sat Dec 30 21:32:09 2017*
%MOMM*%
%LPD*%
G01*
G04 APERTURE LIST*
%ADD10C,0.100000*%
%ADD11C,0.120000*%
%ADD12C,0.150000*%
%ADD13C,0.010000*%
G04 APERTURE END LIST*
D10*
D11*
X139284000Y-106395000D02*
X139284000Y-105695000D01*
X138084000Y-105695000D02*
X138084000Y-106395000D01*
X141001000Y-115916000D02*
X141701000Y-115916000D01*
X141701000Y-114716000D02*
X141001000Y-114716000D01*
X141701000Y-113319000D02*
X141001000Y-113319000D01*
X141001000Y-114519000D02*
X141701000Y-114519000D01*
X139477000Y-112487000D02*
X140177000Y-112487000D01*
X140177000Y-111287000D02*
X139477000Y-111287000D01*
X147347447Y-79053081D02*
X147842421Y-78558107D01*
X146993893Y-77709579D02*
X146498919Y-78204553D01*
X152951000Y-116043000D02*
X153651000Y-116043000D01*
X153651000Y-114843000D02*
X152951000Y-114843000D01*
X150071000Y-114843000D02*
X149371000Y-114843000D01*
X149371000Y-116043000D02*
X150071000Y-116043000D01*
X142529000Y-68611000D02*
X142529000Y-69311000D01*
X143729000Y-69311000D02*
X143729000Y-68611000D01*
X139743000Y-69434000D02*
X140443000Y-69434000D01*
X140443000Y-68234000D02*
X139743000Y-68234000D01*
X139731000Y-72101000D02*
X140431000Y-72101000D01*
X140431000Y-70901000D02*
X139731000Y-70901000D01*
X169952500Y-105045000D02*
X169952500Y-107045000D01*
X169952500Y-107045000D02*
X166052500Y-107045000D01*
X169952500Y-105045000D02*
X166052500Y-105045000D01*
X154776000Y-119586500D02*
X154776000Y-121586500D01*
X154776000Y-121586500D02*
X150876000Y-121586500D01*
X154776000Y-119586500D02*
X150876000Y-119586500D01*
X165000500Y-99965000D02*
X165000500Y-101965000D01*
X165000500Y-101965000D02*
X161100500Y-101965000D01*
X165000500Y-99965000D02*
X161100500Y-99965000D01*
X161536000Y-104565000D02*
X163536000Y-104565000D01*
X163536000Y-107525000D02*
X161536000Y-107525000D01*
X146423000Y-119043000D02*
X148423000Y-119043000D01*
X148423000Y-122003000D02*
X146423000Y-122003000D01*
X163496500Y-97365000D02*
X161496500Y-97365000D01*
X161496500Y-94405000D02*
X163496500Y-94405000D01*
X163496500Y-92285000D02*
X161496500Y-92285000D01*
X161496500Y-89325000D02*
X163496500Y-89325000D01*
D12*
X147447000Y-69977000D02*
G75*
G03X147447000Y-69977000I-127000J0D01*
G01*
D11*
X166134000Y-94859000D02*
X166134000Y-93929000D01*
X166134000Y-91699000D02*
X166134000Y-92629000D01*
X166134000Y-91699000D02*
X168294000Y-91699000D01*
X166134000Y-94859000D02*
X167594000Y-94859000D01*
X166134000Y-89911000D02*
X166134000Y-88981000D01*
X166134000Y-86751000D02*
X166134000Y-87681000D01*
X166134000Y-86751000D02*
X168294000Y-86751000D01*
X166134000Y-89911000D02*
X167594000Y-89911000D01*
X140761000Y-109351000D02*
X140761000Y-108351000D01*
X139401000Y-108351000D02*
X139401000Y-109351000D01*
X139655000Y-120023000D02*
X139655000Y-121023000D01*
X141015000Y-121023000D02*
X141015000Y-120023000D01*
X141306000Y-120035000D02*
X141306000Y-121035000D01*
X142666000Y-121035000D02*
X142666000Y-120035000D01*
X150746000Y-112336000D02*
X151746000Y-112336000D01*
X150746000Y-108096000D02*
X151746000Y-108096000D01*
X150746000Y-107530000D02*
X151746000Y-107530000D01*
X150746000Y-103290000D02*
X151746000Y-103290000D01*
X170479000Y-93845000D02*
X170479000Y-92845000D01*
X169119000Y-92845000D02*
X169119000Y-93845000D01*
X170479000Y-88892000D02*
X170479000Y-87892000D01*
X169119000Y-87892000D02*
X169119000Y-88892000D01*
D13*
G36*
X139645572Y-93689632D02*
X147510500Y-93698786D01*
X147515081Y-97232107D01*
X147519663Y-100765429D01*
X154921857Y-100765429D01*
X154921857Y-100275571D01*
X153869679Y-100275571D01*
X152422257Y-100275571D01*
X152137216Y-100275317D01*
X151875347Y-100274568D01*
X151638258Y-100273343D01*
X151427558Y-100271661D01*
X151244856Y-100269541D01*
X151091762Y-100267002D01*
X150969884Y-100264064D01*
X150880831Y-100260746D01*
X150826212Y-100257067D01*
X150821096Y-100256487D01*
X150524209Y-100205015D01*
X150229270Y-100125774D01*
X149944332Y-100021598D01*
X149677448Y-99895321D01*
X149499950Y-99791641D01*
X149273479Y-99627394D01*
X149061580Y-99435067D01*
X148869318Y-99220465D01*
X148701756Y-98989390D01*
X148563957Y-98747646D01*
X148533963Y-98684494D01*
X148500954Y-98612468D01*
X148472422Y-98551052D01*
X148452488Y-98509077D01*
X148446733Y-98497571D01*
X148428427Y-98453534D01*
X148404510Y-98382142D01*
X148377240Y-98291465D01*
X148348874Y-98189571D01*
X148321668Y-98084529D01*
X148297881Y-97984407D01*
X148281789Y-97907929D01*
X148248045Y-97680941D01*
X148228591Y-97431066D01*
X148223371Y-97168745D01*
X148232329Y-96904420D01*
X148255409Y-96648534D01*
X148289703Y-96426217D01*
X148358279Y-96131665D01*
X148446588Y-95865185D01*
X148556320Y-95623364D01*
X148689167Y-95402790D01*
X148846819Y-95200052D01*
X148954471Y-95085101D01*
X149146447Y-94914116D01*
X149359318Y-94764959D01*
X149595037Y-94636787D01*
X149855554Y-94528758D01*
X150142820Y-94440030D01*
X150458788Y-94369762D01*
X150703643Y-94330334D01*
X150749934Y-94324322D01*
X150797923Y-94319087D01*
X150850342Y-94314575D01*
X150909925Y-94310733D01*
X150979405Y-94307509D01*
X151061514Y-94304850D01*
X151158986Y-94302704D01*
X151274553Y-94301017D01*
X151410949Y-94299736D01*
X151570907Y-94298810D01*
X151757159Y-94298185D01*
X151972439Y-94297809D01*
X152219479Y-94297628D01*
X152400000Y-94297591D01*
X153860500Y-94297500D01*
X153865090Y-97286536D01*
X153869679Y-100275571D01*
X154921857Y-100275571D01*
X154921857Y-97088964D01*
X154921846Y-96658729D01*
X154921803Y-96263306D01*
X154921716Y-95901218D01*
X154921572Y-95570993D01*
X154921359Y-95271156D01*
X154921064Y-95000231D01*
X154920675Y-94756745D01*
X154920178Y-94539222D01*
X154919561Y-94346190D01*
X154918811Y-94176171D01*
X154917917Y-94027693D01*
X154916864Y-93899281D01*
X154915641Y-93789460D01*
X154914234Y-93696756D01*
X154912632Y-93619694D01*
X154910821Y-93556799D01*
X154908789Y-93506597D01*
X154906524Y-93467614D01*
X154904011Y-93438374D01*
X154901240Y-93417404D01*
X154898197Y-93403229D01*
X154894869Y-93394374D01*
X154891245Y-93389365D01*
X154890107Y-93388399D01*
X154881047Y-93385461D01*
X154861010Y-93382759D01*
X154828627Y-93380284D01*
X154782526Y-93378026D01*
X154721337Y-93375975D01*
X154643689Y-93374122D01*
X154548212Y-93372458D01*
X154433535Y-93370973D01*
X154298288Y-93369657D01*
X154141099Y-93368502D01*
X153960599Y-93367498D01*
X153755416Y-93366635D01*
X153524181Y-93365904D01*
X153265522Y-93365295D01*
X152978068Y-93364800D01*
X152660450Y-93364408D01*
X152311296Y-93364111D01*
X151929237Y-93363898D01*
X151512900Y-93363761D01*
X151306893Y-93363720D01*
X147755429Y-93363143D01*
X147755429Y-90208111D01*
X147320000Y-90208111D01*
X147319978Y-90595963D01*
X147319903Y-90949125D01*
X147319758Y-91269192D01*
X147319529Y-91557760D01*
X147319200Y-91816425D01*
X147318756Y-92046781D01*
X147318181Y-92250424D01*
X147317460Y-92428951D01*
X147316579Y-92583956D01*
X147315520Y-92717034D01*
X147314270Y-92829782D01*
X147312813Y-92923795D01*
X147311133Y-93000669D01*
X147309215Y-93061998D01*
X147307044Y-93109379D01*
X147304604Y-93144406D01*
X147301881Y-93168677D01*
X147298858Y-93183785D01*
X147295521Y-93191326D01*
X147291853Y-93192897D01*
X147291302Y-93192727D01*
X147267529Y-93190383D01*
X147211387Y-93188209D01*
X147126794Y-93186260D01*
X147017666Y-93184589D01*
X146887922Y-93183251D01*
X146741478Y-93182299D01*
X146582250Y-93181788D01*
X146493016Y-93181714D01*
X145723429Y-93181714D01*
X145723429Y-91694000D01*
X145723532Y-91416868D01*
X145723863Y-91174073D01*
X145724451Y-90963666D01*
X145725325Y-90783700D01*
X145726515Y-90632225D01*
X145728051Y-90507294D01*
X145729962Y-90406957D01*
X145732279Y-90329268D01*
X145735031Y-90272276D01*
X145738247Y-90234035D01*
X145741958Y-90212596D01*
X145746107Y-90206008D01*
X145759376Y-90202035D01*
X145746507Y-90191577D01*
X145739579Y-90179228D01*
X145734954Y-90150083D01*
X145732593Y-90100573D01*
X145732454Y-90027130D01*
X145734498Y-89926184D01*
X145738684Y-89794165D01*
X145741217Y-89724676D01*
X145746764Y-89576539D01*
X145752648Y-89418857D01*
X145758476Y-89262181D01*
X145763856Y-89117061D01*
X145768396Y-88994045D01*
X145769685Y-88958964D01*
X145772834Y-88848196D01*
X145773588Y-88757249D01*
X145772019Y-88690648D01*
X145768200Y-88652914D01*
X145764695Y-88646000D01*
X145754701Y-88662638D01*
X145741008Y-88707465D01*
X145725718Y-88772851D01*
X145715898Y-88822893D01*
X145675177Y-89042310D01*
X145638062Y-89234195D01*
X145602756Y-89406893D01*
X145567458Y-89568754D01*
X145530369Y-89728124D01*
X145489691Y-89893352D01*
X145460765Y-90006714D01*
X145359965Y-90397349D01*
X145267841Y-90754326D01*
X145184011Y-91079127D01*
X145108093Y-91373230D01*
X145039703Y-91638115D01*
X144978458Y-91875263D01*
X144923976Y-92086152D01*
X144875874Y-92272263D01*
X144833769Y-92435074D01*
X144797278Y-92576067D01*
X144766019Y-92696720D01*
X144739608Y-92798513D01*
X144717662Y-92882927D01*
X144699800Y-92951439D01*
X144685637Y-93005532D01*
X144674791Y-93046683D01*
X144666879Y-93076373D01*
X144661519Y-93096081D01*
X144660406Y-93100071D01*
X144634920Y-93190786D01*
X142920860Y-93182794D01*
X142851189Y-92896504D01*
X142826677Y-92795923D01*
X142795741Y-92669207D01*
X142760608Y-92525461D01*
X142723503Y-92373787D01*
X142686652Y-92223292D01*
X142665872Y-92138500D01*
X142628233Y-91984850D01*
X142587201Y-91817144D01*
X142545486Y-91646471D01*
X142505797Y-91483917D01*
X142470844Y-91340573D01*
X142457503Y-91285786D01*
X142424545Y-91150411D01*
X142385904Y-90991765D01*
X142344499Y-90821831D01*
X142303249Y-90652589D01*
X142265074Y-90496021D01*
X142256358Y-90460286D01*
X142222035Y-90319450D01*
X142186358Y-90172854D01*
X142151573Y-90029738D01*
X142119926Y-89899343D01*
X142093661Y-89790911D01*
X142084431Y-89752714D01*
X142059643Y-89650203D01*
X142035643Y-89551265D01*
X142014772Y-89465525D01*
X141999370Y-89402609D01*
X141996223Y-89389857D01*
X141984400Y-89338079D01*
X141967607Y-89259139D01*
X141947595Y-89161530D01*
X141926116Y-89053749D01*
X141912078Y-88981643D01*
X141891712Y-88879583D01*
X141872448Y-88789637D01*
X141855720Y-88718012D01*
X141842964Y-88670914D01*
X141836589Y-88655072D01*
X141830796Y-88664311D01*
X141827738Y-88704822D01*
X141827573Y-88771686D01*
X141830217Y-88854643D01*
X141832238Y-88916325D01*
X141834230Y-89008091D01*
X141836182Y-89127225D01*
X141838084Y-89271010D01*
X141839925Y-89436731D01*
X141841695Y-89621671D01*
X141843383Y-89823116D01*
X141844978Y-90038348D01*
X141846471Y-90264653D01*
X141847850Y-90499314D01*
X141849105Y-90739616D01*
X141850226Y-90982841D01*
X141851201Y-91226276D01*
X141852022Y-91467203D01*
X141852676Y-91702907D01*
X141853153Y-91930672D01*
X141853443Y-92147782D01*
X141853536Y-92351521D01*
X141853420Y-92539174D01*
X141853085Y-92708023D01*
X141852522Y-92855355D01*
X141851718Y-92978451D01*
X141850664Y-93074598D01*
X141849350Y-93141078D01*
X141847764Y-93175177D01*
X141846983Y-93179217D01*
X141826337Y-93181417D01*
X141772965Y-93183283D01*
X141690427Y-93184790D01*
X141582281Y-93185911D01*
X141452085Y-93186619D01*
X141303400Y-93186888D01*
X141139782Y-93186692D01*
X140964792Y-93186004D01*
X140947322Y-93185910D01*
X140062857Y-93181034D01*
X140062857Y-87212714D01*
X142728459Y-87212714D01*
X142747696Y-87284156D01*
X142758211Y-87325656D01*
X142775032Y-87394898D01*
X142796337Y-87484261D01*
X142820305Y-87586122D01*
X142837655Y-87660620D01*
X142854105Y-87731133D01*
X142878036Y-87833087D01*
X142908536Y-87962624D01*
X142944692Y-88115884D01*
X142985593Y-88289007D01*
X143030326Y-88478134D01*
X143077980Y-88679405D01*
X143127642Y-88888960D01*
X143178401Y-89102940D01*
X143199134Y-89190286D01*
X143263870Y-89463487D01*
X143320680Y-89704571D01*
X143370239Y-89916674D01*
X143413221Y-90102931D01*
X143450301Y-90266478D01*
X143482155Y-90410448D01*
X143509457Y-90537977D01*
X143532882Y-90652201D01*
X143553106Y-90756255D01*
X143570803Y-90853273D01*
X143586648Y-90946390D01*
X143601316Y-91038743D01*
X143611207Y-91104357D01*
X143624713Y-91191506D01*
X143635741Y-91248658D01*
X143645247Y-91274829D01*
X143654183Y-91269032D01*
X143663507Y-91230281D01*
X143674172Y-91157589D01*
X143687132Y-91049970D01*
X143690250Y-91022714D01*
X143698127Y-90958545D01*
X143707602Y-90892307D01*
X143719302Y-90821252D01*
X143733854Y-90742629D01*
X143751886Y-90653689D01*
X143774024Y-90551680D01*
X143800897Y-90433854D01*
X143833132Y-90297460D01*
X143871357Y-90139748D01*
X143916198Y-89957968D01*
X143968283Y-89749371D01*
X144028240Y-89511205D01*
X144096696Y-89240722D01*
X144097984Y-89235643D01*
X144151652Y-89023970D01*
X144205799Y-88810343D01*
X144259232Y-88599477D01*
X144310756Y-88396086D01*
X144359178Y-88204883D01*
X144403305Y-88030583D01*
X144441941Y-87877901D01*
X144473894Y-87751550D01*
X144495434Y-87666286D01*
X144607643Y-87221786D01*
X145963821Y-87217135D01*
X147320000Y-87212483D01*
X147320000Y-90208111D01*
X147755429Y-90208111D01*
X147755429Y-89853984D01*
X147755373Y-89499522D01*
X147755208Y-89154607D01*
X147754940Y-88821004D01*
X147754575Y-88500479D01*
X147754117Y-88194797D01*
X147753573Y-87905724D01*
X147752948Y-87635026D01*
X147752247Y-87384468D01*
X147751476Y-87155816D01*
X147750641Y-86950835D01*
X147749746Y-86771292D01*
X147748798Y-86618951D01*
X147747801Y-86495579D01*
X147746762Y-86402940D01*
X147745686Y-86342801D01*
X147744578Y-86316927D01*
X147744416Y-86316127D01*
X147740897Y-86312907D01*
X147731988Y-86309934D01*
X147716305Y-86307200D01*
X147692467Y-86304694D01*
X147659090Y-86302407D01*
X147614794Y-86300328D01*
X147558194Y-86298448D01*
X147487908Y-86296757D01*
X147402555Y-86295245D01*
X147300752Y-86293903D01*
X147181115Y-86292720D01*
X147042263Y-86291688D01*
X146882813Y-86290796D01*
X146701383Y-86290034D01*
X146496590Y-86289393D01*
X146267052Y-86288862D01*
X146011387Y-86288433D01*
X145728210Y-86288095D01*
X145416142Y-86287838D01*
X145073798Y-86287653D01*
X144699796Y-86287530D01*
X144292755Y-86287459D01*
X143851290Y-86287430D01*
X143689488Y-86287429D01*
X139645572Y-86287429D01*
X139645572Y-93689632D01*
X139645572Y-93689632D01*
G37*
X139645572Y-93689632D02*
X147510500Y-93698786D01*
X147515081Y-97232107D01*
X147519663Y-100765429D01*
X154921857Y-100765429D01*
X154921857Y-100275571D01*
X153869679Y-100275571D01*
X152422257Y-100275571D01*
X152137216Y-100275317D01*
X151875347Y-100274568D01*
X151638258Y-100273343D01*
X151427558Y-100271661D01*
X151244856Y-100269541D01*
X151091762Y-100267002D01*
X150969884Y-100264064D01*
X150880831Y-100260746D01*
X150826212Y-100257067D01*
X150821096Y-100256487D01*
X150524209Y-100205015D01*
X150229270Y-100125774D01*
X149944332Y-100021598D01*
X149677448Y-99895321D01*
X149499950Y-99791641D01*
X149273479Y-99627394D01*
X149061580Y-99435067D01*
X148869318Y-99220465D01*
X148701756Y-98989390D01*
X148563957Y-98747646D01*
X148533963Y-98684494D01*
X148500954Y-98612468D01*
X148472422Y-98551052D01*
X148452488Y-98509077D01*
X148446733Y-98497571D01*
X148428427Y-98453534D01*
X148404510Y-98382142D01*
X148377240Y-98291465D01*
X148348874Y-98189571D01*
X148321668Y-98084529D01*
X148297881Y-97984407D01*
X148281789Y-97907929D01*
X148248045Y-97680941D01*
X148228591Y-97431066D01*
X148223371Y-97168745D01*
X148232329Y-96904420D01*
X148255409Y-96648534D01*
X148289703Y-96426217D01*
X148358279Y-96131665D01*
X148446588Y-95865185D01*
X148556320Y-95623364D01*
X148689167Y-95402790D01*
X148846819Y-95200052D01*
X148954471Y-95085101D01*
X149146447Y-94914116D01*
X149359318Y-94764959D01*
X149595037Y-94636787D01*
X149855554Y-94528758D01*
X150142820Y-94440030D01*
X150458788Y-94369762D01*
X150703643Y-94330334D01*
X150749934Y-94324322D01*
X150797923Y-94319087D01*
X150850342Y-94314575D01*
X150909925Y-94310733D01*
X150979405Y-94307509D01*
X151061514Y-94304850D01*
X151158986Y-94302704D01*
X151274553Y-94301017D01*
X151410949Y-94299736D01*
X151570907Y-94298810D01*
X151757159Y-94298185D01*
X151972439Y-94297809D01*
X152219479Y-94297628D01*
X152400000Y-94297591D01*
X153860500Y-94297500D01*
X153865090Y-97286536D01*
X153869679Y-100275571D01*
X154921857Y-100275571D01*
X154921857Y-97088964D01*
X154921846Y-96658729D01*
X154921803Y-96263306D01*
X154921716Y-95901218D01*
X154921572Y-95570993D01*
X154921359Y-95271156D01*
X154921064Y-95000231D01*
X154920675Y-94756745D01*
X154920178Y-94539222D01*
X154919561Y-94346190D01*
X154918811Y-94176171D01*
X154917917Y-94027693D01*
X154916864Y-93899281D01*
X154915641Y-93789460D01*
X154914234Y-93696756D01*
X154912632Y-93619694D01*
X154910821Y-93556799D01*
X154908789Y-93506597D01*
X154906524Y-93467614D01*
X154904011Y-93438374D01*
X154901240Y-93417404D01*
X154898197Y-93403229D01*
X154894869Y-93394374D01*
X154891245Y-93389365D01*
X154890107Y-93388399D01*
X154881047Y-93385461D01*
X154861010Y-93382759D01*
X154828627Y-93380284D01*
X154782526Y-93378026D01*
X154721337Y-93375975D01*
X154643689Y-93374122D01*
X154548212Y-93372458D01*
X154433535Y-93370973D01*
X154298288Y-93369657D01*
X154141099Y-93368502D01*
X153960599Y-93367498D01*
X153755416Y-93366635D01*
X153524181Y-93365904D01*
X153265522Y-93365295D01*
X152978068Y-93364800D01*
X152660450Y-93364408D01*
X152311296Y-93364111D01*
X151929237Y-93363898D01*
X151512900Y-93363761D01*
X151306893Y-93363720D01*
X147755429Y-93363143D01*
X147755429Y-90208111D01*
X147320000Y-90208111D01*
X147319978Y-90595963D01*
X147319903Y-90949125D01*
X147319758Y-91269192D01*
X147319529Y-91557760D01*
X147319200Y-91816425D01*
X147318756Y-92046781D01*
X147318181Y-92250424D01*
X147317460Y-92428951D01*
X147316579Y-92583956D01*
X147315520Y-92717034D01*
X147314270Y-92829782D01*
X147312813Y-92923795D01*
X147311133Y-93000669D01*
X147309215Y-93061998D01*
X147307044Y-93109379D01*
X147304604Y-93144406D01*
X147301881Y-93168677D01*
X147298858Y-93183785D01*
X147295521Y-93191326D01*
X147291853Y-93192897D01*
X147291302Y-93192727D01*
X147267529Y-93190383D01*
X147211387Y-93188209D01*
X147126794Y-93186260D01*
X147017666Y-93184589D01*
X146887922Y-93183251D01*
X146741478Y-93182299D01*
X146582250Y-93181788D01*
X146493016Y-93181714D01*
X145723429Y-93181714D01*
X145723429Y-91694000D01*
X145723532Y-91416868D01*
X145723863Y-91174073D01*
X145724451Y-90963666D01*
X145725325Y-90783700D01*
X145726515Y-90632225D01*
X145728051Y-90507294D01*
X145729962Y-90406957D01*
X145732279Y-90329268D01*
X145735031Y-90272276D01*
X145738247Y-90234035D01*
X145741958Y-90212596D01*
X145746107Y-90206008D01*
X145759376Y-90202035D01*
X145746507Y-90191577D01*
X145739579Y-90179228D01*
X145734954Y-90150083D01*
X145732593Y-90100573D01*
X145732454Y-90027130D01*
X145734498Y-89926184D01*
X145738684Y-89794165D01*
X145741217Y-89724676D01*
X145746764Y-89576539D01*
X145752648Y-89418857D01*
X145758476Y-89262181D01*
X145763856Y-89117061D01*
X145768396Y-88994045D01*
X145769685Y-88958964D01*
X145772834Y-88848196D01*
X145773588Y-88757249D01*
X145772019Y-88690648D01*
X145768200Y-88652914D01*
X145764695Y-88646000D01*
X145754701Y-88662638D01*
X145741008Y-88707465D01*
X145725718Y-88772851D01*
X145715898Y-88822893D01*
X145675177Y-89042310D01*
X145638062Y-89234195D01*
X145602756Y-89406893D01*
X145567458Y-89568754D01*
X145530369Y-89728124D01*
X145489691Y-89893352D01*
X145460765Y-90006714D01*
X145359965Y-90397349D01*
X145267841Y-90754326D01*
X145184011Y-91079127D01*
X145108093Y-91373230D01*
X145039703Y-91638115D01*
X144978458Y-91875263D01*
X144923976Y-92086152D01*
X144875874Y-92272263D01*
X144833769Y-92435074D01*
X144797278Y-92576067D01*
X144766019Y-92696720D01*
X144739608Y-92798513D01*
X144717662Y-92882927D01*
X144699800Y-92951439D01*
X144685637Y-93005532D01*
X144674791Y-93046683D01*
X144666879Y-93076373D01*
X144661519Y-93096081D01*
X144660406Y-93100071D01*
X144634920Y-93190786D01*
X142920860Y-93182794D01*
X142851189Y-92896504D01*
X142826677Y-92795923D01*
X142795741Y-92669207D01*
X142760608Y-92525461D01*
X142723503Y-92373787D01*
X142686652Y-92223292D01*
X142665872Y-92138500D01*
X142628233Y-91984850D01*
X142587201Y-91817144D01*
X142545486Y-91646471D01*
X142505797Y-91483917D01*
X142470844Y-91340573D01*
X142457503Y-91285786D01*
X142424545Y-91150411D01*
X142385904Y-90991765D01*
X142344499Y-90821831D01*
X142303249Y-90652589D01*
X142265074Y-90496021D01*
X142256358Y-90460286D01*
X142222035Y-90319450D01*
X142186358Y-90172854D01*
X142151573Y-90029738D01*
X142119926Y-89899343D01*
X142093661Y-89790911D01*
X142084431Y-89752714D01*
X142059643Y-89650203D01*
X142035643Y-89551265D01*
X142014772Y-89465525D01*
X141999370Y-89402609D01*
X141996223Y-89389857D01*
X141984400Y-89338079D01*
X141967607Y-89259139D01*
X141947595Y-89161530D01*
X141926116Y-89053749D01*
X141912078Y-88981643D01*
X141891712Y-88879583D01*
X141872448Y-88789637D01*
X141855720Y-88718012D01*
X141842964Y-88670914D01*
X141836589Y-88655072D01*
X141830796Y-88664311D01*
X141827738Y-88704822D01*
X141827573Y-88771686D01*
X141830217Y-88854643D01*
X141832238Y-88916325D01*
X141834230Y-89008091D01*
X141836182Y-89127225D01*
X141838084Y-89271010D01*
X141839925Y-89436731D01*
X141841695Y-89621671D01*
X141843383Y-89823116D01*
X141844978Y-90038348D01*
X141846471Y-90264653D01*
X141847850Y-90499314D01*
X141849105Y-90739616D01*
X141850226Y-90982841D01*
X141851201Y-91226276D01*
X141852022Y-91467203D01*
X141852676Y-91702907D01*
X141853153Y-91930672D01*
X141853443Y-92147782D01*
X141853536Y-92351521D01*
X141853420Y-92539174D01*
X141853085Y-92708023D01*
X141852522Y-92855355D01*
X141851718Y-92978451D01*
X141850664Y-93074598D01*
X141849350Y-93141078D01*
X141847764Y-93175177D01*
X141846983Y-93179217D01*
X141826337Y-93181417D01*
X141772965Y-93183283D01*
X141690427Y-93184790D01*
X141582281Y-93185911D01*
X141452085Y-93186619D01*
X141303400Y-93186888D01*
X141139782Y-93186692D01*
X140964792Y-93186004D01*
X140947322Y-93185910D01*
X140062857Y-93181034D01*
X140062857Y-87212714D01*
X142728459Y-87212714D01*
X142747696Y-87284156D01*
X142758211Y-87325656D01*
X142775032Y-87394898D01*
X142796337Y-87484261D01*
X142820305Y-87586122D01*
X142837655Y-87660620D01*
X142854105Y-87731133D01*
X142878036Y-87833087D01*
X142908536Y-87962624D01*
X142944692Y-88115884D01*
X142985593Y-88289007D01*
X143030326Y-88478134D01*
X143077980Y-88679405D01*
X143127642Y-88888960D01*
X143178401Y-89102940D01*
X143199134Y-89190286D01*
X143263870Y-89463487D01*
X143320680Y-89704571D01*
X143370239Y-89916674D01*
X143413221Y-90102931D01*
X143450301Y-90266478D01*
X143482155Y-90410448D01*
X143509457Y-90537977D01*
X143532882Y-90652201D01*
X143553106Y-90756255D01*
X143570803Y-90853273D01*
X143586648Y-90946390D01*
X143601316Y-91038743D01*
X143611207Y-91104357D01*
X143624713Y-91191506D01*
X143635741Y-91248658D01*
X143645247Y-91274829D01*
X143654183Y-91269032D01*
X143663507Y-91230281D01*
X143674172Y-91157589D01*
X143687132Y-91049970D01*
X143690250Y-91022714D01*
X143698127Y-90958545D01*
X143707602Y-90892307D01*
X143719302Y-90821252D01*
X143733854Y-90742629D01*
X143751886Y-90653689D01*
X143774024Y-90551680D01*
X143800897Y-90433854D01*
X143833132Y-90297460D01*
X143871357Y-90139748D01*
X143916198Y-89957968D01*
X143968283Y-89749371D01*
X144028240Y-89511205D01*
X144096696Y-89240722D01*
X144097984Y-89235643D01*
X144151652Y-89023970D01*
X144205799Y-88810343D01*
X144259232Y-88599477D01*
X144310756Y-88396086D01*
X144359178Y-88204883D01*
X144403305Y-88030583D01*
X144441941Y-87877901D01*
X144473894Y-87751550D01*
X144495434Y-87666286D01*
X144607643Y-87221786D01*
X145963821Y-87217135D01*
X147320000Y-87212483D01*
X147320000Y-90208111D01*
X147755429Y-90208111D01*
X147755429Y-89853984D01*
X147755373Y-89499522D01*
X147755208Y-89154607D01*
X147754940Y-88821004D01*
X147754575Y-88500479D01*
X147754117Y-88194797D01*
X147753573Y-87905724D01*
X147752948Y-87635026D01*
X147752247Y-87384468D01*
X147751476Y-87155816D01*
X147750641Y-86950835D01*
X147749746Y-86771292D01*
X147748798Y-86618951D01*
X147747801Y-86495579D01*
X147746762Y-86402940D01*
X147745686Y-86342801D01*
X147744578Y-86316927D01*
X147744416Y-86316127D01*
X147740897Y-86312907D01*
X147731988Y-86309934D01*
X147716305Y-86307200D01*
X147692467Y-86304694D01*
X147659090Y-86302407D01*
X147614794Y-86300328D01*
X147558194Y-86298448D01*
X147487908Y-86296757D01*
X147402555Y-86295245D01*
X147300752Y-86293903D01*
X147181115Y-86292720D01*
X147042263Y-86291688D01*
X146882813Y-86290796D01*
X146701383Y-86290034D01*
X146496590Y-86289393D01*
X146267052Y-86288862D01*
X146011387Y-86288433D01*
X145728210Y-86288095D01*
X145416142Y-86287838D01*
X145073798Y-86287653D01*
X144699796Y-86287530D01*
X144292755Y-86287459D01*
X143851290Y-86287430D01*
X143689488Y-86287429D01*
X139645572Y-86287429D01*
X139645572Y-93689632D01*
G36*
X146556634Y-94164609D02*
X146374735Y-94165423D01*
X146320943Y-94165756D01*
X145587357Y-94170500D01*
X145578286Y-96057357D01*
X145569214Y-97944214D01*
X144725571Y-97953286D01*
X143881929Y-97962357D01*
X143881929Y-99105357D01*
X145470842Y-99109991D01*
X145707823Y-99110546D01*
X145934384Y-99110811D01*
X146147902Y-99110797D01*
X146345756Y-99110519D01*
X146525323Y-99109987D01*
X146683981Y-99109215D01*
X146819108Y-99108215D01*
X146928082Y-99106999D01*
X147008281Y-99105579D01*
X147057083Y-99103968D01*
X147071949Y-99102432D01*
X147073721Y-99082868D01*
X147075343Y-99029576D01*
X147076816Y-98945117D01*
X147078142Y-98832046D01*
X147079322Y-98692924D01*
X147080358Y-98530308D01*
X147081251Y-98346756D01*
X147082002Y-98144828D01*
X147082614Y-97927080D01*
X147083087Y-97696073D01*
X147083424Y-97454363D01*
X147083625Y-97204510D01*
X147083693Y-96949071D01*
X147083628Y-96690606D01*
X147083433Y-96431671D01*
X147083108Y-96174827D01*
X147082656Y-95922630D01*
X147082077Y-95677640D01*
X147081373Y-95442414D01*
X147080547Y-95219512D01*
X147079598Y-95011490D01*
X147078529Y-94820909D01*
X147077342Y-94650325D01*
X147076037Y-94502298D01*
X147074616Y-94379386D01*
X147073082Y-94284146D01*
X147071434Y-94219138D01*
X147069676Y-94186920D01*
X147069058Y-94183899D01*
X147057848Y-94177992D01*
X147030623Y-94173249D01*
X146984594Y-94169600D01*
X146916970Y-94166980D01*
X146824962Y-94165320D01*
X146705780Y-94164552D01*
X146556634Y-94164609D01*
X146556634Y-94164609D01*
G37*
X146556634Y-94164609D02*
X146374735Y-94165423D01*
X146320943Y-94165756D01*
X145587357Y-94170500D01*
X145578286Y-96057357D01*
X145569214Y-97944214D01*
X144725571Y-97953286D01*
X143881929Y-97962357D01*
X143881929Y-99105357D01*
X145470842Y-99109991D01*
X145707823Y-99110546D01*
X145934384Y-99110811D01*
X146147902Y-99110797D01*
X146345756Y-99110519D01*
X146525323Y-99109987D01*
X146683981Y-99109215D01*
X146819108Y-99108215D01*
X146928082Y-99106999D01*
X147008281Y-99105579D01*
X147057083Y-99103968D01*
X147071949Y-99102432D01*
X147073721Y-99082868D01*
X147075343Y-99029576D01*
X147076816Y-98945117D01*
X147078142Y-98832046D01*
X147079322Y-98692924D01*
X147080358Y-98530308D01*
X147081251Y-98346756D01*
X147082002Y-98144828D01*
X147082614Y-97927080D01*
X147083087Y-97696073D01*
X147083424Y-97454363D01*
X147083625Y-97204510D01*
X147083693Y-96949071D01*
X147083628Y-96690606D01*
X147083433Y-96431671D01*
X147083108Y-96174827D01*
X147082656Y-95922630D01*
X147082077Y-95677640D01*
X147081373Y-95442414D01*
X147080547Y-95219512D01*
X147079598Y-95011490D01*
X147078529Y-94820909D01*
X147077342Y-94650325D01*
X147076037Y-94502298D01*
X147074616Y-94379386D01*
X147073082Y-94284146D01*
X147071434Y-94219138D01*
X147069676Y-94186920D01*
X147069058Y-94183899D01*
X147057848Y-94177992D01*
X147030623Y-94173249D01*
X146984594Y-94169600D01*
X146916970Y-94166980D01*
X146824962Y-94165320D01*
X146705780Y-94164552D01*
X146556634Y-94164609D01*
G36*
X150066281Y-87933623D02*
X149946501Y-87935799D01*
X149835472Y-87939873D01*
X149740090Y-87945719D01*
X149667251Y-87953214D01*
X149624143Y-87962125D01*
X149590721Y-87970298D01*
X149537043Y-87979743D01*
X149508130Y-87983936D01*
X149372158Y-88013022D01*
X149223471Y-88063145D01*
X149071954Y-88129515D01*
X148927490Y-88207342D01*
X148799966Y-88291837D01*
X148703742Y-88373690D01*
X148581793Y-88511206D01*
X148491083Y-88651525D01*
X148428517Y-88801858D01*
X148391000Y-88969411D01*
X148376257Y-89136644D01*
X148379844Y-89347971D01*
X148409102Y-89537542D01*
X148465542Y-89710679D01*
X148550679Y-89872701D01*
X148609922Y-89958521D01*
X148717581Y-90076808D01*
X148851408Y-90183553D01*
X149001660Y-90272394D01*
X149158590Y-90336967D01*
X149213737Y-90352769D01*
X149262742Y-90367843D01*
X149292934Y-90382395D01*
X149297572Y-90388273D01*
X149281532Y-90399824D01*
X149241255Y-90411706D01*
X149221998Y-90415436D01*
X149121413Y-90439189D01*
X149005909Y-90476959D01*
X148891052Y-90523080D01*
X148793027Y-90571540D01*
X148701939Y-90633557D01*
X148605141Y-90717199D01*
X148511538Y-90813178D01*
X148430034Y-90912206D01*
X148369533Y-91004995D01*
X148360264Y-91022951D01*
X148311612Y-91132022D01*
X148278148Y-91232848D01*
X148257966Y-91335863D01*
X148249157Y-91451502D01*
X148249817Y-91590200D01*
X148250909Y-91621429D01*
X148257526Y-91735424D01*
X148267724Y-91841293D01*
X148280350Y-91928737D01*
X148290492Y-91975214D01*
X148363949Y-92175524D01*
X148467922Y-92356894D01*
X148601606Y-92518704D01*
X148764198Y-92660335D01*
X148954891Y-92781166D01*
X149172881Y-92880578D01*
X149417364Y-92957951D01*
X149624143Y-93002291D01*
X149718801Y-93015534D01*
X149837824Y-93027218D01*
X149972021Y-93036914D01*
X150112200Y-93044197D01*
X150249169Y-93048639D01*
X150373737Y-93049812D01*
X150476712Y-93047289D01*
X150522214Y-93044035D01*
X150723903Y-93022110D01*
X150897486Y-92998547D01*
X151051145Y-92971835D01*
X151193060Y-92940467D01*
X151331411Y-92902930D01*
X151399426Y-92882130D01*
X151547286Y-92835421D01*
X151547286Y-92264711D01*
X151547080Y-92103193D01*
X151546356Y-91974453D01*
X151544953Y-91874987D01*
X151542710Y-91801288D01*
X151539467Y-91749851D01*
X151535063Y-91717171D01*
X151529338Y-91699742D01*
X151522130Y-91694059D01*
X151521142Y-91694000D01*
X151491230Y-91703571D01*
X151485210Y-91709838D01*
X151460966Y-91727861D01*
X151409179Y-91753845D01*
X151336960Y-91784993D01*
X151251422Y-91818509D01*
X151159675Y-91851596D01*
X151068832Y-91881457D01*
X150992561Y-91903572D01*
X150919086Y-91921920D01*
X150852280Y-91935232D01*
X150783307Y-91944453D01*
X150703330Y-91950525D01*
X150603510Y-91954391D01*
X150495000Y-91956672D01*
X150390758Y-91957851D01*
X150298969Y-91957836D01*
X150225849Y-91956714D01*
X150177612Y-91954569D01*
X150160909Y-91952064D01*
X150131368Y-91943116D01*
X150097409Y-91938353D01*
X150058232Y-91928084D01*
X149999946Y-91904744D01*
X149934923Y-91873306D01*
X149932652Y-91872107D01*
X149856557Y-91826576D01*
X149803100Y-91779768D01*
X149760534Y-91721898D01*
X149731767Y-91670941D01*
X149715453Y-91625543D01*
X149708275Y-91571752D01*
X149706918Y-91496238D01*
X149712357Y-91396822D01*
X149730957Y-91320890D01*
X149767781Y-91256552D01*
X149827895Y-91191921D01*
X149842140Y-91178831D01*
X149913907Y-91121993D01*
X149992888Y-91076753D01*
X150083791Y-91042034D01*
X150191328Y-91016756D01*
X150320207Y-90999841D01*
X150475140Y-90990210D01*
X150660835Y-90986786D01*
X150680964Y-90986744D01*
X151039286Y-90986429D01*
X151039286Y-89900411D01*
X150753536Y-89891130D01*
X150648113Y-89887302D01*
X150548909Y-89882968D01*
X150464602Y-89878561D01*
X150403870Y-89874510D01*
X150386143Y-89872875D01*
X150327503Y-89866735D01*
X150279118Y-89862181D01*
X150268214Y-89861314D01*
X150247037Y-89859013D01*
X150224107Y-89853494D01*
X150191147Y-89841904D01*
X150139878Y-89821389D01*
X150077894Y-89795708D01*
X150004642Y-89755100D01*
X149934572Y-89698993D01*
X149876633Y-89636187D01*
X149839770Y-89575482D01*
X149833194Y-89555002D01*
X149827247Y-89511889D01*
X149830204Y-89486345D01*
X149830902Y-89485479D01*
X149830430Y-89464713D01*
X149821995Y-89451286D01*
X149811705Y-89419869D01*
X149815649Y-89406372D01*
X149825895Y-89374302D01*
X149832408Y-89326336D01*
X149832514Y-89324665D01*
X149852584Y-89250850D01*
X149899168Y-89176712D01*
X149964535Y-89113925D01*
X149978519Y-89104191D01*
X150054384Y-89062870D01*
X150139547Y-89034435D01*
X150240761Y-89017698D01*
X150364781Y-89011470D01*
X150493683Y-89013571D01*
X150686115Y-89028233D01*
X150858392Y-89059079D01*
X151024314Y-89109508D01*
X151197684Y-89182919D01*
X151215107Y-89191243D01*
X151282953Y-89222973D01*
X151339199Y-89247497D01*
X151375356Y-89261192D01*
X151382929Y-89262857D01*
X151389173Y-89246822D01*
X151394161Y-89198194D01*
X151397919Y-89116194D01*
X151400476Y-89000040D01*
X151401859Y-88848952D01*
X151402143Y-88720346D01*
X151402143Y-88177835D01*
X151343179Y-88155220D01*
X151301195Y-88139364D01*
X151276355Y-88130442D01*
X151275143Y-88130073D01*
X151252726Y-88124028D01*
X151216179Y-88114282D01*
X151180166Y-88099377D01*
X151166286Y-88083795D01*
X151153120Y-88073760D01*
X151140907Y-88076306D01*
X151111463Y-88074111D01*
X151103367Y-88066370D01*
X151082464Y-88054137D01*
X151075661Y-88056302D01*
X151050444Y-88056780D01*
X151004831Y-88046828D01*
X150981665Y-88039718D01*
X150913266Y-88019654D01*
X150843582Y-88003244D01*
X150830643Y-88000808D01*
X150780099Y-87990185D01*
X150744765Y-87979605D01*
X150739929Y-87977295D01*
X150709832Y-87968306D01*
X150667357Y-87962729D01*
X150620125Y-87958777D01*
X150553056Y-87952365D01*
X150495000Y-87946389D01*
X150409173Y-87939728D01*
X150304513Y-87935463D01*
X150187917Y-87933470D01*
X150066281Y-87933623D01*
X150066281Y-87933623D01*
G37*
X150066281Y-87933623D02*
X149946501Y-87935799D01*
X149835472Y-87939873D01*
X149740090Y-87945719D01*
X149667251Y-87953214D01*
X149624143Y-87962125D01*
X149590721Y-87970298D01*
X149537043Y-87979743D01*
X149508130Y-87983936D01*
X149372158Y-88013022D01*
X149223471Y-88063145D01*
X149071954Y-88129515D01*
X148927490Y-88207342D01*
X148799966Y-88291837D01*
X148703742Y-88373690D01*
X148581793Y-88511206D01*
X148491083Y-88651525D01*
X148428517Y-88801858D01*
X148391000Y-88969411D01*
X148376257Y-89136644D01*
X148379844Y-89347971D01*
X148409102Y-89537542D01*
X148465542Y-89710679D01*
X148550679Y-89872701D01*
X148609922Y-89958521D01*
X148717581Y-90076808D01*
X148851408Y-90183553D01*
X149001660Y-90272394D01*
X149158590Y-90336967D01*
X149213737Y-90352769D01*
X149262742Y-90367843D01*
X149292934Y-90382395D01*
X149297572Y-90388273D01*
X149281532Y-90399824D01*
X149241255Y-90411706D01*
X149221998Y-90415436D01*
X149121413Y-90439189D01*
X149005909Y-90476959D01*
X148891052Y-90523080D01*
X148793027Y-90571540D01*
X148701939Y-90633557D01*
X148605141Y-90717199D01*
X148511538Y-90813178D01*
X148430034Y-90912206D01*
X148369533Y-91004995D01*
X148360264Y-91022951D01*
X148311612Y-91132022D01*
X148278148Y-91232848D01*
X148257966Y-91335863D01*
X148249157Y-91451502D01*
X148249817Y-91590200D01*
X148250909Y-91621429D01*
X148257526Y-91735424D01*
X148267724Y-91841293D01*
X148280350Y-91928737D01*
X148290492Y-91975214D01*
X148363949Y-92175524D01*
X148467922Y-92356894D01*
X148601606Y-92518704D01*
X148764198Y-92660335D01*
X148954891Y-92781166D01*
X149172881Y-92880578D01*
X149417364Y-92957951D01*
X149624143Y-93002291D01*
X149718801Y-93015534D01*
X149837824Y-93027218D01*
X149972021Y-93036914D01*
X150112200Y-93044197D01*
X150249169Y-93048639D01*
X150373737Y-93049812D01*
X150476712Y-93047289D01*
X150522214Y-93044035D01*
X150723903Y-93022110D01*
X150897486Y-92998547D01*
X151051145Y-92971835D01*
X151193060Y-92940467D01*
X151331411Y-92902930D01*
X151399426Y-92882130D01*
X151547286Y-92835421D01*
X151547286Y-92264711D01*
X151547080Y-92103193D01*
X151546356Y-91974453D01*
X151544953Y-91874987D01*
X151542710Y-91801288D01*
X151539467Y-91749851D01*
X151535063Y-91717171D01*
X151529338Y-91699742D01*
X151522130Y-91694059D01*
X151521142Y-91694000D01*
X151491230Y-91703571D01*
X151485210Y-91709838D01*
X151460966Y-91727861D01*
X151409179Y-91753845D01*
X151336960Y-91784993D01*
X151251422Y-91818509D01*
X151159675Y-91851596D01*
X151068832Y-91881457D01*
X150992561Y-91903572D01*
X150919086Y-91921920D01*
X150852280Y-91935232D01*
X150783307Y-91944453D01*
X150703330Y-91950525D01*
X150603510Y-91954391D01*
X150495000Y-91956672D01*
X150390758Y-91957851D01*
X150298969Y-91957836D01*
X150225849Y-91956714D01*
X150177612Y-91954569D01*
X150160909Y-91952064D01*
X150131368Y-91943116D01*
X150097409Y-91938353D01*
X150058232Y-91928084D01*
X149999946Y-91904744D01*
X149934923Y-91873306D01*
X149932652Y-91872107D01*
X149856557Y-91826576D01*
X149803100Y-91779768D01*
X149760534Y-91721898D01*
X149731767Y-91670941D01*
X149715453Y-91625543D01*
X149708275Y-91571752D01*
X149706918Y-91496238D01*
X149712357Y-91396822D01*
X149730957Y-91320890D01*
X149767781Y-91256552D01*
X149827895Y-91191921D01*
X149842140Y-91178831D01*
X149913907Y-91121993D01*
X149992888Y-91076753D01*
X150083791Y-91042034D01*
X150191328Y-91016756D01*
X150320207Y-90999841D01*
X150475140Y-90990210D01*
X150660835Y-90986786D01*
X150680964Y-90986744D01*
X151039286Y-90986429D01*
X151039286Y-89900411D01*
X150753536Y-89891130D01*
X150648113Y-89887302D01*
X150548909Y-89882968D01*
X150464602Y-89878561D01*
X150403870Y-89874510D01*
X150386143Y-89872875D01*
X150327503Y-89866735D01*
X150279118Y-89862181D01*
X150268214Y-89861314D01*
X150247037Y-89859013D01*
X150224107Y-89853494D01*
X150191147Y-89841904D01*
X150139878Y-89821389D01*
X150077894Y-89795708D01*
X150004642Y-89755100D01*
X149934572Y-89698993D01*
X149876633Y-89636187D01*
X149839770Y-89575482D01*
X149833194Y-89555002D01*
X149827247Y-89511889D01*
X149830204Y-89486345D01*
X149830902Y-89485479D01*
X149830430Y-89464713D01*
X149821995Y-89451286D01*
X149811705Y-89419869D01*
X149815649Y-89406372D01*
X149825895Y-89374302D01*
X149832408Y-89326336D01*
X149832514Y-89324665D01*
X149852584Y-89250850D01*
X149899168Y-89176712D01*
X149964535Y-89113925D01*
X149978519Y-89104191D01*
X150054384Y-89062870D01*
X150139547Y-89034435D01*
X150240761Y-89017698D01*
X150364781Y-89011470D01*
X150493683Y-89013571D01*
X150686115Y-89028233D01*
X150858392Y-89059079D01*
X151024314Y-89109508D01*
X151197684Y-89182919D01*
X151215107Y-89191243D01*
X151282953Y-89222973D01*
X151339199Y-89247497D01*
X151375356Y-89261192D01*
X151382929Y-89262857D01*
X151389173Y-89246822D01*
X151394161Y-89198194D01*
X151397919Y-89116194D01*
X151400476Y-89000040D01*
X151401859Y-88848952D01*
X151402143Y-88720346D01*
X151402143Y-88177835D01*
X151343179Y-88155220D01*
X151301195Y-88139364D01*
X151276355Y-88130442D01*
X151275143Y-88130073D01*
X151252726Y-88124028D01*
X151216179Y-88114282D01*
X151180166Y-88099377D01*
X151166286Y-88083795D01*
X151153120Y-88073760D01*
X151140907Y-88076306D01*
X151111463Y-88074111D01*
X151103367Y-88066370D01*
X151082464Y-88054137D01*
X151075661Y-88056302D01*
X151050444Y-88056780D01*
X151004831Y-88046828D01*
X150981665Y-88039718D01*
X150913266Y-88019654D01*
X150843582Y-88003244D01*
X150830643Y-88000808D01*
X150780099Y-87990185D01*
X150744765Y-87979605D01*
X150739929Y-87977295D01*
X150709832Y-87968306D01*
X150667357Y-87962729D01*
X150620125Y-87958777D01*
X150553056Y-87952365D01*
X150495000Y-87946389D01*
X150409173Y-87939728D01*
X150304513Y-87935463D01*
X150187917Y-87933470D01*
X150066281Y-87933623D01*
G36*
X151660679Y-95726516D02*
X151508965Y-95731135D01*
X151386372Y-95737596D01*
X151285738Y-95747317D01*
X151199901Y-95761718D01*
X151121697Y-95782218D01*
X151043965Y-95810237D01*
X150959543Y-95847193D01*
X150894143Y-95878405D01*
X150809945Y-95921680D01*
X150742294Y-95963349D01*
X150679957Y-96011695D01*
X150611704Y-96074998D01*
X150567571Y-96119192D01*
X150488953Y-96202587D01*
X150429613Y-96275308D01*
X150380660Y-96349555D01*
X150333205Y-96437526D01*
X150328010Y-96447930D01*
X150248109Y-96633506D01*
X150194133Y-96820164D01*
X150163118Y-97019741D01*
X150154746Y-97139895D01*
X150156839Y-97400032D01*
X150185880Y-97647070D01*
X150240938Y-97877771D01*
X150321079Y-98088899D01*
X150425371Y-98277219D01*
X150517775Y-98400252D01*
X150616185Y-98507027D01*
X150712287Y-98590941D01*
X150819079Y-98662029D01*
X150937915Y-98724721D01*
X151042356Y-98770625D01*
X151146857Y-98805615D01*
X151258413Y-98830890D01*
X151384022Y-98847645D01*
X151530679Y-98857078D01*
X151705380Y-98860386D01*
X151731091Y-98860429D01*
X152037143Y-98860429D01*
X152037143Y-95717206D01*
X151660679Y-95726516D01*
X151660679Y-95726516D01*
G37*
X151660679Y-95726516D02*
X151508965Y-95731135D01*
X151386372Y-95737596D01*
X151285738Y-95747317D01*
X151199901Y-95761718D01*
X151121697Y-95782218D01*
X151043965Y-95810237D01*
X150959543Y-95847193D01*
X150894143Y-95878405D01*
X150809945Y-95921680D01*
X150742294Y-95963349D01*
X150679957Y-96011695D01*
X150611704Y-96074998D01*
X150567571Y-96119192D01*
X150488953Y-96202587D01*
X150429613Y-96275308D01*
X150380660Y-96349555D01*
X150333205Y-96437526D01*
X150328010Y-96447930D01*
X150248109Y-96633506D01*
X150194133Y-96820164D01*
X150163118Y-97019741D01*
X150154746Y-97139895D01*
X150156839Y-97400032D01*
X150185880Y-97647070D01*
X150240938Y-97877771D01*
X150321079Y-98088899D01*
X150425371Y-98277219D01*
X150517775Y-98400252D01*
X150616185Y-98507027D01*
X150712287Y-98590941D01*
X150819079Y-98662029D01*
X150937915Y-98724721D01*
X151042356Y-98770625D01*
X151146857Y-98805615D01*
X151258413Y-98830890D01*
X151384022Y-98847645D01*
X151530679Y-98857078D01*
X151705380Y-98860386D01*
X151731091Y-98860429D01*
X152037143Y-98860429D01*
X152037143Y-95717206D01*
X151660679Y-95726516D01*
G36*
X148281572Y-97817214D02*
X148290643Y-97826286D01*
X148299714Y-97817214D01*
X148290643Y-97808143D01*
X148281572Y-97817214D01*
X148281572Y-97817214D01*
G37*
X148281572Y-97817214D02*
X148290643Y-97826286D01*
X148299714Y-97817214D01*
X148290643Y-97808143D01*
X148281572Y-97817214D01*
G36*
X148263429Y-96746786D02*
X148272500Y-96755857D01*
X148281572Y-96746786D01*
X148272500Y-96737714D01*
X148263429Y-96746786D01*
X148263429Y-96746786D01*
G37*
X148263429Y-96746786D02*
X148272500Y-96755857D01*
X148281572Y-96746786D01*
X148272500Y-96737714D01*
X148263429Y-96746786D01*
G36*
X142820572Y-92664643D02*
X142829643Y-92673714D01*
X142838714Y-92664643D01*
X142829643Y-92655571D01*
X142820572Y-92664643D01*
X142820572Y-92664643D01*
G37*
X142820572Y-92664643D02*
X142829643Y-92673714D01*
X142838714Y-92664643D01*
X142829643Y-92655571D01*
X142820572Y-92664643D01*
G36*
X142729857Y-92301786D02*
X142738929Y-92310857D01*
X142748000Y-92301786D01*
X142738929Y-92292714D01*
X142729857Y-92301786D01*
X142729857Y-92301786D01*
G37*
X142729857Y-92301786D02*
X142738929Y-92310857D01*
X142748000Y-92301786D01*
X142738929Y-92292714D01*
X142729857Y-92301786D01*
G36*
X142639143Y-91920786D02*
X142648214Y-91929857D01*
X142657286Y-91920786D01*
X142648214Y-91911714D01*
X142639143Y-91920786D01*
X142639143Y-91920786D01*
G37*
X142639143Y-91920786D02*
X142648214Y-91929857D01*
X142657286Y-91920786D01*
X142648214Y-91911714D01*
X142639143Y-91920786D01*
G36*
X142548429Y-91557929D02*
X142557500Y-91567000D01*
X142566572Y-91557929D01*
X142557500Y-91548857D01*
X142548429Y-91557929D01*
X142548429Y-91557929D01*
G37*
X142548429Y-91557929D02*
X142557500Y-91567000D01*
X142566572Y-91557929D01*
X142557500Y-91548857D01*
X142548429Y-91557929D01*
G36*
X143727714Y-90922929D02*
X143736786Y-90932000D01*
X143745857Y-90922929D01*
X143736786Y-90913857D01*
X143727714Y-90922929D01*
X143727714Y-90922929D01*
G37*
X143727714Y-90922929D02*
X143736786Y-90932000D01*
X143745857Y-90922929D01*
X143736786Y-90913857D01*
X143727714Y-90922929D01*
G36*
X142004143Y-89308214D02*
X142013214Y-89317286D01*
X142022286Y-89308214D01*
X142013214Y-89299143D01*
X142004143Y-89308214D01*
X142004143Y-89308214D01*
G37*
X142004143Y-89308214D02*
X142013214Y-89317286D01*
X142022286Y-89308214D01*
X142013214Y-89299143D01*
X142004143Y-89308214D01*
G36*
X144181286Y-89017929D02*
X144190357Y-89027000D01*
X144199429Y-89017929D01*
X144190357Y-89008857D01*
X144181286Y-89017929D01*
X144181286Y-89017929D01*
G37*
X144181286Y-89017929D02*
X144190357Y-89027000D01*
X144199429Y-89017929D01*
X144190357Y-89008857D01*
X144181286Y-89017929D01*
G36*
X144272000Y-88655072D02*
X144281072Y-88664143D01*
X144290143Y-88655072D01*
X144281072Y-88646000D01*
X144272000Y-88655072D01*
X144272000Y-88655072D01*
G37*
X144272000Y-88655072D02*
X144281072Y-88664143D01*
X144290143Y-88655072D01*
X144281072Y-88646000D01*
X144272000Y-88655072D01*
G36*
X144544143Y-87584643D02*
X144553214Y-87593714D01*
X144562286Y-87584643D01*
X144553214Y-87575571D01*
X144544143Y-87584643D01*
X144544143Y-87584643D01*
G37*
X144544143Y-87584643D02*
X144553214Y-87593714D01*
X144562286Y-87584643D01*
X144553214Y-87575571D01*
X144544143Y-87584643D01*
G36*
X164641883Y-70282361D02*
X164618897Y-70297762D01*
X164586179Y-70320639D01*
X164547045Y-70348708D01*
X164542844Y-70351758D01*
X164313533Y-70507949D01*
X164067464Y-70655787D01*
X163806797Y-70794333D01*
X163533694Y-70922645D01*
X163250316Y-71039782D01*
X162958825Y-71144804D01*
X162661382Y-71236768D01*
X162360149Y-71314735D01*
X162298683Y-71328779D01*
X161952115Y-71395939D01*
X161599795Y-71444117D01*
X161243336Y-71473274D01*
X160884348Y-71483367D01*
X160524443Y-71474354D01*
X160165232Y-71446196D01*
X159808326Y-71398849D01*
X159776160Y-71393611D01*
X159718102Y-71383745D01*
X159655906Y-71372734D01*
X159593588Y-71361335D01*
X159535161Y-71350306D01*
X159484639Y-71340406D01*
X159446037Y-71332391D01*
X159423370Y-71327021D01*
X159423100Y-71326944D01*
X159419283Y-71326747D01*
X159416054Y-71329561D01*
X159413365Y-71336932D01*
X159411168Y-71350405D01*
X159409414Y-71371527D01*
X159408055Y-71401844D01*
X159407042Y-71442901D01*
X159406327Y-71496244D01*
X159405861Y-71563419D01*
X159405596Y-71645972D01*
X159405484Y-71745449D01*
X159405476Y-71863395D01*
X159405482Y-71888935D01*
X159406137Y-72123959D01*
X159408001Y-72341367D01*
X159411137Y-72543832D01*
X159415604Y-72734025D01*
X159421463Y-72914618D01*
X159428775Y-73088284D01*
X159435942Y-73228200D01*
X159471154Y-73725314D01*
X159521099Y-74208844D01*
X159585968Y-74679401D01*
X159665952Y-75137593D01*
X159761244Y-75584030D01*
X159872033Y-76019321D01*
X159998511Y-76444076D01*
X160140870Y-76858904D01*
X160299301Y-77264415D01*
X160473994Y-77661219D01*
X160665142Y-78049924D01*
X160872936Y-78431141D01*
X161097566Y-78805478D01*
X161269242Y-79070200D01*
X161465939Y-79355051D01*
X161667507Y-79628391D01*
X161876617Y-79893442D01*
X162095938Y-80153430D01*
X162328140Y-80411577D01*
X162575894Y-80671109D01*
X162691190Y-80787240D01*
X162954197Y-81042485D01*
X163219473Y-81286274D01*
X163490545Y-81521579D01*
X163770942Y-81751373D01*
X164064192Y-81978628D01*
X164373820Y-82206318D01*
X164383720Y-82213416D01*
X164453044Y-82262855D01*
X164508101Y-82301472D01*
X164550957Y-82330538D01*
X164583675Y-82351325D01*
X164608320Y-82365102D01*
X164626956Y-82373142D01*
X164641646Y-82376714D01*
X164649753Y-82377244D01*
X164663827Y-82375766D01*
X164680527Y-82370406D01*
X164702098Y-82359808D01*
X164730788Y-82342619D01*
X164768841Y-82317487D01*
X164818503Y-82283056D01*
X164882022Y-82237973D01*
X164888513Y-82233334D01*
X165307713Y-81922818D01*
X165708426Y-81603907D01*
X166090702Y-81276527D01*
X166454592Y-80940605D01*
X166800146Y-80596066D01*
X167127415Y-80242837D01*
X167436450Y-79880845D01*
X167727301Y-79510016D01*
X168000018Y-79130276D01*
X168254653Y-78741551D01*
X168491256Y-78343769D01*
X168709877Y-77936854D01*
X168910568Y-77520734D01*
X169093377Y-77095335D01*
X169258357Y-76660584D01*
X169405558Y-76216406D01*
X169535030Y-75762727D01*
X169645404Y-75305920D01*
X169704035Y-75024614D01*
X169756643Y-74739022D01*
X169803362Y-74447654D01*
X169844328Y-74149020D01*
X169879673Y-73841628D01*
X169909533Y-73523988D01*
X169934040Y-73194610D01*
X169953330Y-72852002D01*
X169967536Y-72494676D01*
X169976793Y-72121139D01*
X169978935Y-71932435D01*
X169351870Y-71932435D01*
X169346484Y-72148517D01*
X169341284Y-72348811D01*
X169336091Y-72530876D01*
X169330803Y-72696803D01*
X169325320Y-72848683D01*
X169319539Y-72988607D01*
X169313360Y-73118666D01*
X169306682Y-73240951D01*
X169299402Y-73357553D01*
X169291420Y-73470562D01*
X169282634Y-73582070D01*
X169272944Y-73694167D01*
X169270046Y-73726040D01*
X169219089Y-74186249D01*
X169151765Y-74634756D01*
X169067922Y-75072102D01*
X168967410Y-75498825D01*
X168850079Y-75915467D01*
X168715780Y-76322566D01*
X168564362Y-76720665D01*
X168395674Y-77110302D01*
X168239007Y-77434440D01*
X168033715Y-77817068D01*
X167809459Y-78192663D01*
X167566410Y-78561026D01*
X167304739Y-78921960D01*
X167024619Y-79275268D01*
X166726220Y-79620752D01*
X166409713Y-79958217D01*
X166075270Y-80287464D01*
X165723062Y-80608297D01*
X165353259Y-80920518D01*
X164966035Y-81223930D01*
X164912040Y-81264499D01*
X164856435Y-81306095D01*
X164804630Y-81344896D01*
X164759408Y-81378812D01*
X164723555Y-81405754D01*
X164699857Y-81423632D01*
X164693600Y-81428393D01*
X164670104Y-81443903D01*
X164651556Y-81451953D01*
X164649366Y-81452242D01*
X164636791Y-81446661D01*
X164611104Y-81430949D01*
X164575446Y-81407173D01*
X164532958Y-81377397D01*
X164507172Y-81358740D01*
X164113719Y-81060085D01*
X163737922Y-80752865D01*
X163379905Y-80437234D01*
X163039789Y-80113347D01*
X162717697Y-79781356D01*
X162413752Y-79441416D01*
X162128076Y-79093682D01*
X161860791Y-78738306D01*
X161612020Y-78375443D01*
X161381886Y-78005247D01*
X161170510Y-77627871D01*
X160978015Y-77243471D01*
X160804524Y-76852199D01*
X160687426Y-76555600D01*
X160559259Y-76190536D01*
X160445652Y-75818445D01*
X160346342Y-75438033D01*
X160261066Y-75048004D01*
X160189563Y-74647063D01*
X160131569Y-74233917D01*
X160086822Y-73807271D01*
X160061116Y-73466960D01*
X160056929Y-73395619D01*
X160052666Y-73313226D01*
X160048382Y-73221661D01*
X160044133Y-73122803D01*
X160039975Y-73018531D01*
X160035962Y-72910723D01*
X160032150Y-72801259D01*
X160028594Y-72692018D01*
X160025350Y-72584878D01*
X160022473Y-72481720D01*
X160020019Y-72384422D01*
X160018043Y-72294862D01*
X160016600Y-72214921D01*
X160015746Y-72146476D01*
X160015535Y-72091408D01*
X160016025Y-72051595D01*
X160017269Y-72028916D01*
X160018588Y-72024240D01*
X160030140Y-72025461D01*
X160058238Y-72028831D01*
X160099278Y-72033905D01*
X160149650Y-72040240D01*
X160179632Y-72044050D01*
X160552550Y-72083462D01*
X160921893Y-72106267D01*
X161286231Y-72112503D01*
X161644139Y-72102209D01*
X161994187Y-72075423D01*
X162334950Y-72032184D01*
X162638376Y-71978036D01*
X162893664Y-71920108D01*
X163143724Y-71852074D01*
X163386748Y-71774699D01*
X163620932Y-71688747D01*
X163844471Y-71594985D01*
X164055558Y-71494176D01*
X164252390Y-71387085D01*
X164433159Y-71274477D01*
X164596062Y-71157118D01*
X164619254Y-71138825D01*
X164646507Y-71117058D01*
X164715990Y-71168568D01*
X164787056Y-71217736D01*
X164873532Y-71271810D01*
X164971712Y-71328808D01*
X165077888Y-71386749D01*
X165188353Y-71443652D01*
X165299402Y-71497537D01*
X165407325Y-71546421D01*
X165481000Y-71577405D01*
X165783644Y-71689592D01*
X166098561Y-71786216D01*
X166424822Y-71867157D01*
X166761499Y-71932299D01*
X167107662Y-71981524D01*
X167462382Y-72014714D01*
X167824731Y-72031753D01*
X168193780Y-72032521D01*
X168568599Y-72016902D01*
X168808400Y-71998494D01*
X168872199Y-71992438D01*
X168942569Y-71985256D01*
X169016084Y-71977346D01*
X169089318Y-71969111D01*
X169158843Y-71960951D01*
X169221233Y-71953265D01*
X169273060Y-71946456D01*
X169310897Y-71940924D01*
X169329055Y-71937626D01*
X169351870Y-71932435D01*
X169978935Y-71932435D01*
X169981234Y-71729902D01*
X169981692Y-71568478D01*
X169981880Y-71219397D01*
X169959020Y-71224918D01*
X169886990Y-71240894D01*
X169798688Y-71258181D01*
X169698069Y-71276154D01*
X169589091Y-71294192D01*
X169475709Y-71311669D01*
X169361878Y-71327962D01*
X169251555Y-71342448D01*
X169148696Y-71354504D01*
X169113200Y-71358236D01*
X168743455Y-71385966D01*
X168374023Y-71394372D01*
X168005928Y-71383636D01*
X167640194Y-71353942D01*
X167277848Y-71305475D01*
X166919913Y-71238418D01*
X166567413Y-71152954D01*
X166221375Y-71049267D01*
X165882822Y-70927542D01*
X165552779Y-70787961D01*
X165326270Y-70679179D01*
X165224850Y-70626428D01*
X165120233Y-70569221D01*
X165016614Y-70510016D01*
X164918188Y-70451272D01*
X164829151Y-70395448D01*
X164753697Y-70345003D01*
X164741616Y-70336495D01*
X164705878Y-70311460D01*
X164676489Y-70291579D01*
X164657223Y-70279365D01*
X164651820Y-70276720D01*
X164641883Y-70282361D01*
X164641883Y-70282361D01*
G37*
X164641883Y-70282361D02*
X164618897Y-70297762D01*
X164586179Y-70320639D01*
X164547045Y-70348708D01*
X164542844Y-70351758D01*
X164313533Y-70507949D01*
X164067464Y-70655787D01*
X163806797Y-70794333D01*
X163533694Y-70922645D01*
X163250316Y-71039782D01*
X162958825Y-71144804D01*
X162661382Y-71236768D01*
X162360149Y-71314735D01*
X162298683Y-71328779D01*
X161952115Y-71395939D01*
X161599795Y-71444117D01*
X161243336Y-71473274D01*
X160884348Y-71483367D01*
X160524443Y-71474354D01*
X160165232Y-71446196D01*
X159808326Y-71398849D01*
X159776160Y-71393611D01*
X159718102Y-71383745D01*
X159655906Y-71372734D01*
X159593588Y-71361335D01*
X159535161Y-71350306D01*
X159484639Y-71340406D01*
X159446037Y-71332391D01*
X159423370Y-71327021D01*
X159423100Y-71326944D01*
X159419283Y-71326747D01*
X159416054Y-71329561D01*
X159413365Y-71336932D01*
X159411168Y-71350405D01*
X159409414Y-71371527D01*
X159408055Y-71401844D01*
X159407042Y-71442901D01*
X159406327Y-71496244D01*
X159405861Y-71563419D01*
X159405596Y-71645972D01*
X159405484Y-71745449D01*
X159405476Y-71863395D01*
X159405482Y-71888935D01*
X159406137Y-72123959D01*
X159408001Y-72341367D01*
X159411137Y-72543832D01*
X159415604Y-72734025D01*
X159421463Y-72914618D01*
X159428775Y-73088284D01*
X159435942Y-73228200D01*
X159471154Y-73725314D01*
X159521099Y-74208844D01*
X159585968Y-74679401D01*
X159665952Y-75137593D01*
X159761244Y-75584030D01*
X159872033Y-76019321D01*
X159998511Y-76444076D01*
X160140870Y-76858904D01*
X160299301Y-77264415D01*
X160473994Y-77661219D01*
X160665142Y-78049924D01*
X160872936Y-78431141D01*
X161097566Y-78805478D01*
X161269242Y-79070200D01*
X161465939Y-79355051D01*
X161667507Y-79628391D01*
X161876617Y-79893442D01*
X162095938Y-80153430D01*
X162328140Y-80411577D01*
X162575894Y-80671109D01*
X162691190Y-80787240D01*
X162954197Y-81042485D01*
X163219473Y-81286274D01*
X163490545Y-81521579D01*
X163770942Y-81751373D01*
X164064192Y-81978628D01*
X164373820Y-82206318D01*
X164383720Y-82213416D01*
X164453044Y-82262855D01*
X164508101Y-82301472D01*
X164550957Y-82330538D01*
X164583675Y-82351325D01*
X164608320Y-82365102D01*
X164626956Y-82373142D01*
X164641646Y-82376714D01*
X164649753Y-82377244D01*
X164663827Y-82375766D01*
X164680527Y-82370406D01*
X164702098Y-82359808D01*
X164730788Y-82342619D01*
X164768841Y-82317487D01*
X164818503Y-82283056D01*
X164882022Y-82237973D01*
X164888513Y-82233334D01*
X165307713Y-81922818D01*
X165708426Y-81603907D01*
X166090702Y-81276527D01*
X166454592Y-80940605D01*
X166800146Y-80596066D01*
X167127415Y-80242837D01*
X167436450Y-79880845D01*
X167727301Y-79510016D01*
X168000018Y-79130276D01*
X168254653Y-78741551D01*
X168491256Y-78343769D01*
X168709877Y-77936854D01*
X168910568Y-77520734D01*
X169093377Y-77095335D01*
X169258357Y-76660584D01*
X169405558Y-76216406D01*
X169535030Y-75762727D01*
X169645404Y-75305920D01*
X169704035Y-75024614D01*
X169756643Y-74739022D01*
X169803362Y-74447654D01*
X169844328Y-74149020D01*
X169879673Y-73841628D01*
X169909533Y-73523988D01*
X169934040Y-73194610D01*
X169953330Y-72852002D01*
X169967536Y-72494676D01*
X169976793Y-72121139D01*
X169978935Y-71932435D01*
X169351870Y-71932435D01*
X169346484Y-72148517D01*
X169341284Y-72348811D01*
X169336091Y-72530876D01*
X169330803Y-72696803D01*
X169325320Y-72848683D01*
X169319539Y-72988607D01*
X169313360Y-73118666D01*
X169306682Y-73240951D01*
X169299402Y-73357553D01*
X169291420Y-73470562D01*
X169282634Y-73582070D01*
X169272944Y-73694167D01*
X169270046Y-73726040D01*
X169219089Y-74186249D01*
X169151765Y-74634756D01*
X169067922Y-75072102D01*
X168967410Y-75498825D01*
X168850079Y-75915467D01*
X168715780Y-76322566D01*
X168564362Y-76720665D01*
X168395674Y-77110302D01*
X168239007Y-77434440D01*
X168033715Y-77817068D01*
X167809459Y-78192663D01*
X167566410Y-78561026D01*
X167304739Y-78921960D01*
X167024619Y-79275268D01*
X166726220Y-79620752D01*
X166409713Y-79958217D01*
X166075270Y-80287464D01*
X165723062Y-80608297D01*
X165353259Y-80920518D01*
X164966035Y-81223930D01*
X164912040Y-81264499D01*
X164856435Y-81306095D01*
X164804630Y-81344896D01*
X164759408Y-81378812D01*
X164723555Y-81405754D01*
X164699857Y-81423632D01*
X164693600Y-81428393D01*
X164670104Y-81443903D01*
X164651556Y-81451953D01*
X164649366Y-81452242D01*
X164636791Y-81446661D01*
X164611104Y-81430949D01*
X164575446Y-81407173D01*
X164532958Y-81377397D01*
X164507172Y-81358740D01*
X164113719Y-81060085D01*
X163737922Y-80752865D01*
X163379905Y-80437234D01*
X163039789Y-80113347D01*
X162717697Y-79781356D01*
X162413752Y-79441416D01*
X162128076Y-79093682D01*
X161860791Y-78738306D01*
X161612020Y-78375443D01*
X161381886Y-78005247D01*
X161170510Y-77627871D01*
X160978015Y-77243471D01*
X160804524Y-76852199D01*
X160687426Y-76555600D01*
X160559259Y-76190536D01*
X160445652Y-75818445D01*
X160346342Y-75438033D01*
X160261066Y-75048004D01*
X160189563Y-74647063D01*
X160131569Y-74233917D01*
X160086822Y-73807271D01*
X160061116Y-73466960D01*
X160056929Y-73395619D01*
X160052666Y-73313226D01*
X160048382Y-73221661D01*
X160044133Y-73122803D01*
X160039975Y-73018531D01*
X160035962Y-72910723D01*
X160032150Y-72801259D01*
X160028594Y-72692018D01*
X160025350Y-72584878D01*
X160022473Y-72481720D01*
X160020019Y-72384422D01*
X160018043Y-72294862D01*
X160016600Y-72214921D01*
X160015746Y-72146476D01*
X160015535Y-72091408D01*
X160016025Y-72051595D01*
X160017269Y-72028916D01*
X160018588Y-72024240D01*
X160030140Y-72025461D01*
X160058238Y-72028831D01*
X160099278Y-72033905D01*
X160149650Y-72040240D01*
X160179632Y-72044050D01*
X160552550Y-72083462D01*
X160921893Y-72106267D01*
X161286231Y-72112503D01*
X161644139Y-72102209D01*
X161994187Y-72075423D01*
X162334950Y-72032184D01*
X162638376Y-71978036D01*
X162893664Y-71920108D01*
X163143724Y-71852074D01*
X163386748Y-71774699D01*
X163620932Y-71688747D01*
X163844471Y-71594985D01*
X164055558Y-71494176D01*
X164252390Y-71387085D01*
X164433159Y-71274477D01*
X164596062Y-71157118D01*
X164619254Y-71138825D01*
X164646507Y-71117058D01*
X164715990Y-71168568D01*
X164787056Y-71217736D01*
X164873532Y-71271810D01*
X164971712Y-71328808D01*
X165077888Y-71386749D01*
X165188353Y-71443652D01*
X165299402Y-71497537D01*
X165407325Y-71546421D01*
X165481000Y-71577405D01*
X165783644Y-71689592D01*
X166098561Y-71786216D01*
X166424822Y-71867157D01*
X166761499Y-71932299D01*
X167107662Y-71981524D01*
X167462382Y-72014714D01*
X167824731Y-72031753D01*
X168193780Y-72032521D01*
X168568599Y-72016902D01*
X168808400Y-71998494D01*
X168872199Y-71992438D01*
X168942569Y-71985256D01*
X169016084Y-71977346D01*
X169089318Y-71969111D01*
X169158843Y-71960951D01*
X169221233Y-71953265D01*
X169273060Y-71946456D01*
X169310897Y-71940924D01*
X169329055Y-71937626D01*
X169351870Y-71932435D01*
X169978935Y-71932435D01*
X169981234Y-71729902D01*
X169981692Y-71568478D01*
X169981880Y-71219397D01*
X169959020Y-71224918D01*
X169886990Y-71240894D01*
X169798688Y-71258181D01*
X169698069Y-71276154D01*
X169589091Y-71294192D01*
X169475709Y-71311669D01*
X169361878Y-71327962D01*
X169251555Y-71342448D01*
X169148696Y-71354504D01*
X169113200Y-71358236D01*
X168743455Y-71385966D01*
X168374023Y-71394372D01*
X168005928Y-71383636D01*
X167640194Y-71353942D01*
X167277848Y-71305475D01*
X166919913Y-71238418D01*
X166567413Y-71152954D01*
X166221375Y-71049267D01*
X165882822Y-70927542D01*
X165552779Y-70787961D01*
X165326270Y-70679179D01*
X165224850Y-70626428D01*
X165120233Y-70569221D01*
X165016614Y-70510016D01*
X164918188Y-70451272D01*
X164829151Y-70395448D01*
X164753697Y-70345003D01*
X164741616Y-70336495D01*
X164705878Y-70311460D01*
X164676489Y-70291579D01*
X164657223Y-70279365D01*
X164651820Y-70276720D01*
X164641883Y-70282361D01*
G36*
X164524486Y-71376355D02*
X164299215Y-71516493D01*
X164057801Y-71645608D01*
X163801405Y-71763337D01*
X163531184Y-71869312D01*
X163248298Y-71963167D01*
X162953907Y-72044537D01*
X162649171Y-72113056D01*
X162335248Y-72168357D01*
X162013298Y-72210074D01*
X161828480Y-72227485D01*
X161742821Y-72233212D01*
X161641201Y-72237918D01*
X161527954Y-72241555D01*
X161407416Y-72244072D01*
X161283923Y-72245422D01*
X161161808Y-72245555D01*
X161045409Y-72244423D01*
X160939059Y-72241977D01*
X160853120Y-72238486D01*
X160781120Y-72234343D01*
X160701855Y-72229103D01*
X160618456Y-72223037D01*
X160534051Y-72216413D01*
X160451771Y-72209502D01*
X160374744Y-72202574D01*
X160306100Y-72195899D01*
X160248969Y-72189747D01*
X160206479Y-72184388D01*
X160185100Y-72180847D01*
X160157160Y-72175025D01*
X160157202Y-72371412D01*
X160158447Y-72526715D01*
X160161988Y-72697466D01*
X160167625Y-72878948D01*
X160175159Y-73066442D01*
X160184390Y-73255231D01*
X160195117Y-73440597D01*
X160207142Y-73617822D01*
X160213477Y-73700640D01*
X160257541Y-74150869D01*
X160317096Y-74588471D01*
X160392392Y-75014256D01*
X160483681Y-75429037D01*
X160591213Y-75833626D01*
X160715239Y-76228835D01*
X160856010Y-76615475D01*
X161013776Y-76994359D01*
X161188788Y-77366298D01*
X161381296Y-77732105D01*
X161546723Y-78018640D01*
X161770070Y-78371857D01*
X162012806Y-78719706D01*
X162274634Y-79061851D01*
X162555255Y-79397958D01*
X162854371Y-79727692D01*
X163171686Y-80050717D01*
X163506902Y-80366699D01*
X163859720Y-80675303D01*
X164042073Y-80826275D01*
X164095101Y-80869022D01*
X164154366Y-80916167D01*
X164217853Y-80966166D01*
X164283552Y-81017478D01*
X164349449Y-81068560D01*
X164413533Y-81117870D01*
X164473791Y-81163867D01*
X164528211Y-81205006D01*
X164574781Y-81239748D01*
X164611488Y-81266548D01*
X164636321Y-81283865D01*
X164647266Y-81290157D01*
X164647332Y-81290160D01*
X164656862Y-81284314D01*
X164680163Y-81267953D01*
X164714816Y-81242837D01*
X164758399Y-81210728D01*
X164808493Y-81173386D01*
X164830965Y-81156512D01*
X165223624Y-80850274D01*
X165597321Y-80536789D01*
X165952108Y-80215979D01*
X166288035Y-79887769D01*
X166605154Y-79552083D01*
X166903514Y-79208845D01*
X167183167Y-78857977D01*
X167237548Y-78783265D01*
X165464663Y-78783265D01*
X165459524Y-78813265D01*
X165447346Y-78853307D01*
X165429364Y-78899435D01*
X165406809Y-78947687D01*
X165403130Y-78954821D01*
X165367388Y-79011414D01*
X165320919Y-79068079D01*
X165269412Y-79118666D01*
X165218555Y-79157024D01*
X165213052Y-79160345D01*
X165161729Y-79185515D01*
X165098833Y-79209055D01*
X165033063Y-79227977D01*
X164990907Y-79236717D01*
X164957606Y-79240828D01*
X164916022Y-79243903D01*
X164870635Y-79245882D01*
X164825927Y-79246702D01*
X164786379Y-79246305D01*
X164756471Y-79244628D01*
X164740685Y-79241610D01*
X164739320Y-79240133D01*
X164740036Y-79238116D01*
X164632954Y-79238116D01*
X164631569Y-79249734D01*
X164618105Y-79254724D01*
X164588649Y-79256554D01*
X164547229Y-79255530D01*
X164497875Y-79251958D01*
X164444615Y-79246146D01*
X164391479Y-79238399D01*
X164342496Y-79229025D01*
X164334089Y-79227108D01*
X164241714Y-79198515D01*
X164162275Y-79158082D01*
X164090454Y-79102902D01*
X164068281Y-79081724D01*
X164024336Y-79030375D01*
X163983983Y-78969645D01*
X163950637Y-78905732D01*
X163927716Y-78844839D01*
X163920592Y-78813660D01*
X163913763Y-78770480D01*
X163976450Y-78770480D01*
X164073618Y-78778514D01*
X164172404Y-78801335D01*
X164267862Y-78837017D01*
X164355045Y-78883635D01*
X164429004Y-78939266D01*
X164442105Y-78951630D01*
X164478430Y-78990595D01*
X164515097Y-79035505D01*
X164550090Y-79083186D01*
X164581389Y-79130462D01*
X164606978Y-79174159D01*
X164624839Y-79211101D01*
X164632954Y-79238116D01*
X164740036Y-79238116D01*
X164744644Y-79225145D01*
X164758936Y-79197532D01*
X164779682Y-79161431D01*
X164804365Y-79120982D01*
X164830470Y-79080321D01*
X164855481Y-79043587D01*
X164874179Y-79018315D01*
X164951174Y-78935227D01*
X165038340Y-78869514D01*
X165137053Y-78820231D01*
X165190132Y-78801771D01*
X165231524Y-78790955D01*
X165279437Y-78781176D01*
X165329441Y-78772997D01*
X165377108Y-78766982D01*
X165418008Y-78763694D01*
X165447711Y-78763696D01*
X165461532Y-78767267D01*
X165464663Y-78783265D01*
X167237548Y-78783265D01*
X167444164Y-78499405D01*
X167449672Y-78491080D01*
X164885825Y-78491080D01*
X164885453Y-78550530D01*
X164883874Y-78595186D01*
X164880400Y-78630566D01*
X164874339Y-78662187D01*
X164865002Y-78695569D01*
X164857228Y-78719680D01*
X164831930Y-78787568D01*
X164799193Y-78863088D01*
X164762635Y-78938589D01*
X164725875Y-79006420D01*
X164706658Y-79038035D01*
X164675144Y-79087151D01*
X164630164Y-79017715D01*
X164605779Y-78977485D01*
X164577445Y-78926803D01*
X164549593Y-78873733D01*
X164536196Y-78846680D01*
X164489148Y-78738908D01*
X164457346Y-78639866D01*
X164440493Y-78545196D01*
X164438289Y-78450539D01*
X164450436Y-78351539D01*
X164476637Y-78243838D01*
X164491618Y-78195396D01*
X164506165Y-78155178D01*
X164525525Y-78107942D01*
X164547943Y-78057299D01*
X164571663Y-78006862D01*
X164594928Y-77960243D01*
X164615983Y-77921053D01*
X164633071Y-77892905D01*
X164644436Y-77879411D01*
X164645507Y-77878884D01*
X164658251Y-77884745D01*
X164677360Y-77906440D01*
X164701254Y-77941099D01*
X164728350Y-77985855D01*
X164757066Y-78037840D01*
X164785821Y-78094185D01*
X164813031Y-78152023D01*
X164837116Y-78208485D01*
X164856492Y-78260703D01*
X164857086Y-78262480D01*
X164868858Y-78299674D01*
X164876913Y-78331619D01*
X164881941Y-78363823D01*
X164884637Y-78401794D01*
X164885691Y-78451040D01*
X164885825Y-78491080D01*
X167449672Y-78491080D01*
X167686556Y-78133051D01*
X167910393Y-77758840D01*
X168115727Y-77376695D01*
X168302608Y-76986541D01*
X168471088Y-76588301D01*
X168621216Y-76181898D01*
X168753045Y-75767258D01*
X168866624Y-75344302D01*
X168945182Y-74996040D01*
X169006454Y-74676265D01*
X169058924Y-74351076D01*
X169103000Y-74017274D01*
X169139096Y-73671659D01*
X169156151Y-73456016D01*
X168509058Y-73456016D01*
X168507971Y-73482813D01*
X168502088Y-73499627D01*
X168488080Y-73509791D01*
X168462615Y-73516638D01*
X168422364Y-73523502D01*
X168396920Y-73527763D01*
X168291398Y-73551981D01*
X168203915Y-73585112D01*
X168134553Y-73627110D01*
X168083393Y-73677928D01*
X168057406Y-73720960D01*
X168054199Y-73728160D01*
X168051328Y-73735896D01*
X168048768Y-73745292D01*
X168046497Y-73757472D01*
X168044490Y-73773561D01*
X168042723Y-73794682D01*
X168041173Y-73821960D01*
X168039815Y-73856518D01*
X168038625Y-73899482D01*
X168037581Y-73951976D01*
X168036657Y-74015122D01*
X168035831Y-74090047D01*
X168035078Y-74177873D01*
X168034374Y-74279725D01*
X168033696Y-74396727D01*
X168033020Y-74530004D01*
X168032321Y-74680679D01*
X168031576Y-74849877D01*
X168031099Y-74960480D01*
X168025957Y-76154280D01*
X167997986Y-76243653D01*
X167950279Y-76369754D01*
X167889505Y-76482494D01*
X167813288Y-76585794D01*
X167748078Y-76655969D01*
X167642343Y-76746816D01*
X167521208Y-76826288D01*
X167386608Y-76893607D01*
X167240484Y-76947992D01*
X167084772Y-76988664D01*
X166921411Y-77014843D01*
X166837360Y-77022262D01*
X166789123Y-77025432D01*
X166748117Y-77028227D01*
X166718704Y-77030342D01*
X166705280Y-77031469D01*
X166691653Y-77031192D01*
X166662186Y-77029445D01*
X166621282Y-77026520D01*
X166575626Y-77022896D01*
X166404717Y-77000644D01*
X166243729Y-76963436D01*
X166093556Y-76911956D01*
X165955091Y-76846886D01*
X165829225Y-76768906D01*
X165716851Y-76678699D01*
X165618863Y-76576947D01*
X165536153Y-76464332D01*
X165469613Y-76341535D01*
X165420136Y-76209239D01*
X165398639Y-76123800D01*
X165395221Y-76106255D01*
X165392236Y-76087799D01*
X165389656Y-76066995D01*
X165387450Y-76042404D01*
X165385588Y-76012589D01*
X165384041Y-75976111D01*
X165382780Y-75931533D01*
X165381773Y-75877417D01*
X165380992Y-75812325D01*
X165380406Y-75734819D01*
X165379987Y-75643460D01*
X165379704Y-75536812D01*
X165379527Y-75413436D01*
X165379426Y-75271895D01*
X165379396Y-75194160D01*
X165379192Y-75001606D01*
X165378677Y-74828187D01*
X165377795Y-74672722D01*
X165376493Y-74534026D01*
X165374716Y-74410918D01*
X165372410Y-74302215D01*
X165369521Y-74206733D01*
X165367025Y-74147680D01*
X164536120Y-74147680D01*
X164536120Y-75113671D01*
X164448679Y-75110735D01*
X164361238Y-75107800D01*
X164332784Y-75029677D01*
X164279476Y-74901344D01*
X164214733Y-74775567D01*
X164141523Y-74657328D01*
X164062810Y-74551612D01*
X164017383Y-74499685D01*
X163981687Y-74462533D01*
X163949102Y-74432209D01*
X163917056Y-74407990D01*
X163882977Y-74389152D01*
X163844295Y-74374975D01*
X163798438Y-74364735D01*
X163742835Y-74357709D01*
X163674913Y-74353175D01*
X163592102Y-74350410D01*
X163491830Y-74348692D01*
X163479480Y-74348535D01*
X163261040Y-74345800D01*
X163261040Y-75803760D01*
X163261072Y-76012046D01*
X163261171Y-76200905D01*
X163261345Y-76371229D01*
X163261603Y-76523910D01*
X163261953Y-76659842D01*
X163262402Y-76779916D01*
X163262959Y-76885025D01*
X163263630Y-76976061D01*
X163264425Y-77053918D01*
X163265351Y-77119487D01*
X163266416Y-77173661D01*
X163267628Y-77217333D01*
X163268995Y-77251394D01*
X163270524Y-77276738D01*
X163272225Y-77294257D01*
X163274104Y-77304843D01*
X163274375Y-77305801D01*
X163296956Y-77351514D01*
X163333796Y-77395299D01*
X163379182Y-77431480D01*
X163422305Y-77452746D01*
X163450673Y-77460106D01*
X163493727Y-77468471D01*
X163545929Y-77476881D01*
X163601739Y-77484372D01*
X163609579Y-77485299D01*
X163664802Y-77491724D01*
X163716627Y-77497781D01*
X163759747Y-77502847D01*
X163788852Y-77506301D01*
X163791900Y-77506668D01*
X163835080Y-77511885D01*
X163835080Y-77595929D01*
X163834312Y-77635459D01*
X163832268Y-77666810D01*
X163829340Y-77684731D01*
X163828307Y-77686746D01*
X163817336Y-77687790D01*
X163787565Y-77688785D01*
X163740515Y-77689718D01*
X163677704Y-77690577D01*
X163600653Y-77691351D01*
X163510883Y-77692026D01*
X163409913Y-77692591D01*
X163299263Y-77693033D01*
X163180453Y-77693340D01*
X163055003Y-77693499D01*
X162990107Y-77693520D01*
X162158680Y-77693520D01*
X162158680Y-77511885D01*
X162206940Y-77505593D01*
X162239905Y-77500442D01*
X162286561Y-77492060D01*
X162341398Y-77481553D01*
X162398906Y-77470028D01*
X162453573Y-77458593D01*
X162499889Y-77448354D01*
X162532343Y-77440418D01*
X162534951Y-77439699D01*
X162600974Y-77411485D01*
X162654375Y-77368113D01*
X162693350Y-77311048D01*
X162693378Y-77310991D01*
X162722560Y-77251560D01*
X162722560Y-74345800D01*
X162651440Y-74342615D01*
X162618869Y-74342162D01*
X162570538Y-74342796D01*
X162510972Y-74344393D01*
X162444695Y-74346832D01*
X162376232Y-74349990D01*
X162372040Y-74350205D01*
X162301435Y-74353970D01*
X162247713Y-74357316D01*
X162207459Y-74360766D01*
X162177257Y-74364841D01*
X162153693Y-74370063D01*
X162133352Y-74376953D01*
X162112818Y-74386034D01*
X162101437Y-74391547D01*
X162046039Y-74426674D01*
X161986612Y-74478909D01*
X161925331Y-74546008D01*
X161864372Y-74625730D01*
X161841328Y-74659499D01*
X161809940Y-74709881D01*
X161776027Y-74769235D01*
X161741681Y-74833380D01*
X161708992Y-74898136D01*
X161680054Y-74959323D01*
X161656958Y-75012760D01*
X161641795Y-75054268D01*
X161639189Y-75063445D01*
X161626519Y-75112880D01*
X161447480Y-75112880D01*
X161447480Y-74147680D01*
X164536120Y-74147680D01*
X165367025Y-74147680D01*
X165365994Y-74123290D01*
X165361775Y-74050704D01*
X165356811Y-73987791D01*
X165351045Y-73933369D01*
X165344425Y-73886255D01*
X165336896Y-73845266D01*
X165328404Y-73809220D01*
X165318895Y-73776933D01*
X165313659Y-73761600D01*
X165288009Y-73704781D01*
X165254040Y-73657818D01*
X165209597Y-73619386D01*
X165152526Y-73588164D01*
X165080672Y-73562829D01*
X164991878Y-73542059D01*
X164941321Y-73533113D01*
X164894937Y-73525512D01*
X164854095Y-73518708D01*
X164824220Y-73513610D01*
X164812980Y-73511591D01*
X164802123Y-73508277D01*
X164795388Y-73500676D01*
X164791795Y-73484691D01*
X164790366Y-73456223D01*
X164790120Y-73415900D01*
X164790120Y-73324587D01*
X165529260Y-73327193D01*
X166268400Y-73329800D01*
X166271332Y-73418408D01*
X166272461Y-73460978D01*
X166271799Y-73487402D01*
X166268435Y-73501832D01*
X166261460Y-73508424D01*
X166251012Y-73511146D01*
X166132566Y-73533327D01*
X166032559Y-73555114D01*
X165949175Y-73577734D01*
X165880596Y-73602412D01*
X165825007Y-73630373D01*
X165780592Y-73662844D01*
X165745532Y-73701049D01*
X165718013Y-73746214D01*
X165696217Y-73799564D01*
X165678328Y-73862326D01*
X165668961Y-73903838D01*
X165662758Y-73934917D01*
X165657292Y-73966493D01*
X165652522Y-73999957D01*
X165648410Y-74036702D01*
X165644917Y-74078120D01*
X165642005Y-74125604D01*
X165639634Y-74180545D01*
X165637766Y-74244337D01*
X165636362Y-74318370D01*
X165635383Y-74404039D01*
X165634790Y-74502734D01*
X165634545Y-74615849D01*
X165634608Y-74744775D01*
X165634940Y-74890905D01*
X165635504Y-75055631D01*
X165635668Y-75097640D01*
X165636295Y-75253837D01*
X165636884Y-75391076D01*
X165637471Y-75510716D01*
X165638090Y-75614118D01*
X165638777Y-75702643D01*
X165639569Y-75777651D01*
X165640500Y-75840503D01*
X165641606Y-75892560D01*
X165642923Y-75935181D01*
X165644486Y-75969729D01*
X165646332Y-75997563D01*
X165648495Y-76020044D01*
X165651011Y-76038532D01*
X165653916Y-76054389D01*
X165657245Y-76068975D01*
X165661035Y-76083651D01*
X165661514Y-76085455D01*
X165705270Y-76213913D01*
X165764497Y-76330341D01*
X165838344Y-76433794D01*
X165925957Y-76523324D01*
X166026483Y-76597984D01*
X166139069Y-76656829D01*
X166196313Y-76678894D01*
X166292386Y-76705550D01*
X166399311Y-76724057D01*
X166512683Y-76734436D01*
X166628092Y-76736709D01*
X166741130Y-76730897D01*
X166847390Y-76717020D01*
X166942463Y-76695101D01*
X166999920Y-76675016D01*
X167059646Y-76645324D01*
X167125228Y-76604693D01*
X167189755Y-76557990D01*
X167246316Y-76510078D01*
X167274492Y-76481744D01*
X167328561Y-76411029D01*
X167377358Y-76325424D01*
X167418358Y-76230172D01*
X167449037Y-76130516D01*
X167454142Y-76108560D01*
X167477440Y-76001880D01*
X167477440Y-73726040D01*
X167455788Y-73679217D01*
X167435060Y-73644865D01*
X167408605Y-73613974D01*
X167398587Y-73605282D01*
X167368768Y-73588703D01*
X167323720Y-73571262D01*
X167268404Y-73554378D01*
X167207782Y-73539470D01*
X167146817Y-73527957D01*
X167111680Y-73523219D01*
X167073307Y-73518615D01*
X167038973Y-73513874D01*
X167022398Y-73511155D01*
X166994075Y-73505817D01*
X166996998Y-73417808D01*
X166999920Y-73329800D01*
X167754300Y-73327194D01*
X168508680Y-73324589D01*
X168508680Y-73415901D01*
X168509058Y-73456016D01*
X169156151Y-73456016D01*
X169167619Y-73311032D01*
X169173936Y-73212960D01*
X169177593Y-73148383D01*
X169181332Y-73073062D01*
X169185087Y-72989162D01*
X169188794Y-72898849D01*
X169192388Y-72804288D01*
X169195803Y-72707644D01*
X169198976Y-72611083D01*
X169201841Y-72516771D01*
X169204333Y-72426872D01*
X169206387Y-72343553D01*
X169207940Y-72268978D01*
X169208925Y-72205313D01*
X169209278Y-72154723D01*
X169208934Y-72119374D01*
X169207829Y-72101431D01*
X169207273Y-72099685D01*
X169195378Y-72098460D01*
X169167088Y-72099501D01*
X169126173Y-72102560D01*
X169076402Y-72107389D01*
X169055389Y-72109700D01*
X168801724Y-72134360D01*
X168539267Y-72152029D01*
X168272515Y-72162659D01*
X168005968Y-72166199D01*
X167744121Y-72162601D01*
X167491474Y-72151815D01*
X167252523Y-72133790D01*
X167213280Y-72129972D01*
X166903766Y-72092060D01*
X166600533Y-72041525D01*
X166305052Y-71978830D01*
X166018796Y-71904440D01*
X165743237Y-71818818D01*
X165479844Y-71722428D01*
X165230091Y-71615734D01*
X164995449Y-71499198D01*
X164777389Y-71373286D01*
X164742926Y-71351527D01*
X164650011Y-71292102D01*
X164524486Y-71376355D01*
X164524486Y-71376355D01*
G37*
X164524486Y-71376355D02*
X164299215Y-71516493D01*
X164057801Y-71645608D01*
X163801405Y-71763337D01*
X163531184Y-71869312D01*
X163248298Y-71963167D01*
X162953907Y-72044537D01*
X162649171Y-72113056D01*
X162335248Y-72168357D01*
X162013298Y-72210074D01*
X161828480Y-72227485D01*
X161742821Y-72233212D01*
X161641201Y-72237918D01*
X161527954Y-72241555D01*
X161407416Y-72244072D01*
X161283923Y-72245422D01*
X161161808Y-72245555D01*
X161045409Y-72244423D01*
X160939059Y-72241977D01*
X160853120Y-72238486D01*
X160781120Y-72234343D01*
X160701855Y-72229103D01*
X160618456Y-72223037D01*
X160534051Y-72216413D01*
X160451771Y-72209502D01*
X160374744Y-72202574D01*
X160306100Y-72195899D01*
X160248969Y-72189747D01*
X160206479Y-72184388D01*
X160185100Y-72180847D01*
X160157160Y-72175025D01*
X160157202Y-72371412D01*
X160158447Y-72526715D01*
X160161988Y-72697466D01*
X160167625Y-72878948D01*
X160175159Y-73066442D01*
X160184390Y-73255231D01*
X160195117Y-73440597D01*
X160207142Y-73617822D01*
X160213477Y-73700640D01*
X160257541Y-74150869D01*
X160317096Y-74588471D01*
X160392392Y-75014256D01*
X160483681Y-75429037D01*
X160591213Y-75833626D01*
X160715239Y-76228835D01*
X160856010Y-76615475D01*
X161013776Y-76994359D01*
X161188788Y-77366298D01*
X161381296Y-77732105D01*
X161546723Y-78018640D01*
X161770070Y-78371857D01*
X162012806Y-78719706D01*
X162274634Y-79061851D01*
X162555255Y-79397958D01*
X162854371Y-79727692D01*
X163171686Y-80050717D01*
X163506902Y-80366699D01*
X163859720Y-80675303D01*
X164042073Y-80826275D01*
X164095101Y-80869022D01*
X164154366Y-80916167D01*
X164217853Y-80966166D01*
X164283552Y-81017478D01*
X164349449Y-81068560D01*
X164413533Y-81117870D01*
X164473791Y-81163867D01*
X164528211Y-81205006D01*
X164574781Y-81239748D01*
X164611488Y-81266548D01*
X164636321Y-81283865D01*
X164647266Y-81290157D01*
X164647332Y-81290160D01*
X164656862Y-81284314D01*
X164680163Y-81267953D01*
X164714816Y-81242837D01*
X164758399Y-81210728D01*
X164808493Y-81173386D01*
X164830965Y-81156512D01*
X165223624Y-80850274D01*
X165597321Y-80536789D01*
X165952108Y-80215979D01*
X166288035Y-79887769D01*
X166605154Y-79552083D01*
X166903514Y-79208845D01*
X167183167Y-78857977D01*
X167237548Y-78783265D01*
X165464663Y-78783265D01*
X165459524Y-78813265D01*
X165447346Y-78853307D01*
X165429364Y-78899435D01*
X165406809Y-78947687D01*
X165403130Y-78954821D01*
X165367388Y-79011414D01*
X165320919Y-79068079D01*
X165269412Y-79118666D01*
X165218555Y-79157024D01*
X165213052Y-79160345D01*
X165161729Y-79185515D01*
X165098833Y-79209055D01*
X165033063Y-79227977D01*
X164990907Y-79236717D01*
X164957606Y-79240828D01*
X164916022Y-79243903D01*
X164870635Y-79245882D01*
X164825927Y-79246702D01*
X164786379Y-79246305D01*
X164756471Y-79244628D01*
X164740685Y-79241610D01*
X164739320Y-79240133D01*
X164740036Y-79238116D01*
X164632954Y-79238116D01*
X164631569Y-79249734D01*
X164618105Y-79254724D01*
X164588649Y-79256554D01*
X164547229Y-79255530D01*
X164497875Y-79251958D01*
X164444615Y-79246146D01*
X164391479Y-79238399D01*
X164342496Y-79229025D01*
X164334089Y-79227108D01*
X164241714Y-79198515D01*
X164162275Y-79158082D01*
X164090454Y-79102902D01*
X164068281Y-79081724D01*
X164024336Y-79030375D01*
X163983983Y-78969645D01*
X163950637Y-78905732D01*
X163927716Y-78844839D01*
X163920592Y-78813660D01*
X163913763Y-78770480D01*
X163976450Y-78770480D01*
X164073618Y-78778514D01*
X164172404Y-78801335D01*
X164267862Y-78837017D01*
X164355045Y-78883635D01*
X164429004Y-78939266D01*
X164442105Y-78951630D01*
X164478430Y-78990595D01*
X164515097Y-79035505D01*
X164550090Y-79083186D01*
X164581389Y-79130462D01*
X164606978Y-79174159D01*
X164624839Y-79211101D01*
X164632954Y-79238116D01*
X164740036Y-79238116D01*
X164744644Y-79225145D01*
X164758936Y-79197532D01*
X164779682Y-79161431D01*
X164804365Y-79120982D01*
X164830470Y-79080321D01*
X164855481Y-79043587D01*
X164874179Y-79018315D01*
X164951174Y-78935227D01*
X165038340Y-78869514D01*
X165137053Y-78820231D01*
X165190132Y-78801771D01*
X165231524Y-78790955D01*
X165279437Y-78781176D01*
X165329441Y-78772997D01*
X165377108Y-78766982D01*
X165418008Y-78763694D01*
X165447711Y-78763696D01*
X165461532Y-78767267D01*
X165464663Y-78783265D01*
X167237548Y-78783265D01*
X167444164Y-78499405D01*
X167449672Y-78491080D01*
X164885825Y-78491080D01*
X164885453Y-78550530D01*
X164883874Y-78595186D01*
X164880400Y-78630566D01*
X164874339Y-78662187D01*
X164865002Y-78695569D01*
X164857228Y-78719680D01*
X164831930Y-78787568D01*
X164799193Y-78863088D01*
X164762635Y-78938589D01*
X164725875Y-79006420D01*
X164706658Y-79038035D01*
X164675144Y-79087151D01*
X164630164Y-79017715D01*
X164605779Y-78977485D01*
X164577445Y-78926803D01*
X164549593Y-78873733D01*
X164536196Y-78846680D01*
X164489148Y-78738908D01*
X164457346Y-78639866D01*
X164440493Y-78545196D01*
X164438289Y-78450539D01*
X164450436Y-78351539D01*
X164476637Y-78243838D01*
X164491618Y-78195396D01*
X164506165Y-78155178D01*
X164525525Y-78107942D01*
X164547943Y-78057299D01*
X164571663Y-78006862D01*
X164594928Y-77960243D01*
X164615983Y-77921053D01*
X164633071Y-77892905D01*
X164644436Y-77879411D01*
X164645507Y-77878884D01*
X164658251Y-77884745D01*
X164677360Y-77906440D01*
X164701254Y-77941099D01*
X164728350Y-77985855D01*
X164757066Y-78037840D01*
X164785821Y-78094185D01*
X164813031Y-78152023D01*
X164837116Y-78208485D01*
X164856492Y-78260703D01*
X164857086Y-78262480D01*
X164868858Y-78299674D01*
X164876913Y-78331619D01*
X164881941Y-78363823D01*
X164884637Y-78401794D01*
X164885691Y-78451040D01*
X164885825Y-78491080D01*
X167449672Y-78491080D01*
X167686556Y-78133051D01*
X167910393Y-77758840D01*
X168115727Y-77376695D01*
X168302608Y-76986541D01*
X168471088Y-76588301D01*
X168621216Y-76181898D01*
X168753045Y-75767258D01*
X168866624Y-75344302D01*
X168945182Y-74996040D01*
X169006454Y-74676265D01*
X169058924Y-74351076D01*
X169103000Y-74017274D01*
X169139096Y-73671659D01*
X169156151Y-73456016D01*
X168509058Y-73456016D01*
X168507971Y-73482813D01*
X168502088Y-73499627D01*
X168488080Y-73509791D01*
X168462615Y-73516638D01*
X168422364Y-73523502D01*
X168396920Y-73527763D01*
X168291398Y-73551981D01*
X168203915Y-73585112D01*
X168134553Y-73627110D01*
X168083393Y-73677928D01*
X168057406Y-73720960D01*
X168054199Y-73728160D01*
X168051328Y-73735896D01*
X168048768Y-73745292D01*
X168046497Y-73757472D01*
X168044490Y-73773561D01*
X168042723Y-73794682D01*
X168041173Y-73821960D01*
X168039815Y-73856518D01*
X168038625Y-73899482D01*
X168037581Y-73951976D01*
X168036657Y-74015122D01*
X168035831Y-74090047D01*
X168035078Y-74177873D01*
X168034374Y-74279725D01*
X168033696Y-74396727D01*
X168033020Y-74530004D01*
X168032321Y-74680679D01*
X168031576Y-74849877D01*
X168031099Y-74960480D01*
X168025957Y-76154280D01*
X167997986Y-76243653D01*
X167950279Y-76369754D01*
X167889505Y-76482494D01*
X167813288Y-76585794D01*
X167748078Y-76655969D01*
X167642343Y-76746816D01*
X167521208Y-76826288D01*
X167386608Y-76893607D01*
X167240484Y-76947992D01*
X167084772Y-76988664D01*
X166921411Y-77014843D01*
X166837360Y-77022262D01*
X166789123Y-77025432D01*
X166748117Y-77028227D01*
X166718704Y-77030342D01*
X166705280Y-77031469D01*
X166691653Y-77031192D01*
X166662186Y-77029445D01*
X166621282Y-77026520D01*
X166575626Y-77022896D01*
X166404717Y-77000644D01*
X166243729Y-76963436D01*
X166093556Y-76911956D01*
X165955091Y-76846886D01*
X165829225Y-76768906D01*
X165716851Y-76678699D01*
X165618863Y-76576947D01*
X165536153Y-76464332D01*
X165469613Y-76341535D01*
X165420136Y-76209239D01*
X165398639Y-76123800D01*
X165395221Y-76106255D01*
X165392236Y-76087799D01*
X165389656Y-76066995D01*
X165387450Y-76042404D01*
X165385588Y-76012589D01*
X165384041Y-75976111D01*
X165382780Y-75931533D01*
X165381773Y-75877417D01*
X165380992Y-75812325D01*
X165380406Y-75734819D01*
X165379987Y-75643460D01*
X165379704Y-75536812D01*
X165379527Y-75413436D01*
X165379426Y-75271895D01*
X165379396Y-75194160D01*
X165379192Y-75001606D01*
X165378677Y-74828187D01*
X165377795Y-74672722D01*
X165376493Y-74534026D01*
X165374716Y-74410918D01*
X165372410Y-74302215D01*
X165369521Y-74206733D01*
X165367025Y-74147680D01*
X164536120Y-74147680D01*
X164536120Y-75113671D01*
X164448679Y-75110735D01*
X164361238Y-75107800D01*
X164332784Y-75029677D01*
X164279476Y-74901344D01*
X164214733Y-74775567D01*
X164141523Y-74657328D01*
X164062810Y-74551612D01*
X164017383Y-74499685D01*
X163981687Y-74462533D01*
X163949102Y-74432209D01*
X163917056Y-74407990D01*
X163882977Y-74389152D01*
X163844295Y-74374975D01*
X163798438Y-74364735D01*
X163742835Y-74357709D01*
X163674913Y-74353175D01*
X163592102Y-74350410D01*
X163491830Y-74348692D01*
X163479480Y-74348535D01*
X163261040Y-74345800D01*
X163261040Y-75803760D01*
X163261072Y-76012046D01*
X163261171Y-76200905D01*
X163261345Y-76371229D01*
X163261603Y-76523910D01*
X163261953Y-76659842D01*
X163262402Y-76779916D01*
X163262959Y-76885025D01*
X163263630Y-76976061D01*
X163264425Y-77053918D01*
X163265351Y-77119487D01*
X163266416Y-77173661D01*
X163267628Y-77217333D01*
X163268995Y-77251394D01*
X163270524Y-77276738D01*
X163272225Y-77294257D01*
X163274104Y-77304843D01*
X163274375Y-77305801D01*
X163296956Y-77351514D01*
X163333796Y-77395299D01*
X163379182Y-77431480D01*
X163422305Y-77452746D01*
X163450673Y-77460106D01*
X163493727Y-77468471D01*
X163545929Y-77476881D01*
X163601739Y-77484372D01*
X163609579Y-77485299D01*
X163664802Y-77491724D01*
X163716627Y-77497781D01*
X163759747Y-77502847D01*
X163788852Y-77506301D01*
X163791900Y-77506668D01*
X163835080Y-77511885D01*
X163835080Y-77595929D01*
X163834312Y-77635459D01*
X163832268Y-77666810D01*
X163829340Y-77684731D01*
X163828307Y-77686746D01*
X163817336Y-77687790D01*
X163787565Y-77688785D01*
X163740515Y-77689718D01*
X163677704Y-77690577D01*
X163600653Y-77691351D01*
X163510883Y-77692026D01*
X163409913Y-77692591D01*
X163299263Y-77693033D01*
X163180453Y-77693340D01*
X163055003Y-77693499D01*
X162990107Y-77693520D01*
X162158680Y-77693520D01*
X162158680Y-77511885D01*
X162206940Y-77505593D01*
X162239905Y-77500442D01*
X162286561Y-77492060D01*
X162341398Y-77481553D01*
X162398906Y-77470028D01*
X162453573Y-77458593D01*
X162499889Y-77448354D01*
X162532343Y-77440418D01*
X162534951Y-77439699D01*
X162600974Y-77411485D01*
X162654375Y-77368113D01*
X162693350Y-77311048D01*
X162693378Y-77310991D01*
X162722560Y-77251560D01*
X162722560Y-74345800D01*
X162651440Y-74342615D01*
X162618869Y-74342162D01*
X162570538Y-74342796D01*
X162510972Y-74344393D01*
X162444695Y-74346832D01*
X162376232Y-74349990D01*
X162372040Y-74350205D01*
X162301435Y-74353970D01*
X162247713Y-74357316D01*
X162207459Y-74360766D01*
X162177257Y-74364841D01*
X162153693Y-74370063D01*
X162133352Y-74376953D01*
X162112818Y-74386034D01*
X162101437Y-74391547D01*
X162046039Y-74426674D01*
X161986612Y-74478909D01*
X161925331Y-74546008D01*
X161864372Y-74625730D01*
X161841328Y-74659499D01*
X161809940Y-74709881D01*
X161776027Y-74769235D01*
X161741681Y-74833380D01*
X161708992Y-74898136D01*
X161680054Y-74959323D01*
X161656958Y-75012760D01*
X161641795Y-75054268D01*
X161639189Y-75063445D01*
X161626519Y-75112880D01*
X161447480Y-75112880D01*
X161447480Y-74147680D01*
X164536120Y-74147680D01*
X165367025Y-74147680D01*
X165365994Y-74123290D01*
X165361775Y-74050704D01*
X165356811Y-73987791D01*
X165351045Y-73933369D01*
X165344425Y-73886255D01*
X165336896Y-73845266D01*
X165328404Y-73809220D01*
X165318895Y-73776933D01*
X165313659Y-73761600D01*
X165288009Y-73704781D01*
X165254040Y-73657818D01*
X165209597Y-73619386D01*
X165152526Y-73588164D01*
X165080672Y-73562829D01*
X164991878Y-73542059D01*
X164941321Y-73533113D01*
X164894937Y-73525512D01*
X164854095Y-73518708D01*
X164824220Y-73513610D01*
X164812980Y-73511591D01*
X164802123Y-73508277D01*
X164795388Y-73500676D01*
X164791795Y-73484691D01*
X164790366Y-73456223D01*
X164790120Y-73415900D01*
X164790120Y-73324587D01*
X165529260Y-73327193D01*
X166268400Y-73329800D01*
X166271332Y-73418408D01*
X166272461Y-73460978D01*
X166271799Y-73487402D01*
X166268435Y-73501832D01*
X166261460Y-73508424D01*
X166251012Y-73511146D01*
X166132566Y-73533327D01*
X166032559Y-73555114D01*
X165949175Y-73577734D01*
X165880596Y-73602412D01*
X165825007Y-73630373D01*
X165780592Y-73662844D01*
X165745532Y-73701049D01*
X165718013Y-73746214D01*
X165696217Y-73799564D01*
X165678328Y-73862326D01*
X165668961Y-73903838D01*
X165662758Y-73934917D01*
X165657292Y-73966493D01*
X165652522Y-73999957D01*
X165648410Y-74036702D01*
X165644917Y-74078120D01*
X165642005Y-74125604D01*
X165639634Y-74180545D01*
X165637766Y-74244337D01*
X165636362Y-74318370D01*
X165635383Y-74404039D01*
X165634790Y-74502734D01*
X165634545Y-74615849D01*
X165634608Y-74744775D01*
X165634940Y-74890905D01*
X165635504Y-75055631D01*
X165635668Y-75097640D01*
X165636295Y-75253837D01*
X165636884Y-75391076D01*
X165637471Y-75510716D01*
X165638090Y-75614118D01*
X165638777Y-75702643D01*
X165639569Y-75777651D01*
X165640500Y-75840503D01*
X165641606Y-75892560D01*
X165642923Y-75935181D01*
X165644486Y-75969729D01*
X165646332Y-75997563D01*
X165648495Y-76020044D01*
X165651011Y-76038532D01*
X165653916Y-76054389D01*
X165657245Y-76068975D01*
X165661035Y-76083651D01*
X165661514Y-76085455D01*
X165705270Y-76213913D01*
X165764497Y-76330341D01*
X165838344Y-76433794D01*
X165925957Y-76523324D01*
X166026483Y-76597984D01*
X166139069Y-76656829D01*
X166196313Y-76678894D01*
X166292386Y-76705550D01*
X166399311Y-76724057D01*
X166512683Y-76734436D01*
X166628092Y-76736709D01*
X166741130Y-76730897D01*
X166847390Y-76717020D01*
X166942463Y-76695101D01*
X166999920Y-76675016D01*
X167059646Y-76645324D01*
X167125228Y-76604693D01*
X167189755Y-76557990D01*
X167246316Y-76510078D01*
X167274492Y-76481744D01*
X167328561Y-76411029D01*
X167377358Y-76325424D01*
X167418358Y-76230172D01*
X167449037Y-76130516D01*
X167454142Y-76108560D01*
X167477440Y-76001880D01*
X167477440Y-73726040D01*
X167455788Y-73679217D01*
X167435060Y-73644865D01*
X167408605Y-73613974D01*
X167398587Y-73605282D01*
X167368768Y-73588703D01*
X167323720Y-73571262D01*
X167268404Y-73554378D01*
X167207782Y-73539470D01*
X167146817Y-73527957D01*
X167111680Y-73523219D01*
X167073307Y-73518615D01*
X167038973Y-73513874D01*
X167022398Y-73511155D01*
X166994075Y-73505817D01*
X166996998Y-73417808D01*
X166999920Y-73329800D01*
X167754300Y-73327194D01*
X168508680Y-73324589D01*
X168508680Y-73415901D01*
X168509058Y-73456016D01*
X169156151Y-73456016D01*
X169167619Y-73311032D01*
X169173936Y-73212960D01*
X169177593Y-73148383D01*
X169181332Y-73073062D01*
X169185087Y-72989162D01*
X169188794Y-72898849D01*
X169192388Y-72804288D01*
X169195803Y-72707644D01*
X169198976Y-72611083D01*
X169201841Y-72516771D01*
X169204333Y-72426872D01*
X169206387Y-72343553D01*
X169207940Y-72268978D01*
X169208925Y-72205313D01*
X169209278Y-72154723D01*
X169208934Y-72119374D01*
X169207829Y-72101431D01*
X169207273Y-72099685D01*
X169195378Y-72098460D01*
X169167088Y-72099501D01*
X169126173Y-72102560D01*
X169076402Y-72107389D01*
X169055389Y-72109700D01*
X168801724Y-72134360D01*
X168539267Y-72152029D01*
X168272515Y-72162659D01*
X168005968Y-72166199D01*
X167744121Y-72162601D01*
X167491474Y-72151815D01*
X167252523Y-72133790D01*
X167213280Y-72129972D01*
X166903766Y-72092060D01*
X166600533Y-72041525D01*
X166305052Y-71978830D01*
X166018796Y-71904440D01*
X165743237Y-71818818D01*
X165479844Y-71722428D01*
X165230091Y-71615734D01*
X164995449Y-71499198D01*
X164777389Y-71373286D01*
X164742926Y-71351527D01*
X164650011Y-71292102D01*
X164524486Y-71376355D01*
M02*
