M48
;DRILL file {KiCad 4.0.5+dfsg1-4} date Sat Dec 30 21:32:13 2017
;FORMAT={-:-/ absolute / inch / decimal}
FMAT,2
INCH,TZ
T1C0.016
T2C0.020
T3C0.030
T4C0.031
T5C0.039
T6C0.051
%
G90
G05
M72
T1
X5.265Y-4.695
X5.265Y-4.73
X5.265Y-4.765
X5.265Y-4.8
X5.265Y-4.83
X5.2938Y-4.07
X5.3Y-4.695
X5.3Y-4.73
X5.3Y-4.765
X5.3Y-4.8
X5.3Y-4.83
X5.3133Y-4.2774
X5.335Y-4.695
X5.335Y-4.73
X5.335Y-4.765
X5.335Y-4.8
X5.335Y-4.83
X5.365Y-4.495
X5.365Y-4.525
X5.38Y-3.03
X5.38Y-3.065
X5.38Y-4.245
X5.385Y-3.1
X5.395Y-4.495
X5.395Y-4.525
X5.395Y-4.555
X5.4Y-4.07
X5.404Y-4.2967
X5.415Y-4.2
X5.42Y-4.2694
X5.43Y-4.415
X5.45Y-2.705
X5.45Y-2.815
X5.455Y-2.775
X5.46Y-4.635
X5.47Y-4.3738
X5.485Y-3.32
X5.49Y-2.775
X5.505Y-4.095
X5.505Y-4.815
X5.52Y-3.29
X5.52Y-3.32
X5.52Y-4.635
X5.525Y-2.775
X5.525Y-3.555
X5.525Y-3.86
X5.555Y-3.26
X5.555Y-3.29
X5.555Y-3.32
X5.555Y-4.81
X5.5559Y-4.8427
X5.565Y-2.775
X5.575Y-4.375
X5.585Y-4.635
X5.59Y-3.12
X5.59Y-3.26
X5.59Y-3.29
X5.59Y-3.32
X5.6Y-3.77
X5.6Y-3.805
X5.6Y-3.835
X5.6091Y-4.2449
X5.61Y-3.885
X5.61Y-3.92
X5.61Y-4.21
X5.61Y-4.375
X5.61Y-4.41
X5.625Y-3.25
X5.625Y-3.29
X5.625Y-3.32
X5.6303Y-3.211
X5.635Y-2.66
X5.635Y-3.77
X5.635Y-3.805
X5.635Y-3.835
X5.64Y-3.385
X5.64Y-3.885
X5.64Y-3.92
X5.645Y-4.41
X5.645Y-4.445
X5.645Y-4.48
X5.645Y-4.53
X5.6557Y-2.9157
X5.66Y-3.29
X5.66Y-3.32
X5.6611Y-3.253
X5.6697Y-3.009
X5.67Y-3.77
X5.67Y-3.805
X5.67Y-3.835
X5.67Y-3.885
X5.67Y-3.92
X5.675Y-3.385
X5.675Y-3.42
X5.675Y-3.455
X5.675Y-3.49
X5.675Y-3.525
X5.675Y-3.59
X5.675Y-3.625
X5.675Y-3.66
X5.675Y-4.356
X5.68Y-4.445
X5.685Y-4.765
X5.685Y-4.795
X5.69Y-2.66
X5.69Y-2.695
X5.705Y-2.84
X5.705Y-3.885
X5.705Y-3.92
X5.71Y-3.385
X5.71Y-3.42
X5.71Y-3.455
X5.71Y-3.49
X5.71Y-3.59
X5.71Y-3.625
X5.71Y-3.66
X5.71Y-3.695
X5.725Y-2.66
X5.735Y-3.17
X5.74Y-3.59
X5.74Y-3.625
X5.74Y-3.66
X5.74Y-3.695
X5.74Y-3.725
X5.74Y-3.85
X5.74Y-3.885
X5.74Y-3.92
X5.76Y-2.66
X5.7655Y-2.932
X5.7676Y-3.2874
X5.79Y-3.265
X5.795Y-2.66
X5.8Y-4.81
X5.815Y-4.86
X5.82Y-4.215
X5.82Y-4.25
X5.82Y-4.29
X5.82Y-4.33
X5.82Y-4.365
X5.83Y-2.66
X5.839Y-3.0438
X5.855Y-4.86
X5.86Y-2.76
X5.86Y-3.98
X5.86Y-4.02
X5.86Y-4.06
X5.865Y-2.66
X5.865Y-2.925
X5.865Y-3.84
X5.8679Y-3.3072
X5.88Y-3.2436
X5.8813Y-3.0888
X5.885Y-3.865
X5.885Y-4.005
X5.885Y-4.035
X5.885Y-4.245
X5.895Y-3.49
X5.895Y-3.525
X5.895Y-3.56
X5.895Y-3.6
X5.895Y-3.64
X5.895Y-4.86
X5.9Y-2.66
X5.9Y-3.395
X5.9Y-3.415
X5.9Y-3.435
X5.9Y-3.7
X5.9Y-3.72
X5.9Y-3.74
X5.9021Y-3.1406
X5.9052Y-3.1721
X5.9055Y-3.1092
X5.92Y-3.395
X5.92Y-3.415
X5.92Y-3.435
X5.92Y-3.7
X5.92Y-3.72
X5.92Y-3.74
X5.925Y-3.49
X5.925Y-3.525
X5.925Y-3.56
X5.925Y-3.6
X5.925Y-3.64
X5.935Y-2.66
X5.935Y-4.86
X5.9418Y-3.175
X5.955Y-3.64
X5.96Y-4.045
X5.97Y-2.66
X5.9734Y-3.1752
X5.975Y-4.825
X5.975Y-4.86
X5.985Y-3.64
X6.Y-3.94
X6.005Y-3.175
X6.015Y-3.64
X6.015Y-4.825
X6.015Y-4.86
X6.035Y-2.885
X6.035Y-2.935
X6.035Y-3.
X6.035Y-3.225
X6.035Y-3.94
X6.035Y-4.145
X6.035Y-4.335
X6.045Y-3.64
X6.07Y-3.94
X6.07Y-3.97
X6.08Y-2.885
X6.08Y-3.735
X6.08Y-3.775
X6.085Y-2.66
X6.085Y-2.695
X6.085Y-2.73
X6.085Y-2.77
X6.105Y-3.97
X6.105Y-4.145
X6.115Y-2.77
X6.12Y-2.66
X6.12Y-3.775
X6.12Y-3.815
X6.155Y-3.815
X6.155Y-3.855
X6.26Y-2.66
X6.26Y-2.775
X6.295Y-2.66
X6.295Y-2.695
X6.295Y-2.735
X6.295Y-2.775
X6.325Y-4.555
X6.325Y-4.59
X6.325Y-4.625
X6.325Y-4.66
X6.325Y-4.695
X6.325Y-4.73
X6.325Y-4.765
X6.365Y-4.52
X6.365Y-4.555
X6.365Y-4.59
X6.365Y-4.625
X6.365Y-4.66
X6.365Y-4.695
X6.365Y-4.73
X6.365Y-4.765
X6.385Y-4.255
X6.385Y-4.29
X6.405Y-4.095
X6.405Y-4.135
X6.405Y-4.175
X6.405Y-4.215
X6.405Y-4.325
X6.405Y-4.365
X6.405Y-4.405
X6.405Y-4.445
X6.405Y-4.485
X6.405Y-4.52
X6.405Y-4.555
X6.405Y-4.59
X6.405Y-4.625
X6.405Y-4.66
X6.405Y-4.695
X6.405Y-4.73
X6.405Y-4.765
X6.435Y-4.255
X6.435Y-4.28
X6.445Y-2.97
X6.445Y-3.01
X6.445Y-3.05
X6.445Y-3.09
X6.445Y-3.13
X6.445Y-3.17
X6.445Y-3.21
X6.445Y-4.06
X6.445Y-4.095
X6.46Y-4.255
X6.46Y-4.28
X6.48Y-3.865
X6.48Y-3.9
X6.485Y-2.97
X6.485Y-3.01
X6.485Y-3.05
X6.485Y-3.09
X6.485Y-3.13
X6.485Y-3.17
X6.485Y-3.21
X6.485Y-3.25
X6.485Y-4.06
X6.485Y-4.095
X6.485Y-4.255
X6.485Y-4.28
X6.52Y-3.83
X6.52Y-3.865
X6.52Y-3.9
X6.525Y-2.97
X6.525Y-3.01
X6.525Y-3.05
X6.525Y-3.09
X6.525Y-3.13
X6.525Y-3.17
X6.525Y-3.21
X6.525Y-3.25
X6.525Y-4.06
X6.525Y-4.095
X6.53Y-4.245
X6.53Y-4.285
X6.53Y-4.32
X6.53Y-4.36
X6.53Y-4.395
X6.53Y-4.435
X6.53Y-4.47
X6.53Y-4.505
X6.53Y-4.54
X6.53Y-4.58
X6.53Y-4.615
X6.53Y-4.655
X6.53Y-4.69
X6.53Y-4.73
X6.53Y-4.765
X6.53Y-4.8
X6.55Y-3.525
X6.55Y-3.555
X6.55Y-3.72
X6.55Y-3.75
X6.56Y-3.83
X6.56Y-3.865
X6.56Y-3.9
X6.56Y-3.935
X6.565Y-4.245
X6.565Y-4.285
X6.565Y-4.32
X6.565Y-4.36
X6.565Y-4.395
X6.565Y-4.435
X6.565Y-4.47
X6.565Y-4.505
X6.565Y-4.54
X6.565Y-4.58
X6.565Y-4.615
X6.565Y-4.655
X6.565Y-4.69
X6.565Y-4.73
X6.565Y-4.765
X6.565Y-4.8
X6.57Y-2.97
X6.57Y-3.01
X6.57Y-3.05
X6.57Y-3.09
X6.57Y-3.13
X6.57Y-3.17
X6.57Y-3.21
X6.57Y-3.25
X6.58Y-3.555
X6.58Y-3.75
X6.6Y-3.83
X6.6Y-3.865
X6.6Y-3.9
X6.6Y-3.935
X6.6Y-3.975
X6.6Y-4.245
X6.6Y-4.285
X6.6Y-4.32
X6.6Y-4.36
X6.6Y-4.395
X6.6Y-4.435
X6.6Y-4.47
X6.6Y-4.505
X6.6Y-4.54
X6.6Y-4.58
X6.6Y-4.615
X6.6Y-4.655
X6.6Y-4.69
X6.6Y-4.73
X6.6Y-4.765
X6.61Y-2.97
X6.61Y-3.01
X6.61Y-3.05
X6.61Y-3.09
X6.61Y-3.13
X6.61Y-3.17
X6.61Y-3.21
X6.61Y-3.25
X6.61Y-3.555
X6.61Y-3.75
X6.64Y-3.555
X6.64Y-3.75
X6.64Y-3.83
X6.64Y-3.865
X6.64Y-3.9
X6.64Y-3.935
X6.64Y-3.975
X6.64Y-4.01
X6.64Y-4.05
X6.645Y-3.6455
X6.65Y-2.97
X6.65Y-3.01
X6.65Y-3.05
X6.65Y-3.09
X6.65Y-3.13
X6.65Y-3.17
X6.65Y-3.21
X6.65Y-3.25
X6.67Y-3.555
X6.67Y-3.75
X6.68Y-3.83
X6.68Y-3.865
X6.68Y-3.9
X6.68Y-3.935
X6.68Y-3.975
X6.68Y-4.01
X6.68Y-4.05
X6.68Y-4.085
X6.7Y-3.555
X6.7Y-3.75
X6.72Y-3.83
X6.72Y-3.865
X6.72Y-3.905
X6.72Y-3.94
X6.72Y-3.975
X6.72Y-4.01
X6.72Y-4.05
X6.72Y-4.085
X6.72Y-4.125
X6.72Y-4.16
X6.72Y-4.2
X6.72Y-4.235
X6.72Y-4.27
X6.72Y-4.305
X6.72Y-4.345
X6.72Y-4.38
X6.72Y-4.42
X6.72Y-4.455
X6.72Y-4.495
X6.72Y-4.53
X6.72Y-4.565
X6.72Y-4.6
X6.72Y-4.64
X6.72Y-4.675
X6.72Y-4.715
X6.72Y-4.75
X6.72Y-4.79
X6.72Y-4.825
X6.72Y-4.86
X6.73Y-3.45
T2
X5.285Y-2.945
X5.285Y-3.0237
X5.285Y-3.1028
X5.285Y-3.1816
X5.285Y-3.2603
X5.285Y-3.3391
X5.285Y-3.4178
X5.285Y-3.4965
X5.285Y-3.5749
X5.285Y-3.6537
X6.1511Y-2.945
X6.1511Y-3.0237
X6.1511Y-3.1025
X6.1511Y-3.1816
X6.1511Y-3.26
X6.1511Y-3.3391
X6.1511Y-3.4174
X6.1511Y-3.4962
X6.1511Y-3.5749
X6.1511Y-3.6537
T3
X5.865Y-4.6225
X5.9646Y-4.6233
X6.0646Y-4.6233
T4
X6.255Y-3.575
X6.255Y-3.675
X6.255Y-3.775
X6.255Y-3.875
X6.255Y-3.975
X6.255Y-4.075
X6.255Y-4.175
X6.255Y-4.275
X6.255Y-4.375
X6.255Y-4.475
X6.255Y-4.575
X6.255Y-4.675
X6.255Y-4.775
X6.2575Y-3.475
T5
X6.075Y-4.095
X6.075Y-4.1934
X6.075Y-4.2919
X6.075Y-4.3903
T6
X6.42Y-2.72
X6.42Y-3.29
X6.61Y-2.695
X6.61Y-3.315
T0
M30
