G04 #@! TF.FileFunction,Copper,L1,Top,Signal*
%FSLAX46Y46*%
G04 Gerber Fmt 4.6, Leading zero omitted, Abs format (unit mm)*
G04 Created by KiCad (PCBNEW 4.0.5+dfsg1-4) date Sat Dec 30 21:31:49 2017*
%MOMM*%
%LPD*%
G01*
G04 APERTURE LIST*
%ADD10C,0.100000*%
%ADD11C,0.150000*%
%ADD12C,0.508000*%
%ADD13C,0.600000*%
%ADD14R,0.750000X0.800000*%
%ADD15R,0.800000X0.800000*%
%ADD16R,1.000000X1.900000*%
%ADD17R,1.500000X2.100000*%
%ADD18R,0.450000X1.380000*%
%ADD19R,1.508000X1.508000*%
%ADD20C,1.508000*%
%ADD21R,1.800000X0.300000*%
%ADD22C,1.900000*%
%ADD23C,1.500000*%
%ADD24R,0.900000X0.500000*%
%ADD25R,0.650000X0.300000*%
%ADD26R,0.775000X1.240000*%
%ADD27R,0.800000X0.350000*%
%ADD28R,0.350000X0.800000*%
%ADD29R,1.250000X1.250000*%
%ADD30C,1.524000*%
%ADD31R,2.540000X2.540000*%
%ADD32R,1.550000X0.600000*%
%ADD33R,1.800000X1.200000*%
%ADD34R,1.500000X0.450000*%
%ADD35R,1.008000X1.008000*%
%ADD36C,1.008000*%
%ADD37C,0.203200*%
%ADD38C,1.016000*%
G04 APERTURE END LIST*
D10*
D11*
X165467429Y-71004357D02*
X165431715Y-71040071D01*
X165324572Y-71075786D01*
X165253143Y-71075786D01*
X165146000Y-71040071D01*
X165074572Y-70968643D01*
X165038857Y-70897214D01*
X165003143Y-70754357D01*
X165003143Y-70647214D01*
X165038857Y-70504357D01*
X165074572Y-70432929D01*
X165146000Y-70361500D01*
X165253143Y-70325786D01*
X165324572Y-70325786D01*
X165431715Y-70361500D01*
X165467429Y-70397214D01*
X165788857Y-71075786D02*
X165788857Y-70325786D01*
X165967429Y-70325786D01*
X166074572Y-70361500D01*
X166146000Y-70432929D01*
X166181715Y-70504357D01*
X166217429Y-70647214D01*
X166217429Y-70754357D01*
X166181715Y-70897214D01*
X166146000Y-70968643D01*
X166074572Y-71040071D01*
X165967429Y-71075786D01*
X165788857Y-71075786D01*
X166538857Y-71075786D02*
X166538857Y-70325786D01*
X166788857Y-70861500D01*
X167038857Y-70325786D01*
X167038857Y-71075786D01*
X168396001Y-71075786D02*
X168146001Y-70718643D01*
X167967429Y-71075786D02*
X167967429Y-70325786D01*
X168253144Y-70325786D01*
X168324572Y-70361500D01*
X168360287Y-70397214D01*
X168396001Y-70468643D01*
X168396001Y-70575786D01*
X168360287Y-70647214D01*
X168324572Y-70682929D01*
X168253144Y-70718643D01*
X167967429Y-70718643D01*
X168717429Y-70682929D02*
X168967429Y-70682929D01*
X169074572Y-71075786D02*
X168717429Y-71075786D01*
X168717429Y-70325786D01*
X169074572Y-70325786D01*
X169288858Y-70325786D02*
X169538858Y-71075786D01*
X169788858Y-70325786D01*
X170610286Y-71075786D02*
X170610286Y-70325786D01*
X170788858Y-70325786D01*
X170896001Y-70361500D01*
X170967429Y-70432929D01*
X171003144Y-70504357D01*
X171038858Y-70647214D01*
X171038858Y-70754357D01*
X171003144Y-70897214D01*
X170967429Y-70968643D01*
X170896001Y-71040071D01*
X170788858Y-71075786D01*
X170610286Y-71075786D01*
X165521000Y-72350786D02*
X165092428Y-72350786D01*
X165306714Y-72350786D02*
X165306714Y-71600786D01*
X165235285Y-71707929D01*
X165163857Y-71779357D01*
X165092428Y-71815071D01*
X165806714Y-71672214D02*
X165842428Y-71636500D01*
X165913857Y-71600786D01*
X166092428Y-71600786D01*
X166163857Y-71636500D01*
X166199571Y-71672214D01*
X166235286Y-71743643D01*
X166235286Y-71815071D01*
X166199571Y-71922214D01*
X165771000Y-72350786D01*
X166235286Y-72350786D01*
X166556714Y-72065071D02*
X167128143Y-72065071D01*
X167449571Y-71672214D02*
X167485285Y-71636500D01*
X167556714Y-71600786D01*
X167735285Y-71600786D01*
X167806714Y-71636500D01*
X167842428Y-71672214D01*
X167878143Y-71743643D01*
X167878143Y-71815071D01*
X167842428Y-71922214D01*
X167413857Y-72350786D01*
X167878143Y-72350786D01*
X168521000Y-71850786D02*
X168521000Y-72350786D01*
X168342429Y-71565071D02*
X168163857Y-72100786D01*
X168628143Y-72100786D01*
X168913857Y-72065071D02*
X169485286Y-72065071D01*
X170235286Y-72350786D02*
X169806714Y-72350786D01*
X170021000Y-72350786D02*
X170021000Y-71600786D01*
X169949571Y-71707929D01*
X169878143Y-71779357D01*
X169806714Y-71815071D01*
X170485286Y-71600786D02*
X170985286Y-71600786D01*
X170663857Y-72350786D01*
D12*
X141605000Y-94488000D02*
X141732000Y-94488000D01*
X141605000Y-86741000D02*
X141732000Y-86741000D01*
D13*
X155321000Y-70358000D03*
X154559000Y-70358000D03*
X159004000Y-70485000D03*
X159893000Y-70485000D03*
X159893000Y-69469000D03*
X159893000Y-68453000D03*
X159893000Y-67564000D03*
X159004000Y-67564000D03*
X155448000Y-67564000D03*
X154559000Y-69342000D03*
X154559000Y-68453000D03*
X155067000Y-105283000D03*
X153289000Y-110109000D03*
X153289000Y-105283000D03*
X165735000Y-104013000D03*
X165735000Y-103124000D03*
X164719000Y-103124000D03*
X164719000Y-104013000D03*
X163703000Y-103124000D03*
X163703000Y-104013000D03*
X162687000Y-104013000D03*
X162687000Y-105029000D03*
X162687000Y-106045000D03*
X162687000Y-107061000D03*
X162179000Y-108077000D03*
X162179000Y-108966000D03*
X162687000Y-109855000D03*
X162687000Y-110871000D03*
X162687000Y-111887000D03*
X162687000Y-112903000D03*
X162687000Y-113919000D03*
X162687000Y-114808000D03*
X161671000Y-114808000D03*
X160655000Y-115697000D03*
X161671000Y-115697000D03*
X162687000Y-115697000D03*
X162687000Y-116586000D03*
X161671000Y-116586000D03*
X160655000Y-116586000D03*
X160655000Y-117475000D03*
X161671000Y-117475000D03*
X162687000Y-117475000D03*
X162687000Y-118364000D03*
X161671000Y-118364000D03*
X160655000Y-118364000D03*
X162687000Y-119253000D03*
X161671000Y-119253000D03*
X160655000Y-119253000D03*
X160655000Y-120142000D03*
X161671000Y-120142000D03*
X162687000Y-120142000D03*
X162687000Y-121031000D03*
X161671000Y-121031000D03*
X160655000Y-121031000D03*
X148844000Y-102108000D03*
X149479000Y-98171000D03*
X148971000Y-97536000D03*
X148844000Y-103124000D03*
X149479000Y-102489000D03*
X149479000Y-101727000D03*
X148844000Y-101092000D03*
X139319000Y-84328000D03*
X140208000Y-83566000D03*
X140208000Y-84328000D03*
X141986000Y-82804000D03*
X141097000Y-82804000D03*
X141097000Y-83566000D03*
X141097000Y-84328000D03*
X141986000Y-84328000D03*
X141986000Y-83566000D03*
X142875000Y-83566000D03*
X142875000Y-84328000D03*
X143764000Y-84328000D03*
X143764000Y-83566000D03*
X164719000Y-82550000D03*
X163703000Y-81534000D03*
X164719000Y-81534000D03*
X163703000Y-80518000D03*
X164719000Y-80518000D03*
X163703000Y-79502000D03*
X164719000Y-79502000D03*
X165735000Y-82550000D03*
X165735000Y-81534000D03*
X165735000Y-80518000D03*
X165735000Y-79502000D03*
X166878000Y-82550000D03*
X166878000Y-81534000D03*
X166878000Y-80518000D03*
X166878000Y-79502000D03*
X167894000Y-82550000D03*
X167894000Y-81534000D03*
X167894000Y-80518000D03*
X167894000Y-79502000D03*
X163703000Y-78486000D03*
X164719000Y-78486000D03*
X165735000Y-78486000D03*
X166878000Y-78486000D03*
X167894000Y-78486000D03*
X163703000Y-77470000D03*
X164719000Y-77470000D03*
X165735000Y-77470000D03*
X166878000Y-77470000D03*
X167894000Y-77470000D03*
X163703000Y-76454000D03*
X164719000Y-76454000D03*
X165735000Y-76454000D03*
X166878000Y-76454000D03*
X167894000Y-76454000D03*
X163703000Y-75438000D03*
X164719000Y-75438000D03*
X165735000Y-75438000D03*
X166878000Y-75438000D03*
X167894000Y-75438000D03*
X168910000Y-75438000D03*
X168910000Y-76454000D03*
X168910000Y-77470000D03*
X168910000Y-78486000D03*
X168910000Y-79502000D03*
X168910000Y-80518000D03*
X168910000Y-81534000D03*
X168910000Y-82550000D03*
X169672000Y-103759000D03*
X168656000Y-102870000D03*
X169672000Y-102870000D03*
X168656000Y-101854000D03*
X169672000Y-101854000D03*
X167640000Y-100965000D03*
X168656000Y-100965000D03*
X169672000Y-100965000D03*
X166624000Y-99949000D03*
X167640000Y-99949000D03*
X168656000Y-99949000D03*
X169672000Y-99949000D03*
X169672000Y-99060000D03*
X168656000Y-99060000D03*
X167640000Y-99060000D03*
X166624000Y-99060000D03*
X165608000Y-99060000D03*
X164592000Y-99060000D03*
X164592000Y-98171000D03*
X165608000Y-98171000D03*
X166624000Y-98171000D03*
X167640000Y-98171000D03*
X168656000Y-98171000D03*
X169672000Y-98171000D03*
X165608000Y-97282000D03*
X166624000Y-97282000D03*
X167640000Y-97282000D03*
X168656000Y-97282000D03*
X169672000Y-97282000D03*
X147828000Y-107061000D03*
X147828000Y-107950000D03*
X147828000Y-108966000D03*
X147828000Y-109982000D03*
X147828000Y-110871000D03*
X151765000Y-122555000D03*
X152781000Y-122555000D03*
X152781000Y-123444000D03*
X151765000Y-123444000D03*
X150749000Y-123444000D03*
X149733000Y-123444000D03*
X148717000Y-123444000D03*
X147701000Y-123444000D03*
X133731000Y-122682000D03*
X134620000Y-122682000D03*
X135509000Y-122682000D03*
X133731000Y-121920000D03*
X133731000Y-121031000D03*
X135509000Y-121920000D03*
X134620000Y-121920000D03*
X134620000Y-121031000D03*
X135509000Y-121031000D03*
X133731000Y-120142000D03*
X134620000Y-120142000D03*
X135509000Y-120142000D03*
X135509000Y-119253000D03*
X134620000Y-119253000D03*
X133731000Y-119253000D03*
X167640000Y-111633000D03*
X167640000Y-115316000D03*
X167640000Y-113538000D03*
X167640000Y-112649000D03*
X167640000Y-114427000D03*
X167640000Y-108839000D03*
X167640000Y-107823000D03*
X167640000Y-110744000D03*
X167640000Y-109728000D03*
X167640000Y-119126000D03*
X167640000Y-118237000D03*
X167640000Y-120142000D03*
X167640000Y-116332000D03*
X167640000Y-117221000D03*
X167640000Y-121031000D03*
X166751000Y-111633000D03*
X166751000Y-115316000D03*
X166751000Y-113538000D03*
X166751000Y-112649000D03*
X166751000Y-114427000D03*
X166751000Y-108839000D03*
X166751000Y-107823000D03*
X166751000Y-110744000D03*
X166751000Y-109728000D03*
X166751000Y-119126000D03*
X166751000Y-118237000D03*
X166751000Y-120142000D03*
X166751000Y-116332000D03*
X166751000Y-117221000D03*
X166751000Y-121031000D03*
X166751000Y-121920000D03*
X165862000Y-111633000D03*
X165862000Y-115316000D03*
X165862000Y-113538000D03*
X165862000Y-112649000D03*
X165862000Y-114427000D03*
X165862000Y-108839000D03*
X165862000Y-107823000D03*
X165862000Y-110744000D03*
X165862000Y-109728000D03*
X165862000Y-119126000D03*
X165862000Y-118237000D03*
X165862000Y-120142000D03*
X165862000Y-116332000D03*
X165862000Y-117221000D03*
X165862000Y-121031000D03*
X165862000Y-121920000D03*
X170688000Y-103759000D03*
X170688000Y-102870000D03*
X170688000Y-105664000D03*
X170688000Y-104775000D03*
X170688000Y-106680000D03*
X170688000Y-107569000D03*
X170688000Y-110363000D03*
X170688000Y-108458000D03*
X170688000Y-109347000D03*
X170688000Y-111252000D03*
X170688000Y-98171000D03*
X170688000Y-99187000D03*
X170688000Y-100965000D03*
X170688000Y-97282000D03*
X170688000Y-101854000D03*
X170688000Y-100076000D03*
X170688000Y-113157000D03*
X170688000Y-118745000D03*
X170688000Y-115062000D03*
X170688000Y-115951000D03*
X170688000Y-117856000D03*
X170688000Y-114173000D03*
X170688000Y-112268000D03*
X170688000Y-116840000D03*
X170688000Y-120650000D03*
X170688000Y-119761000D03*
X170688000Y-122555000D03*
X170688000Y-121666000D03*
X170688000Y-123444000D03*
X154432000Y-73279000D03*
X138557000Y-70485000D03*
X139446000Y-70485000D03*
X140335000Y-70485000D03*
X141351000Y-70485000D03*
X154559000Y-67564000D03*
X151638000Y-67564000D03*
X150749000Y-67564000D03*
X149860000Y-67564000D03*
X148971000Y-67564000D03*
X148082000Y-67564000D03*
X147193000Y-67564000D03*
X146304000Y-67564000D03*
X145415000Y-67564000D03*
X144526000Y-67564000D03*
X145669000Y-80518000D03*
X141605000Y-111125000D03*
X142494000Y-111125000D03*
X142494000Y-112014000D03*
X144272000Y-112903000D03*
X143383000Y-112014000D03*
X143383000Y-112903000D03*
X136271000Y-114173000D03*
X136271000Y-114935000D03*
X137033000Y-115697000D03*
X137033000Y-114935000D03*
X137033000Y-114173000D03*
X145796000Y-99568000D03*
X144907000Y-99568000D03*
X144018000Y-99568000D03*
X143256000Y-99568000D03*
X142494000Y-99568000D03*
X142494000Y-98679000D03*
X143256000Y-98679000D03*
X144018000Y-98679000D03*
X144907000Y-98679000D03*
X145796000Y-98679000D03*
X145796000Y-97790000D03*
X144018000Y-97409000D03*
X143129000Y-97409000D03*
X142240000Y-97409000D03*
X142240000Y-96647000D03*
X143129000Y-96647000D03*
X144018000Y-96647000D03*
X144018000Y-95758000D03*
X143129000Y-95758000D03*
X142240000Y-95758000D03*
X145034000Y-93853000D03*
X145796000Y-94615000D03*
X145796000Y-93853000D03*
X145796000Y-92964000D03*
X145796000Y-92075000D03*
X145796000Y-91186000D03*
X155067000Y-100838000D03*
X154178000Y-100838000D03*
X154178000Y-100076000D03*
X153289000Y-100076000D03*
X152400000Y-100076000D03*
X156337000Y-97917000D03*
X156337000Y-96901000D03*
X155448000Y-96901000D03*
X155448000Y-95885000D03*
X154432000Y-95885000D03*
X154432000Y-94869000D03*
X153543000Y-92456000D03*
X152781000Y-92456000D03*
X152019000Y-92456000D03*
X151257000Y-92456000D03*
X149733000Y-92456000D03*
X150495000Y-92456000D03*
X150495000Y-91440000D03*
X149733000Y-91440000D03*
X149733000Y-90424000D03*
X149733000Y-89535000D03*
X150495000Y-90424000D03*
X150495000Y-89535000D03*
X150495000Y-88646000D03*
X149733000Y-88646000D03*
X145034000Y-92964000D03*
X144145000Y-92964000D03*
X144145000Y-92075000D03*
X145034000Y-92075000D03*
X145034000Y-91186000D03*
X144145000Y-91186000D03*
X144145000Y-89535000D03*
X144145000Y-88646000D03*
X145034000Y-88646000D03*
X145034000Y-87757000D03*
X144145000Y-87757000D03*
X144145000Y-86868000D03*
X145034000Y-86868000D03*
X145034000Y-85979000D03*
X144145000Y-85979000D03*
X143256000Y-85979000D03*
X138684000Y-117729000D03*
X144399000Y-121031000D03*
X144399000Y-121793000D03*
X139827000Y-122301000D03*
X149860000Y-86233000D03*
X149860000Y-86741000D03*
X149860000Y-87249000D03*
X150368000Y-87249000D03*
X150368000Y-86233000D03*
X150368000Y-86741000D03*
X149860000Y-94996000D03*
X149860000Y-93980000D03*
X149860000Y-94488000D03*
X150368000Y-94488000D03*
X150368000Y-94996000D03*
X150368000Y-93980000D03*
X164719000Y-108712000D03*
X164084000Y-108712000D03*
X163449000Y-108712000D03*
X163449000Y-108077000D03*
X164719000Y-108077000D03*
X164084000Y-108077000D03*
X166370000Y-89535000D03*
X166370000Y-90297000D03*
X167132000Y-90297000D03*
X170180000Y-90297000D03*
X169418000Y-90297000D03*
X168656000Y-90297000D03*
X167894000Y-90297000D03*
X166370000Y-94488000D03*
X166370000Y-95250000D03*
X167132000Y-95250000D03*
X170180000Y-95250000D03*
X169418000Y-95250000D03*
X168656000Y-95250000D03*
D14*
X134874000Y-68211000D03*
X134874000Y-69711000D03*
X134874000Y-71259000D03*
X134874000Y-72759000D03*
D15*
X153289000Y-69253000D03*
X153289000Y-67653000D03*
D16*
X143256000Y-121793000D03*
X138756000Y-121793000D03*
D17*
X143506000Y-119293000D03*
X138506000Y-119293000D03*
D18*
X141006000Y-118943000D03*
X141606000Y-118943000D03*
X142206000Y-118943000D03*
X140406000Y-118943000D03*
X139806000Y-118943000D03*
D19*
X154305000Y-111513000D03*
D20*
X154305000Y-109013000D03*
X154305000Y-106513000D03*
X154305000Y-104013000D03*
D21*
X161464000Y-71831000D03*
X161464000Y-72331000D03*
X161464000Y-72831000D03*
X161464000Y-73331000D03*
X161464000Y-74331000D03*
X161464000Y-75331000D03*
X161464000Y-73831000D03*
X161464000Y-74831000D03*
X161464000Y-76831000D03*
X161464000Y-79331000D03*
X161464000Y-77831000D03*
X161464000Y-78331000D03*
X161464000Y-76331000D03*
X161464000Y-77331000D03*
X161464000Y-75831000D03*
X161464000Y-78831000D03*
X161464000Y-79831000D03*
X161464000Y-80331000D03*
X161464000Y-80831000D03*
D22*
X167894000Y-68453000D03*
X163068000Y-69088000D03*
X163068000Y-83566000D03*
X167894000Y-84201000D03*
D23*
X158877000Y-116205000D03*
X158877000Y-118745000D03*
X158877000Y-121285000D03*
X158877000Y-113665000D03*
X158877000Y-108585000D03*
X158877000Y-111125000D03*
X158877000Y-95885000D03*
X158877000Y-93345000D03*
X158877000Y-98425000D03*
X158877000Y-106045000D03*
X158877000Y-100965000D03*
X158877000Y-103505000D03*
X158877000Y-90805000D03*
X158940500Y-88265000D03*
D24*
X153289000Y-70612000D03*
X153289000Y-72112000D03*
D25*
X138505000Y-106839000D03*
X138505000Y-107339000D03*
X138505000Y-107839000D03*
X138505000Y-108339000D03*
X138505000Y-108839000D03*
X141605000Y-108839000D03*
X141605000Y-108339000D03*
X141605000Y-107839000D03*
X141605000Y-107339000D03*
X141605000Y-106839000D03*
D26*
X140442500Y-108459000D03*
X140442500Y-107219000D03*
X139667500Y-108459000D03*
X139667500Y-107219000D03*
D27*
X138113000Y-112858000D03*
X138113000Y-113508000D03*
X138113000Y-114158000D03*
X138113000Y-114808000D03*
D28*
X139138000Y-115833000D03*
X139788000Y-115833000D03*
X140438000Y-115833000D03*
X141088000Y-115833000D03*
D27*
X142113000Y-114808000D03*
X142113000Y-114158000D03*
X142113000Y-113508000D03*
X142113000Y-112858000D03*
D28*
X141088000Y-111833000D03*
X140438000Y-111833000D03*
X139788000Y-111833000D03*
X139138000Y-111833000D03*
D29*
X140738000Y-114458000D03*
X140738000Y-113208000D03*
X139488000Y-114458000D03*
X139488000Y-113208000D03*
D10*
G36*
X142623789Y-80183988D02*
X142447012Y-80007211D01*
X142941987Y-79512236D01*
X143118764Y-79689013D01*
X142623789Y-80183988D01*
X142623789Y-80183988D01*
G37*
G36*
X142977342Y-80537542D02*
X142800565Y-80360765D01*
X143295540Y-79865790D01*
X143472317Y-80042567D01*
X142977342Y-80537542D01*
X142977342Y-80537542D01*
G37*
G36*
X143330896Y-80891095D02*
X143154119Y-80714318D01*
X143649094Y-80219343D01*
X143825871Y-80396120D01*
X143330896Y-80891095D01*
X143330896Y-80891095D01*
G37*
G36*
X143684449Y-81244649D02*
X143507672Y-81067872D01*
X144002647Y-80572897D01*
X144179424Y-80749674D01*
X143684449Y-81244649D01*
X143684449Y-81244649D01*
G37*
G36*
X144038002Y-81598202D02*
X143861225Y-81421425D01*
X144356200Y-80926450D01*
X144532977Y-81103227D01*
X144038002Y-81598202D01*
X144038002Y-81598202D01*
G37*
G36*
X144391556Y-81951755D02*
X144214779Y-81774978D01*
X144709754Y-81280003D01*
X144886531Y-81456780D01*
X144391556Y-81951755D01*
X144391556Y-81951755D01*
G37*
G36*
X144745109Y-82305309D02*
X144568332Y-82128532D01*
X145063307Y-81633557D01*
X145240084Y-81810334D01*
X144745109Y-82305309D01*
X144745109Y-82305309D01*
G37*
G36*
X145098663Y-82658862D02*
X144921886Y-82482085D01*
X145416861Y-81987110D01*
X145593638Y-82163887D01*
X145098663Y-82658862D01*
X145098663Y-82658862D01*
G37*
G36*
X146512876Y-82482085D02*
X146336099Y-82658862D01*
X145841124Y-82163887D01*
X146017901Y-81987110D01*
X146512876Y-82482085D01*
X146512876Y-82482085D01*
G37*
G36*
X146866430Y-82128532D02*
X146689653Y-82305309D01*
X146194678Y-81810334D01*
X146371455Y-81633557D01*
X146866430Y-82128532D01*
X146866430Y-82128532D01*
G37*
G36*
X147219983Y-81774978D02*
X147043206Y-81951755D01*
X146548231Y-81456780D01*
X146725008Y-81280003D01*
X147219983Y-81774978D01*
X147219983Y-81774978D01*
G37*
G36*
X147573537Y-81421425D02*
X147396760Y-81598202D01*
X146901785Y-81103227D01*
X147078562Y-80926450D01*
X147573537Y-81421425D01*
X147573537Y-81421425D01*
G37*
G36*
X147927090Y-81067872D02*
X147750313Y-81244649D01*
X147255338Y-80749674D01*
X147432115Y-80572897D01*
X147927090Y-81067872D01*
X147927090Y-81067872D01*
G37*
G36*
X148280643Y-80714318D02*
X148103866Y-80891095D01*
X147608891Y-80396120D01*
X147785668Y-80219343D01*
X148280643Y-80714318D01*
X148280643Y-80714318D01*
G37*
G36*
X148634197Y-80360765D02*
X148457420Y-80537542D01*
X147962445Y-80042567D01*
X148139222Y-79865790D01*
X148634197Y-80360765D01*
X148634197Y-80360765D01*
G37*
G36*
X148987750Y-80007211D02*
X148810973Y-80183988D01*
X148315998Y-79689013D01*
X148492775Y-79512236D01*
X148987750Y-80007211D01*
X148987750Y-80007211D01*
G37*
G36*
X148492775Y-79264750D02*
X148315998Y-79087973D01*
X148810973Y-78592998D01*
X148987750Y-78769775D01*
X148492775Y-79264750D01*
X148492775Y-79264750D01*
G37*
G36*
X148139222Y-78911196D02*
X147962445Y-78734419D01*
X148457420Y-78239444D01*
X148634197Y-78416221D01*
X148139222Y-78911196D01*
X148139222Y-78911196D01*
G37*
G36*
X147785668Y-78557643D02*
X147608891Y-78380866D01*
X148103866Y-77885891D01*
X148280643Y-78062668D01*
X147785668Y-78557643D01*
X147785668Y-78557643D01*
G37*
G36*
X147432115Y-78204089D02*
X147255338Y-78027312D01*
X147750313Y-77532337D01*
X147927090Y-77709114D01*
X147432115Y-78204089D01*
X147432115Y-78204089D01*
G37*
G36*
X147078562Y-77850536D02*
X146901785Y-77673759D01*
X147396760Y-77178784D01*
X147573537Y-77355561D01*
X147078562Y-77850536D01*
X147078562Y-77850536D01*
G37*
G36*
X146725008Y-77496983D02*
X146548231Y-77320206D01*
X147043206Y-76825231D01*
X147219983Y-77002008D01*
X146725008Y-77496983D01*
X146725008Y-77496983D01*
G37*
G36*
X146371455Y-77143429D02*
X146194678Y-76966652D01*
X146689653Y-76471677D01*
X146866430Y-76648454D01*
X146371455Y-77143429D01*
X146371455Y-77143429D01*
G37*
G36*
X146017901Y-76789876D02*
X145841124Y-76613099D01*
X146336099Y-76118124D01*
X146512876Y-76294901D01*
X146017901Y-76789876D01*
X146017901Y-76789876D01*
G37*
G36*
X145593638Y-76613099D02*
X145416861Y-76789876D01*
X144921886Y-76294901D01*
X145098663Y-76118124D01*
X145593638Y-76613099D01*
X145593638Y-76613099D01*
G37*
G36*
X145240084Y-76966652D02*
X145063307Y-77143429D01*
X144568332Y-76648454D01*
X144745109Y-76471677D01*
X145240084Y-76966652D01*
X145240084Y-76966652D01*
G37*
G36*
X144886531Y-77320206D02*
X144709754Y-77496983D01*
X144214779Y-77002008D01*
X144391556Y-76825231D01*
X144886531Y-77320206D01*
X144886531Y-77320206D01*
G37*
G36*
X144532977Y-77673759D02*
X144356200Y-77850536D01*
X143861225Y-77355561D01*
X144038002Y-77178784D01*
X144532977Y-77673759D01*
X144532977Y-77673759D01*
G37*
G36*
X144179424Y-78027312D02*
X144002647Y-78204089D01*
X143507672Y-77709114D01*
X143684449Y-77532337D01*
X144179424Y-78027312D01*
X144179424Y-78027312D01*
G37*
G36*
X143825871Y-78380866D02*
X143649094Y-78557643D01*
X143154119Y-78062668D01*
X143330896Y-77885891D01*
X143825871Y-78380866D01*
X143825871Y-78380866D01*
G37*
G36*
X143472317Y-78734419D02*
X143295540Y-78911196D01*
X142800565Y-78416221D01*
X142977342Y-78239444D01*
X143472317Y-78734419D01*
X143472317Y-78734419D01*
G37*
G36*
X143118764Y-79087973D02*
X142941987Y-79264750D01*
X142447012Y-78769775D01*
X142623789Y-78592998D01*
X143118764Y-79087973D01*
X143118764Y-79087973D01*
G37*
G36*
X146937140Y-80608252D02*
X145717381Y-79388493D01*
X146937140Y-78168734D01*
X148156899Y-79388493D01*
X146937140Y-80608252D01*
X146937140Y-80608252D01*
G37*
G36*
X145717381Y-79388493D02*
X144497622Y-78168734D01*
X145717381Y-76948975D01*
X146937140Y-78168734D01*
X145717381Y-79388493D01*
X145717381Y-79388493D01*
G37*
G36*
X145717381Y-81828011D02*
X144497622Y-80608252D01*
X145717381Y-79388493D01*
X146937140Y-80608252D01*
X145717381Y-81828011D01*
X145717381Y-81828011D01*
G37*
G36*
X144497622Y-80608252D02*
X143277863Y-79388493D01*
X144497622Y-78168734D01*
X145717381Y-79388493D01*
X144497622Y-80608252D01*
X144497622Y-80608252D01*
G37*
D30*
X148971000Y-117411500D03*
X151501000Y-117431500D03*
X154041000Y-117431500D03*
D31*
X140335000Y-94488000D03*
X140335000Y-98044000D03*
X152400000Y-94488000D03*
X152400000Y-98044000D03*
X140335000Y-86741000D03*
X140335000Y-90297000D03*
X152400000Y-86741000D03*
X152400000Y-90297000D03*
D32*
X146050000Y-106442000D03*
X146050000Y-107442000D03*
X146050000Y-108442000D03*
X146050000Y-109442000D03*
X146050000Y-110442000D03*
X146050000Y-111442000D03*
D33*
X148550000Y-105442000D03*
X148550000Y-112442000D03*
D34*
X137131000Y-68210000D03*
X137131000Y-68860000D03*
X137131000Y-69510000D03*
X137131000Y-70160000D03*
X137131000Y-70810000D03*
X137131000Y-71460000D03*
X137131000Y-72110000D03*
X137131000Y-72760000D03*
X143031000Y-72760000D03*
X143031000Y-72110000D03*
X143031000Y-71460000D03*
X143031000Y-70810000D03*
X143031000Y-70160000D03*
X143031000Y-69510000D03*
X143031000Y-68860000D03*
X143031000Y-68210000D03*
D13*
X167894000Y-95250000D03*
D35*
X134239000Y-74803000D03*
D36*
X134239000Y-76803000D03*
X134239000Y-78812000D03*
X134239000Y-80812000D03*
X134239000Y-82812000D03*
X134239000Y-84812000D03*
X134239000Y-86812000D03*
X134239000Y-88812000D03*
X134239000Y-90803000D03*
X134239000Y-92803000D03*
X156239000Y-74803000D03*
X156239000Y-76803000D03*
X156239000Y-78803000D03*
X156239000Y-80812000D03*
X156239000Y-82803000D03*
X156239000Y-84812000D03*
X156239000Y-86803000D03*
X156239000Y-88803000D03*
X156239000Y-90803000D03*
X156239000Y-92803000D03*
D13*
X142875000Y-82550000D03*
X144526000Y-68453000D03*
X139827000Y-104013000D03*
X134462810Y-103378000D03*
X143653541Y-74057541D03*
X136652000Y-76962000D03*
X137160000Y-103378000D03*
X143792362Y-82626516D03*
X143010150Y-81559518D03*
X148311289Y-77312810D03*
X149384906Y-78455810D03*
X143129000Y-67564000D03*
X137541000Y-106680000D03*
X144145000Y-110642038D03*
X149992178Y-80570714D03*
X149913036Y-79771411D03*
X149999551Y-78972880D03*
X148844000Y-70104000D03*
X144907000Y-72136000D03*
X136652000Y-77851000D03*
X136652000Y-107823000D03*
X136779000Y-78740000D03*
X142494000Y-106934000D03*
X146442448Y-74473731D03*
X148971000Y-74295000D03*
X149479000Y-107823000D03*
X151384000Y-102743000D03*
X152527000Y-80645000D03*
X150920611Y-80644731D03*
X151723805Y-80650039D03*
X140208000Y-117729000D03*
X141859000Y-117729000D03*
X141097000Y-122174000D03*
X141120863Y-123005469D03*
X140335000Y-98044000D03*
X146498044Y-83498956D03*
X140335000Y-90297000D03*
X147066000Y-82931000D03*
X149352000Y-82387241D03*
X149043467Y-84003263D03*
X137261451Y-109136534D03*
X134957147Y-108645178D03*
X137668000Y-108443810D03*
X142470383Y-107821466D03*
X147320000Y-122174000D03*
X143383000Y-113792000D03*
X137922000Y-112141000D03*
X143383000Y-115062000D03*
X138937078Y-111094810D03*
X138430000Y-68707000D03*
X138430000Y-71501000D03*
X170942000Y-87630000D03*
X168783000Y-92595000D03*
X144009709Y-76428125D03*
X141986000Y-79248000D03*
X153289000Y-81915000D03*
X153289000Y-76200000D03*
X153289000Y-74549000D03*
X153289000Y-73279000D03*
D37*
X143844477Y-81580523D02*
X142875000Y-82550000D01*
X143878904Y-81580523D02*
X143844477Y-81580523D01*
X144197101Y-81262326D02*
X143878904Y-81580523D01*
X143031000Y-68860000D02*
X144119000Y-68860000D01*
X144119000Y-68860000D02*
X144526000Y-68453000D01*
X142206000Y-118943000D02*
X143156000Y-118943000D01*
X143156000Y-118943000D02*
X143506000Y-119293000D01*
X138506000Y-119293000D02*
X138506000Y-121543000D01*
X138506000Y-121543000D02*
X138756000Y-121793000D01*
X143506000Y-119293000D02*
X143506000Y-121543000D01*
X143506000Y-121543000D02*
X143256000Y-121793000D01*
X138113000Y-114158000D02*
X139188000Y-114158000D01*
X139188000Y-114158000D02*
X139488000Y-114458000D01*
X143489995Y-80555219D02*
X144497622Y-79547592D01*
X144497622Y-79547592D02*
X144497622Y-79388493D01*
X144197101Y-81262326D02*
X144851175Y-80608252D01*
X144851175Y-80608252D02*
X145717381Y-80608252D01*
X147237661Y-77514660D02*
X146044417Y-78707904D01*
X146044417Y-78707904D02*
X146256551Y-78707904D01*
X146256551Y-78707904D02*
X146937140Y-79388493D01*
X137160000Y-103378000D02*
X134462810Y-103378000D01*
X143353542Y-74357540D02*
X143653541Y-74057541D01*
X142935250Y-74775832D02*
X143353542Y-74357540D01*
X143764000Y-74168000D02*
X143653541Y-74057541D01*
X142935250Y-76962000D02*
X142935250Y-74775832D01*
X143843548Y-77868213D02*
X143525351Y-77550016D01*
X143525351Y-77550016D02*
X143523266Y-77550016D01*
X143523266Y-77550016D02*
X142935250Y-76962000D01*
X142935250Y-76962000D02*
X137076264Y-76962000D01*
X137076264Y-76962000D02*
X136652000Y-76962000D01*
D38*
X164084000Y-108712000D02*
X164084000Y-122047000D01*
X164084000Y-122047000D02*
X163384799Y-122746201D01*
X157009388Y-121579966D02*
X157009388Y-104050388D01*
X163384799Y-122746201D02*
X158175623Y-122746201D01*
X158175623Y-122746201D02*
X157009388Y-121579966D01*
X153658713Y-101849201D02*
X153282512Y-101473000D01*
X157009388Y-104050388D02*
X154808201Y-101849201D01*
X154808201Y-101849201D02*
X153658713Y-101849201D01*
X153282512Y-101473000D02*
X151130000Y-101473000D01*
X151130000Y-101473000D02*
X143510000Y-93853000D01*
X143510000Y-93853000D02*
X142494000Y-93853000D01*
X163449000Y-108712000D02*
X164084000Y-108712000D01*
X163449000Y-108077000D02*
X164084000Y-108077000D01*
X164084000Y-108077000D02*
X164719000Y-108077000D01*
X164084000Y-108712000D02*
X164719000Y-108712000D01*
X163449000Y-108712000D02*
X163449000Y-108077000D01*
X164719000Y-108712000D02*
X164719000Y-108077000D01*
X141859000Y-94488000D02*
X142494000Y-93853000D01*
X142494000Y-93853000D02*
X142494000Y-87249000D01*
X140335000Y-94488000D02*
X141859000Y-94488000D01*
X141986000Y-86741000D02*
X142494000Y-87249000D01*
X140335000Y-86741000D02*
X141986000Y-86741000D01*
D37*
X143192803Y-81559518D02*
X143010150Y-81559518D01*
X143843548Y-80908773D02*
X143192803Y-81559518D01*
X144092361Y-82326517D02*
X143792362Y-82626516D01*
X144550655Y-81615879D02*
X144550655Y-81715140D01*
X144550655Y-81715140D02*
X144092361Y-82173434D01*
X144092361Y-82173434D02*
X144092361Y-82326517D01*
X148146617Y-77312810D02*
X148311289Y-77312810D01*
X148397582Y-78575320D02*
X148684714Y-78288188D01*
X148298321Y-78575320D02*
X148397582Y-78575320D01*
X147591214Y-77868213D02*
X148146617Y-77312810D01*
X148684714Y-78288188D02*
X149217284Y-78288188D01*
X149217284Y-78288188D02*
X149384906Y-78455810D01*
X143129000Y-67564000D02*
X143129000Y-68112000D01*
X143129000Y-68112000D02*
X143031000Y-68210000D01*
X138505000Y-106839000D02*
X137700000Y-106839000D01*
X137700000Y-106839000D02*
X137541000Y-106680000D01*
D12*
X146050000Y-110442000D02*
X144345038Y-110442000D01*
X144345038Y-110442000D02*
X144145000Y-110642038D01*
D37*
X148298321Y-80201666D02*
X148667369Y-80570714D01*
X149567914Y-80570714D02*
X149992178Y-80570714D01*
X148667369Y-80570714D02*
X149567914Y-80570714D01*
X149836335Y-79848112D02*
X149913036Y-79771411D01*
X148651874Y-79848112D02*
X149836335Y-79848112D01*
X149884459Y-79087972D02*
X149999551Y-78972880D01*
X148651874Y-78928874D02*
X148810972Y-79087972D01*
X148810972Y-79087972D02*
X149884459Y-79087972D01*
X146812000Y-70231000D02*
X148717000Y-70231000D01*
X148717000Y-70231000D02*
X148844000Y-70104000D01*
X144907000Y-72136000D02*
X146812000Y-70231000D01*
X143171798Y-77903570D02*
X143489995Y-78221767D01*
X142636639Y-77368411D02*
X143171798Y-77903570D01*
X137134589Y-77368411D02*
X142636639Y-77368411D01*
X136652000Y-77851000D02*
X137134589Y-77368411D01*
X138505000Y-107839000D02*
X136668000Y-107839000D01*
X136668000Y-107839000D02*
X136652000Y-107823000D01*
X137261877Y-78257123D02*
X142818244Y-78257123D01*
X142818244Y-78257123D02*
X143136441Y-78575320D01*
X136779000Y-78740000D02*
X137261877Y-78257123D01*
X142089000Y-107339000D02*
X142494000Y-106934000D01*
X141605000Y-107339000D02*
X142089000Y-107339000D01*
X154305000Y-81226970D02*
X152840138Y-81226970D01*
X160045411Y-74150946D02*
X160045411Y-75479340D01*
X155648970Y-79883000D02*
X154305000Y-81226970D01*
X161464000Y-73831000D02*
X160365357Y-73831000D01*
X160365357Y-73831000D02*
X160045411Y-74150946D01*
X160045411Y-75479340D02*
X157226000Y-78298751D01*
X157226000Y-78298751D02*
X157226000Y-79375000D01*
X157226000Y-79375000D02*
X156718000Y-79883000D01*
X156718000Y-79883000D02*
X155648970Y-79883000D01*
X147909411Y-81226970D02*
X147591214Y-80908773D01*
X151439363Y-81249802D02*
X147932243Y-81249802D01*
X147932243Y-81249802D02*
X147909411Y-81226970D01*
X152840138Y-81226970D02*
X152812259Y-81254849D01*
X151444410Y-81254849D02*
X151439363Y-81249802D01*
X152812259Y-81254849D02*
X151444410Y-81254849D01*
X149270999Y-73995001D02*
X148971000Y-74295000D01*
X149352000Y-73914000D02*
X149270999Y-73995001D01*
X158242000Y-73914000D02*
X149352000Y-73914000D01*
X159825000Y-72331000D02*
X158242000Y-73914000D01*
X161464000Y-72331000D02*
X159825000Y-72331000D01*
X146177000Y-76177223D02*
X146442448Y-75911775D01*
X146442448Y-75911775D02*
X146442448Y-74473731D01*
X146177000Y-76454000D02*
X146177000Y-76177223D01*
X147087680Y-73868929D02*
X146152142Y-73868929D01*
X161464000Y-73331000D02*
X160290607Y-73331000D01*
X145837646Y-74183425D02*
X145837646Y-75874116D01*
X145416860Y-76294902D02*
X145257762Y-76454000D01*
X145837646Y-75874116D02*
X145416860Y-76294902D01*
X149012340Y-75793589D02*
X147087680Y-73868929D01*
X149520340Y-75793589D02*
X149012340Y-75793589D01*
X151338551Y-77611801D02*
X149520340Y-75793589D01*
X157338199Y-77611801D02*
X151338551Y-77611801D01*
X160290607Y-73331000D02*
X159639000Y-73982607D01*
X159639000Y-75311000D02*
X157338199Y-77611801D01*
X159639000Y-73982607D02*
X159639000Y-75311000D01*
X146152142Y-73868929D02*
X145837646Y-74183425D01*
X160360800Y-76331000D02*
X158038822Y-78652978D01*
X145724169Y-84510169D02*
X144586011Y-83372011D01*
X149333772Y-83398462D02*
X148068397Y-83398462D01*
X158038822Y-80914929D02*
X157353000Y-81600751D01*
X144586011Y-82287630D02*
X144904208Y-81969433D01*
X146956690Y-84510169D02*
X145724169Y-84510169D01*
X149547111Y-83611801D02*
X149333772Y-83398462D01*
X158038822Y-78652978D02*
X158038822Y-80914929D01*
X156799199Y-83611801D02*
X149547111Y-83611801D01*
X157353000Y-83058000D02*
X156799199Y-83611801D01*
X157353000Y-81600751D02*
X157353000Y-83058000D01*
X144586011Y-83372011D02*
X144586011Y-82287630D01*
X148068397Y-83398462D02*
X146956690Y-84510169D01*
X161464000Y-76331000D02*
X160360800Y-76331000D01*
X160360800Y-75831000D02*
X161464000Y-75831000D01*
X160268502Y-75831000D02*
X160360800Y-75831000D01*
X155575000Y-81788000D02*
X156460026Y-81788000D01*
X149546157Y-82992051D02*
X149739106Y-83185000D01*
X157632411Y-78467091D02*
X160268502Y-75831000D01*
X147900057Y-82992051D02*
X149546157Y-82992051D01*
X146207738Y-84103758D02*
X146788350Y-84103758D01*
X146788350Y-84103758D02*
X147900057Y-82992051D01*
X145257762Y-83153782D02*
X146207738Y-84103758D01*
X145257762Y-82322986D02*
X145257762Y-83153782D01*
X149739106Y-83185000D02*
X154178000Y-83185000D01*
X156460026Y-81788000D02*
X157632411Y-80615615D01*
X157632411Y-80615615D02*
X157632411Y-78467091D01*
X154178000Y-83185000D02*
X155575000Y-81788000D01*
X159156411Y-73634589D02*
X159960000Y-72831000D01*
X145431235Y-74015085D02*
X145983802Y-73462518D01*
X159156411Y-75158589D02*
X159156411Y-73634589D01*
X157353000Y-76581000D02*
X157734000Y-76581000D01*
X155702000Y-75819000D02*
X156591000Y-75819000D01*
X154559000Y-76962000D02*
X155702000Y-75819000D01*
X145431235Y-74736822D02*
X145431235Y-74015085D01*
X144904208Y-76807553D02*
X144614511Y-76517856D01*
X145983802Y-73462518D02*
X147256020Y-73462518D01*
X144614511Y-75553546D02*
X145431235Y-74736822D01*
X144614511Y-76517856D02*
X144614511Y-75553546D01*
X157734000Y-76581000D02*
X159156411Y-75158589D01*
X151263501Y-76962000D02*
X154559000Y-76962000D01*
X156591000Y-75819000D02*
X157353000Y-76581000D01*
X159960000Y-72831000D02*
X160360800Y-72831000D01*
X149688680Y-75387178D02*
X151263501Y-76962000D01*
X160360800Y-72831000D02*
X161464000Y-72831000D01*
X149180679Y-75387178D02*
X149688680Y-75387178D01*
X147256020Y-73462518D02*
X149180679Y-75387178D01*
X133731000Y-104140000D02*
X133731000Y-93492026D01*
X133430199Y-90414775D02*
X134224173Y-89620801D01*
X134788199Y-89620801D02*
X138049000Y-86360000D01*
X138049000Y-84582000D02*
X142464691Y-80166309D01*
X133731000Y-93492026D02*
X133430199Y-93191225D01*
X139439894Y-104521000D02*
X134112000Y-104521000D01*
X138049000Y-86360000D02*
X138049000Y-84582000D01*
X140341106Y-104521000D02*
X140244305Y-104617801D01*
X139536695Y-104617801D02*
X139439894Y-104521000D01*
X134224173Y-89620801D02*
X134788199Y-89620801D01*
X143654000Y-104521000D02*
X140341106Y-104521000D01*
X145575000Y-106442000D02*
X143654000Y-104521000D01*
X134112000Y-104521000D02*
X133731000Y-104140000D01*
X142464691Y-80166309D02*
X142782888Y-79848112D01*
X133430199Y-93191225D02*
X133430199Y-90414775D01*
X140244305Y-104617801D02*
X139536695Y-104617801D01*
X146050000Y-106442000D02*
X145575000Y-106442000D01*
X149479000Y-107823000D02*
X151384000Y-105918000D01*
X151384000Y-105918000D02*
X151384000Y-102743000D01*
X152527000Y-80518000D02*
X152527000Y-80645000D01*
X151417172Y-79408172D02*
X152527000Y-80518000D01*
X151417172Y-79375000D02*
X151417172Y-79408172D01*
X151417172Y-78345895D02*
X151417172Y-79375000D01*
X149352000Y-76200000D02*
X151384000Y-78232000D01*
X151384000Y-78232000D02*
X151384000Y-78312723D01*
X151384000Y-78312723D02*
X151417172Y-78345895D01*
X147138107Y-76200000D02*
X149352000Y-76200000D01*
X146530554Y-76807553D02*
X147138107Y-76200000D01*
X150620612Y-80344732D02*
X150920611Y-80644731D01*
X148480540Y-77917611D02*
X148516374Y-77881777D01*
X150604352Y-80328472D02*
X150620612Y-80344732D01*
X149925186Y-78003409D02*
X150604352Y-78682575D01*
X148760106Y-77851009D02*
X149666259Y-77851009D01*
X149666259Y-77851009D02*
X149818659Y-78003409D01*
X148729338Y-77881777D02*
X148760106Y-77851009D01*
X148516374Y-77881777D02*
X148729338Y-77881777D01*
X148248923Y-77917611D02*
X148480540Y-77917611D01*
X147944767Y-78221767D02*
X148248923Y-77917611D01*
X149818659Y-78003409D02*
X149925186Y-78003409D01*
X150604352Y-78682575D02*
X150604352Y-80328472D01*
X151010762Y-79763762D02*
X151723805Y-80476805D01*
X151723805Y-80476805D02*
X151723805Y-80650039D01*
X151010762Y-78514235D02*
X151010762Y-79763762D01*
X149356936Y-76860409D02*
X151010762Y-78514235D01*
X149310659Y-76860409D02*
X149356936Y-76860409D01*
X149158250Y-76708000D02*
X149310659Y-76860409D01*
X146884107Y-77161107D02*
X147337214Y-76708000D01*
X147337214Y-76708000D02*
X149158250Y-76708000D01*
X140406000Y-118943000D02*
X140406000Y-117927000D01*
X140406000Y-117927000D02*
X140208000Y-117729000D01*
X141006000Y-118943000D02*
X141006000Y-118049800D01*
X141006000Y-118049800D02*
X141326800Y-117729000D01*
X141326800Y-117729000D02*
X141859000Y-117729000D01*
X140223199Y-123047801D02*
X141097000Y-122174000D01*
X140438000Y-116436200D02*
X139754789Y-117119411D01*
X140438000Y-115833000D02*
X140438000Y-116436200D01*
X137451199Y-118012551D02*
X137451199Y-122486841D01*
X139754789Y-117119411D02*
X138344339Y-117119411D01*
X138344339Y-117119411D02*
X137451199Y-118012551D01*
X137451199Y-122486841D02*
X138012159Y-123047801D01*
X138012159Y-123047801D02*
X140223199Y-123047801D01*
X140820864Y-123305468D02*
X141120863Y-123005469D01*
X137843819Y-123454212D02*
X140672120Y-123454212D01*
X137044789Y-122693789D02*
X137795000Y-123444000D01*
X137044789Y-117844211D02*
X137044789Y-122693789D01*
X139511200Y-116713000D02*
X138176000Y-116713000D01*
X137795000Y-123444000D02*
X137833607Y-123444000D01*
X139788000Y-116436200D02*
X139511200Y-116713000D01*
X137833607Y-123444000D02*
X137843819Y-123454212D01*
X140672120Y-123454212D02*
X140820864Y-123305468D01*
X139788000Y-115833000D02*
X139788000Y-116436200D01*
X138176000Y-116713000D02*
X137044789Y-117844211D01*
X146198045Y-83198957D02*
X146498044Y-83498956D01*
X146177000Y-83177912D02*
X146198045Y-83198957D01*
X146177000Y-82322986D02*
X146177000Y-83177912D01*
X147066000Y-82504879D02*
X147066000Y-82931000D01*
X146530554Y-81969433D02*
X147066000Y-82504879D01*
X147655469Y-82387241D02*
X148927736Y-82387241D01*
X146884107Y-81615879D02*
X147655469Y-82387241D01*
X148743468Y-84303262D02*
X149043467Y-84003263D01*
X148927736Y-82387241D02*
X149352000Y-82387241D01*
X138557000Y-86485000D02*
X138557000Y-85430358D01*
X138557000Y-85430358D02*
X138897358Y-85090000D01*
X138897358Y-85090000D02*
X147956730Y-85090000D01*
X147956730Y-85090000D02*
X148743468Y-84303262D01*
X134239000Y-90803000D02*
X138557000Y-86485000D01*
X138113000Y-113508000D02*
X137509800Y-113508000D01*
X141605000Y-106485800D02*
X141605000Y-106839000D01*
X141164200Y-106045000D02*
X141605000Y-106485800D01*
X136779000Y-106045000D02*
X141164200Y-106045000D01*
X136144000Y-112142200D02*
X136144000Y-109038859D01*
X135513787Y-107310213D02*
X136779000Y-106045000D01*
X137509800Y-113508000D02*
X136144000Y-112142200D01*
X136144000Y-109038859D02*
X135513787Y-108408646D01*
X135513787Y-108408646D02*
X135513787Y-107310213D01*
X137976800Y-107339000D02*
X138505000Y-107339000D01*
X137063108Y-107339000D02*
X137976800Y-107339000D01*
X136942306Y-107218198D02*
X137063108Y-107339000D01*
X137414000Y-110236000D02*
X136652000Y-109474000D01*
X136652000Y-109474000D02*
X136652000Y-108972108D01*
X139788000Y-110705000D02*
X139319000Y-110236000D01*
X135920198Y-108240306D02*
X135920198Y-107532694D01*
X139788000Y-111833000D02*
X139788000Y-110705000D01*
X136234694Y-107218198D02*
X136942306Y-107218198D01*
X135920198Y-107532694D02*
X136234694Y-107218198D01*
X139319000Y-110236000D02*
X137414000Y-110236000D01*
X136652000Y-108972108D02*
X135920198Y-108240306D01*
X158369000Y-72009000D02*
X159131000Y-71247000D01*
X159131000Y-71247000D02*
X162560000Y-71247000D01*
X155829000Y-72009000D02*
X158369000Y-72009000D01*
X155067000Y-71247000D02*
X155829000Y-72009000D01*
X152675358Y-71247000D02*
X155067000Y-71247000D01*
X161464000Y-75331000D02*
X162567200Y-75331000D01*
X162567200Y-75331000D02*
X162941000Y-74957200D01*
X162941000Y-74957200D02*
X162941000Y-71628000D01*
X162941000Y-71628000D02*
X162560000Y-71247000D01*
X152675358Y-71247000D02*
X150927556Y-69499198D01*
X150927556Y-69499198D02*
X149134306Y-69499198D01*
X143031000Y-69510000D02*
X148542892Y-69510000D01*
X148553694Y-69499198D02*
X149134306Y-69499198D01*
X149134306Y-69499198D02*
X149145108Y-69510000D01*
X148542892Y-69510000D02*
X148553694Y-69499198D01*
X161464000Y-77331000D02*
X160360800Y-77331000D01*
X160360800Y-77331000D02*
X158445233Y-79246567D01*
X158445233Y-79246567D02*
X158445233Y-82499233D01*
X158445233Y-82499233D02*
X161163000Y-85217000D01*
X161163000Y-85217000D02*
X161163000Y-113919000D01*
X161163000Y-113919000D02*
X158877000Y-116205000D01*
D38*
X149860000Y-94996000D02*
X150368000Y-94996000D01*
X149860000Y-93980000D02*
X150368000Y-93980000D01*
X150368000Y-94488000D02*
X150368000Y-94996000D01*
X149860000Y-94488000D02*
X149860000Y-94996000D01*
X149860000Y-93980000D02*
X149860000Y-94488000D01*
X150368000Y-93980000D02*
X150368000Y-94488000D01*
X150368000Y-94488000D02*
X152400000Y-94488000D01*
X149860000Y-87249000D02*
X150368000Y-87249000D01*
X149860000Y-86233000D02*
X150368000Y-86233000D01*
X150368000Y-86741000D02*
X150368000Y-87249000D01*
X149860000Y-86741000D02*
X149860000Y-87249000D01*
X149860000Y-86233000D02*
X149860000Y-86741000D01*
X150368000Y-86233000D02*
X150368000Y-86741000D01*
X152400000Y-86741000D02*
X150368000Y-86741000D01*
D37*
X137976800Y-109192200D02*
X137317117Y-109192200D01*
X138505000Y-108839000D02*
X138330000Y-108839000D01*
X138330000Y-108839000D02*
X137976800Y-109192200D01*
X137317117Y-109192200D02*
X137261451Y-109136534D01*
X143129000Y-108331000D02*
X143129000Y-106673892D01*
X143002000Y-108458000D02*
X143129000Y-108331000D01*
X143129000Y-106673892D02*
X141992108Y-105537000D01*
X142252200Y-108458000D02*
X143002000Y-108458000D01*
X142133200Y-108339000D02*
X142252200Y-108458000D01*
X141605000Y-108339000D02*
X142133200Y-108339000D01*
X141992108Y-105537000D02*
X136525000Y-105537000D01*
X136525000Y-105537000D02*
X134957147Y-107104853D01*
X134957147Y-107104853D02*
X134957147Y-108220914D01*
X134957147Y-108220914D02*
X134957147Y-108645178D01*
X138505000Y-108339000D02*
X137772810Y-108339000D01*
X137772810Y-108339000D02*
X137668000Y-108443810D01*
X142452849Y-107839000D02*
X142470383Y-107821466D01*
X141605000Y-107839000D02*
X142452849Y-107839000D01*
D12*
X146293799Y-123200201D02*
X147320000Y-122174000D01*
X141986000Y-121666000D02*
X141986000Y-122795962D01*
X141986000Y-122795962D02*
X142390239Y-123200201D01*
X142390239Y-123200201D02*
X146293799Y-123200201D01*
X140558200Y-120238200D02*
X141986000Y-121666000D01*
X140208000Y-120238200D02*
X140558200Y-120238200D01*
D37*
X139806000Y-118943000D02*
X139806000Y-119836200D01*
X139806000Y-119836200D02*
X140208000Y-120238200D01*
X143383000Y-113792000D02*
X143017000Y-114158000D01*
X143017000Y-114158000D02*
X142113000Y-114158000D01*
X137131000Y-69510000D02*
X135075000Y-69510000D01*
X135075000Y-69510000D02*
X134874000Y-69711000D01*
X142113000Y-115570000D02*
X142113000Y-114808000D01*
X141850000Y-115833000D02*
X142113000Y-115570000D01*
X141088000Y-115833000D02*
X141850000Y-115833000D01*
X137922000Y-112141000D02*
X137922000Y-112667000D01*
X137922000Y-112667000D02*
X138113000Y-112858000D01*
X142113000Y-114808000D02*
X143129000Y-114808000D01*
X143129000Y-114808000D02*
X143383000Y-115062000D01*
X139003010Y-111094810D02*
X138937078Y-111094810D01*
X139138000Y-111229800D02*
X139003010Y-111094810D01*
X139138000Y-111833000D02*
X139138000Y-111229800D01*
X137131000Y-68210000D02*
X134875000Y-68210000D01*
X134875000Y-68210000D02*
X134874000Y-68211000D01*
X137131000Y-70160000D02*
X135948000Y-70160000D01*
X135948000Y-70160000D02*
X134874000Y-71234000D01*
X134874000Y-71234000D02*
X134874000Y-71259000D01*
X135763000Y-71224800D02*
X135763000Y-71845000D01*
X135763000Y-71845000D02*
X134874000Y-72734000D01*
X134874000Y-72734000D02*
X134874000Y-72759000D01*
X137131000Y-70810000D02*
X136177800Y-70810000D01*
X136177800Y-70810000D02*
X135763000Y-71224800D01*
X137131000Y-68860000D02*
X138277000Y-68860000D01*
X138277000Y-68860000D02*
X138430000Y-68707000D01*
X137131000Y-71460000D02*
X138389000Y-71460000D01*
X138389000Y-71460000D02*
X138430000Y-71501000D01*
X153289000Y-70612000D02*
X153289000Y-69253000D01*
X168783000Y-92595000D02*
X170942000Y-90436000D01*
X170942000Y-90436000D02*
X170942000Y-87630000D01*
X144550655Y-77161107D02*
X144009709Y-76620161D01*
X144009709Y-76620161D02*
X144009709Y-76428125D01*
X142782888Y-78928874D02*
X142305126Y-78928874D01*
X142305126Y-78928874D02*
X141986000Y-79248000D01*
X153289000Y-81915000D02*
X149774865Y-81915000D01*
X149774865Y-81915000D02*
X149642305Y-81782440D01*
X147757775Y-81782440D02*
X147237661Y-81262326D01*
X149642305Y-81782440D02*
X147757775Y-81782440D01*
X153289000Y-74549000D02*
X153289000Y-76200000D01*
X153301000Y-72136000D02*
X153301000Y-73267000D01*
X153301000Y-73267000D02*
X153289000Y-73279000D01*
X133350000Y-89920224D02*
X133350000Y-74135358D01*
X133023788Y-90246435D02*
X133350000Y-89920224D01*
X133023788Y-93359565D02*
X133023788Y-90246435D01*
X133324589Y-104308340D02*
X133324589Y-93660365D01*
X142240000Y-105029000D02*
X134045249Y-105029000D01*
X143637000Y-106426000D02*
X142240000Y-105029000D01*
X134021557Y-73463801D02*
X139896199Y-73463801D01*
X145071800Y-109442000D02*
X143637000Y-108007200D01*
X146050000Y-109442000D02*
X145071800Y-109442000D01*
X143637000Y-108007200D02*
X143637000Y-106426000D01*
X134045249Y-105029000D02*
X133324589Y-104308340D01*
X133350000Y-74135358D02*
X134021557Y-73463801D01*
X139896199Y-73463801D02*
X141900000Y-71460000D01*
X141900000Y-71460000D02*
X142077800Y-71460000D01*
X133324589Y-93660365D02*
X133023788Y-93359565D01*
X142077800Y-71460000D02*
X143031000Y-71460000D01*
X144272000Y-71747800D02*
X143984200Y-71460000D01*
X143341661Y-76240842D02*
X144272000Y-75310503D01*
X143341661Y-76659220D02*
X143341661Y-76240842D01*
X144197101Y-77514660D02*
X143341661Y-76659220D01*
X144272000Y-75310503D02*
X144272000Y-71747800D01*
X143984200Y-71460000D02*
X143031000Y-71460000D01*
G36*
X133120280Y-117741143D02*
X133561559Y-118401564D01*
X134221980Y-118842843D01*
X135001000Y-118997800D01*
X135780020Y-118842843D01*
X136440441Y-118401564D01*
X136638389Y-118105314D01*
X136638389Y-122693789D01*
X136669324Y-122849312D01*
X136713654Y-122915656D01*
X136757421Y-122981157D01*
X137475464Y-123699200D01*
X132967800Y-123699200D01*
X132967800Y-116974576D01*
X133120280Y-117741143D01*
X133120280Y-117741143D01*
G37*
X133120280Y-117741143D02*
X133561559Y-118401564D01*
X134221980Y-118842843D01*
X135001000Y-118997800D01*
X135780020Y-118842843D01*
X136440441Y-118401564D01*
X136638389Y-118105314D01*
X136638389Y-122693789D01*
X136669324Y-122849312D01*
X136713654Y-122915656D01*
X136757421Y-122981157D01*
X137475464Y-123699200D01*
X132967800Y-123699200D01*
X132967800Y-116974576D01*
X133120280Y-117741143D01*
G36*
X142616574Y-67220961D02*
X142524305Y-67443170D01*
X142524103Y-67674229D01*
X142281000Y-67674229D01*
X142168048Y-67695482D01*
X142064308Y-67762237D01*
X141994713Y-67864093D01*
X141970229Y-67985000D01*
X141970229Y-68435000D01*
X141990127Y-68540749D01*
X141976200Y-68574371D01*
X141976200Y-68671300D01*
X142052400Y-68747500D01*
X142878600Y-68747500D01*
X142878600Y-68745771D01*
X143183400Y-68745771D01*
X143183400Y-68747500D01*
X144009600Y-68747500D01*
X144085800Y-68671300D01*
X144085800Y-68574371D01*
X144070855Y-68538290D01*
X144091771Y-68435000D01*
X144091771Y-67985000D01*
X144072316Y-67881600D01*
X152584200Y-67881600D01*
X152584200Y-68113628D01*
X152630603Y-68225655D01*
X152716344Y-68311397D01*
X152828371Y-68357800D01*
X153060400Y-68357800D01*
X153136600Y-68281600D01*
X153136600Y-67805400D01*
X153441400Y-67805400D01*
X153441400Y-68281600D01*
X153517600Y-68357800D01*
X153749629Y-68357800D01*
X153861656Y-68311397D01*
X153947397Y-68225655D01*
X153993800Y-68113628D01*
X153993800Y-67881600D01*
X153917600Y-67805400D01*
X153441400Y-67805400D01*
X153136600Y-67805400D01*
X152660400Y-67805400D01*
X152584200Y-67881600D01*
X144072316Y-67881600D01*
X144070518Y-67872048D01*
X144003763Y-67768308D01*
X143901907Y-67698713D01*
X143781000Y-67674229D01*
X143733704Y-67674229D01*
X143733905Y-67444226D01*
X143642024Y-67221856D01*
X143475259Y-67054800D01*
X152656148Y-67054800D01*
X152630603Y-67080345D01*
X152584200Y-67192372D01*
X152584200Y-67424400D01*
X152660400Y-67500600D01*
X153136600Y-67500600D01*
X153136600Y-67480600D01*
X153441400Y-67480600D01*
X153441400Y-67500600D01*
X153917600Y-67500600D01*
X153993800Y-67424400D01*
X153993800Y-67192372D01*
X153947397Y-67080345D01*
X153921852Y-67054800D01*
X171324200Y-67054800D01*
X171324200Y-69831700D01*
X164555486Y-69831700D01*
X164555486Y-72991300D01*
X171324200Y-72991300D01*
X171324200Y-87156803D01*
X171285039Y-87117574D01*
X171062830Y-87025305D01*
X170822226Y-87025095D01*
X170599856Y-87116976D01*
X170429574Y-87286961D01*
X170337305Y-87509170D01*
X170337095Y-87749774D01*
X170428976Y-87972144D01*
X170535600Y-88078954D01*
X170535600Y-90267664D01*
X168813038Y-91990226D01*
X168663226Y-91990095D01*
X168440856Y-92081976D01*
X168270574Y-92251961D01*
X168178305Y-92474170D01*
X168178095Y-92714774D01*
X168269976Y-92937144D01*
X168439961Y-93107426D01*
X168662170Y-93199695D01*
X168902774Y-93199905D01*
X169125144Y-93108024D01*
X169295426Y-92938039D01*
X169387695Y-92715830D01*
X169387827Y-92564909D01*
X171229368Y-90723368D01*
X171317465Y-90591523D01*
X171324200Y-90557663D01*
X171324200Y-123699200D01*
X146533482Y-123699200D01*
X146688930Y-123595332D01*
X147551537Y-122732726D01*
X147662144Y-122687024D01*
X147832426Y-122517039D01*
X147924695Y-122294830D01*
X147924905Y-122054226D01*
X147833024Y-121831856D01*
X147663039Y-121661574D01*
X147440830Y-121569305D01*
X147200226Y-121569095D01*
X146977856Y-121660976D01*
X146807574Y-121830961D01*
X146761275Y-121942463D01*
X146062337Y-122641401D01*
X144060800Y-122641401D01*
X144060800Y-122021600D01*
X143984600Y-121945400D01*
X143408400Y-121945400D01*
X143408400Y-121965400D01*
X143103600Y-121965400D01*
X143103600Y-121945400D01*
X143083600Y-121945400D01*
X143083600Y-121640600D01*
X143103600Y-121640600D01*
X143103600Y-121620600D01*
X143408400Y-121620600D01*
X143408400Y-121640600D01*
X143984600Y-121640600D01*
X144060800Y-121564400D01*
X144060800Y-120782371D01*
X144014397Y-120670344D01*
X143991853Y-120647800D01*
X144316628Y-120647800D01*
X144428655Y-120601397D01*
X144514397Y-120515656D01*
X144560800Y-120403629D01*
X144560800Y-119521600D01*
X144484600Y-119445400D01*
X143658400Y-119445400D01*
X143658400Y-119465400D01*
X143353600Y-119465400D01*
X143353600Y-119445400D01*
X143333600Y-119445400D01*
X143333600Y-119140600D01*
X143353600Y-119140600D01*
X143353600Y-118014400D01*
X143658400Y-118014400D01*
X143658400Y-119140600D01*
X144484600Y-119140600D01*
X144560800Y-119064400D01*
X144560800Y-118182371D01*
X144514397Y-118070344D01*
X144428655Y-117984603D01*
X144316628Y-117938200D01*
X143734600Y-117938200D01*
X143658400Y-118014400D01*
X143353600Y-118014400D01*
X143277400Y-117938200D01*
X142695372Y-117938200D01*
X142583345Y-117984603D01*
X142582223Y-117985725D01*
X142491628Y-117948200D01*
X142422848Y-117948200D01*
X142463695Y-117849830D01*
X142463893Y-117622769D01*
X147904015Y-117622769D01*
X148066084Y-118015004D01*
X148365917Y-118315362D01*
X148757869Y-118478115D01*
X149182269Y-118478485D01*
X149574504Y-118316416D01*
X149644705Y-118246337D01*
X150901690Y-118246337D01*
X150991267Y-118392366D01*
X151397775Y-118514291D01*
X151819998Y-118471371D01*
X152010733Y-118392366D01*
X152100310Y-118246337D01*
X151501000Y-117647026D01*
X150901690Y-118246337D01*
X149644705Y-118246337D01*
X149874862Y-118016583D01*
X150037615Y-117624631D01*
X150037873Y-117328275D01*
X150418209Y-117328275D01*
X150461129Y-117750498D01*
X150540134Y-117941233D01*
X150686163Y-118030810D01*
X151285474Y-117431500D01*
X151716526Y-117431500D01*
X152315837Y-118030810D01*
X152461866Y-117941233D01*
X152551385Y-117642769D01*
X152974015Y-117642769D01*
X153136084Y-118035004D01*
X153435917Y-118335362D01*
X153827869Y-118498115D01*
X154252269Y-118498485D01*
X154644504Y-118336416D01*
X154944862Y-118036583D01*
X155107615Y-117644631D01*
X155107985Y-117220231D01*
X154945916Y-116827996D01*
X154646083Y-116527638D01*
X154254131Y-116364885D01*
X153829731Y-116364515D01*
X153437496Y-116526584D01*
X153137138Y-116826417D01*
X152974385Y-117218369D01*
X152974015Y-117642769D01*
X152551385Y-117642769D01*
X152583791Y-117534725D01*
X152540871Y-117112502D01*
X152461866Y-116921767D01*
X152315837Y-116832190D01*
X151716526Y-117431500D01*
X151285474Y-117431500D01*
X150686163Y-116832190D01*
X150540134Y-116921767D01*
X150418209Y-117328275D01*
X150037873Y-117328275D01*
X150037985Y-117200231D01*
X149875916Y-116807996D01*
X149684918Y-116616663D01*
X150901690Y-116616663D01*
X151501000Y-117215974D01*
X152100310Y-116616663D01*
X152010733Y-116470634D01*
X151604225Y-116348709D01*
X151182002Y-116391629D01*
X150991267Y-116470634D01*
X150901690Y-116616663D01*
X149684918Y-116616663D01*
X149576083Y-116507638D01*
X149184131Y-116344885D01*
X148759731Y-116344515D01*
X148367496Y-116506584D01*
X148067138Y-116806417D01*
X147904385Y-117198369D01*
X147904015Y-117622769D01*
X142463893Y-117622769D01*
X142463905Y-117609226D01*
X142372024Y-117386856D01*
X142202039Y-117216574D01*
X141979830Y-117124305D01*
X141739226Y-117124095D01*
X141516856Y-117215976D01*
X141410046Y-117322600D01*
X141326800Y-117322600D01*
X141171277Y-117353535D01*
X141039432Y-117441632D01*
X140812854Y-117668210D01*
X140812905Y-117609226D01*
X140721024Y-117386856D01*
X140551039Y-117216574D01*
X140328830Y-117124305D01*
X140324635Y-117124301D01*
X140725368Y-116723568D01*
X140813465Y-116591723D01*
X140826488Y-116526252D01*
X140913000Y-116543771D01*
X141263000Y-116543771D01*
X141375952Y-116522518D01*
X141479692Y-116455763D01*
X141549287Y-116353907D01*
X141572475Y-116239400D01*
X141850000Y-116239400D01*
X142005523Y-116208465D01*
X142137368Y-116120368D01*
X142400368Y-115857368D01*
X142488465Y-115725523D01*
X142519400Y-115570000D01*
X142519400Y-115292567D01*
X142625952Y-115272518D01*
X142716270Y-115214400D01*
X142791576Y-115214400D01*
X142869976Y-115404144D01*
X143039961Y-115574426D01*
X143262170Y-115666695D01*
X143502774Y-115666905D01*
X143725144Y-115575024D01*
X143895426Y-115405039D01*
X143987695Y-115182830D01*
X143987905Y-114942226D01*
X143896024Y-114719856D01*
X143726039Y-114549574D01*
X143503830Y-114457305D01*
X143321355Y-114457146D01*
X143304048Y-114445582D01*
X143304368Y-114445368D01*
X143352962Y-114396774D01*
X143502774Y-114396905D01*
X143725144Y-114305024D01*
X143895426Y-114135039D01*
X143987695Y-113912830D01*
X143987905Y-113672226D01*
X143896024Y-113449856D01*
X143726039Y-113279574D01*
X143503830Y-113187305D01*
X143263226Y-113187095D01*
X143040856Y-113278976D01*
X142870574Y-113448961D01*
X142823771Y-113561675D01*
X142823771Y-113333000D01*
X142802518Y-113220048D01*
X142779032Y-113183551D01*
X142799287Y-113153907D01*
X142823771Y-113033000D01*
X142823771Y-112683000D01*
X142802518Y-112570048D01*
X142735763Y-112466308D01*
X142633907Y-112396713D01*
X142513000Y-112372229D01*
X141713000Y-112372229D01*
X141603824Y-112392771D01*
X141549313Y-112338260D01*
X141567800Y-112293628D01*
X141567800Y-112061600D01*
X141491600Y-111985400D01*
X141175500Y-111985400D01*
X141175500Y-112005400D01*
X141000500Y-112005400D01*
X141000500Y-111985400D01*
X140923771Y-111985400D01*
X140923771Y-111680600D01*
X141000500Y-111680600D01*
X141000500Y-111204400D01*
X141175500Y-111204400D01*
X141175500Y-111680600D01*
X141491600Y-111680600D01*
X141504000Y-111668200D01*
X144970200Y-111668200D01*
X144970200Y-111802628D01*
X145016603Y-111914655D01*
X145102344Y-112000397D01*
X145214371Y-112046800D01*
X145821400Y-112046800D01*
X145897600Y-111970600D01*
X145897600Y-111592000D01*
X146202400Y-111592000D01*
X146202400Y-111970600D01*
X146278600Y-112046800D01*
X146885629Y-112046800D01*
X146997656Y-112000397D01*
X147083397Y-111914655D01*
X147113491Y-111842000D01*
X147339229Y-111842000D01*
X147339229Y-113042000D01*
X147360482Y-113154952D01*
X147427237Y-113258692D01*
X147529093Y-113328287D01*
X147650000Y-113352771D01*
X149450000Y-113352771D01*
X149562952Y-113331518D01*
X149666692Y-113264763D01*
X149736287Y-113162907D01*
X149760771Y-113042000D01*
X149760771Y-111842000D01*
X149741880Y-111741600D01*
X153246200Y-111741600D01*
X153246200Y-112327628D01*
X153292603Y-112439655D01*
X153378344Y-112525397D01*
X153490371Y-112571800D01*
X154076400Y-112571800D01*
X154152600Y-112495600D01*
X154152600Y-111665400D01*
X154457400Y-111665400D01*
X154457400Y-112495600D01*
X154533600Y-112571800D01*
X155119629Y-112571800D01*
X155231656Y-112525397D01*
X155317397Y-112439655D01*
X155363800Y-112327628D01*
X155363800Y-111741600D01*
X155287600Y-111665400D01*
X154457400Y-111665400D01*
X154152600Y-111665400D01*
X153322400Y-111665400D01*
X153246200Y-111741600D01*
X149741880Y-111741600D01*
X149739518Y-111729048D01*
X149672763Y-111625308D01*
X149570907Y-111555713D01*
X149450000Y-111531229D01*
X147650000Y-111531229D01*
X147537048Y-111552482D01*
X147433308Y-111619237D01*
X147363713Y-111721093D01*
X147339229Y-111842000D01*
X147113491Y-111842000D01*
X147129800Y-111802628D01*
X147129800Y-111668200D01*
X147053600Y-111592000D01*
X146202400Y-111592000D01*
X145897600Y-111592000D01*
X145046400Y-111592000D01*
X144970200Y-111668200D01*
X141504000Y-111668200D01*
X141567800Y-111604400D01*
X141567800Y-111372372D01*
X141521397Y-111260345D01*
X141435656Y-111174603D01*
X141323629Y-111128200D01*
X141251700Y-111128200D01*
X141175500Y-111204400D01*
X141000500Y-111204400D01*
X140924300Y-111128200D01*
X140852371Y-111128200D01*
X140761749Y-111165737D01*
X140733907Y-111146713D01*
X140613000Y-111122229D01*
X140263000Y-111122229D01*
X140194400Y-111135137D01*
X140194400Y-110705000D01*
X140163465Y-110549477D01*
X140075368Y-110417632D01*
X139606368Y-109948632D01*
X139572102Y-109925736D01*
X139474523Y-109860535D01*
X139319000Y-109829600D01*
X137582336Y-109829600D01*
X137461151Y-109708415D01*
X137603595Y-109649558D01*
X137654642Y-109598600D01*
X137976800Y-109598600D01*
X138132323Y-109567665D01*
X138264168Y-109479568D01*
X138443965Y-109299771D01*
X138830000Y-109299771D01*
X138942952Y-109278518D01*
X139013836Y-109232905D01*
X139021603Y-109251656D01*
X139107345Y-109337397D01*
X139219372Y-109383800D01*
X139438900Y-109383800D01*
X139515100Y-109307600D01*
X139515100Y-108687600D01*
X139750200Y-108687600D01*
X139750200Y-109139629D01*
X139796603Y-109251656D01*
X139819900Y-109274953D01*
X139819900Y-109307600D01*
X139896100Y-109383800D01*
X140213900Y-109383800D01*
X140290100Y-109307600D01*
X140290100Y-109274953D01*
X140313397Y-109251656D01*
X140359800Y-109139629D01*
X140359800Y-108687600D01*
X140290100Y-108617900D01*
X140290100Y-108611400D01*
X139819900Y-108611400D01*
X139819900Y-108617900D01*
X139750200Y-108687600D01*
X139515100Y-108687600D01*
X139515100Y-108611400D01*
X139495100Y-108611400D01*
X139495100Y-108306600D01*
X139515100Y-108306600D01*
X139515100Y-107447600D01*
X139750200Y-107447600D01*
X139750200Y-108230400D01*
X139819900Y-108300100D01*
X139819900Y-108306600D01*
X140290100Y-108306600D01*
X140290100Y-108300100D01*
X140359800Y-108230400D01*
X140359800Y-107447600D01*
X140290100Y-107377900D01*
X140290100Y-107371400D01*
X139819900Y-107371400D01*
X139819900Y-107377900D01*
X139750200Y-107447600D01*
X139515100Y-107447600D01*
X139515100Y-107371400D01*
X139495100Y-107371400D01*
X139495100Y-107066600D01*
X139515100Y-107066600D01*
X139515100Y-107046600D01*
X139806400Y-107046600D01*
X139819900Y-107060100D01*
X139819900Y-107066600D01*
X140290100Y-107066600D01*
X140290100Y-107060100D01*
X140303600Y-107046600D01*
X140594900Y-107046600D01*
X140594900Y-107066600D01*
X140614900Y-107066600D01*
X140614900Y-107371400D01*
X140594900Y-107371400D01*
X140594900Y-108306600D01*
X140614900Y-108306600D01*
X140614900Y-108611400D01*
X140594900Y-108611400D01*
X140594900Y-109307600D01*
X140671100Y-109383800D01*
X140890628Y-109383800D01*
X141002655Y-109337397D01*
X141088397Y-109251656D01*
X141095194Y-109235246D01*
X141107345Y-109247397D01*
X141219372Y-109293800D01*
X141376400Y-109293800D01*
X141452600Y-109217600D01*
X141452600Y-108914000D01*
X141432600Y-108914000D01*
X141432600Y-108799771D01*
X141777400Y-108799771D01*
X141777400Y-108914000D01*
X141757400Y-108914000D01*
X141757400Y-109217600D01*
X141833600Y-109293800D01*
X141990628Y-109293800D01*
X142102655Y-109247397D01*
X142188397Y-109161656D01*
X142234800Y-109049629D01*
X142234800Y-108860939D01*
X142252200Y-108864400D01*
X143002000Y-108864400D01*
X143157523Y-108833465D01*
X143289368Y-108745368D01*
X143416368Y-108618368D01*
X143504465Y-108486523D01*
X143510624Y-108455560D01*
X144784432Y-109729368D01*
X144916277Y-109817465D01*
X144980845Y-109830308D01*
X144985482Y-109854952D01*
X145003659Y-109883200D01*
X144345038Y-109883200D01*
X144133346Y-109925308D01*
X144131194Y-109925736D01*
X143949906Y-110046869D01*
X143913463Y-110083312D01*
X143802856Y-110129014D01*
X143632574Y-110298999D01*
X143540305Y-110521208D01*
X143540095Y-110761812D01*
X143631976Y-110984182D01*
X143801961Y-111154464D01*
X144024170Y-111246733D01*
X144264774Y-111246943D01*
X144487144Y-111155062D01*
X144641676Y-111000800D01*
X145003574Y-111000800D01*
X144970200Y-111081372D01*
X144970200Y-111215800D01*
X145046400Y-111292000D01*
X145897600Y-111292000D01*
X145897600Y-111269600D01*
X146202400Y-111269600D01*
X146202400Y-111292000D01*
X147053600Y-111292000D01*
X147129800Y-111215800D01*
X147129800Y-111081372D01*
X147083397Y-110969345D01*
X147056761Y-110942709D01*
X147111287Y-110862907D01*
X147135771Y-110742000D01*
X147135771Y-110698372D01*
X153246200Y-110698372D01*
X153246200Y-111284400D01*
X153322400Y-111360600D01*
X154152600Y-111360600D01*
X154152600Y-110530400D01*
X154457400Y-110530400D01*
X154457400Y-111360600D01*
X155287600Y-111360600D01*
X155363800Y-111284400D01*
X155363800Y-110698372D01*
X155317397Y-110586345D01*
X155231656Y-110500603D01*
X155119629Y-110454200D01*
X154533600Y-110454200D01*
X154457400Y-110530400D01*
X154152600Y-110530400D01*
X154076400Y-110454200D01*
X153490371Y-110454200D01*
X153378344Y-110500603D01*
X153292603Y-110586345D01*
X153246200Y-110698372D01*
X147135771Y-110698372D01*
X147135771Y-110142000D01*
X147114518Y-110029048D01*
X147057894Y-109941051D01*
X147111287Y-109862907D01*
X147135771Y-109742000D01*
X147135771Y-109222684D01*
X153246017Y-109222684D01*
X153406870Y-109611978D01*
X153704455Y-109910083D01*
X154093468Y-110071616D01*
X154514684Y-110071983D01*
X154903978Y-109911130D01*
X155202083Y-109613545D01*
X155363616Y-109224532D01*
X155363983Y-108803316D01*
X155203130Y-108414022D01*
X154905545Y-108115917D01*
X154516532Y-107954384D01*
X154095316Y-107954017D01*
X153706022Y-108114870D01*
X153407917Y-108412455D01*
X153246384Y-108801468D01*
X153246017Y-109222684D01*
X147135771Y-109222684D01*
X147135771Y-109142000D01*
X147114518Y-109029048D01*
X147057894Y-108941051D01*
X147111287Y-108862907D01*
X147135771Y-108742000D01*
X147135771Y-108142000D01*
X147114518Y-108029048D01*
X147057894Y-107941051D01*
X147111287Y-107862907D01*
X147135771Y-107742000D01*
X147135771Y-107142000D01*
X147114518Y-107029048D01*
X147057894Y-106941051D01*
X147111287Y-106862907D01*
X147135771Y-106742000D01*
X147135771Y-106142000D01*
X147114518Y-106029048D01*
X147047763Y-105925308D01*
X146945907Y-105855713D01*
X146825000Y-105831229D01*
X145538965Y-105831229D01*
X144549736Y-104842000D01*
X147339229Y-104842000D01*
X147339229Y-106042000D01*
X147360482Y-106154952D01*
X147427237Y-106258692D01*
X147529093Y-106328287D01*
X147650000Y-106352771D01*
X149450000Y-106352771D01*
X149562952Y-106331518D01*
X149666692Y-106264763D01*
X149736287Y-106162907D01*
X149760771Y-106042000D01*
X149760771Y-104842000D01*
X149739518Y-104729048D01*
X149672763Y-104625308D01*
X149570907Y-104555713D01*
X149450000Y-104531229D01*
X147650000Y-104531229D01*
X147537048Y-104552482D01*
X147433308Y-104619237D01*
X147363713Y-104721093D01*
X147339229Y-104842000D01*
X144549736Y-104842000D01*
X144049578Y-104341842D01*
X144547897Y-104242720D01*
X145208318Y-103801441D01*
X145649597Y-103141020D01*
X145804554Y-102362000D01*
X145649597Y-101582980D01*
X145208318Y-100922559D01*
X144547897Y-100481280D01*
X143768877Y-100326323D01*
X142989857Y-100481280D01*
X142329436Y-100922559D01*
X141888157Y-101582980D01*
X141733200Y-102362000D01*
X141888157Y-103141020D01*
X142329436Y-103801441D01*
X142798112Y-104114600D01*
X140341106Y-104114600D01*
X140185583Y-104145535D01*
X140087009Y-104211401D01*
X139693991Y-104211401D01*
X139595417Y-104145535D01*
X139439894Y-104114600D01*
X134280336Y-104114600D01*
X134137400Y-103971664D01*
X134137400Y-103897746D01*
X134341980Y-103982695D01*
X134582584Y-103982905D01*
X134804954Y-103891024D01*
X134911764Y-103784400D01*
X136711120Y-103784400D01*
X136816961Y-103890426D01*
X137039170Y-103982695D01*
X137279774Y-103982905D01*
X137502144Y-103891024D01*
X137672426Y-103721039D01*
X137764695Y-103498830D01*
X137764905Y-103258226D01*
X137673024Y-103035856D01*
X137503039Y-102865574D01*
X137280830Y-102773305D01*
X137040226Y-102773095D01*
X136817856Y-102864976D01*
X136711046Y-102971600D01*
X134911690Y-102971600D01*
X134805849Y-102865574D01*
X134583640Y-102773305D01*
X134343036Y-102773095D01*
X134137400Y-102858062D01*
X134137400Y-96774000D01*
X138754229Y-96774000D01*
X138754229Y-99314000D01*
X138775482Y-99426952D01*
X138842237Y-99530692D01*
X138944093Y-99600287D01*
X139065000Y-99624771D01*
X141605000Y-99624771D01*
X141717952Y-99603518D01*
X141821692Y-99536763D01*
X141891287Y-99434907D01*
X141915771Y-99314000D01*
X141915771Y-96774000D01*
X141894518Y-96661048D01*
X141827763Y-96557308D01*
X141725907Y-96487713D01*
X141605000Y-96463229D01*
X139065000Y-96463229D01*
X138952048Y-96484482D01*
X138848308Y-96551237D01*
X138778713Y-96653093D01*
X138754229Y-96774000D01*
X134137400Y-96774000D01*
X134137400Y-93611404D01*
X134197995Y-93626625D01*
X134516304Y-93579623D01*
X134592071Y-93548238D01*
X134649380Y-93428906D01*
X134239000Y-93018526D01*
X134224858Y-93032669D01*
X134009332Y-92817143D01*
X134023474Y-92803000D01*
X134454526Y-92803000D01*
X134864906Y-93213380D01*
X134984238Y-93156071D01*
X135062625Y-92844005D01*
X135015623Y-92525696D01*
X134984238Y-92449929D01*
X134864906Y-92392620D01*
X134454526Y-92803000D01*
X134023474Y-92803000D01*
X134009332Y-92788858D01*
X134224858Y-92573332D01*
X134239000Y-92587474D01*
X134649380Y-92177094D01*
X134592071Y-92057762D01*
X134280005Y-91979375D01*
X133961696Y-92026377D01*
X133885929Y-92057762D01*
X133836599Y-92160480D01*
X133836599Y-91511664D01*
X134077414Y-91611659D01*
X134399174Y-91611940D01*
X134696550Y-91489067D01*
X134924267Y-91261746D01*
X135047659Y-90964586D01*
X135047940Y-90642826D01*
X135026295Y-90590441D01*
X138754229Y-86862507D01*
X138754229Y-88011000D01*
X138775482Y-88123952D01*
X138842237Y-88227692D01*
X138944093Y-88297287D01*
X139065000Y-88321771D01*
X141605000Y-88321771D01*
X141681200Y-88307433D01*
X141681200Y-88731660D01*
X141605000Y-88716229D01*
X139065000Y-88716229D01*
X138952048Y-88737482D01*
X138848308Y-88804237D01*
X138778713Y-88906093D01*
X138754229Y-89027000D01*
X138754229Y-91567000D01*
X138775482Y-91679952D01*
X138842237Y-91783692D01*
X138944093Y-91853287D01*
X139065000Y-91877771D01*
X141605000Y-91877771D01*
X141681200Y-91863433D01*
X141681200Y-92922660D01*
X141605000Y-92907229D01*
X139065000Y-92907229D01*
X138952048Y-92928482D01*
X138848308Y-92995237D01*
X138778713Y-93097093D01*
X138754229Y-93218000D01*
X138754229Y-95758000D01*
X138775482Y-95870952D01*
X138842237Y-95974692D01*
X138944093Y-96044287D01*
X139065000Y-96068771D01*
X141605000Y-96068771D01*
X141717952Y-96047518D01*
X141821692Y-95980763D01*
X141891287Y-95878907D01*
X141915771Y-95758000D01*
X141915771Y-95289507D01*
X142170045Y-95238929D01*
X142433736Y-95062736D01*
X142830673Y-94665800D01*
X143173328Y-94665800D01*
X150555263Y-102047736D01*
X150818955Y-102223929D01*
X151009871Y-102261905D01*
X150871574Y-102399961D01*
X150779305Y-102622170D01*
X150779095Y-102862774D01*
X150870976Y-103085144D01*
X150977600Y-103191954D01*
X150977600Y-105749664D01*
X149509038Y-107218226D01*
X149359226Y-107218095D01*
X149136856Y-107309976D01*
X148966574Y-107479961D01*
X148874305Y-107702170D01*
X148874095Y-107942774D01*
X148965976Y-108165144D01*
X149135961Y-108335426D01*
X149358170Y-108427695D01*
X149598774Y-108427905D01*
X149821144Y-108336024D01*
X149991426Y-108166039D01*
X150083695Y-107943830D01*
X150083827Y-107792909D01*
X151154052Y-106722684D01*
X153246017Y-106722684D01*
X153406870Y-107111978D01*
X153704455Y-107410083D01*
X154093468Y-107571616D01*
X154514684Y-107571983D01*
X154903978Y-107411130D01*
X155202083Y-107113545D01*
X155363616Y-106724532D01*
X155363983Y-106303316D01*
X155203130Y-105914022D01*
X154905545Y-105615917D01*
X154516532Y-105454384D01*
X154095316Y-105454017D01*
X153706022Y-105614870D01*
X153407917Y-105912455D01*
X153246384Y-106301468D01*
X153246017Y-106722684D01*
X151154052Y-106722684D01*
X151671368Y-106205368D01*
X151705269Y-106154632D01*
X151759465Y-106073523D01*
X151790400Y-105918000D01*
X151790400Y-104222684D01*
X153246017Y-104222684D01*
X153406870Y-104611978D01*
X153704455Y-104910083D01*
X154093468Y-105071616D01*
X154514684Y-105071983D01*
X154903978Y-104911130D01*
X155202083Y-104613545D01*
X155363616Y-104224532D01*
X155363983Y-103803316D01*
X155203130Y-103414022D01*
X154905545Y-103115917D01*
X154516532Y-102954384D01*
X154095316Y-102954017D01*
X153706022Y-103114870D01*
X153407917Y-103412455D01*
X153246384Y-103801468D01*
X153246017Y-104222684D01*
X151790400Y-104222684D01*
X151790400Y-103191880D01*
X151896426Y-103086039D01*
X151988695Y-102863830D01*
X151988905Y-102623226D01*
X151897024Y-102400856D01*
X151782169Y-102285800D01*
X152945839Y-102285800D01*
X153083977Y-102423938D01*
X153347668Y-102600130D01*
X153658713Y-102662001D01*
X154471529Y-102662001D01*
X156196588Y-104387061D01*
X156196588Y-121579966D01*
X156246514Y-121830961D01*
X156258459Y-121891011D01*
X156434652Y-122154702D01*
X157600886Y-123320937D01*
X157785063Y-123444000D01*
X157864578Y-123497130D01*
X158175623Y-123559001D01*
X163384799Y-123559001D01*
X163695844Y-123497130D01*
X163959535Y-123320937D01*
X164658737Y-122621736D01*
X164834929Y-122358045D01*
X164896800Y-122047000D01*
X164896800Y-109489433D01*
X165030045Y-109462929D01*
X165293736Y-109286736D01*
X165469929Y-109023045D01*
X165531800Y-108712000D01*
X165531800Y-108077000D01*
X165469929Y-107765955D01*
X165293736Y-107502264D01*
X165030045Y-107326071D01*
X164719000Y-107264200D01*
X163449000Y-107264200D01*
X163137955Y-107326071D01*
X162874264Y-107502264D01*
X162698071Y-107765955D01*
X162636200Y-108077000D01*
X162636200Y-108712000D01*
X162698071Y-109023045D01*
X162874264Y-109286736D01*
X163137955Y-109462929D01*
X163271200Y-109489433D01*
X163271200Y-121710327D01*
X163048127Y-121933401D01*
X159720483Y-121933401D01*
X159770695Y-121883276D01*
X159931617Y-121495733D01*
X159931983Y-121076108D01*
X159771738Y-120688284D01*
X159475276Y-120391305D01*
X159087733Y-120230383D01*
X158668108Y-120230017D01*
X158280284Y-120390262D01*
X157983305Y-120686724D01*
X157822383Y-121074267D01*
X157822236Y-121243341D01*
X157822188Y-121243294D01*
X157822188Y-119551084D01*
X158286442Y-119551084D01*
X158374531Y-119695868D01*
X158776661Y-119815774D01*
X159194066Y-119772664D01*
X159379469Y-119695868D01*
X159467558Y-119551084D01*
X158877000Y-118960526D01*
X158286442Y-119551084D01*
X157822188Y-119551084D01*
X157822188Y-118799210D01*
X157849336Y-119062066D01*
X157926132Y-119247469D01*
X158070916Y-119335558D01*
X158661474Y-118745000D01*
X159092526Y-118745000D01*
X159683084Y-119335558D01*
X159827868Y-119247469D01*
X159947774Y-118845339D01*
X159904664Y-118427934D01*
X159827868Y-118242531D01*
X159683084Y-118154442D01*
X159092526Y-118745000D01*
X158661474Y-118745000D01*
X158070916Y-118154442D01*
X157926132Y-118242531D01*
X157822188Y-118591129D01*
X157822188Y-117938916D01*
X158286442Y-117938916D01*
X158877000Y-118529474D01*
X159467558Y-117938916D01*
X159379469Y-117794132D01*
X158977339Y-117674226D01*
X158559934Y-117717336D01*
X158374531Y-117794132D01*
X158286442Y-117938916D01*
X157822188Y-117938916D01*
X157822188Y-116414306D01*
X157982262Y-116801716D01*
X158278724Y-117098695D01*
X158666267Y-117259617D01*
X159085892Y-117259983D01*
X159473716Y-117099738D01*
X159770695Y-116803276D01*
X159931617Y-116415733D01*
X159931983Y-115996108D01*
X159852644Y-115804092D01*
X161450368Y-114206368D01*
X161538465Y-114074523D01*
X161569400Y-113919000D01*
X161569400Y-85217000D01*
X161556608Y-85152689D01*
X167157837Y-85152689D01*
X167270646Y-85318251D01*
X167745649Y-85471753D01*
X168243237Y-85431794D01*
X168517354Y-85318251D01*
X168630163Y-85152689D01*
X167894000Y-84416526D01*
X167157837Y-85152689D01*
X161556608Y-85152689D01*
X161538465Y-85061477D01*
X161450368Y-84929632D01*
X161038425Y-84517689D01*
X162331837Y-84517689D01*
X162444646Y-84683251D01*
X162919649Y-84836753D01*
X163417237Y-84796794D01*
X163691354Y-84683251D01*
X163804163Y-84517689D01*
X163068000Y-83781526D01*
X162331837Y-84517689D01*
X161038425Y-84517689D01*
X159938385Y-83417649D01*
X161797247Y-83417649D01*
X161837206Y-83915237D01*
X161950749Y-84189354D01*
X162116311Y-84302163D01*
X162852474Y-83566000D01*
X163283526Y-83566000D01*
X164019689Y-84302163D01*
X164185251Y-84189354D01*
X164229428Y-84052649D01*
X166623247Y-84052649D01*
X166663206Y-84550237D01*
X166776749Y-84824354D01*
X166942311Y-84937163D01*
X167678474Y-84201000D01*
X168109526Y-84201000D01*
X168845689Y-84937163D01*
X169011251Y-84824354D01*
X169164753Y-84349351D01*
X169124794Y-83851763D01*
X169011251Y-83577646D01*
X168845689Y-83464837D01*
X168109526Y-84201000D01*
X167678474Y-84201000D01*
X166942311Y-83464837D01*
X166776749Y-83577646D01*
X166623247Y-84052649D01*
X164229428Y-84052649D01*
X164338753Y-83714351D01*
X164301408Y-83249311D01*
X167157837Y-83249311D01*
X167894000Y-83985474D01*
X168630163Y-83249311D01*
X168517354Y-83083749D01*
X168042351Y-82930247D01*
X167544763Y-82970206D01*
X167270646Y-83083749D01*
X167157837Y-83249311D01*
X164301408Y-83249311D01*
X164298794Y-83216763D01*
X164185251Y-82942646D01*
X164019689Y-82829837D01*
X163283526Y-83566000D01*
X162852474Y-83566000D01*
X162116311Y-82829837D01*
X161950749Y-82942646D01*
X161797247Y-83417649D01*
X159938385Y-83417649D01*
X159135047Y-82614311D01*
X162331837Y-82614311D01*
X163068000Y-83350474D01*
X163804163Y-82614311D01*
X163691354Y-82448749D01*
X163216351Y-82295247D01*
X162718763Y-82335206D01*
X162444646Y-82448749D01*
X162331837Y-82614311D01*
X159135047Y-82614311D01*
X158851633Y-82330897D01*
X158851633Y-79414903D01*
X159085536Y-79181000D01*
X160253229Y-79181000D01*
X160253229Y-79481000D01*
X160272736Y-79584672D01*
X160253229Y-79681000D01*
X160253229Y-79981000D01*
X160272736Y-80084672D01*
X160253229Y-80181000D01*
X160253229Y-80481000D01*
X160272736Y-80584672D01*
X160253229Y-80681000D01*
X160253229Y-80981000D01*
X160274482Y-81093952D01*
X160341237Y-81197692D01*
X160443093Y-81267287D01*
X160564000Y-81291771D01*
X162364000Y-81291771D01*
X162476952Y-81270518D01*
X162580692Y-81203763D01*
X162650287Y-81101907D01*
X162674771Y-80981000D01*
X162674771Y-80681000D01*
X162655264Y-80577328D01*
X162674771Y-80481000D01*
X162674771Y-80181000D01*
X162655264Y-80077328D01*
X162674771Y-79981000D01*
X162674771Y-79681000D01*
X162655264Y-79577328D01*
X162674771Y-79481000D01*
X162674771Y-79181000D01*
X162654873Y-79075250D01*
X162668800Y-79041628D01*
X162668800Y-78982200D01*
X162592600Y-78906000D01*
X162501426Y-78906000D01*
X162484907Y-78894713D01*
X162364000Y-78870229D01*
X160564000Y-78870229D01*
X160451048Y-78891482D01*
X160428486Y-78906000D01*
X160335400Y-78906000D01*
X160259200Y-78982200D01*
X160259200Y-79041628D01*
X160274146Y-79077710D01*
X160253229Y-79181000D01*
X159085536Y-79181000D01*
X160259200Y-78007336D01*
X160259200Y-78041628D01*
X160274146Y-78077710D01*
X160253229Y-78181000D01*
X160253229Y-78481000D01*
X160273127Y-78586750D01*
X160259200Y-78620372D01*
X160259200Y-78679800D01*
X160335400Y-78756000D01*
X160426574Y-78756000D01*
X160443093Y-78767287D01*
X160564000Y-78791771D01*
X162364000Y-78791771D01*
X162476952Y-78770518D01*
X162499514Y-78756000D01*
X162592600Y-78756000D01*
X162668800Y-78679800D01*
X162668800Y-78620372D01*
X162653854Y-78584290D01*
X162674771Y-78481000D01*
X162674771Y-78181000D01*
X162654873Y-78075250D01*
X162668800Y-78041628D01*
X162668800Y-77982200D01*
X162592600Y-77906000D01*
X162501426Y-77906000D01*
X162484907Y-77894713D01*
X162364000Y-77870229D01*
X161291600Y-77870229D01*
X161291600Y-77791771D01*
X162364000Y-77791771D01*
X162476952Y-77770518D01*
X162499514Y-77756000D01*
X162592600Y-77756000D01*
X162668800Y-77679800D01*
X162668800Y-77620372D01*
X162653854Y-77584290D01*
X162674771Y-77481000D01*
X162674771Y-77181000D01*
X162655264Y-77077328D01*
X162674771Y-76981000D01*
X162674771Y-76681000D01*
X162655264Y-76577328D01*
X162674771Y-76481000D01*
X162674771Y-76181000D01*
X162655264Y-76077328D01*
X162674771Y-75981000D01*
X162674771Y-75716003D01*
X162722723Y-75706465D01*
X162854568Y-75618368D01*
X163228368Y-75244568D01*
X163316465Y-75112723D01*
X163347400Y-74957200D01*
X163347400Y-71628000D01*
X163316465Y-71472477D01*
X163228368Y-71340632D01*
X162847368Y-70959632D01*
X162826191Y-70945482D01*
X162715523Y-70871535D01*
X162560000Y-70840600D01*
X159131000Y-70840600D01*
X158975477Y-70871535D01*
X158864809Y-70945482D01*
X158843632Y-70959632D01*
X158200664Y-71602600D01*
X155997336Y-71602600D01*
X155354368Y-70959632D01*
X155333191Y-70945482D01*
X155222523Y-70871535D01*
X155067000Y-70840600D01*
X154049771Y-70840600D01*
X154049771Y-70362000D01*
X154028518Y-70249048D01*
X153961763Y-70145308D01*
X153859907Y-70075713D01*
X153739000Y-70051229D01*
X153695400Y-70051229D01*
X153695400Y-69962567D01*
X153801952Y-69942518D01*
X153905692Y-69875763D01*
X153975287Y-69773907D01*
X153999771Y-69653000D01*
X153999771Y-69215000D01*
X155190323Y-69215000D01*
X155345280Y-69994020D01*
X155786559Y-70654441D01*
X156446980Y-71095720D01*
X157226000Y-71250677D01*
X158005020Y-71095720D01*
X158665441Y-70654441D01*
X159076204Y-70039689D01*
X162331837Y-70039689D01*
X162444646Y-70205251D01*
X162919649Y-70358753D01*
X163417237Y-70318794D01*
X163691354Y-70205251D01*
X163804163Y-70039689D01*
X163068000Y-69303526D01*
X162331837Y-70039689D01*
X159076204Y-70039689D01*
X159106720Y-69994020D01*
X159261677Y-69215000D01*
X159206907Y-68939649D01*
X161797247Y-68939649D01*
X161837206Y-69437237D01*
X161950749Y-69711354D01*
X162116311Y-69824163D01*
X162852474Y-69088000D01*
X163283526Y-69088000D01*
X164019689Y-69824163D01*
X164185251Y-69711354D01*
X164284352Y-69404689D01*
X167157837Y-69404689D01*
X167270646Y-69570251D01*
X167745649Y-69723753D01*
X168243237Y-69683794D01*
X168517354Y-69570251D01*
X168630163Y-69404689D01*
X167894000Y-68668526D01*
X167157837Y-69404689D01*
X164284352Y-69404689D01*
X164338753Y-69236351D01*
X164298794Y-68738763D01*
X164185251Y-68464646D01*
X164019689Y-68351837D01*
X163283526Y-69088000D01*
X162852474Y-69088000D01*
X162116311Y-68351837D01*
X161950749Y-68464646D01*
X161797247Y-68939649D01*
X159206907Y-68939649D01*
X159106720Y-68435980D01*
X158906488Y-68136311D01*
X162331837Y-68136311D01*
X163068000Y-68872474D01*
X163635825Y-68304649D01*
X166623247Y-68304649D01*
X166663206Y-68802237D01*
X166776749Y-69076354D01*
X166942311Y-69189163D01*
X167678474Y-68453000D01*
X168109526Y-68453000D01*
X168845689Y-69189163D01*
X169011251Y-69076354D01*
X169164753Y-68601351D01*
X169124794Y-68103763D01*
X169011251Y-67829646D01*
X168845689Y-67716837D01*
X168109526Y-68453000D01*
X167678474Y-68453000D01*
X166942311Y-67716837D01*
X166776749Y-67829646D01*
X166623247Y-68304649D01*
X163635825Y-68304649D01*
X163804163Y-68136311D01*
X163691354Y-67970749D01*
X163216351Y-67817247D01*
X162718763Y-67857206D01*
X162444646Y-67970749D01*
X162331837Y-68136311D01*
X158906488Y-68136311D01*
X158665441Y-67775559D01*
X158255000Y-67501311D01*
X167157837Y-67501311D01*
X167894000Y-68237474D01*
X168630163Y-67501311D01*
X168517354Y-67335749D01*
X168042351Y-67182247D01*
X167544763Y-67222206D01*
X167270646Y-67335749D01*
X167157837Y-67501311D01*
X158255000Y-67501311D01*
X158005020Y-67334280D01*
X157226000Y-67179323D01*
X156446980Y-67334280D01*
X155786559Y-67775559D01*
X155345280Y-68435980D01*
X155190323Y-69215000D01*
X153999771Y-69215000D01*
X153999771Y-68853000D01*
X153978518Y-68740048D01*
X153911763Y-68636308D01*
X153809907Y-68566713D01*
X153689000Y-68542229D01*
X152889000Y-68542229D01*
X152776048Y-68563482D01*
X152672308Y-68630237D01*
X152602713Y-68732093D01*
X152578229Y-68853000D01*
X152578229Y-69653000D01*
X152599482Y-69765952D01*
X152666237Y-69869692D01*
X152768093Y-69939287D01*
X152882600Y-69962475D01*
X152882600Y-70051229D01*
X152839000Y-70051229D01*
X152726048Y-70072482D01*
X152622308Y-70139237D01*
X152552713Y-70241093D01*
X152528229Y-70362000D01*
X152528229Y-70525135D01*
X151214924Y-69211830D01*
X151194154Y-69197952D01*
X151083079Y-69123733D01*
X150927556Y-69092798D01*
X148553694Y-69092798D01*
X148499388Y-69103600D01*
X144085800Y-69103600D01*
X144085800Y-69048700D01*
X144009600Y-68972500D01*
X143183400Y-68972500D01*
X143183400Y-68974229D01*
X142878600Y-68974229D01*
X142878600Y-68972500D01*
X142052400Y-68972500D01*
X141976200Y-69048700D01*
X141976200Y-69145629D01*
X141991145Y-69181710D01*
X141970229Y-69285000D01*
X141970229Y-69735000D01*
X141989736Y-69838672D01*
X141970229Y-69935000D01*
X141970229Y-70385000D01*
X141989736Y-70488672D01*
X141970229Y-70585000D01*
X141970229Y-71035000D01*
X141973729Y-71053600D01*
X141900000Y-71053600D01*
X141744478Y-71084534D01*
X141612632Y-71172631D01*
X139727863Y-73057401D01*
X138177110Y-73057401D01*
X138191771Y-72985000D01*
X138191771Y-72535000D01*
X138172264Y-72431328D01*
X138191771Y-72335000D01*
X138191771Y-72056947D01*
X138309170Y-72105695D01*
X138549774Y-72105905D01*
X138772144Y-72014024D01*
X138942426Y-71844039D01*
X139034695Y-71621830D01*
X139034905Y-71381226D01*
X138943024Y-71158856D01*
X138773039Y-70988574D01*
X138550830Y-70896305D01*
X138310226Y-70896095D01*
X138191771Y-70945039D01*
X138191771Y-70585000D01*
X138172264Y-70481328D01*
X138191771Y-70385000D01*
X138191771Y-69935000D01*
X138172264Y-69831328D01*
X138191771Y-69735000D01*
X138191771Y-69285000D01*
X138188271Y-69266400D01*
X138200087Y-69266400D01*
X138309170Y-69311695D01*
X138549774Y-69311905D01*
X138772144Y-69220024D01*
X138942426Y-69050039D01*
X139034695Y-68827830D01*
X139034905Y-68587226D01*
X138943024Y-68364856D01*
X138773039Y-68194574D01*
X138550830Y-68102305D01*
X138310226Y-68102095D01*
X138191771Y-68151039D01*
X138191771Y-67985000D01*
X138170518Y-67872048D01*
X138103763Y-67768308D01*
X138001907Y-67698713D01*
X137881000Y-67674229D01*
X136381000Y-67674229D01*
X136268048Y-67695482D01*
X136164308Y-67762237D01*
X136136046Y-67803600D01*
X135558379Y-67803600D01*
X135538518Y-67698048D01*
X135471763Y-67594308D01*
X135369907Y-67524713D01*
X135249000Y-67500229D01*
X134499000Y-67500229D01*
X134386048Y-67521482D01*
X134282308Y-67588237D01*
X134212713Y-67690093D01*
X134188229Y-67811000D01*
X134188229Y-68611000D01*
X134209482Y-68723952D01*
X134276237Y-68827692D01*
X134378093Y-68897287D01*
X134499000Y-68921771D01*
X135249000Y-68921771D01*
X135361952Y-68900518D01*
X135465692Y-68833763D01*
X135535287Y-68731907D01*
X135558677Y-68616400D01*
X136073996Y-68616400D01*
X136070229Y-68635000D01*
X136070229Y-69085000D01*
X136073729Y-69103600D01*
X135477742Y-69103600D01*
X135471763Y-69094308D01*
X135369907Y-69024713D01*
X135249000Y-69000229D01*
X134499000Y-69000229D01*
X134386048Y-69021482D01*
X134282308Y-69088237D01*
X134212713Y-69190093D01*
X134188229Y-69311000D01*
X134188229Y-70111000D01*
X134209482Y-70223952D01*
X134276237Y-70327692D01*
X134378093Y-70397287D01*
X134499000Y-70421771D01*
X135111493Y-70421771D01*
X134985035Y-70548229D01*
X134499000Y-70548229D01*
X134386048Y-70569482D01*
X134282308Y-70636237D01*
X134212713Y-70738093D01*
X134188229Y-70859000D01*
X134188229Y-71659000D01*
X134209482Y-71771952D01*
X134276237Y-71875692D01*
X134378093Y-71945287D01*
X134499000Y-71969771D01*
X135063493Y-71969771D01*
X134985035Y-72048229D01*
X134499000Y-72048229D01*
X134386048Y-72069482D01*
X134282308Y-72136237D01*
X134212713Y-72238093D01*
X134188229Y-72359000D01*
X134188229Y-73057401D01*
X134021557Y-73057401D01*
X133866034Y-73088336D01*
X133813441Y-73123478D01*
X133734189Y-73176433D01*
X133062632Y-73847990D01*
X132974535Y-73979835D01*
X132967800Y-74013695D01*
X132967800Y-67054800D01*
X142783025Y-67054800D01*
X142616574Y-67220961D01*
X142616574Y-67220961D01*
G37*
X142616574Y-67220961D02*
X142524305Y-67443170D01*
X142524103Y-67674229D01*
X142281000Y-67674229D01*
X142168048Y-67695482D01*
X142064308Y-67762237D01*
X141994713Y-67864093D01*
X141970229Y-67985000D01*
X141970229Y-68435000D01*
X141990127Y-68540749D01*
X141976200Y-68574371D01*
X141976200Y-68671300D01*
X142052400Y-68747500D01*
X142878600Y-68747500D01*
X142878600Y-68745771D01*
X143183400Y-68745771D01*
X143183400Y-68747500D01*
X144009600Y-68747500D01*
X144085800Y-68671300D01*
X144085800Y-68574371D01*
X144070855Y-68538290D01*
X144091771Y-68435000D01*
X144091771Y-67985000D01*
X144072316Y-67881600D01*
X152584200Y-67881600D01*
X152584200Y-68113628D01*
X152630603Y-68225655D01*
X152716344Y-68311397D01*
X152828371Y-68357800D01*
X153060400Y-68357800D01*
X153136600Y-68281600D01*
X153136600Y-67805400D01*
X153441400Y-67805400D01*
X153441400Y-68281600D01*
X153517600Y-68357800D01*
X153749629Y-68357800D01*
X153861656Y-68311397D01*
X153947397Y-68225655D01*
X153993800Y-68113628D01*
X153993800Y-67881600D01*
X153917600Y-67805400D01*
X153441400Y-67805400D01*
X153136600Y-67805400D01*
X152660400Y-67805400D01*
X152584200Y-67881600D01*
X144072316Y-67881600D01*
X144070518Y-67872048D01*
X144003763Y-67768308D01*
X143901907Y-67698713D01*
X143781000Y-67674229D01*
X143733704Y-67674229D01*
X143733905Y-67444226D01*
X143642024Y-67221856D01*
X143475259Y-67054800D01*
X152656148Y-67054800D01*
X152630603Y-67080345D01*
X152584200Y-67192372D01*
X152584200Y-67424400D01*
X152660400Y-67500600D01*
X153136600Y-67500600D01*
X153136600Y-67480600D01*
X153441400Y-67480600D01*
X153441400Y-67500600D01*
X153917600Y-67500600D01*
X153993800Y-67424400D01*
X153993800Y-67192372D01*
X153947397Y-67080345D01*
X153921852Y-67054800D01*
X171324200Y-67054800D01*
X171324200Y-69831700D01*
X164555486Y-69831700D01*
X164555486Y-72991300D01*
X171324200Y-72991300D01*
X171324200Y-87156803D01*
X171285039Y-87117574D01*
X171062830Y-87025305D01*
X170822226Y-87025095D01*
X170599856Y-87116976D01*
X170429574Y-87286961D01*
X170337305Y-87509170D01*
X170337095Y-87749774D01*
X170428976Y-87972144D01*
X170535600Y-88078954D01*
X170535600Y-90267664D01*
X168813038Y-91990226D01*
X168663226Y-91990095D01*
X168440856Y-92081976D01*
X168270574Y-92251961D01*
X168178305Y-92474170D01*
X168178095Y-92714774D01*
X168269976Y-92937144D01*
X168439961Y-93107426D01*
X168662170Y-93199695D01*
X168902774Y-93199905D01*
X169125144Y-93108024D01*
X169295426Y-92938039D01*
X169387695Y-92715830D01*
X169387827Y-92564909D01*
X171229368Y-90723368D01*
X171317465Y-90591523D01*
X171324200Y-90557663D01*
X171324200Y-123699200D01*
X146533482Y-123699200D01*
X146688930Y-123595332D01*
X147551537Y-122732726D01*
X147662144Y-122687024D01*
X147832426Y-122517039D01*
X147924695Y-122294830D01*
X147924905Y-122054226D01*
X147833024Y-121831856D01*
X147663039Y-121661574D01*
X147440830Y-121569305D01*
X147200226Y-121569095D01*
X146977856Y-121660976D01*
X146807574Y-121830961D01*
X146761275Y-121942463D01*
X146062337Y-122641401D01*
X144060800Y-122641401D01*
X144060800Y-122021600D01*
X143984600Y-121945400D01*
X143408400Y-121945400D01*
X143408400Y-121965400D01*
X143103600Y-121965400D01*
X143103600Y-121945400D01*
X143083600Y-121945400D01*
X143083600Y-121640600D01*
X143103600Y-121640600D01*
X143103600Y-121620600D01*
X143408400Y-121620600D01*
X143408400Y-121640600D01*
X143984600Y-121640600D01*
X144060800Y-121564400D01*
X144060800Y-120782371D01*
X144014397Y-120670344D01*
X143991853Y-120647800D01*
X144316628Y-120647800D01*
X144428655Y-120601397D01*
X144514397Y-120515656D01*
X144560800Y-120403629D01*
X144560800Y-119521600D01*
X144484600Y-119445400D01*
X143658400Y-119445400D01*
X143658400Y-119465400D01*
X143353600Y-119465400D01*
X143353600Y-119445400D01*
X143333600Y-119445400D01*
X143333600Y-119140600D01*
X143353600Y-119140600D01*
X143353600Y-118014400D01*
X143658400Y-118014400D01*
X143658400Y-119140600D01*
X144484600Y-119140600D01*
X144560800Y-119064400D01*
X144560800Y-118182371D01*
X144514397Y-118070344D01*
X144428655Y-117984603D01*
X144316628Y-117938200D01*
X143734600Y-117938200D01*
X143658400Y-118014400D01*
X143353600Y-118014400D01*
X143277400Y-117938200D01*
X142695372Y-117938200D01*
X142583345Y-117984603D01*
X142582223Y-117985725D01*
X142491628Y-117948200D01*
X142422848Y-117948200D01*
X142463695Y-117849830D01*
X142463893Y-117622769D01*
X147904015Y-117622769D01*
X148066084Y-118015004D01*
X148365917Y-118315362D01*
X148757869Y-118478115D01*
X149182269Y-118478485D01*
X149574504Y-118316416D01*
X149644705Y-118246337D01*
X150901690Y-118246337D01*
X150991267Y-118392366D01*
X151397775Y-118514291D01*
X151819998Y-118471371D01*
X152010733Y-118392366D01*
X152100310Y-118246337D01*
X151501000Y-117647026D01*
X150901690Y-118246337D01*
X149644705Y-118246337D01*
X149874862Y-118016583D01*
X150037615Y-117624631D01*
X150037873Y-117328275D01*
X150418209Y-117328275D01*
X150461129Y-117750498D01*
X150540134Y-117941233D01*
X150686163Y-118030810D01*
X151285474Y-117431500D01*
X151716526Y-117431500D01*
X152315837Y-118030810D01*
X152461866Y-117941233D01*
X152551385Y-117642769D01*
X152974015Y-117642769D01*
X153136084Y-118035004D01*
X153435917Y-118335362D01*
X153827869Y-118498115D01*
X154252269Y-118498485D01*
X154644504Y-118336416D01*
X154944862Y-118036583D01*
X155107615Y-117644631D01*
X155107985Y-117220231D01*
X154945916Y-116827996D01*
X154646083Y-116527638D01*
X154254131Y-116364885D01*
X153829731Y-116364515D01*
X153437496Y-116526584D01*
X153137138Y-116826417D01*
X152974385Y-117218369D01*
X152974015Y-117642769D01*
X152551385Y-117642769D01*
X152583791Y-117534725D01*
X152540871Y-117112502D01*
X152461866Y-116921767D01*
X152315837Y-116832190D01*
X151716526Y-117431500D01*
X151285474Y-117431500D01*
X150686163Y-116832190D01*
X150540134Y-116921767D01*
X150418209Y-117328275D01*
X150037873Y-117328275D01*
X150037985Y-117200231D01*
X149875916Y-116807996D01*
X149684918Y-116616663D01*
X150901690Y-116616663D01*
X151501000Y-117215974D01*
X152100310Y-116616663D01*
X152010733Y-116470634D01*
X151604225Y-116348709D01*
X151182002Y-116391629D01*
X150991267Y-116470634D01*
X150901690Y-116616663D01*
X149684918Y-116616663D01*
X149576083Y-116507638D01*
X149184131Y-116344885D01*
X148759731Y-116344515D01*
X148367496Y-116506584D01*
X148067138Y-116806417D01*
X147904385Y-117198369D01*
X147904015Y-117622769D01*
X142463893Y-117622769D01*
X142463905Y-117609226D01*
X142372024Y-117386856D01*
X142202039Y-117216574D01*
X141979830Y-117124305D01*
X141739226Y-117124095D01*
X141516856Y-117215976D01*
X141410046Y-117322600D01*
X141326800Y-117322600D01*
X141171277Y-117353535D01*
X141039432Y-117441632D01*
X140812854Y-117668210D01*
X140812905Y-117609226D01*
X140721024Y-117386856D01*
X140551039Y-117216574D01*
X140328830Y-117124305D01*
X140324635Y-117124301D01*
X140725368Y-116723568D01*
X140813465Y-116591723D01*
X140826488Y-116526252D01*
X140913000Y-116543771D01*
X141263000Y-116543771D01*
X141375952Y-116522518D01*
X141479692Y-116455763D01*
X141549287Y-116353907D01*
X141572475Y-116239400D01*
X141850000Y-116239400D01*
X142005523Y-116208465D01*
X142137368Y-116120368D01*
X142400368Y-115857368D01*
X142488465Y-115725523D01*
X142519400Y-115570000D01*
X142519400Y-115292567D01*
X142625952Y-115272518D01*
X142716270Y-115214400D01*
X142791576Y-115214400D01*
X142869976Y-115404144D01*
X143039961Y-115574426D01*
X143262170Y-115666695D01*
X143502774Y-115666905D01*
X143725144Y-115575024D01*
X143895426Y-115405039D01*
X143987695Y-115182830D01*
X143987905Y-114942226D01*
X143896024Y-114719856D01*
X143726039Y-114549574D01*
X143503830Y-114457305D01*
X143321355Y-114457146D01*
X143304048Y-114445582D01*
X143304368Y-114445368D01*
X143352962Y-114396774D01*
X143502774Y-114396905D01*
X143725144Y-114305024D01*
X143895426Y-114135039D01*
X143987695Y-113912830D01*
X143987905Y-113672226D01*
X143896024Y-113449856D01*
X143726039Y-113279574D01*
X143503830Y-113187305D01*
X143263226Y-113187095D01*
X143040856Y-113278976D01*
X142870574Y-113448961D01*
X142823771Y-113561675D01*
X142823771Y-113333000D01*
X142802518Y-113220048D01*
X142779032Y-113183551D01*
X142799287Y-113153907D01*
X142823771Y-113033000D01*
X142823771Y-112683000D01*
X142802518Y-112570048D01*
X142735763Y-112466308D01*
X142633907Y-112396713D01*
X142513000Y-112372229D01*
X141713000Y-112372229D01*
X141603824Y-112392771D01*
X141549313Y-112338260D01*
X141567800Y-112293628D01*
X141567800Y-112061600D01*
X141491600Y-111985400D01*
X141175500Y-111985400D01*
X141175500Y-112005400D01*
X141000500Y-112005400D01*
X141000500Y-111985400D01*
X140923771Y-111985400D01*
X140923771Y-111680600D01*
X141000500Y-111680600D01*
X141000500Y-111204400D01*
X141175500Y-111204400D01*
X141175500Y-111680600D01*
X141491600Y-111680600D01*
X141504000Y-111668200D01*
X144970200Y-111668200D01*
X144970200Y-111802628D01*
X145016603Y-111914655D01*
X145102344Y-112000397D01*
X145214371Y-112046800D01*
X145821400Y-112046800D01*
X145897600Y-111970600D01*
X145897600Y-111592000D01*
X146202400Y-111592000D01*
X146202400Y-111970600D01*
X146278600Y-112046800D01*
X146885629Y-112046800D01*
X146997656Y-112000397D01*
X147083397Y-111914655D01*
X147113491Y-111842000D01*
X147339229Y-111842000D01*
X147339229Y-113042000D01*
X147360482Y-113154952D01*
X147427237Y-113258692D01*
X147529093Y-113328287D01*
X147650000Y-113352771D01*
X149450000Y-113352771D01*
X149562952Y-113331518D01*
X149666692Y-113264763D01*
X149736287Y-113162907D01*
X149760771Y-113042000D01*
X149760771Y-111842000D01*
X149741880Y-111741600D01*
X153246200Y-111741600D01*
X153246200Y-112327628D01*
X153292603Y-112439655D01*
X153378344Y-112525397D01*
X153490371Y-112571800D01*
X154076400Y-112571800D01*
X154152600Y-112495600D01*
X154152600Y-111665400D01*
X154457400Y-111665400D01*
X154457400Y-112495600D01*
X154533600Y-112571800D01*
X155119629Y-112571800D01*
X155231656Y-112525397D01*
X155317397Y-112439655D01*
X155363800Y-112327628D01*
X155363800Y-111741600D01*
X155287600Y-111665400D01*
X154457400Y-111665400D01*
X154152600Y-111665400D01*
X153322400Y-111665400D01*
X153246200Y-111741600D01*
X149741880Y-111741600D01*
X149739518Y-111729048D01*
X149672763Y-111625308D01*
X149570907Y-111555713D01*
X149450000Y-111531229D01*
X147650000Y-111531229D01*
X147537048Y-111552482D01*
X147433308Y-111619237D01*
X147363713Y-111721093D01*
X147339229Y-111842000D01*
X147113491Y-111842000D01*
X147129800Y-111802628D01*
X147129800Y-111668200D01*
X147053600Y-111592000D01*
X146202400Y-111592000D01*
X145897600Y-111592000D01*
X145046400Y-111592000D01*
X144970200Y-111668200D01*
X141504000Y-111668200D01*
X141567800Y-111604400D01*
X141567800Y-111372372D01*
X141521397Y-111260345D01*
X141435656Y-111174603D01*
X141323629Y-111128200D01*
X141251700Y-111128200D01*
X141175500Y-111204400D01*
X141000500Y-111204400D01*
X140924300Y-111128200D01*
X140852371Y-111128200D01*
X140761749Y-111165737D01*
X140733907Y-111146713D01*
X140613000Y-111122229D01*
X140263000Y-111122229D01*
X140194400Y-111135137D01*
X140194400Y-110705000D01*
X140163465Y-110549477D01*
X140075368Y-110417632D01*
X139606368Y-109948632D01*
X139572102Y-109925736D01*
X139474523Y-109860535D01*
X139319000Y-109829600D01*
X137582336Y-109829600D01*
X137461151Y-109708415D01*
X137603595Y-109649558D01*
X137654642Y-109598600D01*
X137976800Y-109598600D01*
X138132323Y-109567665D01*
X138264168Y-109479568D01*
X138443965Y-109299771D01*
X138830000Y-109299771D01*
X138942952Y-109278518D01*
X139013836Y-109232905D01*
X139021603Y-109251656D01*
X139107345Y-109337397D01*
X139219372Y-109383800D01*
X139438900Y-109383800D01*
X139515100Y-109307600D01*
X139515100Y-108687600D01*
X139750200Y-108687600D01*
X139750200Y-109139629D01*
X139796603Y-109251656D01*
X139819900Y-109274953D01*
X139819900Y-109307600D01*
X139896100Y-109383800D01*
X140213900Y-109383800D01*
X140290100Y-109307600D01*
X140290100Y-109274953D01*
X140313397Y-109251656D01*
X140359800Y-109139629D01*
X140359800Y-108687600D01*
X140290100Y-108617900D01*
X140290100Y-108611400D01*
X139819900Y-108611400D01*
X139819900Y-108617900D01*
X139750200Y-108687600D01*
X139515100Y-108687600D01*
X139515100Y-108611400D01*
X139495100Y-108611400D01*
X139495100Y-108306600D01*
X139515100Y-108306600D01*
X139515100Y-107447600D01*
X139750200Y-107447600D01*
X139750200Y-108230400D01*
X139819900Y-108300100D01*
X139819900Y-108306600D01*
X140290100Y-108306600D01*
X140290100Y-108300100D01*
X140359800Y-108230400D01*
X140359800Y-107447600D01*
X140290100Y-107377900D01*
X140290100Y-107371400D01*
X139819900Y-107371400D01*
X139819900Y-107377900D01*
X139750200Y-107447600D01*
X139515100Y-107447600D01*
X139515100Y-107371400D01*
X139495100Y-107371400D01*
X139495100Y-107066600D01*
X139515100Y-107066600D01*
X139515100Y-107046600D01*
X139806400Y-107046600D01*
X139819900Y-107060100D01*
X139819900Y-107066600D01*
X140290100Y-107066600D01*
X140290100Y-107060100D01*
X140303600Y-107046600D01*
X140594900Y-107046600D01*
X140594900Y-107066600D01*
X140614900Y-107066600D01*
X140614900Y-107371400D01*
X140594900Y-107371400D01*
X140594900Y-108306600D01*
X140614900Y-108306600D01*
X140614900Y-108611400D01*
X140594900Y-108611400D01*
X140594900Y-109307600D01*
X140671100Y-109383800D01*
X140890628Y-109383800D01*
X141002655Y-109337397D01*
X141088397Y-109251656D01*
X141095194Y-109235246D01*
X141107345Y-109247397D01*
X141219372Y-109293800D01*
X141376400Y-109293800D01*
X141452600Y-109217600D01*
X141452600Y-108914000D01*
X141432600Y-108914000D01*
X141432600Y-108799771D01*
X141777400Y-108799771D01*
X141777400Y-108914000D01*
X141757400Y-108914000D01*
X141757400Y-109217600D01*
X141833600Y-109293800D01*
X141990628Y-109293800D01*
X142102655Y-109247397D01*
X142188397Y-109161656D01*
X142234800Y-109049629D01*
X142234800Y-108860939D01*
X142252200Y-108864400D01*
X143002000Y-108864400D01*
X143157523Y-108833465D01*
X143289368Y-108745368D01*
X143416368Y-108618368D01*
X143504465Y-108486523D01*
X143510624Y-108455560D01*
X144784432Y-109729368D01*
X144916277Y-109817465D01*
X144980845Y-109830308D01*
X144985482Y-109854952D01*
X145003659Y-109883200D01*
X144345038Y-109883200D01*
X144133346Y-109925308D01*
X144131194Y-109925736D01*
X143949906Y-110046869D01*
X143913463Y-110083312D01*
X143802856Y-110129014D01*
X143632574Y-110298999D01*
X143540305Y-110521208D01*
X143540095Y-110761812D01*
X143631976Y-110984182D01*
X143801961Y-111154464D01*
X144024170Y-111246733D01*
X144264774Y-111246943D01*
X144487144Y-111155062D01*
X144641676Y-111000800D01*
X145003574Y-111000800D01*
X144970200Y-111081372D01*
X144970200Y-111215800D01*
X145046400Y-111292000D01*
X145897600Y-111292000D01*
X145897600Y-111269600D01*
X146202400Y-111269600D01*
X146202400Y-111292000D01*
X147053600Y-111292000D01*
X147129800Y-111215800D01*
X147129800Y-111081372D01*
X147083397Y-110969345D01*
X147056761Y-110942709D01*
X147111287Y-110862907D01*
X147135771Y-110742000D01*
X147135771Y-110698372D01*
X153246200Y-110698372D01*
X153246200Y-111284400D01*
X153322400Y-111360600D01*
X154152600Y-111360600D01*
X154152600Y-110530400D01*
X154457400Y-110530400D01*
X154457400Y-111360600D01*
X155287600Y-111360600D01*
X155363800Y-111284400D01*
X155363800Y-110698372D01*
X155317397Y-110586345D01*
X155231656Y-110500603D01*
X155119629Y-110454200D01*
X154533600Y-110454200D01*
X154457400Y-110530400D01*
X154152600Y-110530400D01*
X154076400Y-110454200D01*
X153490371Y-110454200D01*
X153378344Y-110500603D01*
X153292603Y-110586345D01*
X153246200Y-110698372D01*
X147135771Y-110698372D01*
X147135771Y-110142000D01*
X147114518Y-110029048D01*
X147057894Y-109941051D01*
X147111287Y-109862907D01*
X147135771Y-109742000D01*
X147135771Y-109222684D01*
X153246017Y-109222684D01*
X153406870Y-109611978D01*
X153704455Y-109910083D01*
X154093468Y-110071616D01*
X154514684Y-110071983D01*
X154903978Y-109911130D01*
X155202083Y-109613545D01*
X155363616Y-109224532D01*
X155363983Y-108803316D01*
X155203130Y-108414022D01*
X154905545Y-108115917D01*
X154516532Y-107954384D01*
X154095316Y-107954017D01*
X153706022Y-108114870D01*
X153407917Y-108412455D01*
X153246384Y-108801468D01*
X153246017Y-109222684D01*
X147135771Y-109222684D01*
X147135771Y-109142000D01*
X147114518Y-109029048D01*
X147057894Y-108941051D01*
X147111287Y-108862907D01*
X147135771Y-108742000D01*
X147135771Y-108142000D01*
X147114518Y-108029048D01*
X147057894Y-107941051D01*
X147111287Y-107862907D01*
X147135771Y-107742000D01*
X147135771Y-107142000D01*
X147114518Y-107029048D01*
X147057894Y-106941051D01*
X147111287Y-106862907D01*
X147135771Y-106742000D01*
X147135771Y-106142000D01*
X147114518Y-106029048D01*
X147047763Y-105925308D01*
X146945907Y-105855713D01*
X146825000Y-105831229D01*
X145538965Y-105831229D01*
X144549736Y-104842000D01*
X147339229Y-104842000D01*
X147339229Y-106042000D01*
X147360482Y-106154952D01*
X147427237Y-106258692D01*
X147529093Y-106328287D01*
X147650000Y-106352771D01*
X149450000Y-106352771D01*
X149562952Y-106331518D01*
X149666692Y-106264763D01*
X149736287Y-106162907D01*
X149760771Y-106042000D01*
X149760771Y-104842000D01*
X149739518Y-104729048D01*
X149672763Y-104625308D01*
X149570907Y-104555713D01*
X149450000Y-104531229D01*
X147650000Y-104531229D01*
X147537048Y-104552482D01*
X147433308Y-104619237D01*
X147363713Y-104721093D01*
X147339229Y-104842000D01*
X144549736Y-104842000D01*
X144049578Y-104341842D01*
X144547897Y-104242720D01*
X145208318Y-103801441D01*
X145649597Y-103141020D01*
X145804554Y-102362000D01*
X145649597Y-101582980D01*
X145208318Y-100922559D01*
X144547897Y-100481280D01*
X143768877Y-100326323D01*
X142989857Y-100481280D01*
X142329436Y-100922559D01*
X141888157Y-101582980D01*
X141733200Y-102362000D01*
X141888157Y-103141020D01*
X142329436Y-103801441D01*
X142798112Y-104114600D01*
X140341106Y-104114600D01*
X140185583Y-104145535D01*
X140087009Y-104211401D01*
X139693991Y-104211401D01*
X139595417Y-104145535D01*
X139439894Y-104114600D01*
X134280336Y-104114600D01*
X134137400Y-103971664D01*
X134137400Y-103897746D01*
X134341980Y-103982695D01*
X134582584Y-103982905D01*
X134804954Y-103891024D01*
X134911764Y-103784400D01*
X136711120Y-103784400D01*
X136816961Y-103890426D01*
X137039170Y-103982695D01*
X137279774Y-103982905D01*
X137502144Y-103891024D01*
X137672426Y-103721039D01*
X137764695Y-103498830D01*
X137764905Y-103258226D01*
X137673024Y-103035856D01*
X137503039Y-102865574D01*
X137280830Y-102773305D01*
X137040226Y-102773095D01*
X136817856Y-102864976D01*
X136711046Y-102971600D01*
X134911690Y-102971600D01*
X134805849Y-102865574D01*
X134583640Y-102773305D01*
X134343036Y-102773095D01*
X134137400Y-102858062D01*
X134137400Y-96774000D01*
X138754229Y-96774000D01*
X138754229Y-99314000D01*
X138775482Y-99426952D01*
X138842237Y-99530692D01*
X138944093Y-99600287D01*
X139065000Y-99624771D01*
X141605000Y-99624771D01*
X141717952Y-99603518D01*
X141821692Y-99536763D01*
X141891287Y-99434907D01*
X141915771Y-99314000D01*
X141915771Y-96774000D01*
X141894518Y-96661048D01*
X141827763Y-96557308D01*
X141725907Y-96487713D01*
X141605000Y-96463229D01*
X139065000Y-96463229D01*
X138952048Y-96484482D01*
X138848308Y-96551237D01*
X138778713Y-96653093D01*
X138754229Y-96774000D01*
X134137400Y-96774000D01*
X134137400Y-93611404D01*
X134197995Y-93626625D01*
X134516304Y-93579623D01*
X134592071Y-93548238D01*
X134649380Y-93428906D01*
X134239000Y-93018526D01*
X134224858Y-93032669D01*
X134009332Y-92817143D01*
X134023474Y-92803000D01*
X134454526Y-92803000D01*
X134864906Y-93213380D01*
X134984238Y-93156071D01*
X135062625Y-92844005D01*
X135015623Y-92525696D01*
X134984238Y-92449929D01*
X134864906Y-92392620D01*
X134454526Y-92803000D01*
X134023474Y-92803000D01*
X134009332Y-92788858D01*
X134224858Y-92573332D01*
X134239000Y-92587474D01*
X134649380Y-92177094D01*
X134592071Y-92057762D01*
X134280005Y-91979375D01*
X133961696Y-92026377D01*
X133885929Y-92057762D01*
X133836599Y-92160480D01*
X133836599Y-91511664D01*
X134077414Y-91611659D01*
X134399174Y-91611940D01*
X134696550Y-91489067D01*
X134924267Y-91261746D01*
X135047659Y-90964586D01*
X135047940Y-90642826D01*
X135026295Y-90590441D01*
X138754229Y-86862507D01*
X138754229Y-88011000D01*
X138775482Y-88123952D01*
X138842237Y-88227692D01*
X138944093Y-88297287D01*
X139065000Y-88321771D01*
X141605000Y-88321771D01*
X141681200Y-88307433D01*
X141681200Y-88731660D01*
X141605000Y-88716229D01*
X139065000Y-88716229D01*
X138952048Y-88737482D01*
X138848308Y-88804237D01*
X138778713Y-88906093D01*
X138754229Y-89027000D01*
X138754229Y-91567000D01*
X138775482Y-91679952D01*
X138842237Y-91783692D01*
X138944093Y-91853287D01*
X139065000Y-91877771D01*
X141605000Y-91877771D01*
X141681200Y-91863433D01*
X141681200Y-92922660D01*
X141605000Y-92907229D01*
X139065000Y-92907229D01*
X138952048Y-92928482D01*
X138848308Y-92995237D01*
X138778713Y-93097093D01*
X138754229Y-93218000D01*
X138754229Y-95758000D01*
X138775482Y-95870952D01*
X138842237Y-95974692D01*
X138944093Y-96044287D01*
X139065000Y-96068771D01*
X141605000Y-96068771D01*
X141717952Y-96047518D01*
X141821692Y-95980763D01*
X141891287Y-95878907D01*
X141915771Y-95758000D01*
X141915771Y-95289507D01*
X142170045Y-95238929D01*
X142433736Y-95062736D01*
X142830673Y-94665800D01*
X143173328Y-94665800D01*
X150555263Y-102047736D01*
X150818955Y-102223929D01*
X151009871Y-102261905D01*
X150871574Y-102399961D01*
X150779305Y-102622170D01*
X150779095Y-102862774D01*
X150870976Y-103085144D01*
X150977600Y-103191954D01*
X150977600Y-105749664D01*
X149509038Y-107218226D01*
X149359226Y-107218095D01*
X149136856Y-107309976D01*
X148966574Y-107479961D01*
X148874305Y-107702170D01*
X148874095Y-107942774D01*
X148965976Y-108165144D01*
X149135961Y-108335426D01*
X149358170Y-108427695D01*
X149598774Y-108427905D01*
X149821144Y-108336024D01*
X149991426Y-108166039D01*
X150083695Y-107943830D01*
X150083827Y-107792909D01*
X151154052Y-106722684D01*
X153246017Y-106722684D01*
X153406870Y-107111978D01*
X153704455Y-107410083D01*
X154093468Y-107571616D01*
X154514684Y-107571983D01*
X154903978Y-107411130D01*
X155202083Y-107113545D01*
X155363616Y-106724532D01*
X155363983Y-106303316D01*
X155203130Y-105914022D01*
X154905545Y-105615917D01*
X154516532Y-105454384D01*
X154095316Y-105454017D01*
X153706022Y-105614870D01*
X153407917Y-105912455D01*
X153246384Y-106301468D01*
X153246017Y-106722684D01*
X151154052Y-106722684D01*
X151671368Y-106205368D01*
X151705269Y-106154632D01*
X151759465Y-106073523D01*
X151790400Y-105918000D01*
X151790400Y-104222684D01*
X153246017Y-104222684D01*
X153406870Y-104611978D01*
X153704455Y-104910083D01*
X154093468Y-105071616D01*
X154514684Y-105071983D01*
X154903978Y-104911130D01*
X155202083Y-104613545D01*
X155363616Y-104224532D01*
X155363983Y-103803316D01*
X155203130Y-103414022D01*
X154905545Y-103115917D01*
X154516532Y-102954384D01*
X154095316Y-102954017D01*
X153706022Y-103114870D01*
X153407917Y-103412455D01*
X153246384Y-103801468D01*
X153246017Y-104222684D01*
X151790400Y-104222684D01*
X151790400Y-103191880D01*
X151896426Y-103086039D01*
X151988695Y-102863830D01*
X151988905Y-102623226D01*
X151897024Y-102400856D01*
X151782169Y-102285800D01*
X152945839Y-102285800D01*
X153083977Y-102423938D01*
X153347668Y-102600130D01*
X153658713Y-102662001D01*
X154471529Y-102662001D01*
X156196588Y-104387061D01*
X156196588Y-121579966D01*
X156246514Y-121830961D01*
X156258459Y-121891011D01*
X156434652Y-122154702D01*
X157600886Y-123320937D01*
X157785063Y-123444000D01*
X157864578Y-123497130D01*
X158175623Y-123559001D01*
X163384799Y-123559001D01*
X163695844Y-123497130D01*
X163959535Y-123320937D01*
X164658737Y-122621736D01*
X164834929Y-122358045D01*
X164896800Y-122047000D01*
X164896800Y-109489433D01*
X165030045Y-109462929D01*
X165293736Y-109286736D01*
X165469929Y-109023045D01*
X165531800Y-108712000D01*
X165531800Y-108077000D01*
X165469929Y-107765955D01*
X165293736Y-107502264D01*
X165030045Y-107326071D01*
X164719000Y-107264200D01*
X163449000Y-107264200D01*
X163137955Y-107326071D01*
X162874264Y-107502264D01*
X162698071Y-107765955D01*
X162636200Y-108077000D01*
X162636200Y-108712000D01*
X162698071Y-109023045D01*
X162874264Y-109286736D01*
X163137955Y-109462929D01*
X163271200Y-109489433D01*
X163271200Y-121710327D01*
X163048127Y-121933401D01*
X159720483Y-121933401D01*
X159770695Y-121883276D01*
X159931617Y-121495733D01*
X159931983Y-121076108D01*
X159771738Y-120688284D01*
X159475276Y-120391305D01*
X159087733Y-120230383D01*
X158668108Y-120230017D01*
X158280284Y-120390262D01*
X157983305Y-120686724D01*
X157822383Y-121074267D01*
X157822236Y-121243341D01*
X157822188Y-121243294D01*
X157822188Y-119551084D01*
X158286442Y-119551084D01*
X158374531Y-119695868D01*
X158776661Y-119815774D01*
X159194066Y-119772664D01*
X159379469Y-119695868D01*
X159467558Y-119551084D01*
X158877000Y-118960526D01*
X158286442Y-119551084D01*
X157822188Y-119551084D01*
X157822188Y-118799210D01*
X157849336Y-119062066D01*
X157926132Y-119247469D01*
X158070916Y-119335558D01*
X158661474Y-118745000D01*
X159092526Y-118745000D01*
X159683084Y-119335558D01*
X159827868Y-119247469D01*
X159947774Y-118845339D01*
X159904664Y-118427934D01*
X159827868Y-118242531D01*
X159683084Y-118154442D01*
X159092526Y-118745000D01*
X158661474Y-118745000D01*
X158070916Y-118154442D01*
X157926132Y-118242531D01*
X157822188Y-118591129D01*
X157822188Y-117938916D01*
X158286442Y-117938916D01*
X158877000Y-118529474D01*
X159467558Y-117938916D01*
X159379469Y-117794132D01*
X158977339Y-117674226D01*
X158559934Y-117717336D01*
X158374531Y-117794132D01*
X158286442Y-117938916D01*
X157822188Y-117938916D01*
X157822188Y-116414306D01*
X157982262Y-116801716D01*
X158278724Y-117098695D01*
X158666267Y-117259617D01*
X159085892Y-117259983D01*
X159473716Y-117099738D01*
X159770695Y-116803276D01*
X159931617Y-116415733D01*
X159931983Y-115996108D01*
X159852644Y-115804092D01*
X161450368Y-114206368D01*
X161538465Y-114074523D01*
X161569400Y-113919000D01*
X161569400Y-85217000D01*
X161556608Y-85152689D01*
X167157837Y-85152689D01*
X167270646Y-85318251D01*
X167745649Y-85471753D01*
X168243237Y-85431794D01*
X168517354Y-85318251D01*
X168630163Y-85152689D01*
X167894000Y-84416526D01*
X167157837Y-85152689D01*
X161556608Y-85152689D01*
X161538465Y-85061477D01*
X161450368Y-84929632D01*
X161038425Y-84517689D01*
X162331837Y-84517689D01*
X162444646Y-84683251D01*
X162919649Y-84836753D01*
X163417237Y-84796794D01*
X163691354Y-84683251D01*
X163804163Y-84517689D01*
X163068000Y-83781526D01*
X162331837Y-84517689D01*
X161038425Y-84517689D01*
X159938385Y-83417649D01*
X161797247Y-83417649D01*
X161837206Y-83915237D01*
X161950749Y-84189354D01*
X162116311Y-84302163D01*
X162852474Y-83566000D01*
X163283526Y-83566000D01*
X164019689Y-84302163D01*
X164185251Y-84189354D01*
X164229428Y-84052649D01*
X166623247Y-84052649D01*
X166663206Y-84550237D01*
X166776749Y-84824354D01*
X166942311Y-84937163D01*
X167678474Y-84201000D01*
X168109526Y-84201000D01*
X168845689Y-84937163D01*
X169011251Y-84824354D01*
X169164753Y-84349351D01*
X169124794Y-83851763D01*
X169011251Y-83577646D01*
X168845689Y-83464837D01*
X168109526Y-84201000D01*
X167678474Y-84201000D01*
X166942311Y-83464837D01*
X166776749Y-83577646D01*
X166623247Y-84052649D01*
X164229428Y-84052649D01*
X164338753Y-83714351D01*
X164301408Y-83249311D01*
X167157837Y-83249311D01*
X167894000Y-83985474D01*
X168630163Y-83249311D01*
X168517354Y-83083749D01*
X168042351Y-82930247D01*
X167544763Y-82970206D01*
X167270646Y-83083749D01*
X167157837Y-83249311D01*
X164301408Y-83249311D01*
X164298794Y-83216763D01*
X164185251Y-82942646D01*
X164019689Y-82829837D01*
X163283526Y-83566000D01*
X162852474Y-83566000D01*
X162116311Y-82829837D01*
X161950749Y-82942646D01*
X161797247Y-83417649D01*
X159938385Y-83417649D01*
X159135047Y-82614311D01*
X162331837Y-82614311D01*
X163068000Y-83350474D01*
X163804163Y-82614311D01*
X163691354Y-82448749D01*
X163216351Y-82295247D01*
X162718763Y-82335206D01*
X162444646Y-82448749D01*
X162331837Y-82614311D01*
X159135047Y-82614311D01*
X158851633Y-82330897D01*
X158851633Y-79414903D01*
X159085536Y-79181000D01*
X160253229Y-79181000D01*
X160253229Y-79481000D01*
X160272736Y-79584672D01*
X160253229Y-79681000D01*
X160253229Y-79981000D01*
X160272736Y-80084672D01*
X160253229Y-80181000D01*
X160253229Y-80481000D01*
X160272736Y-80584672D01*
X160253229Y-80681000D01*
X160253229Y-80981000D01*
X160274482Y-81093952D01*
X160341237Y-81197692D01*
X160443093Y-81267287D01*
X160564000Y-81291771D01*
X162364000Y-81291771D01*
X162476952Y-81270518D01*
X162580692Y-81203763D01*
X162650287Y-81101907D01*
X162674771Y-80981000D01*
X162674771Y-80681000D01*
X162655264Y-80577328D01*
X162674771Y-80481000D01*
X162674771Y-80181000D01*
X162655264Y-80077328D01*
X162674771Y-79981000D01*
X162674771Y-79681000D01*
X162655264Y-79577328D01*
X162674771Y-79481000D01*
X162674771Y-79181000D01*
X162654873Y-79075250D01*
X162668800Y-79041628D01*
X162668800Y-78982200D01*
X162592600Y-78906000D01*
X162501426Y-78906000D01*
X162484907Y-78894713D01*
X162364000Y-78870229D01*
X160564000Y-78870229D01*
X160451048Y-78891482D01*
X160428486Y-78906000D01*
X160335400Y-78906000D01*
X160259200Y-78982200D01*
X160259200Y-79041628D01*
X160274146Y-79077710D01*
X160253229Y-79181000D01*
X159085536Y-79181000D01*
X160259200Y-78007336D01*
X160259200Y-78041628D01*
X160274146Y-78077710D01*
X160253229Y-78181000D01*
X160253229Y-78481000D01*
X160273127Y-78586750D01*
X160259200Y-78620372D01*
X160259200Y-78679800D01*
X160335400Y-78756000D01*
X160426574Y-78756000D01*
X160443093Y-78767287D01*
X160564000Y-78791771D01*
X162364000Y-78791771D01*
X162476952Y-78770518D01*
X162499514Y-78756000D01*
X162592600Y-78756000D01*
X162668800Y-78679800D01*
X162668800Y-78620372D01*
X162653854Y-78584290D01*
X162674771Y-78481000D01*
X162674771Y-78181000D01*
X162654873Y-78075250D01*
X162668800Y-78041628D01*
X162668800Y-77982200D01*
X162592600Y-77906000D01*
X162501426Y-77906000D01*
X162484907Y-77894713D01*
X162364000Y-77870229D01*
X161291600Y-77870229D01*
X161291600Y-77791771D01*
X162364000Y-77791771D01*
X162476952Y-77770518D01*
X162499514Y-77756000D01*
X162592600Y-77756000D01*
X162668800Y-77679800D01*
X162668800Y-77620372D01*
X162653854Y-77584290D01*
X162674771Y-77481000D01*
X162674771Y-77181000D01*
X162655264Y-77077328D01*
X162674771Y-76981000D01*
X162674771Y-76681000D01*
X162655264Y-76577328D01*
X162674771Y-76481000D01*
X162674771Y-76181000D01*
X162655264Y-76077328D01*
X162674771Y-75981000D01*
X162674771Y-75716003D01*
X162722723Y-75706465D01*
X162854568Y-75618368D01*
X163228368Y-75244568D01*
X163316465Y-75112723D01*
X163347400Y-74957200D01*
X163347400Y-71628000D01*
X163316465Y-71472477D01*
X163228368Y-71340632D01*
X162847368Y-70959632D01*
X162826191Y-70945482D01*
X162715523Y-70871535D01*
X162560000Y-70840600D01*
X159131000Y-70840600D01*
X158975477Y-70871535D01*
X158864809Y-70945482D01*
X158843632Y-70959632D01*
X158200664Y-71602600D01*
X155997336Y-71602600D01*
X155354368Y-70959632D01*
X155333191Y-70945482D01*
X155222523Y-70871535D01*
X155067000Y-70840600D01*
X154049771Y-70840600D01*
X154049771Y-70362000D01*
X154028518Y-70249048D01*
X153961763Y-70145308D01*
X153859907Y-70075713D01*
X153739000Y-70051229D01*
X153695400Y-70051229D01*
X153695400Y-69962567D01*
X153801952Y-69942518D01*
X153905692Y-69875763D01*
X153975287Y-69773907D01*
X153999771Y-69653000D01*
X153999771Y-69215000D01*
X155190323Y-69215000D01*
X155345280Y-69994020D01*
X155786559Y-70654441D01*
X156446980Y-71095720D01*
X157226000Y-71250677D01*
X158005020Y-71095720D01*
X158665441Y-70654441D01*
X159076204Y-70039689D01*
X162331837Y-70039689D01*
X162444646Y-70205251D01*
X162919649Y-70358753D01*
X163417237Y-70318794D01*
X163691354Y-70205251D01*
X163804163Y-70039689D01*
X163068000Y-69303526D01*
X162331837Y-70039689D01*
X159076204Y-70039689D01*
X159106720Y-69994020D01*
X159261677Y-69215000D01*
X159206907Y-68939649D01*
X161797247Y-68939649D01*
X161837206Y-69437237D01*
X161950749Y-69711354D01*
X162116311Y-69824163D01*
X162852474Y-69088000D01*
X163283526Y-69088000D01*
X164019689Y-69824163D01*
X164185251Y-69711354D01*
X164284352Y-69404689D01*
X167157837Y-69404689D01*
X167270646Y-69570251D01*
X167745649Y-69723753D01*
X168243237Y-69683794D01*
X168517354Y-69570251D01*
X168630163Y-69404689D01*
X167894000Y-68668526D01*
X167157837Y-69404689D01*
X164284352Y-69404689D01*
X164338753Y-69236351D01*
X164298794Y-68738763D01*
X164185251Y-68464646D01*
X164019689Y-68351837D01*
X163283526Y-69088000D01*
X162852474Y-69088000D01*
X162116311Y-68351837D01*
X161950749Y-68464646D01*
X161797247Y-68939649D01*
X159206907Y-68939649D01*
X159106720Y-68435980D01*
X158906488Y-68136311D01*
X162331837Y-68136311D01*
X163068000Y-68872474D01*
X163635825Y-68304649D01*
X166623247Y-68304649D01*
X166663206Y-68802237D01*
X166776749Y-69076354D01*
X166942311Y-69189163D01*
X167678474Y-68453000D01*
X168109526Y-68453000D01*
X168845689Y-69189163D01*
X169011251Y-69076354D01*
X169164753Y-68601351D01*
X169124794Y-68103763D01*
X169011251Y-67829646D01*
X168845689Y-67716837D01*
X168109526Y-68453000D01*
X167678474Y-68453000D01*
X166942311Y-67716837D01*
X166776749Y-67829646D01*
X166623247Y-68304649D01*
X163635825Y-68304649D01*
X163804163Y-68136311D01*
X163691354Y-67970749D01*
X163216351Y-67817247D01*
X162718763Y-67857206D01*
X162444646Y-67970749D01*
X162331837Y-68136311D01*
X158906488Y-68136311D01*
X158665441Y-67775559D01*
X158255000Y-67501311D01*
X167157837Y-67501311D01*
X167894000Y-68237474D01*
X168630163Y-67501311D01*
X168517354Y-67335749D01*
X168042351Y-67182247D01*
X167544763Y-67222206D01*
X167270646Y-67335749D01*
X167157837Y-67501311D01*
X158255000Y-67501311D01*
X158005020Y-67334280D01*
X157226000Y-67179323D01*
X156446980Y-67334280D01*
X155786559Y-67775559D01*
X155345280Y-68435980D01*
X155190323Y-69215000D01*
X153999771Y-69215000D01*
X153999771Y-68853000D01*
X153978518Y-68740048D01*
X153911763Y-68636308D01*
X153809907Y-68566713D01*
X153689000Y-68542229D01*
X152889000Y-68542229D01*
X152776048Y-68563482D01*
X152672308Y-68630237D01*
X152602713Y-68732093D01*
X152578229Y-68853000D01*
X152578229Y-69653000D01*
X152599482Y-69765952D01*
X152666237Y-69869692D01*
X152768093Y-69939287D01*
X152882600Y-69962475D01*
X152882600Y-70051229D01*
X152839000Y-70051229D01*
X152726048Y-70072482D01*
X152622308Y-70139237D01*
X152552713Y-70241093D01*
X152528229Y-70362000D01*
X152528229Y-70525135D01*
X151214924Y-69211830D01*
X151194154Y-69197952D01*
X151083079Y-69123733D01*
X150927556Y-69092798D01*
X148553694Y-69092798D01*
X148499388Y-69103600D01*
X144085800Y-69103600D01*
X144085800Y-69048700D01*
X144009600Y-68972500D01*
X143183400Y-68972500D01*
X143183400Y-68974229D01*
X142878600Y-68974229D01*
X142878600Y-68972500D01*
X142052400Y-68972500D01*
X141976200Y-69048700D01*
X141976200Y-69145629D01*
X141991145Y-69181710D01*
X141970229Y-69285000D01*
X141970229Y-69735000D01*
X141989736Y-69838672D01*
X141970229Y-69935000D01*
X141970229Y-70385000D01*
X141989736Y-70488672D01*
X141970229Y-70585000D01*
X141970229Y-71035000D01*
X141973729Y-71053600D01*
X141900000Y-71053600D01*
X141744478Y-71084534D01*
X141612632Y-71172631D01*
X139727863Y-73057401D01*
X138177110Y-73057401D01*
X138191771Y-72985000D01*
X138191771Y-72535000D01*
X138172264Y-72431328D01*
X138191771Y-72335000D01*
X138191771Y-72056947D01*
X138309170Y-72105695D01*
X138549774Y-72105905D01*
X138772144Y-72014024D01*
X138942426Y-71844039D01*
X139034695Y-71621830D01*
X139034905Y-71381226D01*
X138943024Y-71158856D01*
X138773039Y-70988574D01*
X138550830Y-70896305D01*
X138310226Y-70896095D01*
X138191771Y-70945039D01*
X138191771Y-70585000D01*
X138172264Y-70481328D01*
X138191771Y-70385000D01*
X138191771Y-69935000D01*
X138172264Y-69831328D01*
X138191771Y-69735000D01*
X138191771Y-69285000D01*
X138188271Y-69266400D01*
X138200087Y-69266400D01*
X138309170Y-69311695D01*
X138549774Y-69311905D01*
X138772144Y-69220024D01*
X138942426Y-69050039D01*
X139034695Y-68827830D01*
X139034905Y-68587226D01*
X138943024Y-68364856D01*
X138773039Y-68194574D01*
X138550830Y-68102305D01*
X138310226Y-68102095D01*
X138191771Y-68151039D01*
X138191771Y-67985000D01*
X138170518Y-67872048D01*
X138103763Y-67768308D01*
X138001907Y-67698713D01*
X137881000Y-67674229D01*
X136381000Y-67674229D01*
X136268048Y-67695482D01*
X136164308Y-67762237D01*
X136136046Y-67803600D01*
X135558379Y-67803600D01*
X135538518Y-67698048D01*
X135471763Y-67594308D01*
X135369907Y-67524713D01*
X135249000Y-67500229D01*
X134499000Y-67500229D01*
X134386048Y-67521482D01*
X134282308Y-67588237D01*
X134212713Y-67690093D01*
X134188229Y-67811000D01*
X134188229Y-68611000D01*
X134209482Y-68723952D01*
X134276237Y-68827692D01*
X134378093Y-68897287D01*
X134499000Y-68921771D01*
X135249000Y-68921771D01*
X135361952Y-68900518D01*
X135465692Y-68833763D01*
X135535287Y-68731907D01*
X135558677Y-68616400D01*
X136073996Y-68616400D01*
X136070229Y-68635000D01*
X136070229Y-69085000D01*
X136073729Y-69103600D01*
X135477742Y-69103600D01*
X135471763Y-69094308D01*
X135369907Y-69024713D01*
X135249000Y-69000229D01*
X134499000Y-69000229D01*
X134386048Y-69021482D01*
X134282308Y-69088237D01*
X134212713Y-69190093D01*
X134188229Y-69311000D01*
X134188229Y-70111000D01*
X134209482Y-70223952D01*
X134276237Y-70327692D01*
X134378093Y-70397287D01*
X134499000Y-70421771D01*
X135111493Y-70421771D01*
X134985035Y-70548229D01*
X134499000Y-70548229D01*
X134386048Y-70569482D01*
X134282308Y-70636237D01*
X134212713Y-70738093D01*
X134188229Y-70859000D01*
X134188229Y-71659000D01*
X134209482Y-71771952D01*
X134276237Y-71875692D01*
X134378093Y-71945287D01*
X134499000Y-71969771D01*
X135063493Y-71969771D01*
X134985035Y-72048229D01*
X134499000Y-72048229D01*
X134386048Y-72069482D01*
X134282308Y-72136237D01*
X134212713Y-72238093D01*
X134188229Y-72359000D01*
X134188229Y-73057401D01*
X134021557Y-73057401D01*
X133866034Y-73088336D01*
X133813441Y-73123478D01*
X133734189Y-73176433D01*
X133062632Y-73847990D01*
X132974535Y-73979835D01*
X132967800Y-74013695D01*
X132967800Y-67054800D01*
X142783025Y-67054800D01*
X142616574Y-67220961D01*
G36*
X139653157Y-120258093D02*
X139691736Y-120452044D01*
X139812869Y-120633331D01*
X139994156Y-120754464D01*
X140208000Y-120797000D01*
X140326738Y-120797000D01*
X141098939Y-121569201D01*
X140977226Y-121569095D01*
X140754856Y-121660976D01*
X140584574Y-121830961D01*
X140492305Y-122053170D01*
X140492173Y-122204091D01*
X140054863Y-122641401D01*
X139560800Y-122641401D01*
X139560800Y-122021600D01*
X139484600Y-121945400D01*
X138908400Y-121945400D01*
X138908400Y-121965400D01*
X138603600Y-121965400D01*
X138603600Y-121945400D01*
X138027400Y-121945400D01*
X137951200Y-122021600D01*
X137951200Y-122412106D01*
X137857599Y-122318505D01*
X137857599Y-120647800D01*
X138020147Y-120647800D01*
X137997603Y-120670344D01*
X137951200Y-120782371D01*
X137951200Y-121564400D01*
X138027400Y-121640600D01*
X138603600Y-121640600D01*
X138603600Y-121620600D01*
X138908400Y-121620600D01*
X138908400Y-121640600D01*
X139484600Y-121640600D01*
X139560800Y-121564400D01*
X139560800Y-120782371D01*
X139514397Y-120670344D01*
X139437052Y-120593000D01*
X139514397Y-120515656D01*
X139560800Y-120403629D01*
X139560800Y-120165736D01*
X139653157Y-120258093D01*
X139653157Y-120258093D01*
G37*
X139653157Y-120258093D02*
X139691736Y-120452044D01*
X139812869Y-120633331D01*
X139994156Y-120754464D01*
X140208000Y-120797000D01*
X140326738Y-120797000D01*
X141098939Y-121569201D01*
X140977226Y-121569095D01*
X140754856Y-121660976D01*
X140584574Y-121830961D01*
X140492305Y-122053170D01*
X140492173Y-122204091D01*
X140054863Y-122641401D01*
X139560800Y-122641401D01*
X139560800Y-122021600D01*
X139484600Y-121945400D01*
X138908400Y-121945400D01*
X138908400Y-121965400D01*
X138603600Y-121965400D01*
X138603600Y-121945400D01*
X138027400Y-121945400D01*
X137951200Y-122021600D01*
X137951200Y-122412106D01*
X137857599Y-122318505D01*
X137857599Y-120647800D01*
X138020147Y-120647800D01*
X137997603Y-120670344D01*
X137951200Y-120782371D01*
X137951200Y-121564400D01*
X138027400Y-121640600D01*
X138603600Y-121640600D01*
X138603600Y-121620600D01*
X138908400Y-121620600D01*
X138908400Y-121640600D01*
X139484600Y-121640600D01*
X139560800Y-121564400D01*
X139560800Y-120782371D01*
X139514397Y-120670344D01*
X139437052Y-120593000D01*
X139514397Y-120515656D01*
X139560800Y-120403629D01*
X139560800Y-120165736D01*
X139653157Y-120258093D01*
G36*
X142318500Y-118790600D02*
X142378400Y-118790600D01*
X142378400Y-119095400D01*
X142318500Y-119095400D01*
X142318500Y-119861600D01*
X142394700Y-119937800D01*
X142451200Y-119937800D01*
X142451200Y-120403629D01*
X142497603Y-120515656D01*
X142574948Y-120593000D01*
X142497603Y-120670344D01*
X142451200Y-120782371D01*
X142451200Y-121375734D01*
X142381131Y-121270869D01*
X141054033Y-119943771D01*
X141231000Y-119943771D01*
X141308754Y-119929141D01*
X141381000Y-119943771D01*
X141831000Y-119943771D01*
X141902368Y-119930342D01*
X141920372Y-119937800D01*
X142017300Y-119937800D01*
X142093500Y-119861600D01*
X142093500Y-119788721D01*
X142117287Y-119753907D01*
X142141771Y-119633000D01*
X142141771Y-118770600D01*
X142318500Y-118770600D01*
X142318500Y-118790600D01*
X142318500Y-118790600D01*
G37*
X142318500Y-118790600D02*
X142378400Y-118790600D01*
X142378400Y-119095400D01*
X142318500Y-119095400D01*
X142318500Y-119861600D01*
X142394700Y-119937800D01*
X142451200Y-119937800D01*
X142451200Y-120403629D01*
X142497603Y-120515656D01*
X142574948Y-120593000D01*
X142497603Y-120670344D01*
X142451200Y-120782371D01*
X142451200Y-121375734D01*
X142381131Y-121270869D01*
X141054033Y-119943771D01*
X141231000Y-119943771D01*
X141308754Y-119929141D01*
X141381000Y-119943771D01*
X141831000Y-119943771D01*
X141902368Y-119930342D01*
X141920372Y-119937800D01*
X142017300Y-119937800D01*
X142093500Y-119861600D01*
X142093500Y-119788721D01*
X142117287Y-119753907D01*
X142141771Y-119633000D01*
X142141771Y-118770600D01*
X142318500Y-118770600D01*
X142318500Y-118790600D01*
G36*
X139603305Y-117608170D02*
X139603095Y-117848774D01*
X139641710Y-117942229D01*
X139581000Y-117942229D01*
X139468048Y-117963482D01*
X139431227Y-117987175D01*
X139428655Y-117984603D01*
X139316628Y-117938200D01*
X138734600Y-117938200D01*
X138658400Y-118014400D01*
X138658400Y-119140600D01*
X138678400Y-119140600D01*
X138678400Y-119445400D01*
X138658400Y-119445400D01*
X138658400Y-119465400D01*
X138353600Y-119465400D01*
X138353600Y-119445400D01*
X138333600Y-119445400D01*
X138333600Y-119140600D01*
X138353600Y-119140600D01*
X138353600Y-118014400D01*
X138277400Y-117938200D01*
X138100286Y-117938200D01*
X138512675Y-117525811D01*
X139637503Y-117525811D01*
X139603305Y-117608170D01*
X139603305Y-117608170D01*
G37*
X139603305Y-117608170D02*
X139603095Y-117848774D01*
X139641710Y-117942229D01*
X139581000Y-117942229D01*
X139468048Y-117963482D01*
X139431227Y-117987175D01*
X139428655Y-117984603D01*
X139316628Y-117938200D01*
X138734600Y-117938200D01*
X138658400Y-118014400D01*
X138658400Y-119140600D01*
X138678400Y-119140600D01*
X138678400Y-119445400D01*
X138658400Y-119445400D01*
X138658400Y-119465400D01*
X138353600Y-119465400D01*
X138353600Y-119445400D01*
X138333600Y-119445400D01*
X138333600Y-119140600D01*
X138353600Y-119140600D01*
X138353600Y-118014400D01*
X138277400Y-117938200D01*
X138100286Y-117938200D01*
X138512675Y-117525811D01*
X139637503Y-117525811D01*
X139603305Y-117608170D01*
G36*
X132994137Y-104531229D02*
X133037221Y-104595708D01*
X133757881Y-105316368D01*
X133889726Y-105404465D01*
X134045249Y-105435400D01*
X136051864Y-105435400D01*
X134669779Y-106817485D01*
X134581682Y-106949330D01*
X134550747Y-107104853D01*
X134550747Y-108196298D01*
X134444721Y-108302139D01*
X134352452Y-108524348D01*
X134352242Y-108764952D01*
X134444123Y-108987322D01*
X134614108Y-109157604D01*
X134836317Y-109249873D01*
X135076921Y-109250083D01*
X135299291Y-109158202D01*
X135469573Y-108988217D01*
X135483964Y-108953559D01*
X135737600Y-109207195D01*
X135737600Y-112142200D01*
X135768535Y-112297723D01*
X135832520Y-112393482D01*
X135856632Y-112429568D01*
X137222432Y-113795368D01*
X137354277Y-113883465D01*
X137418984Y-113896336D01*
X137408200Y-113922371D01*
X137408200Y-113994300D01*
X137484400Y-114070500D01*
X137960600Y-114070500D01*
X137960600Y-113993771D01*
X138265400Y-113993771D01*
X138265400Y-114070500D01*
X138285400Y-114070500D01*
X138285400Y-114245500D01*
X138265400Y-114245500D01*
X138265400Y-114322229D01*
X137960600Y-114322229D01*
X137960600Y-114245500D01*
X137484400Y-114245500D01*
X137408200Y-114321700D01*
X137408200Y-114393629D01*
X137445737Y-114484251D01*
X137426713Y-114512093D01*
X137402229Y-114633000D01*
X137402229Y-114983000D01*
X137423482Y-115095952D01*
X137490237Y-115199692D01*
X137592093Y-115269287D01*
X137713000Y-115293771D01*
X138513000Y-115293771D01*
X138622176Y-115273229D01*
X138674074Y-115325126D01*
X138652229Y-115433000D01*
X138652229Y-116233000D01*
X138666078Y-116306600D01*
X138176000Y-116306600D01*
X138020477Y-116337535D01*
X137939521Y-116391629D01*
X137888632Y-116425632D01*
X136958346Y-117355918D01*
X137036677Y-116962123D01*
X136881720Y-116183103D01*
X136440441Y-115522682D01*
X135780020Y-115081403D01*
X135001000Y-114926446D01*
X134221980Y-115081403D01*
X133561559Y-115522682D01*
X133120280Y-116183103D01*
X132967800Y-116949670D01*
X132967800Y-104491813D01*
X132994137Y-104531229D01*
X132994137Y-104531229D01*
G37*
X132994137Y-104531229D02*
X133037221Y-104595708D01*
X133757881Y-105316368D01*
X133889726Y-105404465D01*
X134045249Y-105435400D01*
X136051864Y-105435400D01*
X134669779Y-106817485D01*
X134581682Y-106949330D01*
X134550747Y-107104853D01*
X134550747Y-108196298D01*
X134444721Y-108302139D01*
X134352452Y-108524348D01*
X134352242Y-108764952D01*
X134444123Y-108987322D01*
X134614108Y-109157604D01*
X134836317Y-109249873D01*
X135076921Y-109250083D01*
X135299291Y-109158202D01*
X135469573Y-108988217D01*
X135483964Y-108953559D01*
X135737600Y-109207195D01*
X135737600Y-112142200D01*
X135768535Y-112297723D01*
X135832520Y-112393482D01*
X135856632Y-112429568D01*
X137222432Y-113795368D01*
X137354277Y-113883465D01*
X137418984Y-113896336D01*
X137408200Y-113922371D01*
X137408200Y-113994300D01*
X137484400Y-114070500D01*
X137960600Y-114070500D01*
X137960600Y-113993771D01*
X138265400Y-113993771D01*
X138265400Y-114070500D01*
X138285400Y-114070500D01*
X138285400Y-114245500D01*
X138265400Y-114245500D01*
X138265400Y-114322229D01*
X137960600Y-114322229D01*
X137960600Y-114245500D01*
X137484400Y-114245500D01*
X137408200Y-114321700D01*
X137408200Y-114393629D01*
X137445737Y-114484251D01*
X137426713Y-114512093D01*
X137402229Y-114633000D01*
X137402229Y-114983000D01*
X137423482Y-115095952D01*
X137490237Y-115199692D01*
X137592093Y-115269287D01*
X137713000Y-115293771D01*
X138513000Y-115293771D01*
X138622176Y-115273229D01*
X138674074Y-115325126D01*
X138652229Y-115433000D01*
X138652229Y-116233000D01*
X138666078Y-116306600D01*
X138176000Y-116306600D01*
X138020477Y-116337535D01*
X137939521Y-116391629D01*
X137888632Y-116425632D01*
X136958346Y-117355918D01*
X137036677Y-116962123D01*
X136881720Y-116183103D01*
X136440441Y-115522682D01*
X135780020Y-115081403D01*
X135001000Y-114926446D01*
X134221980Y-115081403D01*
X133561559Y-115522682D01*
X133120280Y-116183103D01*
X132967800Y-116949670D01*
X132967800Y-104491813D01*
X132994137Y-104531229D01*
G36*
X158038833Y-82499233D02*
X158069768Y-82654756D01*
X158141899Y-82762706D01*
X158157865Y-82786601D01*
X160756600Y-85385336D01*
X160756600Y-113750664D01*
X159277912Y-115229352D01*
X159087733Y-115150383D01*
X158668108Y-115150017D01*
X158280284Y-115310262D01*
X157983305Y-115606724D01*
X157822383Y-115994267D01*
X157822188Y-116217838D01*
X157822188Y-114471084D01*
X158286442Y-114471084D01*
X158374531Y-114615868D01*
X158776661Y-114735774D01*
X159194066Y-114692664D01*
X159379469Y-114615868D01*
X159467558Y-114471084D01*
X158877000Y-113880526D01*
X158286442Y-114471084D01*
X157822188Y-114471084D01*
X157822188Y-113719210D01*
X157849336Y-113982066D01*
X157926132Y-114167469D01*
X158070916Y-114255558D01*
X158661474Y-113665000D01*
X159092526Y-113665000D01*
X159683084Y-114255558D01*
X159827868Y-114167469D01*
X159947774Y-113765339D01*
X159904664Y-113347934D01*
X159827868Y-113162531D01*
X159683084Y-113074442D01*
X159092526Y-113665000D01*
X158661474Y-113665000D01*
X158070916Y-113074442D01*
X157926132Y-113162531D01*
X157822188Y-113511129D01*
X157822188Y-112858916D01*
X158286442Y-112858916D01*
X158877000Y-113449474D01*
X159467558Y-112858916D01*
X159379469Y-112714132D01*
X158977339Y-112594226D01*
X158559934Y-112637336D01*
X158374531Y-112714132D01*
X158286442Y-112858916D01*
X157822188Y-112858916D01*
X157822188Y-111334306D01*
X157982262Y-111721716D01*
X158278724Y-112018695D01*
X158666267Y-112179617D01*
X159085892Y-112179983D01*
X159473716Y-112019738D01*
X159770695Y-111723276D01*
X159931617Y-111335733D01*
X159931983Y-110916108D01*
X159771738Y-110528284D01*
X159475276Y-110231305D01*
X159087733Y-110070383D01*
X158668108Y-110070017D01*
X158280284Y-110230262D01*
X157983305Y-110526724D01*
X157822383Y-110914267D01*
X157822188Y-111137838D01*
X157822188Y-109391084D01*
X158286442Y-109391084D01*
X158374531Y-109535868D01*
X158776661Y-109655774D01*
X159194066Y-109612664D01*
X159379469Y-109535868D01*
X159467558Y-109391084D01*
X158877000Y-108800526D01*
X158286442Y-109391084D01*
X157822188Y-109391084D01*
X157822188Y-108639210D01*
X157849336Y-108902066D01*
X157926132Y-109087469D01*
X158070916Y-109175558D01*
X158661474Y-108585000D01*
X159092526Y-108585000D01*
X159683084Y-109175558D01*
X159827868Y-109087469D01*
X159947774Y-108685339D01*
X159904664Y-108267934D01*
X159827868Y-108082531D01*
X159683084Y-107994442D01*
X159092526Y-108585000D01*
X158661474Y-108585000D01*
X158070916Y-107994442D01*
X157926132Y-108082531D01*
X157822188Y-108431129D01*
X157822188Y-107778916D01*
X158286442Y-107778916D01*
X158877000Y-108369474D01*
X159467558Y-107778916D01*
X159379469Y-107634132D01*
X158977339Y-107514226D01*
X158559934Y-107557336D01*
X158374531Y-107634132D01*
X158286442Y-107778916D01*
X157822188Y-107778916D01*
X157822188Y-106254306D01*
X157982262Y-106641716D01*
X158278724Y-106938695D01*
X158666267Y-107099617D01*
X159085892Y-107099983D01*
X159473716Y-106939738D01*
X159770695Y-106643276D01*
X159931617Y-106255733D01*
X159931983Y-105836108D01*
X159771738Y-105448284D01*
X159475276Y-105151305D01*
X159087733Y-104990383D01*
X158668108Y-104990017D01*
X158280284Y-105150262D01*
X157983305Y-105446724D01*
X157822383Y-105834267D01*
X157822188Y-106057838D01*
X157822188Y-104311084D01*
X158286442Y-104311084D01*
X158374531Y-104455868D01*
X158776661Y-104575774D01*
X159194066Y-104532664D01*
X159379469Y-104455868D01*
X159467558Y-104311084D01*
X158877000Y-103720526D01*
X158286442Y-104311084D01*
X157822188Y-104311084D01*
X157822188Y-104050388D01*
X157760317Y-103739343D01*
X157747489Y-103720144D01*
X157584125Y-103475652D01*
X157513134Y-103404661D01*
X157806226Y-103404661D01*
X157849336Y-103822066D01*
X157926132Y-104007469D01*
X158070916Y-104095558D01*
X158661474Y-103505000D01*
X159092526Y-103505000D01*
X159683084Y-104095558D01*
X159827868Y-104007469D01*
X159947774Y-103605339D01*
X159904664Y-103187934D01*
X159827868Y-103002531D01*
X159683084Y-102914442D01*
X159092526Y-103505000D01*
X158661474Y-103505000D01*
X158070916Y-102914442D01*
X157926132Y-103002531D01*
X157806226Y-103404661D01*
X157513134Y-103404661D01*
X156807389Y-102698916D01*
X158286442Y-102698916D01*
X158877000Y-103289474D01*
X159467558Y-102698916D01*
X159379469Y-102554132D01*
X158977339Y-102434226D01*
X158559934Y-102477336D01*
X158374531Y-102554132D01*
X158286442Y-102698916D01*
X156807389Y-102698916D01*
X155382937Y-101274465D01*
X155232420Y-101173892D01*
X157822017Y-101173892D01*
X157982262Y-101561716D01*
X158278724Y-101858695D01*
X158666267Y-102019617D01*
X159085892Y-102019983D01*
X159473716Y-101859738D01*
X159770695Y-101563276D01*
X159931617Y-101175733D01*
X159931983Y-100756108D01*
X159771738Y-100368284D01*
X159475276Y-100071305D01*
X159087733Y-99910383D01*
X158668108Y-99910017D01*
X158280284Y-100070262D01*
X157983305Y-100366724D01*
X157822383Y-100754267D01*
X157822017Y-101173892D01*
X155232420Y-101173892D01*
X155119246Y-101098272D01*
X154808201Y-101036401D01*
X153995385Y-101036401D01*
X153857248Y-100898264D01*
X153593557Y-100722071D01*
X153282512Y-100660200D01*
X151466673Y-100660200D01*
X149079073Y-98272600D01*
X150825200Y-98272600D01*
X150825200Y-99374629D01*
X150871603Y-99486656D01*
X150957345Y-99572397D01*
X151069372Y-99618800D01*
X152171400Y-99618800D01*
X152247600Y-99542600D01*
X152247600Y-98196400D01*
X152552400Y-98196400D01*
X152552400Y-99542600D01*
X152628600Y-99618800D01*
X153730628Y-99618800D01*
X153842655Y-99572397D01*
X153928397Y-99486656D01*
X153974800Y-99374629D01*
X153974800Y-99231084D01*
X158286442Y-99231084D01*
X158374531Y-99375868D01*
X158776661Y-99495774D01*
X159194066Y-99452664D01*
X159379469Y-99375868D01*
X159467558Y-99231084D01*
X158877000Y-98640526D01*
X158286442Y-99231084D01*
X153974800Y-99231084D01*
X153974800Y-98324661D01*
X157806226Y-98324661D01*
X157849336Y-98742066D01*
X157926132Y-98927469D01*
X158070916Y-99015558D01*
X158661474Y-98425000D01*
X159092526Y-98425000D01*
X159683084Y-99015558D01*
X159827868Y-98927469D01*
X159947774Y-98525339D01*
X159904664Y-98107934D01*
X159827868Y-97922531D01*
X159683084Y-97834442D01*
X159092526Y-98425000D01*
X158661474Y-98425000D01*
X158070916Y-97834442D01*
X157926132Y-97922531D01*
X157806226Y-98324661D01*
X153974800Y-98324661D01*
X153974800Y-98272600D01*
X153898600Y-98196400D01*
X152552400Y-98196400D01*
X152247600Y-98196400D01*
X150901400Y-98196400D01*
X150825200Y-98272600D01*
X149079073Y-98272600D01*
X147519844Y-96713371D01*
X150825200Y-96713371D01*
X150825200Y-97815400D01*
X150901400Y-97891600D01*
X152247600Y-97891600D01*
X152247600Y-96545400D01*
X152552400Y-96545400D01*
X152552400Y-97891600D01*
X153898600Y-97891600D01*
X153974800Y-97815400D01*
X153974800Y-97618916D01*
X158286442Y-97618916D01*
X158877000Y-98209474D01*
X159467558Y-97618916D01*
X159379469Y-97474132D01*
X158977339Y-97354226D01*
X158559934Y-97397336D01*
X158374531Y-97474132D01*
X158286442Y-97618916D01*
X153974800Y-97618916D01*
X153974800Y-96713371D01*
X153928397Y-96601344D01*
X153842655Y-96515603D01*
X153730628Y-96469200D01*
X152628600Y-96469200D01*
X152552400Y-96545400D01*
X152247600Y-96545400D01*
X152171400Y-96469200D01*
X151069372Y-96469200D01*
X150957345Y-96515603D01*
X150871603Y-96601344D01*
X150825200Y-96713371D01*
X147519844Y-96713371D01*
X146900365Y-96093892D01*
X157822017Y-96093892D01*
X157982262Y-96481716D01*
X158278724Y-96778695D01*
X158666267Y-96939617D01*
X159085892Y-96939983D01*
X159473716Y-96779738D01*
X159770695Y-96483276D01*
X159931617Y-96095733D01*
X159931983Y-95676108D01*
X159771738Y-95288284D01*
X159475276Y-94991305D01*
X159087733Y-94830383D01*
X158668108Y-94830017D01*
X158280284Y-94990262D01*
X157983305Y-95286724D01*
X157822383Y-95674267D01*
X157822017Y-96093892D01*
X146900365Y-96093892D01*
X144786473Y-93980000D01*
X149047200Y-93980000D01*
X149047200Y-94996000D01*
X149109071Y-95307045D01*
X149285264Y-95570736D01*
X149548955Y-95746929D01*
X149860000Y-95808800D01*
X150368000Y-95808800D01*
X150679045Y-95746929D01*
X150819229Y-95653261D01*
X150819229Y-95758000D01*
X150840482Y-95870952D01*
X150907237Y-95974692D01*
X151009093Y-96044287D01*
X151130000Y-96068771D01*
X153670000Y-96068771D01*
X153782952Y-96047518D01*
X153886692Y-95980763D01*
X153956287Y-95878907D01*
X153980771Y-95758000D01*
X153980771Y-93218000D01*
X153959518Y-93105048D01*
X153892763Y-93001308D01*
X153836952Y-92963174D01*
X155430060Y-92963174D01*
X155552933Y-93260550D01*
X155780254Y-93488267D01*
X156077414Y-93611659D01*
X156399174Y-93611940D01*
X156539661Y-93553892D01*
X157822017Y-93553892D01*
X157982262Y-93941716D01*
X158278724Y-94238695D01*
X158666267Y-94399617D01*
X159085892Y-94399983D01*
X159473716Y-94239738D01*
X159770695Y-93943276D01*
X159931617Y-93555733D01*
X159931983Y-93136108D01*
X159771738Y-92748284D01*
X159475276Y-92451305D01*
X159087733Y-92290383D01*
X158668108Y-92290017D01*
X158280284Y-92450262D01*
X157983305Y-92746724D01*
X157822383Y-93134267D01*
X157822017Y-93553892D01*
X156539661Y-93553892D01*
X156696550Y-93489067D01*
X156924267Y-93261746D01*
X157047659Y-92964586D01*
X157047940Y-92642826D01*
X156925067Y-92345450D01*
X156697746Y-92117733D01*
X156400586Y-91994341D01*
X156078826Y-91994060D01*
X155781450Y-92116933D01*
X155553733Y-92344254D01*
X155430341Y-92641414D01*
X155430060Y-92963174D01*
X153836952Y-92963174D01*
X153790907Y-92931713D01*
X153670000Y-92907229D01*
X151130000Y-92907229D01*
X151017048Y-92928482D01*
X150913308Y-92995237D01*
X150843713Y-93097093D01*
X150819229Y-93218000D01*
X150819229Y-93322739D01*
X150679045Y-93229071D01*
X150368000Y-93167200D01*
X149860000Y-93167200D01*
X149548955Y-93229071D01*
X149285264Y-93405264D01*
X149109071Y-93668955D01*
X149047200Y-93980000D01*
X144786473Y-93980000D01*
X144084736Y-93278264D01*
X143821045Y-93102071D01*
X143796019Y-93097093D01*
X143510000Y-93040200D01*
X143306800Y-93040200D01*
X143306800Y-90525600D01*
X150825200Y-90525600D01*
X150825200Y-91627629D01*
X150871603Y-91739656D01*
X150957345Y-91825397D01*
X151069372Y-91871800D01*
X152171400Y-91871800D01*
X152247600Y-91795600D01*
X152247600Y-90449400D01*
X152552400Y-90449400D01*
X152552400Y-91795600D01*
X152628600Y-91871800D01*
X153730628Y-91871800D01*
X153842655Y-91825397D01*
X153928397Y-91739656D01*
X153974800Y-91627629D01*
X153974800Y-90963174D01*
X155430060Y-90963174D01*
X155552933Y-91260550D01*
X155780254Y-91488267D01*
X156077414Y-91611659D01*
X156399174Y-91611940D01*
X156696550Y-91489067D01*
X156924267Y-91261746D01*
X157027185Y-91013892D01*
X157822017Y-91013892D01*
X157982262Y-91401716D01*
X158278724Y-91698695D01*
X158666267Y-91859617D01*
X159085892Y-91859983D01*
X159473716Y-91699738D01*
X159770695Y-91403276D01*
X159931617Y-91015733D01*
X159931983Y-90596108D01*
X159771738Y-90208284D01*
X159475276Y-89911305D01*
X159087733Y-89750383D01*
X158668108Y-89750017D01*
X158280284Y-89910262D01*
X157983305Y-90206724D01*
X157822383Y-90594267D01*
X157822017Y-91013892D01*
X157027185Y-91013892D01*
X157047659Y-90964586D01*
X157047940Y-90642826D01*
X156925067Y-90345450D01*
X156697746Y-90117733D01*
X156400586Y-89994341D01*
X156078826Y-89994060D01*
X155781450Y-90116933D01*
X155553733Y-90344254D01*
X155430341Y-90641414D01*
X155430060Y-90963174D01*
X153974800Y-90963174D01*
X153974800Y-90525600D01*
X153898600Y-90449400D01*
X152552400Y-90449400D01*
X152247600Y-90449400D01*
X150901400Y-90449400D01*
X150825200Y-90525600D01*
X143306800Y-90525600D01*
X143306800Y-88966371D01*
X150825200Y-88966371D01*
X150825200Y-90068400D01*
X150901400Y-90144600D01*
X152247600Y-90144600D01*
X152247600Y-88798400D01*
X152552400Y-88798400D01*
X152552400Y-90144600D01*
X153898600Y-90144600D01*
X153974800Y-90068400D01*
X153974800Y-88966371D01*
X153973476Y-88963174D01*
X155430060Y-88963174D01*
X155552933Y-89260550D01*
X155780254Y-89488267D01*
X156077414Y-89611659D01*
X156399174Y-89611940D01*
X156696550Y-89489067D01*
X156924267Y-89261746D01*
X157047659Y-88964586D01*
X157047940Y-88642826D01*
X156978139Y-88473892D01*
X157885517Y-88473892D01*
X158045762Y-88861716D01*
X158342224Y-89158695D01*
X158729767Y-89319617D01*
X159149392Y-89319983D01*
X159537216Y-89159738D01*
X159834195Y-88863276D01*
X159995117Y-88475733D01*
X159995483Y-88056108D01*
X159835238Y-87668284D01*
X159538776Y-87371305D01*
X159151233Y-87210383D01*
X158731608Y-87210017D01*
X158343784Y-87370262D01*
X158046805Y-87666724D01*
X157885883Y-88054267D01*
X157885517Y-88473892D01*
X156978139Y-88473892D01*
X156925067Y-88345450D01*
X156697746Y-88117733D01*
X156400586Y-87994341D01*
X156078826Y-87994060D01*
X155781450Y-88116933D01*
X155553733Y-88344254D01*
X155430341Y-88641414D01*
X155430060Y-88963174D01*
X153973476Y-88963174D01*
X153928397Y-88854344D01*
X153842655Y-88768603D01*
X153730628Y-88722200D01*
X152628600Y-88722200D01*
X152552400Y-88798400D01*
X152247600Y-88798400D01*
X152171400Y-88722200D01*
X151069372Y-88722200D01*
X150957345Y-88768603D01*
X150871603Y-88854344D01*
X150825200Y-88966371D01*
X143306800Y-88966371D01*
X143306800Y-87249000D01*
X143244929Y-86937955D01*
X143178078Y-86837905D01*
X143068736Y-86674263D01*
X142627473Y-86233000D01*
X149047200Y-86233000D01*
X149047200Y-87249000D01*
X149109071Y-87560045D01*
X149285264Y-87823736D01*
X149548955Y-87999929D01*
X149860000Y-88061800D01*
X150368000Y-88061800D01*
X150679045Y-87999929D01*
X150819229Y-87906261D01*
X150819229Y-88011000D01*
X150840482Y-88123952D01*
X150907237Y-88227692D01*
X151009093Y-88297287D01*
X151130000Y-88321771D01*
X153670000Y-88321771D01*
X153782952Y-88300518D01*
X153886692Y-88233763D01*
X153956287Y-88131907D01*
X153980771Y-88011000D01*
X153980771Y-86963174D01*
X155430060Y-86963174D01*
X155552933Y-87260550D01*
X155780254Y-87488267D01*
X156077414Y-87611659D01*
X156399174Y-87611940D01*
X156696550Y-87489067D01*
X156924267Y-87261746D01*
X157047659Y-86964586D01*
X157047940Y-86642826D01*
X156925067Y-86345450D01*
X156697746Y-86117733D01*
X156400586Y-85994341D01*
X156078826Y-85994060D01*
X155781450Y-86116933D01*
X155553733Y-86344254D01*
X155430341Y-86641414D01*
X155430060Y-86963174D01*
X153980771Y-86963174D01*
X153980771Y-85471000D01*
X153959518Y-85358048D01*
X153892763Y-85254308D01*
X153790907Y-85184713D01*
X153670000Y-85160229D01*
X151130000Y-85160229D01*
X151017048Y-85181482D01*
X150913308Y-85248237D01*
X150843713Y-85350093D01*
X150819229Y-85471000D01*
X150819229Y-85575739D01*
X150679045Y-85482071D01*
X150368000Y-85420200D01*
X149860000Y-85420200D01*
X149548955Y-85482071D01*
X149285264Y-85658264D01*
X149109071Y-85921955D01*
X149047200Y-86233000D01*
X142627473Y-86233000D01*
X142560736Y-86166264D01*
X142297045Y-85990071D01*
X141986000Y-85928200D01*
X141915771Y-85928200D01*
X141915771Y-85496400D01*
X147956730Y-85496400D01*
X148112253Y-85465465D01*
X148244098Y-85377368D01*
X149013430Y-84608037D01*
X149163241Y-84608168D01*
X149385611Y-84516287D01*
X149555893Y-84346302D01*
X149648162Y-84124093D01*
X149648254Y-84018201D01*
X156042182Y-84018201D01*
X155781450Y-84125933D01*
X155553733Y-84353254D01*
X155430341Y-84650414D01*
X155430060Y-84972174D01*
X155552933Y-85269550D01*
X155780254Y-85497267D01*
X156077414Y-85620659D01*
X156399174Y-85620940D01*
X156696550Y-85498067D01*
X156924267Y-85270746D01*
X157047659Y-84973586D01*
X157047940Y-84651826D01*
X156925067Y-84354450D01*
X156697746Y-84126733D01*
X156436373Y-84018201D01*
X156799199Y-84018201D01*
X156954722Y-83987266D01*
X157086567Y-83899169D01*
X157640368Y-83345368D01*
X157690229Y-83270746D01*
X157728465Y-83213523D01*
X157759400Y-83058000D01*
X157759400Y-81769087D01*
X158038833Y-81489654D01*
X158038833Y-82499233D01*
X158038833Y-82499233D01*
G37*
X158038833Y-82499233D02*
X158069768Y-82654756D01*
X158141899Y-82762706D01*
X158157865Y-82786601D01*
X160756600Y-85385336D01*
X160756600Y-113750664D01*
X159277912Y-115229352D01*
X159087733Y-115150383D01*
X158668108Y-115150017D01*
X158280284Y-115310262D01*
X157983305Y-115606724D01*
X157822383Y-115994267D01*
X157822188Y-116217838D01*
X157822188Y-114471084D01*
X158286442Y-114471084D01*
X158374531Y-114615868D01*
X158776661Y-114735774D01*
X159194066Y-114692664D01*
X159379469Y-114615868D01*
X159467558Y-114471084D01*
X158877000Y-113880526D01*
X158286442Y-114471084D01*
X157822188Y-114471084D01*
X157822188Y-113719210D01*
X157849336Y-113982066D01*
X157926132Y-114167469D01*
X158070916Y-114255558D01*
X158661474Y-113665000D01*
X159092526Y-113665000D01*
X159683084Y-114255558D01*
X159827868Y-114167469D01*
X159947774Y-113765339D01*
X159904664Y-113347934D01*
X159827868Y-113162531D01*
X159683084Y-113074442D01*
X159092526Y-113665000D01*
X158661474Y-113665000D01*
X158070916Y-113074442D01*
X157926132Y-113162531D01*
X157822188Y-113511129D01*
X157822188Y-112858916D01*
X158286442Y-112858916D01*
X158877000Y-113449474D01*
X159467558Y-112858916D01*
X159379469Y-112714132D01*
X158977339Y-112594226D01*
X158559934Y-112637336D01*
X158374531Y-112714132D01*
X158286442Y-112858916D01*
X157822188Y-112858916D01*
X157822188Y-111334306D01*
X157982262Y-111721716D01*
X158278724Y-112018695D01*
X158666267Y-112179617D01*
X159085892Y-112179983D01*
X159473716Y-112019738D01*
X159770695Y-111723276D01*
X159931617Y-111335733D01*
X159931983Y-110916108D01*
X159771738Y-110528284D01*
X159475276Y-110231305D01*
X159087733Y-110070383D01*
X158668108Y-110070017D01*
X158280284Y-110230262D01*
X157983305Y-110526724D01*
X157822383Y-110914267D01*
X157822188Y-111137838D01*
X157822188Y-109391084D01*
X158286442Y-109391084D01*
X158374531Y-109535868D01*
X158776661Y-109655774D01*
X159194066Y-109612664D01*
X159379469Y-109535868D01*
X159467558Y-109391084D01*
X158877000Y-108800526D01*
X158286442Y-109391084D01*
X157822188Y-109391084D01*
X157822188Y-108639210D01*
X157849336Y-108902066D01*
X157926132Y-109087469D01*
X158070916Y-109175558D01*
X158661474Y-108585000D01*
X159092526Y-108585000D01*
X159683084Y-109175558D01*
X159827868Y-109087469D01*
X159947774Y-108685339D01*
X159904664Y-108267934D01*
X159827868Y-108082531D01*
X159683084Y-107994442D01*
X159092526Y-108585000D01*
X158661474Y-108585000D01*
X158070916Y-107994442D01*
X157926132Y-108082531D01*
X157822188Y-108431129D01*
X157822188Y-107778916D01*
X158286442Y-107778916D01*
X158877000Y-108369474D01*
X159467558Y-107778916D01*
X159379469Y-107634132D01*
X158977339Y-107514226D01*
X158559934Y-107557336D01*
X158374531Y-107634132D01*
X158286442Y-107778916D01*
X157822188Y-107778916D01*
X157822188Y-106254306D01*
X157982262Y-106641716D01*
X158278724Y-106938695D01*
X158666267Y-107099617D01*
X159085892Y-107099983D01*
X159473716Y-106939738D01*
X159770695Y-106643276D01*
X159931617Y-106255733D01*
X159931983Y-105836108D01*
X159771738Y-105448284D01*
X159475276Y-105151305D01*
X159087733Y-104990383D01*
X158668108Y-104990017D01*
X158280284Y-105150262D01*
X157983305Y-105446724D01*
X157822383Y-105834267D01*
X157822188Y-106057838D01*
X157822188Y-104311084D01*
X158286442Y-104311084D01*
X158374531Y-104455868D01*
X158776661Y-104575774D01*
X159194066Y-104532664D01*
X159379469Y-104455868D01*
X159467558Y-104311084D01*
X158877000Y-103720526D01*
X158286442Y-104311084D01*
X157822188Y-104311084D01*
X157822188Y-104050388D01*
X157760317Y-103739343D01*
X157747489Y-103720144D01*
X157584125Y-103475652D01*
X157513134Y-103404661D01*
X157806226Y-103404661D01*
X157849336Y-103822066D01*
X157926132Y-104007469D01*
X158070916Y-104095558D01*
X158661474Y-103505000D01*
X159092526Y-103505000D01*
X159683084Y-104095558D01*
X159827868Y-104007469D01*
X159947774Y-103605339D01*
X159904664Y-103187934D01*
X159827868Y-103002531D01*
X159683084Y-102914442D01*
X159092526Y-103505000D01*
X158661474Y-103505000D01*
X158070916Y-102914442D01*
X157926132Y-103002531D01*
X157806226Y-103404661D01*
X157513134Y-103404661D01*
X156807389Y-102698916D01*
X158286442Y-102698916D01*
X158877000Y-103289474D01*
X159467558Y-102698916D01*
X159379469Y-102554132D01*
X158977339Y-102434226D01*
X158559934Y-102477336D01*
X158374531Y-102554132D01*
X158286442Y-102698916D01*
X156807389Y-102698916D01*
X155382937Y-101274465D01*
X155232420Y-101173892D01*
X157822017Y-101173892D01*
X157982262Y-101561716D01*
X158278724Y-101858695D01*
X158666267Y-102019617D01*
X159085892Y-102019983D01*
X159473716Y-101859738D01*
X159770695Y-101563276D01*
X159931617Y-101175733D01*
X159931983Y-100756108D01*
X159771738Y-100368284D01*
X159475276Y-100071305D01*
X159087733Y-99910383D01*
X158668108Y-99910017D01*
X158280284Y-100070262D01*
X157983305Y-100366724D01*
X157822383Y-100754267D01*
X157822017Y-101173892D01*
X155232420Y-101173892D01*
X155119246Y-101098272D01*
X154808201Y-101036401D01*
X153995385Y-101036401D01*
X153857248Y-100898264D01*
X153593557Y-100722071D01*
X153282512Y-100660200D01*
X151466673Y-100660200D01*
X149079073Y-98272600D01*
X150825200Y-98272600D01*
X150825200Y-99374629D01*
X150871603Y-99486656D01*
X150957345Y-99572397D01*
X151069372Y-99618800D01*
X152171400Y-99618800D01*
X152247600Y-99542600D01*
X152247600Y-98196400D01*
X152552400Y-98196400D01*
X152552400Y-99542600D01*
X152628600Y-99618800D01*
X153730628Y-99618800D01*
X153842655Y-99572397D01*
X153928397Y-99486656D01*
X153974800Y-99374629D01*
X153974800Y-99231084D01*
X158286442Y-99231084D01*
X158374531Y-99375868D01*
X158776661Y-99495774D01*
X159194066Y-99452664D01*
X159379469Y-99375868D01*
X159467558Y-99231084D01*
X158877000Y-98640526D01*
X158286442Y-99231084D01*
X153974800Y-99231084D01*
X153974800Y-98324661D01*
X157806226Y-98324661D01*
X157849336Y-98742066D01*
X157926132Y-98927469D01*
X158070916Y-99015558D01*
X158661474Y-98425000D01*
X159092526Y-98425000D01*
X159683084Y-99015558D01*
X159827868Y-98927469D01*
X159947774Y-98525339D01*
X159904664Y-98107934D01*
X159827868Y-97922531D01*
X159683084Y-97834442D01*
X159092526Y-98425000D01*
X158661474Y-98425000D01*
X158070916Y-97834442D01*
X157926132Y-97922531D01*
X157806226Y-98324661D01*
X153974800Y-98324661D01*
X153974800Y-98272600D01*
X153898600Y-98196400D01*
X152552400Y-98196400D01*
X152247600Y-98196400D01*
X150901400Y-98196400D01*
X150825200Y-98272600D01*
X149079073Y-98272600D01*
X147519844Y-96713371D01*
X150825200Y-96713371D01*
X150825200Y-97815400D01*
X150901400Y-97891600D01*
X152247600Y-97891600D01*
X152247600Y-96545400D01*
X152552400Y-96545400D01*
X152552400Y-97891600D01*
X153898600Y-97891600D01*
X153974800Y-97815400D01*
X153974800Y-97618916D01*
X158286442Y-97618916D01*
X158877000Y-98209474D01*
X159467558Y-97618916D01*
X159379469Y-97474132D01*
X158977339Y-97354226D01*
X158559934Y-97397336D01*
X158374531Y-97474132D01*
X158286442Y-97618916D01*
X153974800Y-97618916D01*
X153974800Y-96713371D01*
X153928397Y-96601344D01*
X153842655Y-96515603D01*
X153730628Y-96469200D01*
X152628600Y-96469200D01*
X152552400Y-96545400D01*
X152247600Y-96545400D01*
X152171400Y-96469200D01*
X151069372Y-96469200D01*
X150957345Y-96515603D01*
X150871603Y-96601344D01*
X150825200Y-96713371D01*
X147519844Y-96713371D01*
X146900365Y-96093892D01*
X157822017Y-96093892D01*
X157982262Y-96481716D01*
X158278724Y-96778695D01*
X158666267Y-96939617D01*
X159085892Y-96939983D01*
X159473716Y-96779738D01*
X159770695Y-96483276D01*
X159931617Y-96095733D01*
X159931983Y-95676108D01*
X159771738Y-95288284D01*
X159475276Y-94991305D01*
X159087733Y-94830383D01*
X158668108Y-94830017D01*
X158280284Y-94990262D01*
X157983305Y-95286724D01*
X157822383Y-95674267D01*
X157822017Y-96093892D01*
X146900365Y-96093892D01*
X144786473Y-93980000D01*
X149047200Y-93980000D01*
X149047200Y-94996000D01*
X149109071Y-95307045D01*
X149285264Y-95570736D01*
X149548955Y-95746929D01*
X149860000Y-95808800D01*
X150368000Y-95808800D01*
X150679045Y-95746929D01*
X150819229Y-95653261D01*
X150819229Y-95758000D01*
X150840482Y-95870952D01*
X150907237Y-95974692D01*
X151009093Y-96044287D01*
X151130000Y-96068771D01*
X153670000Y-96068771D01*
X153782952Y-96047518D01*
X153886692Y-95980763D01*
X153956287Y-95878907D01*
X153980771Y-95758000D01*
X153980771Y-93218000D01*
X153959518Y-93105048D01*
X153892763Y-93001308D01*
X153836952Y-92963174D01*
X155430060Y-92963174D01*
X155552933Y-93260550D01*
X155780254Y-93488267D01*
X156077414Y-93611659D01*
X156399174Y-93611940D01*
X156539661Y-93553892D01*
X157822017Y-93553892D01*
X157982262Y-93941716D01*
X158278724Y-94238695D01*
X158666267Y-94399617D01*
X159085892Y-94399983D01*
X159473716Y-94239738D01*
X159770695Y-93943276D01*
X159931617Y-93555733D01*
X159931983Y-93136108D01*
X159771738Y-92748284D01*
X159475276Y-92451305D01*
X159087733Y-92290383D01*
X158668108Y-92290017D01*
X158280284Y-92450262D01*
X157983305Y-92746724D01*
X157822383Y-93134267D01*
X157822017Y-93553892D01*
X156539661Y-93553892D01*
X156696550Y-93489067D01*
X156924267Y-93261746D01*
X157047659Y-92964586D01*
X157047940Y-92642826D01*
X156925067Y-92345450D01*
X156697746Y-92117733D01*
X156400586Y-91994341D01*
X156078826Y-91994060D01*
X155781450Y-92116933D01*
X155553733Y-92344254D01*
X155430341Y-92641414D01*
X155430060Y-92963174D01*
X153836952Y-92963174D01*
X153790907Y-92931713D01*
X153670000Y-92907229D01*
X151130000Y-92907229D01*
X151017048Y-92928482D01*
X150913308Y-92995237D01*
X150843713Y-93097093D01*
X150819229Y-93218000D01*
X150819229Y-93322739D01*
X150679045Y-93229071D01*
X150368000Y-93167200D01*
X149860000Y-93167200D01*
X149548955Y-93229071D01*
X149285264Y-93405264D01*
X149109071Y-93668955D01*
X149047200Y-93980000D01*
X144786473Y-93980000D01*
X144084736Y-93278264D01*
X143821045Y-93102071D01*
X143796019Y-93097093D01*
X143510000Y-93040200D01*
X143306800Y-93040200D01*
X143306800Y-90525600D01*
X150825200Y-90525600D01*
X150825200Y-91627629D01*
X150871603Y-91739656D01*
X150957345Y-91825397D01*
X151069372Y-91871800D01*
X152171400Y-91871800D01*
X152247600Y-91795600D01*
X152247600Y-90449400D01*
X152552400Y-90449400D01*
X152552400Y-91795600D01*
X152628600Y-91871800D01*
X153730628Y-91871800D01*
X153842655Y-91825397D01*
X153928397Y-91739656D01*
X153974800Y-91627629D01*
X153974800Y-90963174D01*
X155430060Y-90963174D01*
X155552933Y-91260550D01*
X155780254Y-91488267D01*
X156077414Y-91611659D01*
X156399174Y-91611940D01*
X156696550Y-91489067D01*
X156924267Y-91261746D01*
X157027185Y-91013892D01*
X157822017Y-91013892D01*
X157982262Y-91401716D01*
X158278724Y-91698695D01*
X158666267Y-91859617D01*
X159085892Y-91859983D01*
X159473716Y-91699738D01*
X159770695Y-91403276D01*
X159931617Y-91015733D01*
X159931983Y-90596108D01*
X159771738Y-90208284D01*
X159475276Y-89911305D01*
X159087733Y-89750383D01*
X158668108Y-89750017D01*
X158280284Y-89910262D01*
X157983305Y-90206724D01*
X157822383Y-90594267D01*
X157822017Y-91013892D01*
X157027185Y-91013892D01*
X157047659Y-90964586D01*
X157047940Y-90642826D01*
X156925067Y-90345450D01*
X156697746Y-90117733D01*
X156400586Y-89994341D01*
X156078826Y-89994060D01*
X155781450Y-90116933D01*
X155553733Y-90344254D01*
X155430341Y-90641414D01*
X155430060Y-90963174D01*
X153974800Y-90963174D01*
X153974800Y-90525600D01*
X153898600Y-90449400D01*
X152552400Y-90449400D01*
X152247600Y-90449400D01*
X150901400Y-90449400D01*
X150825200Y-90525600D01*
X143306800Y-90525600D01*
X143306800Y-88966371D01*
X150825200Y-88966371D01*
X150825200Y-90068400D01*
X150901400Y-90144600D01*
X152247600Y-90144600D01*
X152247600Y-88798400D01*
X152552400Y-88798400D01*
X152552400Y-90144600D01*
X153898600Y-90144600D01*
X153974800Y-90068400D01*
X153974800Y-88966371D01*
X153973476Y-88963174D01*
X155430060Y-88963174D01*
X155552933Y-89260550D01*
X155780254Y-89488267D01*
X156077414Y-89611659D01*
X156399174Y-89611940D01*
X156696550Y-89489067D01*
X156924267Y-89261746D01*
X157047659Y-88964586D01*
X157047940Y-88642826D01*
X156978139Y-88473892D01*
X157885517Y-88473892D01*
X158045762Y-88861716D01*
X158342224Y-89158695D01*
X158729767Y-89319617D01*
X159149392Y-89319983D01*
X159537216Y-89159738D01*
X159834195Y-88863276D01*
X159995117Y-88475733D01*
X159995483Y-88056108D01*
X159835238Y-87668284D01*
X159538776Y-87371305D01*
X159151233Y-87210383D01*
X158731608Y-87210017D01*
X158343784Y-87370262D01*
X158046805Y-87666724D01*
X157885883Y-88054267D01*
X157885517Y-88473892D01*
X156978139Y-88473892D01*
X156925067Y-88345450D01*
X156697746Y-88117733D01*
X156400586Y-87994341D01*
X156078826Y-87994060D01*
X155781450Y-88116933D01*
X155553733Y-88344254D01*
X155430341Y-88641414D01*
X155430060Y-88963174D01*
X153973476Y-88963174D01*
X153928397Y-88854344D01*
X153842655Y-88768603D01*
X153730628Y-88722200D01*
X152628600Y-88722200D01*
X152552400Y-88798400D01*
X152247600Y-88798400D01*
X152171400Y-88722200D01*
X151069372Y-88722200D01*
X150957345Y-88768603D01*
X150871603Y-88854344D01*
X150825200Y-88966371D01*
X143306800Y-88966371D01*
X143306800Y-87249000D01*
X143244929Y-86937955D01*
X143178078Y-86837905D01*
X143068736Y-86674263D01*
X142627473Y-86233000D01*
X149047200Y-86233000D01*
X149047200Y-87249000D01*
X149109071Y-87560045D01*
X149285264Y-87823736D01*
X149548955Y-87999929D01*
X149860000Y-88061800D01*
X150368000Y-88061800D01*
X150679045Y-87999929D01*
X150819229Y-87906261D01*
X150819229Y-88011000D01*
X150840482Y-88123952D01*
X150907237Y-88227692D01*
X151009093Y-88297287D01*
X151130000Y-88321771D01*
X153670000Y-88321771D01*
X153782952Y-88300518D01*
X153886692Y-88233763D01*
X153956287Y-88131907D01*
X153980771Y-88011000D01*
X153980771Y-86963174D01*
X155430060Y-86963174D01*
X155552933Y-87260550D01*
X155780254Y-87488267D01*
X156077414Y-87611659D01*
X156399174Y-87611940D01*
X156696550Y-87489067D01*
X156924267Y-87261746D01*
X157047659Y-86964586D01*
X157047940Y-86642826D01*
X156925067Y-86345450D01*
X156697746Y-86117733D01*
X156400586Y-85994341D01*
X156078826Y-85994060D01*
X155781450Y-86116933D01*
X155553733Y-86344254D01*
X155430341Y-86641414D01*
X155430060Y-86963174D01*
X153980771Y-86963174D01*
X153980771Y-85471000D01*
X153959518Y-85358048D01*
X153892763Y-85254308D01*
X153790907Y-85184713D01*
X153670000Y-85160229D01*
X151130000Y-85160229D01*
X151017048Y-85181482D01*
X150913308Y-85248237D01*
X150843713Y-85350093D01*
X150819229Y-85471000D01*
X150819229Y-85575739D01*
X150679045Y-85482071D01*
X150368000Y-85420200D01*
X149860000Y-85420200D01*
X149548955Y-85482071D01*
X149285264Y-85658264D01*
X149109071Y-85921955D01*
X149047200Y-86233000D01*
X142627473Y-86233000D01*
X142560736Y-86166264D01*
X142297045Y-85990071D01*
X141986000Y-85928200D01*
X141915771Y-85928200D01*
X141915771Y-85496400D01*
X147956730Y-85496400D01*
X148112253Y-85465465D01*
X148244098Y-85377368D01*
X149013430Y-84608037D01*
X149163241Y-84608168D01*
X149385611Y-84516287D01*
X149555893Y-84346302D01*
X149648162Y-84124093D01*
X149648254Y-84018201D01*
X156042182Y-84018201D01*
X155781450Y-84125933D01*
X155553733Y-84353254D01*
X155430341Y-84650414D01*
X155430060Y-84972174D01*
X155552933Y-85269550D01*
X155780254Y-85497267D01*
X156077414Y-85620659D01*
X156399174Y-85620940D01*
X156696550Y-85498067D01*
X156924267Y-85270746D01*
X157047659Y-84973586D01*
X157047940Y-84651826D01*
X156925067Y-84354450D01*
X156697746Y-84126733D01*
X156436373Y-84018201D01*
X156799199Y-84018201D01*
X156954722Y-83987266D01*
X157086567Y-83899169D01*
X157640368Y-83345368D01*
X157690229Y-83270746D01*
X157728465Y-83213523D01*
X157759400Y-83058000D01*
X157759400Y-81769087D01*
X158038833Y-81489654D01*
X158038833Y-82499233D01*
G36*
X139640400Y-113055600D02*
X140585600Y-113055600D01*
X140585600Y-113035600D01*
X140890400Y-113035600D01*
X140890400Y-113055600D01*
X140910400Y-113055600D01*
X140910400Y-113360400D01*
X140890400Y-113360400D01*
X140890400Y-114305600D01*
X140910400Y-114305600D01*
X140910400Y-114610400D01*
X140890400Y-114610400D01*
X140890400Y-114630400D01*
X140585600Y-114630400D01*
X140585600Y-114610400D01*
X139640400Y-114610400D01*
X139640400Y-114630400D01*
X139335600Y-114630400D01*
X139335600Y-114610400D01*
X139315600Y-114610400D01*
X139315600Y-114305600D01*
X139335600Y-114305600D01*
X139335600Y-113360400D01*
X139640400Y-113360400D01*
X139640400Y-114305600D01*
X140585600Y-114305600D01*
X140585600Y-113360400D01*
X139640400Y-113360400D01*
X139335600Y-113360400D01*
X139315600Y-113360400D01*
X139315600Y-113055600D01*
X139335600Y-113055600D01*
X139335600Y-113035600D01*
X139640400Y-113035600D01*
X139640400Y-113055600D01*
X139640400Y-113055600D01*
G37*
X139640400Y-113055600D02*
X140585600Y-113055600D01*
X140585600Y-113035600D01*
X140890400Y-113035600D01*
X140890400Y-113055600D01*
X140910400Y-113055600D01*
X140910400Y-113360400D01*
X140890400Y-113360400D01*
X140890400Y-114305600D01*
X140910400Y-114305600D01*
X140910400Y-114610400D01*
X140890400Y-114610400D01*
X140890400Y-114630400D01*
X140585600Y-114630400D01*
X140585600Y-114610400D01*
X139640400Y-114610400D01*
X139640400Y-114630400D01*
X139335600Y-114630400D01*
X139335600Y-114610400D01*
X139315600Y-114610400D01*
X139315600Y-114305600D01*
X139335600Y-114305600D01*
X139335600Y-113360400D01*
X139640400Y-113360400D01*
X139640400Y-114305600D01*
X140585600Y-114305600D01*
X140585600Y-113360400D01*
X139640400Y-113360400D01*
X139335600Y-113360400D01*
X139315600Y-113360400D01*
X139315600Y-113055600D01*
X139335600Y-113055600D01*
X139335600Y-113035600D01*
X139640400Y-113035600D01*
X139640400Y-113055600D01*
G36*
X142757594Y-80757290D02*
X142852491Y-80822131D01*
X142870480Y-80826033D01*
X142895722Y-80886973D01*
X142963426Y-80954677D01*
X142890376Y-80954613D01*
X142668006Y-81046494D01*
X142497724Y-81216479D01*
X142405455Y-81438688D01*
X142405245Y-81679292D01*
X142497126Y-81901662D01*
X142667111Y-82071944D01*
X142889320Y-82164213D01*
X143129924Y-82164423D01*
X143352294Y-82072542D01*
X143522576Y-81902557D01*
X143592219Y-81734838D01*
X143699793Y-81627264D01*
X143743775Y-81627264D01*
X144045144Y-81325895D01*
X144043922Y-81324673D01*
X144259448Y-81109147D01*
X144260670Y-81110369D01*
X144274813Y-81096227D01*
X144363201Y-81184615D01*
X144349058Y-81198757D01*
X144350281Y-81199980D01*
X144134755Y-81415506D01*
X144133532Y-81414283D01*
X143832163Y-81715652D01*
X143832163Y-81823415D01*
X143849904Y-81841156D01*
X143804993Y-81886066D01*
X143716896Y-82017911D01*
X143716152Y-82021649D01*
X143672588Y-82021611D01*
X143450218Y-82113492D01*
X143279936Y-82283477D01*
X143187667Y-82505686D01*
X143187457Y-82746290D01*
X143279338Y-82968660D01*
X143449323Y-83138942D01*
X143671532Y-83231211D01*
X143912136Y-83231421D01*
X144134506Y-83139540D01*
X144179611Y-83094514D01*
X144179611Y-83372011D01*
X144210546Y-83527534D01*
X144266757Y-83611659D01*
X144298643Y-83659379D01*
X145322863Y-84683600D01*
X138897358Y-84683600D01*
X138741835Y-84714535D01*
X138618727Y-84796794D01*
X138609990Y-84802632D01*
X138455400Y-84957222D01*
X138455400Y-84750336D01*
X142603020Y-80602716D01*
X142757594Y-80757290D01*
X142757594Y-80757290D01*
G37*
X142757594Y-80757290D02*
X142852491Y-80822131D01*
X142870480Y-80826033D01*
X142895722Y-80886973D01*
X142963426Y-80954677D01*
X142890376Y-80954613D01*
X142668006Y-81046494D01*
X142497724Y-81216479D01*
X142405455Y-81438688D01*
X142405245Y-81679292D01*
X142497126Y-81901662D01*
X142667111Y-82071944D01*
X142889320Y-82164213D01*
X143129924Y-82164423D01*
X143352294Y-82072542D01*
X143522576Y-81902557D01*
X143592219Y-81734838D01*
X143699793Y-81627264D01*
X143743775Y-81627264D01*
X144045144Y-81325895D01*
X144043922Y-81324673D01*
X144259448Y-81109147D01*
X144260670Y-81110369D01*
X144274813Y-81096227D01*
X144363201Y-81184615D01*
X144349058Y-81198757D01*
X144350281Y-81199980D01*
X144134755Y-81415506D01*
X144133532Y-81414283D01*
X143832163Y-81715652D01*
X143832163Y-81823415D01*
X143849904Y-81841156D01*
X143804993Y-81886066D01*
X143716896Y-82017911D01*
X143716152Y-82021649D01*
X143672588Y-82021611D01*
X143450218Y-82113492D01*
X143279936Y-82283477D01*
X143187667Y-82505686D01*
X143187457Y-82746290D01*
X143279338Y-82968660D01*
X143449323Y-83138942D01*
X143671532Y-83231211D01*
X143912136Y-83231421D01*
X144134506Y-83139540D01*
X144179611Y-83094514D01*
X144179611Y-83372011D01*
X144210546Y-83527534D01*
X144266757Y-83611659D01*
X144298643Y-83659379D01*
X145322863Y-84683600D01*
X138897358Y-84683600D01*
X138741835Y-84714535D01*
X138618727Y-84796794D01*
X138609990Y-84802632D01*
X138455400Y-84957222D01*
X138455400Y-84750336D01*
X142603020Y-80602716D01*
X142757594Y-80757290D01*
G36*
X145947050Y-78154592D02*
X145932907Y-78168734D01*
X146937140Y-79172967D01*
X146951283Y-79158825D01*
X147166809Y-79374351D01*
X147152666Y-79388493D01*
X147166809Y-79402636D01*
X146951283Y-79618162D01*
X146937140Y-79604019D01*
X145932907Y-80608252D01*
X145947050Y-80622395D01*
X145731524Y-80837921D01*
X145717381Y-80823778D01*
X145703239Y-80837921D01*
X145487713Y-80622395D01*
X145501855Y-80608252D01*
X144497622Y-79604019D01*
X144483480Y-79618162D01*
X144267954Y-79402636D01*
X144282096Y-79388493D01*
X144713148Y-79388493D01*
X145717381Y-80392726D01*
X146721614Y-79388493D01*
X145717381Y-78384260D01*
X144713148Y-79388493D01*
X144282096Y-79388493D01*
X144267954Y-79374351D01*
X144483480Y-79158825D01*
X144497622Y-79172967D01*
X145501855Y-78168734D01*
X145487713Y-78154592D01*
X145703239Y-77939066D01*
X145717381Y-77953208D01*
X145731524Y-77939066D01*
X145947050Y-78154592D01*
X145947050Y-78154592D01*
G37*
X145947050Y-78154592D02*
X145932907Y-78168734D01*
X146937140Y-79172967D01*
X146951283Y-79158825D01*
X147166809Y-79374351D01*
X147152666Y-79388493D01*
X147166809Y-79402636D01*
X146951283Y-79618162D01*
X146937140Y-79604019D01*
X145932907Y-80608252D01*
X145947050Y-80622395D01*
X145731524Y-80837921D01*
X145717381Y-80823778D01*
X145703239Y-80837921D01*
X145487713Y-80622395D01*
X145501855Y-80608252D01*
X144497622Y-79604019D01*
X144483480Y-79618162D01*
X144267954Y-79402636D01*
X144282096Y-79388493D01*
X144713148Y-79388493D01*
X145717381Y-80392726D01*
X146721614Y-79388493D01*
X145717381Y-78384260D01*
X144713148Y-79388493D01*
X144282096Y-79388493D01*
X144267954Y-79374351D01*
X144483480Y-79158825D01*
X144497622Y-79172967D01*
X145501855Y-78168734D01*
X145487713Y-78154592D01*
X145703239Y-77939066D01*
X145717381Y-77953208D01*
X145731524Y-77939066D01*
X145947050Y-78154592D01*
G36*
X143779981Y-80321663D02*
X143833861Y-80267783D01*
X143833861Y-80299741D01*
X143641952Y-80491650D01*
X143643175Y-80492873D01*
X143427649Y-80708399D01*
X143426426Y-80707176D01*
X143412284Y-80721319D01*
X143323896Y-80632931D01*
X143338038Y-80618788D01*
X143336815Y-80617565D01*
X143552341Y-80402039D01*
X143553564Y-80403262D01*
X143707572Y-80249254D01*
X143779981Y-80321663D01*
X143779981Y-80321663D01*
G37*
X143779981Y-80321663D02*
X143833861Y-80267783D01*
X143833861Y-80299741D01*
X143641952Y-80491650D01*
X143643175Y-80492873D01*
X143427649Y-80708399D01*
X143426426Y-80707176D01*
X143412284Y-80721319D01*
X143323896Y-80632931D01*
X143338038Y-80618788D01*
X143336815Y-80617565D01*
X143552341Y-80402039D01*
X143553564Y-80403262D01*
X143707572Y-80249254D01*
X143779981Y-80321663D01*
G36*
X147403761Y-77436949D02*
X147389618Y-77451091D01*
X147390841Y-77452314D01*
X147175315Y-77667840D01*
X147174092Y-77666617D01*
X147159950Y-77680760D01*
X147071562Y-77592372D01*
X147085704Y-77578229D01*
X147084481Y-77577006D01*
X147300007Y-77361480D01*
X147301230Y-77362703D01*
X147315373Y-77348561D01*
X147403761Y-77436949D01*
X147403761Y-77436949D01*
G37*
X147403761Y-77436949D02*
X147389618Y-77451091D01*
X147390841Y-77452314D01*
X147175315Y-77667840D01*
X147174092Y-77666617D01*
X147159950Y-77680760D01*
X147071562Y-77592372D01*
X147085704Y-77578229D01*
X147084481Y-77577006D01*
X147300007Y-77361480D01*
X147301230Y-77362703D01*
X147315373Y-77348561D01*
X147403761Y-77436949D01*
G36*
X155541632Y-72296368D02*
X155673477Y-72384465D01*
X155829000Y-72415400D01*
X158369000Y-72415400D01*
X158524523Y-72384465D01*
X158656368Y-72296368D01*
X159299336Y-71653400D01*
X160258818Y-71653400D01*
X160253229Y-71681000D01*
X160253229Y-71924600D01*
X159825000Y-71924600D01*
X159669477Y-71955535D01*
X159537632Y-72043632D01*
X158073664Y-73507600D01*
X153848945Y-73507600D01*
X153893695Y-73399830D01*
X153893905Y-73159226D01*
X153802024Y-72936856D01*
X153707400Y-72842067D01*
X153707400Y-72672771D01*
X153739000Y-72672771D01*
X153851952Y-72651518D01*
X153955692Y-72584763D01*
X154025287Y-72482907D01*
X154049771Y-72362000D01*
X154049771Y-71862000D01*
X154028518Y-71749048D01*
X153966970Y-71653400D01*
X154898664Y-71653400D01*
X155541632Y-72296368D01*
X155541632Y-72296368D01*
G37*
X155541632Y-72296368D02*
X155673477Y-72384465D01*
X155829000Y-72415400D01*
X158369000Y-72415400D01*
X158524523Y-72384465D01*
X158656368Y-72296368D01*
X159299336Y-71653400D01*
X160258818Y-71653400D01*
X160253229Y-71681000D01*
X160253229Y-71924600D01*
X159825000Y-71924600D01*
X159669477Y-71955535D01*
X159537632Y-72043632D01*
X158073664Y-73507600D01*
X153848945Y-73507600D01*
X153893695Y-73399830D01*
X153893905Y-73159226D01*
X153802024Y-72936856D01*
X153707400Y-72842067D01*
X153707400Y-72672771D01*
X153739000Y-72672771D01*
X153851952Y-72651518D01*
X153955692Y-72584763D01*
X154025287Y-72482907D01*
X154049771Y-72362000D01*
X154049771Y-71862000D01*
X154028518Y-71749048D01*
X153966970Y-71653400D01*
X154898664Y-71653400D01*
X155541632Y-72296368D01*
M02*
