G04 #@! TF.FileFunction,Copper,L2,Bot,Signal*
%FSLAX46Y46*%
G04 Gerber Fmt 4.6, Leading zero omitted, Abs format (unit mm)*
G04 Created by KiCad (PCBNEW 4.0.5+dfsg1-4) date Sat Dec 30 21:31:49 2017*
%MOMM*%
%LPD*%
G01*
G04 APERTURE LIST*
%ADD10C,0.100000*%
%ADD11C,0.600000*%
%ADD12R,0.750000X0.800000*%
%ADD13R,0.800000X0.750000*%
%ADD14R,0.900000X1.200000*%
%ADD15R,1.000000X2.500000*%
%ADD16R,1.524000X1.524000*%
%ADD17R,1.508000X1.508000*%
%ADD18C,1.508000*%
%ADD19C,1.900000*%
%ADD20C,1.500000*%
%ADD21R,0.900000X0.800000*%
%ADD22R,0.900000X0.500000*%
%ADD23R,0.800000X0.300000*%
%ADD24C,1.524000*%
%ADD25R,1.008000X1.008000*%
%ADD26C,1.008000*%
%ADD27C,0.203200*%
%ADD28C,1.016000*%
%ADD29C,0.508000*%
%ADD30C,0.762000*%
G04 APERTURE END LIST*
D10*
D11*
X155321000Y-70358000D03*
X154559000Y-70358000D03*
X159004000Y-70485000D03*
X159893000Y-70485000D03*
X159893000Y-69469000D03*
X159893000Y-68453000D03*
X159893000Y-67564000D03*
X159004000Y-67564000D03*
X155448000Y-67564000D03*
X154559000Y-69342000D03*
X154559000Y-68453000D03*
X155067000Y-105283000D03*
X153289000Y-110109000D03*
X153289000Y-105283000D03*
X165735000Y-104013000D03*
X165735000Y-103124000D03*
X164719000Y-103124000D03*
X164719000Y-104013000D03*
X163703000Y-103124000D03*
X163703000Y-104013000D03*
X162687000Y-104013000D03*
X162687000Y-105029000D03*
X162687000Y-106045000D03*
X162687000Y-107061000D03*
X162179000Y-108077000D03*
X162179000Y-108966000D03*
X162687000Y-109855000D03*
X162687000Y-110871000D03*
X162687000Y-111887000D03*
X162687000Y-112903000D03*
X162687000Y-113919000D03*
X162687000Y-114808000D03*
X161671000Y-114808000D03*
X160655000Y-115697000D03*
X161671000Y-115697000D03*
X162687000Y-115697000D03*
X162687000Y-116586000D03*
X161671000Y-116586000D03*
X160655000Y-116586000D03*
X160655000Y-117475000D03*
X161671000Y-117475000D03*
X162687000Y-117475000D03*
X162687000Y-118364000D03*
X161671000Y-118364000D03*
X160655000Y-118364000D03*
X162687000Y-119253000D03*
X161671000Y-119253000D03*
X160655000Y-119253000D03*
X160655000Y-120142000D03*
X161671000Y-120142000D03*
X162687000Y-120142000D03*
X162687000Y-121031000D03*
X161671000Y-121031000D03*
X160655000Y-121031000D03*
X148844000Y-102108000D03*
X149479000Y-98171000D03*
X148971000Y-97536000D03*
X148844000Y-103124000D03*
X149479000Y-102489000D03*
X149479000Y-101727000D03*
X148844000Y-101092000D03*
X139319000Y-84328000D03*
X140208000Y-83566000D03*
X140208000Y-84328000D03*
X141986000Y-82804000D03*
X141097000Y-82804000D03*
X141097000Y-83566000D03*
X141097000Y-84328000D03*
X141986000Y-84328000D03*
X141986000Y-83566000D03*
X142875000Y-83566000D03*
X142875000Y-84328000D03*
X143764000Y-84328000D03*
X143764000Y-83566000D03*
X164719000Y-82550000D03*
X163703000Y-81534000D03*
X164719000Y-81534000D03*
X163703000Y-80518000D03*
X164719000Y-80518000D03*
X163703000Y-79502000D03*
X164719000Y-79502000D03*
X165735000Y-82550000D03*
X165735000Y-81534000D03*
X165735000Y-80518000D03*
X165735000Y-79502000D03*
X166878000Y-82550000D03*
X166878000Y-81534000D03*
X166878000Y-80518000D03*
X166878000Y-79502000D03*
X167894000Y-82550000D03*
X167894000Y-81534000D03*
X167894000Y-80518000D03*
X167894000Y-79502000D03*
X163703000Y-78486000D03*
X164719000Y-78486000D03*
X165735000Y-78486000D03*
X166878000Y-78486000D03*
X167894000Y-78486000D03*
X163703000Y-77470000D03*
X164719000Y-77470000D03*
X165735000Y-77470000D03*
X166878000Y-77470000D03*
X167894000Y-77470000D03*
X163703000Y-76454000D03*
X164719000Y-76454000D03*
X165735000Y-76454000D03*
X166878000Y-76454000D03*
X167894000Y-76454000D03*
X163703000Y-75438000D03*
X164719000Y-75438000D03*
X165735000Y-75438000D03*
X166878000Y-75438000D03*
X167894000Y-75438000D03*
X168910000Y-75438000D03*
X168910000Y-76454000D03*
X168910000Y-77470000D03*
X168910000Y-78486000D03*
X168910000Y-79502000D03*
X168910000Y-80518000D03*
X168910000Y-81534000D03*
X168910000Y-82550000D03*
X169672000Y-103759000D03*
X168656000Y-102870000D03*
X169672000Y-102870000D03*
X168656000Y-101854000D03*
X169672000Y-101854000D03*
X167640000Y-100965000D03*
X168656000Y-100965000D03*
X169672000Y-100965000D03*
X166624000Y-99949000D03*
X167640000Y-99949000D03*
X168656000Y-99949000D03*
X169672000Y-99949000D03*
X169672000Y-99060000D03*
X168656000Y-99060000D03*
X167640000Y-99060000D03*
X166624000Y-99060000D03*
X165608000Y-99060000D03*
X164592000Y-99060000D03*
X164592000Y-98171000D03*
X165608000Y-98171000D03*
X166624000Y-98171000D03*
X167640000Y-98171000D03*
X168656000Y-98171000D03*
X169672000Y-98171000D03*
X165608000Y-97282000D03*
X166624000Y-97282000D03*
X167640000Y-97282000D03*
X168656000Y-97282000D03*
X169672000Y-97282000D03*
X147828000Y-107061000D03*
X147828000Y-107950000D03*
X147828000Y-108966000D03*
X147828000Y-109982000D03*
X147828000Y-110871000D03*
X151765000Y-122555000D03*
X152781000Y-122555000D03*
X152781000Y-123444000D03*
X151765000Y-123444000D03*
X150749000Y-123444000D03*
X149733000Y-123444000D03*
X148717000Y-123444000D03*
X147701000Y-123444000D03*
X133731000Y-122682000D03*
X134620000Y-122682000D03*
X135509000Y-122682000D03*
X133731000Y-121920000D03*
X133731000Y-121031000D03*
X135509000Y-121920000D03*
X134620000Y-121920000D03*
X134620000Y-121031000D03*
X135509000Y-121031000D03*
X133731000Y-120142000D03*
X134620000Y-120142000D03*
X135509000Y-120142000D03*
X135509000Y-119253000D03*
X134620000Y-119253000D03*
X133731000Y-119253000D03*
X167640000Y-111633000D03*
X167640000Y-115316000D03*
X167640000Y-113538000D03*
X167640000Y-112649000D03*
X167640000Y-114427000D03*
X167640000Y-108839000D03*
X167640000Y-107823000D03*
X167640000Y-110744000D03*
X167640000Y-109728000D03*
X167640000Y-119126000D03*
X167640000Y-118237000D03*
X167640000Y-120142000D03*
X167640000Y-116332000D03*
X167640000Y-117221000D03*
X167640000Y-121031000D03*
X166751000Y-111633000D03*
X166751000Y-115316000D03*
X166751000Y-113538000D03*
X166751000Y-112649000D03*
X166751000Y-114427000D03*
X166751000Y-108839000D03*
X166751000Y-107823000D03*
X166751000Y-110744000D03*
X166751000Y-109728000D03*
X166751000Y-119126000D03*
X166751000Y-118237000D03*
X166751000Y-120142000D03*
X166751000Y-116332000D03*
X166751000Y-117221000D03*
X166751000Y-121031000D03*
X166751000Y-121920000D03*
X165862000Y-111633000D03*
X165862000Y-115316000D03*
X165862000Y-113538000D03*
X165862000Y-112649000D03*
X165862000Y-114427000D03*
X165862000Y-108839000D03*
X165862000Y-107823000D03*
X165862000Y-110744000D03*
X165862000Y-109728000D03*
X165862000Y-119126000D03*
X165862000Y-118237000D03*
X165862000Y-120142000D03*
X165862000Y-116332000D03*
X165862000Y-117221000D03*
X165862000Y-121031000D03*
X165862000Y-121920000D03*
X170688000Y-103759000D03*
X170688000Y-102870000D03*
X170688000Y-105664000D03*
X170688000Y-104775000D03*
X170688000Y-106680000D03*
X170688000Y-107569000D03*
X170688000Y-110363000D03*
X170688000Y-108458000D03*
X170688000Y-109347000D03*
X170688000Y-111252000D03*
X170688000Y-98171000D03*
X170688000Y-99187000D03*
X170688000Y-100965000D03*
X170688000Y-97282000D03*
X170688000Y-101854000D03*
X170688000Y-100076000D03*
X170688000Y-113157000D03*
X170688000Y-118745000D03*
X170688000Y-115062000D03*
X170688000Y-115951000D03*
X170688000Y-117856000D03*
X170688000Y-114173000D03*
X170688000Y-112268000D03*
X170688000Y-116840000D03*
X170688000Y-120650000D03*
X170688000Y-119761000D03*
X170688000Y-122555000D03*
X170688000Y-121666000D03*
X170688000Y-123444000D03*
X154432000Y-73279000D03*
X138557000Y-70485000D03*
X139446000Y-70485000D03*
X140335000Y-70485000D03*
X141351000Y-70485000D03*
X154559000Y-67564000D03*
X151638000Y-67564000D03*
X150749000Y-67564000D03*
X149860000Y-67564000D03*
X148971000Y-67564000D03*
X148082000Y-67564000D03*
X147193000Y-67564000D03*
X146304000Y-67564000D03*
X145415000Y-67564000D03*
X144526000Y-67564000D03*
X145669000Y-80518000D03*
X141605000Y-111125000D03*
X142494000Y-111125000D03*
X142494000Y-112014000D03*
X144272000Y-112903000D03*
X143383000Y-112014000D03*
X143383000Y-112903000D03*
X136271000Y-114173000D03*
X136271000Y-114935000D03*
X137033000Y-115697000D03*
X137033000Y-114935000D03*
X137033000Y-114173000D03*
X145796000Y-99568000D03*
X144907000Y-99568000D03*
X144018000Y-99568000D03*
X143256000Y-99568000D03*
X142494000Y-99568000D03*
X142494000Y-98679000D03*
X143256000Y-98679000D03*
X144018000Y-98679000D03*
X144907000Y-98679000D03*
X145796000Y-98679000D03*
X145796000Y-97790000D03*
X144018000Y-97409000D03*
X143129000Y-97409000D03*
X142240000Y-97409000D03*
X142240000Y-96647000D03*
X143129000Y-96647000D03*
X144018000Y-96647000D03*
X144018000Y-95758000D03*
X143129000Y-95758000D03*
X142240000Y-95758000D03*
X145034000Y-93853000D03*
X145796000Y-94615000D03*
X145796000Y-93853000D03*
X145796000Y-92964000D03*
X145796000Y-92075000D03*
X145796000Y-91186000D03*
X155067000Y-100838000D03*
X154178000Y-100838000D03*
X154178000Y-100076000D03*
X153289000Y-100076000D03*
X152400000Y-100076000D03*
X156337000Y-97917000D03*
X156337000Y-96901000D03*
X155448000Y-96901000D03*
X155448000Y-95885000D03*
X154432000Y-95885000D03*
X154432000Y-94869000D03*
X153543000Y-92456000D03*
X152781000Y-92456000D03*
X152019000Y-92456000D03*
X151257000Y-92456000D03*
X149733000Y-92456000D03*
X150495000Y-92456000D03*
X150495000Y-91440000D03*
X149733000Y-91440000D03*
X149733000Y-90424000D03*
X149733000Y-89535000D03*
X150495000Y-90424000D03*
X150495000Y-89535000D03*
X150495000Y-88646000D03*
X149733000Y-88646000D03*
X145034000Y-92964000D03*
X144145000Y-92964000D03*
X144145000Y-92075000D03*
X145034000Y-92075000D03*
X145034000Y-91186000D03*
X144145000Y-91186000D03*
X144145000Y-89535000D03*
X144145000Y-88646000D03*
X145034000Y-88646000D03*
X145034000Y-87757000D03*
X144145000Y-87757000D03*
X144145000Y-86868000D03*
X145034000Y-86868000D03*
X145034000Y-85979000D03*
X144145000Y-85979000D03*
X143256000Y-85979000D03*
X138684000Y-117729000D03*
X144399000Y-121031000D03*
X144399000Y-121793000D03*
X139827000Y-122301000D03*
X149860000Y-86233000D03*
X149860000Y-86741000D03*
X149860000Y-87249000D03*
X150368000Y-87249000D03*
X150368000Y-86233000D03*
X150368000Y-86741000D03*
X149860000Y-94996000D03*
X149860000Y-93980000D03*
X149860000Y-94488000D03*
X150368000Y-94488000D03*
X150368000Y-94996000D03*
X150368000Y-93980000D03*
X164719000Y-108712000D03*
X164084000Y-108712000D03*
X163449000Y-108712000D03*
X163449000Y-108077000D03*
X164719000Y-108077000D03*
X164084000Y-108077000D03*
X166370000Y-89535000D03*
X166370000Y-90297000D03*
X167132000Y-90297000D03*
X170180000Y-90297000D03*
X169418000Y-90297000D03*
X168656000Y-90297000D03*
X167894000Y-90297000D03*
X166370000Y-94488000D03*
X166370000Y-95250000D03*
X167132000Y-95250000D03*
X170180000Y-95250000D03*
X169418000Y-95250000D03*
X168656000Y-95250000D03*
D12*
X138684000Y-106795000D03*
X138684000Y-105295000D03*
D13*
X140601000Y-115316000D03*
X142101000Y-115316000D03*
X142101000Y-113919000D03*
X140601000Y-113919000D03*
X139077000Y-111887000D03*
X140577000Y-111887000D03*
D10*
G36*
X146658018Y-78363652D02*
X147188348Y-78893982D01*
X146622662Y-79459668D01*
X146092332Y-78929338D01*
X146658018Y-78363652D01*
X146658018Y-78363652D01*
G37*
G36*
X147718678Y-77302992D02*
X148249008Y-77833322D01*
X147683322Y-78399008D01*
X147152992Y-77868678D01*
X147718678Y-77302992D01*
X147718678Y-77302992D01*
G37*
D13*
X152551000Y-115443000D03*
X154051000Y-115443000D03*
X150471000Y-115443000D03*
X148971000Y-115443000D03*
D12*
X143129000Y-68211000D03*
X143129000Y-69711000D03*
D13*
X139343000Y-68834000D03*
X140843000Y-68834000D03*
X139331000Y-71501000D03*
X140831000Y-71501000D03*
D14*
X169352500Y-106045000D03*
X166052500Y-106045000D03*
X154176000Y-120586500D03*
X150876000Y-120586500D03*
X164400500Y-100965000D03*
X161100500Y-100965000D03*
D15*
X164036000Y-106045000D03*
X161036000Y-106045000D03*
X148923000Y-120523000D03*
X145923000Y-120523000D03*
X160996500Y-95885000D03*
X163996500Y-95885000D03*
X160996500Y-90805000D03*
X163996500Y-90805000D03*
D16*
X146304000Y-71501000D03*
X148844000Y-71501000D03*
X148844000Y-68961000D03*
X146304000Y-68961000D03*
X151384000Y-71501000D03*
X151384000Y-68961000D03*
D17*
X154305000Y-111513000D03*
D18*
X154305000Y-109013000D03*
X154305000Y-106513000D03*
X154305000Y-104013000D03*
D19*
X167894000Y-68453000D03*
X163068000Y-69088000D03*
X163068000Y-83566000D03*
X167894000Y-84201000D03*
D20*
X158877000Y-116205000D03*
X158877000Y-118745000D03*
X158877000Y-121285000D03*
X158877000Y-113665000D03*
X158877000Y-108585000D03*
X158877000Y-111125000D03*
X158877000Y-95885000D03*
X158877000Y-93345000D03*
X158877000Y-98425000D03*
X158877000Y-106045000D03*
X158877000Y-100965000D03*
X158877000Y-103505000D03*
X158877000Y-90805000D03*
X158940500Y-88265000D03*
D21*
X167894000Y-92329000D03*
X167894000Y-94229000D03*
X165894000Y-93279000D03*
X167894000Y-87381000D03*
X167894000Y-89281000D03*
X165894000Y-88331000D03*
D22*
X140081000Y-108101000D03*
X140081000Y-109601000D03*
X140335000Y-121273000D03*
X140335000Y-119773000D03*
X141986000Y-121285000D03*
X141986000Y-119785000D03*
D23*
X152146000Y-108466000D03*
X150346000Y-108466000D03*
X152146000Y-111966000D03*
X150346000Y-111966000D03*
X152146000Y-108966000D03*
X152146000Y-109466000D03*
X152146000Y-109966000D03*
X152146000Y-110466000D03*
X152146000Y-110966000D03*
X152146000Y-111466000D03*
X150346000Y-108966000D03*
X150346000Y-109466000D03*
X150346000Y-109966000D03*
X150346000Y-110966000D03*
X150346000Y-110466000D03*
X150346000Y-111466000D03*
X152146000Y-103660000D03*
X150346000Y-103660000D03*
X152146000Y-107160000D03*
X150346000Y-107160000D03*
X152146000Y-104160000D03*
X152146000Y-104660000D03*
X152146000Y-105160000D03*
X152146000Y-105660000D03*
X152146000Y-106160000D03*
X152146000Y-106660000D03*
X150346000Y-104160000D03*
X150346000Y-104660000D03*
X150346000Y-105160000D03*
X150346000Y-106160000D03*
X150346000Y-105660000D03*
X150346000Y-106660000D03*
D22*
X169799000Y-92595000D03*
X169799000Y-94095000D03*
X169799000Y-87642000D03*
X169799000Y-89142000D03*
D24*
X148971000Y-117411500D03*
X151501000Y-117431500D03*
X154041000Y-117431500D03*
D11*
X167894000Y-95250000D03*
D25*
X134239000Y-74803000D03*
D26*
X134239000Y-76803000D03*
X134239000Y-78812000D03*
X134239000Y-80812000D03*
X134239000Y-82812000D03*
X134239000Y-84812000D03*
X134239000Y-86812000D03*
X134239000Y-88812000D03*
X134239000Y-90803000D03*
X134239000Y-92803000D03*
X156239000Y-74803000D03*
X156239000Y-76803000D03*
X156239000Y-78803000D03*
X156239000Y-80812000D03*
X156239000Y-82803000D03*
X156239000Y-84812000D03*
X156239000Y-86803000D03*
X156239000Y-88803000D03*
X156239000Y-90803000D03*
X156239000Y-92803000D03*
D11*
X142875000Y-82550000D03*
X144526000Y-68453000D03*
X139827000Y-104013000D03*
X134462810Y-103378000D03*
X143653541Y-74057541D03*
X136652000Y-76962000D03*
X137160000Y-103378000D03*
X143792362Y-82626516D03*
X143010150Y-81559518D03*
X148311289Y-77312810D03*
X149384906Y-78455810D03*
X143129000Y-67564000D03*
X137541000Y-106680000D03*
X144145000Y-110642038D03*
X149992178Y-80570714D03*
X149913036Y-79771411D03*
X149999551Y-78972880D03*
X148844000Y-70104000D03*
X144907000Y-72136000D03*
X136652000Y-77851000D03*
X136652000Y-107823000D03*
X136779000Y-78740000D03*
X142494000Y-106934000D03*
X146442448Y-74473731D03*
X148971000Y-74295000D03*
X149479000Y-107823000D03*
X151384000Y-102743000D03*
X152527000Y-80645000D03*
X150920611Y-80644731D03*
X151723805Y-80650039D03*
X140208000Y-117729000D03*
X141859000Y-117729000D03*
X141097000Y-122174000D03*
X141120863Y-123005469D03*
X140335000Y-98044000D03*
X146498044Y-83498956D03*
X140335000Y-90297000D03*
X147066000Y-82931000D03*
X149352000Y-82387241D03*
X149043467Y-84003263D03*
X137261451Y-109136534D03*
X134957147Y-108645178D03*
X137668000Y-108443810D03*
X142470383Y-107821466D03*
X147320000Y-122174000D03*
X143383000Y-113792000D03*
X137922000Y-112141000D03*
X143383000Y-115062000D03*
X138937078Y-111094810D03*
X138430000Y-68707000D03*
X138430000Y-71501000D03*
X170942000Y-87630000D03*
X168783000Y-92595000D03*
X144009709Y-76428125D03*
X141986000Y-79248000D03*
X153289000Y-81915000D03*
X153289000Y-76200000D03*
X153289000Y-74549000D03*
X153289000Y-73279000D03*
D27*
X152146000Y-110966000D02*
X153758000Y-110966000D01*
X153758000Y-110966000D02*
X154305000Y-111513000D01*
X138684000Y-105156000D02*
X139827000Y-104013000D01*
X138684000Y-105295000D02*
X138684000Y-105156000D01*
X169799000Y-89142000D02*
X168033000Y-89142000D01*
X168033000Y-89142000D02*
X167894000Y-89281000D01*
X169799000Y-94095000D02*
X168028000Y-94095000D01*
X168028000Y-94095000D02*
X167894000Y-94229000D01*
X134462810Y-103802264D02*
X134462810Y-103378000D01*
X134462810Y-108107190D02*
X134462810Y-103802264D01*
X140577000Y-111887000D02*
X140577000Y-111308800D01*
X140577000Y-111308800D02*
X139758200Y-110490000D01*
X139758200Y-110490000D02*
X135890000Y-110490000D01*
X134239000Y-108839000D02*
X134239000Y-108331000D01*
X135890000Y-110490000D02*
X134239000Y-108839000D01*
X134239000Y-108331000D02*
X134462810Y-108107190D01*
X143970081Y-73741001D02*
X143953540Y-73757542D01*
X150114000Y-69265800D02*
X150114000Y-72303642D01*
X150114000Y-72303642D02*
X148676641Y-73741001D01*
X151384000Y-68961000D02*
X150418800Y-68961000D01*
X148676641Y-73741001D02*
X143970081Y-73741001D01*
X150418800Y-68961000D02*
X150114000Y-69265800D01*
X143953540Y-73757542D02*
X143653541Y-74057541D01*
X136652000Y-76962000D02*
X137414000Y-77724000D01*
X137414000Y-77724000D02*
X137414000Y-78994000D01*
X137414000Y-78994000D02*
X137160000Y-79248000D01*
X137160000Y-79248000D02*
X137160000Y-103378000D01*
D28*
X164036000Y-106045000D02*
X164036000Y-108029000D01*
X164036000Y-108029000D02*
X164084000Y-108077000D01*
X164719000Y-108712000D02*
X164719000Y-108077000D01*
X164084000Y-108712000D02*
X164719000Y-108712000D01*
X163449000Y-108712000D02*
X164084000Y-108712000D01*
X163449000Y-108712000D02*
X163449000Y-108077000D01*
X164084000Y-108077000D02*
X164719000Y-108077000D01*
X163449000Y-108077000D02*
X164084000Y-108077000D01*
X164036000Y-106045000D02*
X166052500Y-106045000D01*
D29*
X143764000Y-81661000D02*
X143662518Y-81559518D01*
X142585886Y-81559518D02*
X143010150Y-81559518D01*
X138049000Y-76962000D02*
X138049000Y-80772000D01*
X135890000Y-74803000D02*
X138049000Y-76962000D01*
X134239000Y-74803000D02*
X135890000Y-74803000D01*
X143434414Y-81559518D02*
X143010150Y-81559518D01*
X138049000Y-80772000D02*
X138836518Y-81559518D01*
X138836518Y-81559518D02*
X142585886Y-81559518D01*
D27*
X143792362Y-82202252D02*
X143792362Y-82626516D01*
X143792362Y-81689362D02*
X143792362Y-82202252D01*
X143764000Y-81661000D02*
X143792362Y-81689362D01*
D29*
X143662518Y-81559518D02*
X143434414Y-81559518D01*
X148031189Y-96370467D02*
X148031189Y-103292896D01*
X147675559Y-96014837D02*
X148031189Y-96370467D01*
X147675559Y-85274413D02*
X147675559Y-96014837D01*
X148324000Y-81661000D02*
X147904189Y-82080811D01*
X147904189Y-85045783D02*
X147675559Y-85274413D01*
X148031189Y-103292896D02*
X143129000Y-108195085D01*
X143129000Y-108195085D02*
X143129000Y-109626038D01*
X147904189Y-82080811D02*
X147904189Y-85045783D01*
D27*
X147701000Y-77851000D02*
X148239190Y-77312810D01*
X148239190Y-77312810D02*
X148311289Y-77312810D01*
X148342190Y-78455810D02*
X148960642Y-78455810D01*
X148960642Y-78455810D02*
X149384906Y-78455810D01*
X148324000Y-78474000D02*
X148342190Y-78455810D01*
D29*
X143764000Y-81661000D02*
X148324000Y-81661000D01*
X148324000Y-81407000D02*
X148324000Y-81661000D01*
X148324000Y-79496000D02*
X148324000Y-81407000D01*
D27*
X148278001Y-81361001D02*
X148324000Y-81407000D01*
D29*
X147701000Y-77851000D02*
X148324000Y-78474000D01*
X148324000Y-78474000D02*
X148324000Y-79496000D01*
X146304000Y-71501000D02*
X146304000Y-71386000D01*
X146304000Y-71386000D02*
X143129000Y-68211000D01*
X134239000Y-74803000D02*
X134239000Y-73791000D01*
X134239000Y-73791000D02*
X138363799Y-69666201D01*
X138363799Y-69666201D02*
X141698799Y-69666201D01*
X141698799Y-69666201D02*
X143129000Y-68236000D01*
D27*
X143129000Y-68211000D02*
X143129000Y-67564000D01*
D29*
X144145000Y-110642038D02*
X143129000Y-109626038D01*
X143129000Y-109626038D02*
X140297962Y-106795000D01*
D27*
X137541000Y-106680000D02*
X138569000Y-106680000D01*
X138569000Y-106680000D02*
X138684000Y-106795000D01*
D29*
X145923000Y-112420038D02*
X144246962Y-110744000D01*
X144246962Y-110744000D02*
X144145000Y-110642038D01*
X145923000Y-120523000D02*
X145923000Y-112420038D01*
X140297962Y-106795000D02*
X139567000Y-106795000D01*
X139567000Y-106795000D02*
X138684000Y-106795000D01*
D27*
X148005789Y-73304411D02*
X143551339Y-73304411D01*
X150292177Y-80270715D02*
X149992178Y-80570714D01*
X151085660Y-79477232D02*
X150292177Y-80270715D01*
X141859000Y-80137000D02*
X142875000Y-80137000D01*
X149352000Y-75819000D02*
X151085660Y-77552660D01*
X148844000Y-72466200D02*
X148005789Y-73304411D01*
X143551339Y-73304411D02*
X141274822Y-75580928D01*
X141274822Y-75580928D02*
X141274822Y-79552822D01*
X151085660Y-77552660D02*
X151085660Y-79477232D01*
X141274822Y-79552822D02*
X141859000Y-80137000D01*
X142875000Y-80137000D02*
X147192999Y-75819000D01*
X148844000Y-71501000D02*
X148844000Y-72466200D01*
X147192999Y-75819000D02*
X149352000Y-75819000D01*
X150679249Y-79179109D02*
X150086947Y-79771411D01*
X148802660Y-76225411D02*
X150679249Y-78102000D01*
X147361339Y-76225411D02*
X148802660Y-76225411D01*
X143383000Y-72898000D02*
X140868411Y-75412589D01*
X143038444Y-80548306D02*
X147361339Y-76225411D01*
X141635306Y-80548306D02*
X143038444Y-80548306D01*
X140868411Y-75412589D02*
X140868411Y-79781411D01*
X146304000Y-68961000D02*
X147269200Y-68961000D01*
X147447000Y-72430642D02*
X146979642Y-72898000D01*
X147269200Y-68961000D02*
X147447000Y-69138800D01*
X147447000Y-69138800D02*
X147447000Y-72430642D01*
X150679249Y-78102000D02*
X150679249Y-79179109D01*
X140868411Y-79781411D02*
X141635306Y-80548306D01*
X146979642Y-72898000D02*
X143383000Y-72898000D01*
X150086947Y-79771411D02*
X149913036Y-79771411D01*
X143510000Y-72136000D02*
X140462000Y-75184000D01*
X149999551Y-77997053D02*
X149999551Y-78548616D01*
X149999551Y-78548616D02*
X149999551Y-78972880D01*
X147529679Y-76631822D02*
X148634320Y-76631822D01*
X148634320Y-76631822D02*
X149999551Y-77997053D01*
X144907000Y-72136000D02*
X143510000Y-72136000D01*
X140462000Y-75184000D02*
X140462000Y-80010000D01*
X140462000Y-80010000D02*
X141406717Y-80954717D01*
X141406717Y-80954717D02*
X143206784Y-80954717D01*
X143206784Y-80954717D02*
X147529679Y-76631822D01*
X148844000Y-70104000D02*
X148844000Y-68961000D01*
X136017000Y-78486000D02*
X136652000Y-77851000D01*
X136017000Y-99949000D02*
X136017000Y-78486000D01*
X136017000Y-104775000D02*
X136017000Y-99949000D01*
X136017000Y-106763736D02*
X136017000Y-104775000D01*
X136652000Y-107823000D02*
X136652000Y-107398736D01*
X136652000Y-107398736D02*
X136017000Y-106763736D01*
X136479001Y-103840001D02*
X136479001Y-79039999D01*
X136906000Y-104267000D02*
X136479001Y-103840001D01*
X136479001Y-79039999D02*
X136779000Y-78740000D01*
X142494000Y-105657892D02*
X140244306Y-103408198D01*
X139536694Y-103408198D02*
X138677892Y-104267000D01*
X142494000Y-106934000D02*
X142494000Y-105657892D01*
X138677892Y-104267000D02*
X136906000Y-104267000D01*
X140244306Y-103408198D02*
X139536694Y-103408198D01*
X148971000Y-74295000D02*
X146621179Y-74295000D01*
X146621179Y-74295000D02*
X146442448Y-74473731D01*
X152146000Y-108466000D02*
X153758000Y-108466000D01*
X153758000Y-108466000D02*
X154305000Y-109013000D01*
X151511000Y-107823000D02*
X152995000Y-107823000D01*
X152995000Y-107823000D02*
X154305000Y-106513000D01*
X151257000Y-108077000D02*
X151511000Y-107823000D01*
X151257000Y-109180200D02*
X151257000Y-108077000D01*
X152146000Y-109466000D02*
X151542800Y-109466000D01*
X151542800Y-109466000D02*
X151257000Y-109180200D01*
X152146000Y-103660000D02*
X153952000Y-103660000D01*
X153952000Y-103660000D02*
X154305000Y-104013000D01*
X150056200Y-107823000D02*
X149479000Y-107823000D01*
X150346000Y-108466000D02*
X150346000Y-108112800D01*
X150346000Y-108112800D02*
X150056200Y-107823000D01*
X150346000Y-108966000D02*
X150346000Y-108466000D01*
X151257000Y-97656500D02*
X151257000Y-102616000D01*
X151257000Y-102616000D02*
X151384000Y-102743000D01*
X149047191Y-85909311D02*
X149047191Y-95446691D01*
X151755561Y-85420190D02*
X149469560Y-85420190D01*
X149469560Y-85420190D02*
X149148822Y-85740928D01*
X149148822Y-85807680D02*
X149047191Y-85909311D01*
X149148822Y-85740928D02*
X149148822Y-85807680D01*
X152527000Y-84648750D02*
X151755561Y-85420190D01*
X152527000Y-80645000D02*
X152527000Y-84648750D01*
X149047191Y-95446691D02*
X151257000Y-97656500D01*
X150241000Y-97790000D02*
X150241000Y-102616000D01*
X150346000Y-110466000D02*
X149709000Y-110466000D01*
X148844000Y-108077000D02*
X148844000Y-107569000D01*
X149479000Y-106934000D02*
X149479000Y-103384106D01*
X149709000Y-110466000D02*
X149352000Y-110109000D01*
X149352000Y-110109000D02*
X149352000Y-108585000D01*
X150083801Y-102773199D02*
X150241000Y-102616000D01*
X149352000Y-108585000D02*
X148844000Y-108077000D01*
X150083801Y-102779305D02*
X150083801Y-102773199D01*
X148844000Y-107569000D02*
X149479000Y-106934000D01*
X149479000Y-103384106D02*
X150083801Y-102779305D01*
X150346000Y-110466000D02*
X150346000Y-110966000D01*
X148234369Y-95783369D02*
X150241000Y-97790000D01*
X148234369Y-85572632D02*
X148234369Y-95783369D01*
X148336000Y-85471001D02*
X148234369Y-85572632D01*
X149132880Y-84607370D02*
X148336000Y-85404250D01*
X148336000Y-85404250D02*
X148336000Y-85471001D01*
X151358630Y-84607370D02*
X149132880Y-84607370D01*
X151638000Y-84328000D02*
X151358630Y-84607370D01*
X151638000Y-81786384D02*
X151638000Y-84328000D01*
X150920611Y-80644731D02*
X150920611Y-81068995D01*
X150920611Y-81068995D02*
X151638000Y-81786384D01*
X151257000Y-105410000D02*
X151007000Y-105660000D01*
X151007000Y-105660000D02*
X150346000Y-105660000D01*
X151257000Y-103505000D02*
X151257000Y-105410000D01*
X150749000Y-97723250D02*
X150749000Y-102997000D01*
X150749000Y-102997000D02*
X151257000Y-103505000D01*
X150346000Y-106160000D02*
X150346000Y-105660000D01*
X148640780Y-95615030D02*
X150749000Y-97723250D01*
X152044411Y-81394909D02*
X152044411Y-84556589D01*
X149301221Y-85013779D02*
X148742411Y-85572589D01*
X151587221Y-85013779D02*
X149301221Y-85013779D01*
X148640780Y-85740971D02*
X148640780Y-95615030D01*
X152044411Y-84556589D02*
X151587221Y-85013779D01*
X151723805Y-80650039D02*
X151723805Y-81074303D01*
X148742411Y-85572589D02*
X148742411Y-85639340D01*
X151723805Y-81074303D02*
X152044411Y-81394909D01*
X148742411Y-85639340D02*
X148640780Y-85740971D01*
X140208000Y-117729000D02*
X140208000Y-119646000D01*
X140208000Y-119646000D02*
X140335000Y-119773000D01*
X141859000Y-117729000D02*
X141859000Y-119658000D01*
X141859000Y-119658000D02*
X141986000Y-119785000D01*
X140335000Y-121273000D02*
X140335000Y-121412000D01*
X140335000Y-121412000D02*
X141097000Y-122174000D01*
X141986000Y-121285000D02*
X141986000Y-122140332D01*
X141420862Y-122705470D02*
X141120863Y-123005469D01*
X141986000Y-122140332D02*
X141420862Y-122705470D01*
X146498044Y-95944956D02*
X144399000Y-98044000D01*
X144399000Y-98044000D02*
X140335000Y-98044000D01*
X146498044Y-83498956D02*
X146498044Y-95944956D01*
X147066000Y-82931000D02*
X146685000Y-82550000D01*
X146304000Y-82550000D02*
X145796000Y-83058000D01*
X146685000Y-82550000D02*
X146304000Y-82550000D01*
X145796000Y-83058000D02*
X145796000Y-83820000D01*
X145796000Y-83820000D02*
X146050000Y-84074000D01*
X146050000Y-84074000D02*
X146050000Y-89154000D01*
X146050000Y-89154000D02*
X144907000Y-90297000D01*
X144907000Y-90297000D02*
X140335000Y-90297000D01*
X149043467Y-84003263D02*
X149043467Y-82695774D01*
X149043467Y-82695774D02*
X149052001Y-82687240D01*
X149052001Y-82687240D02*
X149352000Y-82387241D01*
D28*
X158127001Y-120535001D02*
X158877000Y-121285000D01*
X156176612Y-100296612D02*
X156176612Y-118584612D01*
X150368000Y-94488000D02*
X156176612Y-100296612D01*
X156176612Y-118584612D02*
X158127001Y-120535001D01*
X149860000Y-93980000D02*
X149860000Y-94488000D01*
X149860000Y-94488000D02*
X149860000Y-94996000D01*
X150368000Y-94488000D02*
X150368000Y-94996000D01*
X150368000Y-93980000D02*
X150368000Y-94488000D01*
X149860000Y-94996000D02*
X150368000Y-94996000D01*
X149860000Y-93980000D02*
X150368000Y-93980000D01*
X150368000Y-86741000D02*
X153543000Y-86741000D01*
X153543000Y-86741000D02*
X154813000Y-88011000D01*
X154813000Y-88011000D02*
X154813000Y-93599000D01*
X154813000Y-93599000D02*
X157415799Y-96201799D01*
X157415799Y-96201799D02*
X157415799Y-109663799D01*
X157415799Y-109663799D02*
X158877000Y-111125000D01*
X149860000Y-86233000D02*
X149860000Y-86741000D01*
X150368000Y-86233000D02*
X150368000Y-86741000D01*
X150368000Y-86741000D02*
X150368000Y-87249000D01*
X149860000Y-86741000D02*
X149860000Y-87249000D01*
X149860000Y-87249000D02*
X150368000Y-87249000D01*
X149860000Y-86233000D02*
X150368000Y-86233000D01*
D27*
X134239000Y-76803000D02*
X135509000Y-78073000D01*
X136837187Y-109136534D02*
X137261451Y-109136534D01*
X135509000Y-107808347D02*
X136837187Y-109136534D01*
X135509000Y-78073000D02*
X135509000Y-107808347D01*
X134239000Y-78812000D02*
X135067612Y-79640612D01*
X135067612Y-79640612D02*
X135067612Y-103668306D01*
X135067612Y-103668306D02*
X134957147Y-103778771D01*
X134957147Y-103778771D02*
X134957147Y-108220914D01*
X134957147Y-108220914D02*
X134957147Y-108645178D01*
X136906000Y-106299000D02*
X136906000Y-106927894D01*
X140648718Y-105999801D02*
X137205199Y-105999801D01*
X140081000Y-108101000D02*
X138010810Y-108101000D01*
X138010810Y-108101000D02*
X137967999Y-108143811D01*
X136906000Y-106927894D02*
X137668000Y-107689894D01*
X137967999Y-108143811D02*
X137668000Y-108443810D01*
X137205199Y-105999801D02*
X136906000Y-106299000D01*
X142470383Y-107821466D02*
X140648718Y-105999801D01*
X137668000Y-108019546D02*
X137668000Y-108443810D01*
X137668000Y-107689894D02*
X137668000Y-108019546D01*
D29*
X150876000Y-120586500D02*
X150876000Y-121694500D01*
X150096501Y-122473999D02*
X147619999Y-122473999D01*
X150876000Y-121694500D02*
X150096501Y-122473999D01*
X147619999Y-122473999D02*
X147320000Y-122174000D01*
D27*
X146812000Y-122174000D02*
X146939000Y-122174000D01*
X145275358Y-122174000D02*
X146812000Y-122174000D01*
X146812000Y-122174000D02*
X147320000Y-122174000D01*
X143383000Y-113919000D02*
X145288000Y-113919000D01*
X142704200Y-113919000D02*
X143383000Y-113919000D01*
X143383000Y-113919000D02*
X143383000Y-113792000D01*
X145288000Y-112654800D02*
X145288000Y-113919000D01*
X145288000Y-113919000D02*
X145288000Y-118745000D01*
X142101000Y-113919000D02*
X142704200Y-113919000D01*
X145034000Y-118999000D02*
X145034000Y-121932642D01*
X145034000Y-121932642D02*
X145275358Y-122174000D01*
X145288000Y-118745000D02*
X145034000Y-118999000D01*
X140081000Y-108101000D02*
X140734200Y-108101000D01*
X140734200Y-108101000D02*
X145288000Y-112654800D01*
D28*
X158877000Y-100965000D02*
X161100500Y-100965000D01*
D27*
X138639199Y-114636199D02*
X137922000Y-113919000D01*
X137922000Y-113919000D02*
X137922000Y-112141000D01*
X143383000Y-115062000D02*
X142957199Y-114636199D01*
X142957199Y-114636199D02*
X138639199Y-114636199D01*
X143383000Y-115062000D02*
X142355000Y-115062000D01*
X142355000Y-115062000D02*
X142101000Y-115316000D01*
X139077000Y-111234732D02*
X138937078Y-111094810D01*
X139077000Y-111887000D02*
X139077000Y-111234732D01*
D30*
X154051000Y-115443000D02*
X154051000Y-117421500D01*
X154051000Y-117421500D02*
X154041000Y-117431500D01*
D28*
X154176000Y-120586500D02*
X154176000Y-117566500D01*
X154176000Y-117566500D02*
X154041000Y-117431500D01*
X169352500Y-106045000D02*
X169352500Y-112878098D01*
X169352500Y-112878098D02*
X169291000Y-112939598D01*
X169291000Y-112939598D02*
X169291000Y-121285000D01*
X155036500Y-123063000D02*
X154176000Y-122202500D01*
X169291000Y-121285000D02*
X167513000Y-123063000D01*
X167513000Y-123063000D02*
X155036500Y-123063000D01*
X154176000Y-122202500D02*
X154176000Y-120586500D01*
X169352500Y-106045000D02*
X169352500Y-105895000D01*
X169352500Y-105895000D02*
X167132000Y-103674500D01*
X167132000Y-103674500D02*
X167132000Y-102230500D01*
X167132000Y-102230500D02*
X165866500Y-100965000D01*
X165866500Y-100965000D02*
X164400500Y-100965000D01*
D29*
X148971000Y-117411500D02*
X148971000Y-120475000D01*
X148971000Y-120475000D02*
X148923000Y-120523000D01*
D30*
X148971000Y-115443000D02*
X148971000Y-117411500D01*
D27*
X139343000Y-68834000D02*
X138557000Y-68834000D01*
X138557000Y-68834000D02*
X138430000Y-68707000D01*
X138430000Y-71501000D02*
X139331000Y-71501000D01*
D30*
X171069000Y-91567000D02*
X171069000Y-95669618D01*
X170604417Y-96134201D02*
X165507701Y-96134201D01*
X171069000Y-95669618D02*
X170604417Y-96134201D01*
X165507701Y-96134201D02*
X165258500Y-95885000D01*
X165258500Y-95885000D02*
X163996500Y-95885000D01*
X170688000Y-91186000D02*
X171069000Y-91567000D01*
X165639500Y-91186000D02*
X170688000Y-91186000D01*
X163996500Y-90805000D02*
X165258500Y-90805000D01*
X165258500Y-90805000D02*
X165639500Y-91186000D01*
D28*
X162687000Y-97944500D02*
X162687000Y-102128000D01*
X162687000Y-102128000D02*
X161036000Y-103779000D01*
X161036000Y-103779000D02*
X161036000Y-106045000D01*
X163996500Y-95885000D02*
X163996500Y-96635000D01*
X163996500Y-96635000D02*
X162687000Y-97944500D01*
X158877000Y-106045000D02*
X161036000Y-106045000D01*
X158877000Y-95885000D02*
X160996500Y-95885000D01*
X158877000Y-90805000D02*
X160996500Y-90805000D01*
X158877000Y-93345000D02*
X165828000Y-93345000D01*
X165828000Y-93345000D02*
X165894000Y-93279000D01*
X158940500Y-88265000D02*
X165828000Y-88265000D01*
X165828000Y-88265000D02*
X165894000Y-88331000D01*
D27*
X154279974Y-75565000D02*
X155930974Y-73914000D01*
X149672751Y-75565000D02*
X154279974Y-75565000D01*
X155930974Y-73914000D02*
X168656000Y-73914000D01*
X170053000Y-75311000D02*
X170053000Y-85344000D01*
X170053000Y-85344000D02*
X169291000Y-86106000D01*
X170604264Y-88392000D02*
X170942000Y-88054264D01*
X167259000Y-88392000D02*
X170604264Y-88392000D01*
X166878000Y-88011000D02*
X167259000Y-88392000D01*
X167259000Y-86106000D02*
X166878000Y-86487000D01*
X146897660Y-75412589D02*
X149520340Y-75412589D01*
X168656000Y-73914000D02*
X170053000Y-75311000D01*
X169291000Y-86106000D02*
X167259000Y-86106000D01*
X144009709Y-76428125D02*
X145882124Y-76428125D01*
X166878000Y-86487000D02*
X166878000Y-88011000D01*
X149520340Y-75412589D02*
X149672751Y-75565000D01*
X145882124Y-76428125D02*
X146897660Y-75412589D01*
X170942000Y-88054264D02*
X170942000Y-87630000D01*
X169799000Y-92595000D02*
X168910000Y-92595000D01*
X168783000Y-92595000D02*
X168160000Y-92595000D01*
X168910000Y-92595000D02*
X168783000Y-92595000D01*
X168160000Y-92595000D02*
X167894000Y-92329000D01*
X146729320Y-75006178D02*
X149688680Y-75006178D01*
X170561000Y-85471000D02*
X169799000Y-86233000D01*
X169799000Y-86233000D02*
X169799000Y-87188800D01*
X149841091Y-75158589D02*
X154076411Y-75158589D01*
X141986000Y-79248000D02*
X141986000Y-77216000D01*
X149688680Y-75006178D02*
X149841091Y-75158589D01*
X154076411Y-75158589D02*
X155829000Y-73406000D01*
X146576909Y-75158589D02*
X146729320Y-75006178D01*
X169799000Y-87188800D02*
X169799000Y-87642000D01*
X168910000Y-73406000D02*
X170561000Y-75057000D01*
X170561000Y-75057000D02*
X170561000Y-85471000D01*
X155829000Y-73406000D02*
X168910000Y-73406000D01*
X144043411Y-75158589D02*
X146576909Y-75158589D01*
X141986000Y-77216000D02*
X144043411Y-75158589D01*
X169799000Y-87642000D02*
X168155000Y-87642000D01*
X168155000Y-87642000D02*
X167894000Y-87381000D01*
X153289000Y-76200000D02*
X153289000Y-81915000D01*
X153289000Y-73279000D02*
X153289000Y-74549000D01*
X152146000Y-109966000D02*
X152146000Y-110466000D01*
X150346000Y-109466000D02*
X150346000Y-109966000D01*
X150346000Y-103660000D02*
X150346000Y-104160000D01*
X152146000Y-104160000D02*
X152146000Y-104660000D01*
X152146000Y-105160000D02*
X152146000Y-105660000D01*
X150346000Y-104660000D02*
X150346000Y-105160000D01*
G36*
X171324200Y-123699200D02*
X167995749Y-123699200D01*
X168087736Y-123637736D01*
X169865737Y-121859736D01*
X170041929Y-121596045D01*
X170103800Y-121285000D01*
X170103800Y-113187278D01*
X170108722Y-113162531D01*
X170165300Y-112878098D01*
X170165300Y-105895000D01*
X170113271Y-105633434D01*
X170113271Y-105445000D01*
X170092018Y-105332048D01*
X170025263Y-105228308D01*
X169923407Y-105158713D01*
X169802500Y-105134229D01*
X169741202Y-105134229D01*
X167944800Y-103337828D01*
X167944800Y-102230500D01*
X167882929Y-101919455D01*
X167843027Y-101859738D01*
X167706736Y-101655763D01*
X166441236Y-100390264D01*
X166177545Y-100214071D01*
X165866500Y-100152200D01*
X165075767Y-100152200D01*
X165073263Y-100148308D01*
X164971407Y-100078713D01*
X164850500Y-100054229D01*
X163950500Y-100054229D01*
X163837548Y-100075482D01*
X163733808Y-100142237D01*
X163664213Y-100244093D01*
X163639729Y-100365000D01*
X163639729Y-100703434D01*
X163587700Y-100965000D01*
X163639729Y-101226566D01*
X163639729Y-101565000D01*
X163660982Y-101677952D01*
X163727737Y-101781692D01*
X163829593Y-101851287D01*
X163950500Y-101875771D01*
X164850500Y-101875771D01*
X164963452Y-101854518D01*
X165067192Y-101787763D01*
X165073999Y-101777800D01*
X165529828Y-101777800D01*
X166319200Y-102567173D01*
X166319200Y-103674500D01*
X166370203Y-103930907D01*
X166381071Y-103985545D01*
X166557264Y-104249236D01*
X168539700Y-106231673D01*
X168539700Y-112630418D01*
X168478200Y-112939598D01*
X168478200Y-120948327D01*
X167176328Y-122250200D01*
X159303184Y-122250200D01*
X159473716Y-122179738D01*
X159770695Y-121883276D01*
X159931617Y-121495733D01*
X159931983Y-121076108D01*
X159771738Y-120688284D01*
X159475276Y-120391305D01*
X159087733Y-120230383D01*
X158971754Y-120230282D01*
X158701740Y-119960268D01*
X158701738Y-119960265D01*
X158464026Y-119722553D01*
X158776661Y-119815774D01*
X159194066Y-119772664D01*
X159379469Y-119695868D01*
X159467558Y-119551084D01*
X158877000Y-118960526D01*
X158862858Y-118974669D01*
X158647332Y-118759143D01*
X158661474Y-118745000D01*
X159092526Y-118745000D01*
X159683084Y-119335558D01*
X159827868Y-119247469D01*
X159947774Y-118845339D01*
X159904664Y-118427934D01*
X159827868Y-118242531D01*
X159683084Y-118154442D01*
X159092526Y-118745000D01*
X158661474Y-118745000D01*
X158070916Y-118154442D01*
X157926132Y-118242531D01*
X157806226Y-118644661D01*
X157849336Y-119062066D01*
X157881719Y-119140247D01*
X156989412Y-118247940D01*
X156989412Y-117938916D01*
X158286442Y-117938916D01*
X158877000Y-118529474D01*
X159467558Y-117938916D01*
X159379469Y-117794132D01*
X158977339Y-117674226D01*
X158559934Y-117717336D01*
X158374531Y-117794132D01*
X158286442Y-117938916D01*
X156989412Y-117938916D01*
X156989412Y-116413892D01*
X157822017Y-116413892D01*
X157982262Y-116801716D01*
X158278724Y-117098695D01*
X158666267Y-117259617D01*
X159085892Y-117259983D01*
X159473716Y-117099738D01*
X159770695Y-116803276D01*
X159931617Y-116415733D01*
X159931983Y-115996108D01*
X159771738Y-115608284D01*
X159475276Y-115311305D01*
X159087733Y-115150383D01*
X158668108Y-115150017D01*
X158280284Y-115310262D01*
X157983305Y-115606724D01*
X157822383Y-115994267D01*
X157822017Y-116413892D01*
X156989412Y-116413892D01*
X156989412Y-114471084D01*
X158286442Y-114471084D01*
X158374531Y-114615868D01*
X158776661Y-114735774D01*
X159194066Y-114692664D01*
X159379469Y-114615868D01*
X159467558Y-114471084D01*
X158877000Y-113880526D01*
X158286442Y-114471084D01*
X156989412Y-114471084D01*
X156989412Y-113564661D01*
X157806226Y-113564661D01*
X157849336Y-113982066D01*
X157926132Y-114167469D01*
X158070916Y-114255558D01*
X158661474Y-113665000D01*
X159092526Y-113665000D01*
X159683084Y-114255558D01*
X159827868Y-114167469D01*
X159947774Y-113765339D01*
X159904664Y-113347934D01*
X159827868Y-113162531D01*
X159683084Y-113074442D01*
X159092526Y-113665000D01*
X158661474Y-113665000D01*
X158070916Y-113074442D01*
X157926132Y-113162531D01*
X157806226Y-113564661D01*
X156989412Y-113564661D01*
X156989412Y-112858916D01*
X158286442Y-112858916D01*
X158877000Y-113449474D01*
X159467558Y-112858916D01*
X159379469Y-112714132D01*
X158977339Y-112594226D01*
X158559934Y-112637336D01*
X158374531Y-112714132D01*
X158286442Y-112858916D01*
X156989412Y-112858916D01*
X156989412Y-110386884D01*
X157822117Y-111219589D01*
X157822017Y-111333892D01*
X157982262Y-111721716D01*
X158278724Y-112018695D01*
X158666267Y-112179617D01*
X159085892Y-112179983D01*
X159473716Y-112019738D01*
X159770695Y-111723276D01*
X159931617Y-111335733D01*
X159931983Y-110916108D01*
X159771738Y-110528284D01*
X159475276Y-110231305D01*
X159087733Y-110070383D01*
X158971755Y-110070282D01*
X158464026Y-109562553D01*
X158776661Y-109655774D01*
X159194066Y-109612664D01*
X159379469Y-109535868D01*
X159467558Y-109391084D01*
X158877000Y-108800526D01*
X158862858Y-108814669D01*
X158647332Y-108599143D01*
X158661474Y-108585000D01*
X159092526Y-108585000D01*
X159683084Y-109175558D01*
X159827868Y-109087469D01*
X159947774Y-108685339D01*
X159904664Y-108267934D01*
X159827868Y-108082531D01*
X159818778Y-108077000D01*
X162636200Y-108077000D01*
X162636200Y-108712000D01*
X162698071Y-109023045D01*
X162874264Y-109286736D01*
X163137955Y-109462929D01*
X163449000Y-109524800D01*
X164719000Y-109524800D01*
X165030045Y-109462929D01*
X165293736Y-109286736D01*
X165469929Y-109023045D01*
X165531800Y-108712000D01*
X165531800Y-108077000D01*
X165469929Y-107765955D01*
X165293736Y-107502264D01*
X165030045Y-107326071D01*
X164848800Y-107290019D01*
X164848800Y-106857800D01*
X165377233Y-106857800D01*
X165379737Y-106861692D01*
X165481593Y-106931287D01*
X165602500Y-106955771D01*
X166502500Y-106955771D01*
X166615452Y-106934518D01*
X166719192Y-106867763D01*
X166788787Y-106765907D01*
X166813271Y-106645000D01*
X166813271Y-106306566D01*
X166865300Y-106045000D01*
X166813271Y-105783434D01*
X166813271Y-105445000D01*
X166792018Y-105332048D01*
X166725263Y-105228308D01*
X166623407Y-105158713D01*
X166502500Y-105134229D01*
X165602500Y-105134229D01*
X165489548Y-105155482D01*
X165385808Y-105222237D01*
X165379001Y-105232200D01*
X164846771Y-105232200D01*
X164846771Y-104795000D01*
X164825518Y-104682048D01*
X164758763Y-104578308D01*
X164656907Y-104508713D01*
X164536000Y-104484229D01*
X163536000Y-104484229D01*
X163423048Y-104505482D01*
X163319308Y-104572237D01*
X163249713Y-104674093D01*
X163225229Y-104795000D01*
X163225229Y-106034800D01*
X163223200Y-106045000D01*
X163223200Y-107309115D01*
X163137955Y-107326071D01*
X162874264Y-107502264D01*
X162698071Y-107765955D01*
X162636200Y-108077000D01*
X159818778Y-108077000D01*
X159683084Y-107994442D01*
X159092526Y-108585000D01*
X158661474Y-108585000D01*
X158647332Y-108570858D01*
X158862858Y-108355332D01*
X158877000Y-108369474D01*
X159467558Y-107778916D01*
X159379469Y-107634132D01*
X158977339Y-107514226D01*
X158559934Y-107557336D01*
X158374531Y-107634132D01*
X158286443Y-107778914D01*
X158228599Y-107721070D01*
X158228599Y-106888483D01*
X158278724Y-106938695D01*
X158666267Y-107099617D01*
X159085892Y-107099983D01*
X159473716Y-106939738D01*
X159555797Y-106857800D01*
X160225229Y-106857800D01*
X160225229Y-107295000D01*
X160246482Y-107407952D01*
X160313237Y-107511692D01*
X160415093Y-107581287D01*
X160536000Y-107605771D01*
X161536000Y-107605771D01*
X161648952Y-107584518D01*
X161752692Y-107517763D01*
X161822287Y-107415907D01*
X161846771Y-107295000D01*
X161846771Y-106055200D01*
X161848800Y-106045000D01*
X161848800Y-104115672D01*
X163261737Y-102702736D01*
X163437929Y-102439045D01*
X163499800Y-102128000D01*
X163499800Y-98281172D01*
X164335202Y-97445771D01*
X164496500Y-97445771D01*
X164609452Y-97424518D01*
X164713192Y-97357763D01*
X164782787Y-97255907D01*
X164807271Y-97135000D01*
X164807271Y-96645200D01*
X164809300Y-96635000D01*
X164809300Y-96570800D01*
X164974432Y-96570800D01*
X165022767Y-96619135D01*
X165245257Y-96767798D01*
X165507701Y-96820001D01*
X170604417Y-96820001D01*
X170866862Y-96767798D01*
X171089351Y-96619135D01*
X171324200Y-96384286D01*
X171324200Y-123699200D01*
X171324200Y-123699200D01*
G37*
X171324200Y-123699200D02*
X167995749Y-123699200D01*
X168087736Y-123637736D01*
X169865737Y-121859736D01*
X170041929Y-121596045D01*
X170103800Y-121285000D01*
X170103800Y-113187278D01*
X170108722Y-113162531D01*
X170165300Y-112878098D01*
X170165300Y-105895000D01*
X170113271Y-105633434D01*
X170113271Y-105445000D01*
X170092018Y-105332048D01*
X170025263Y-105228308D01*
X169923407Y-105158713D01*
X169802500Y-105134229D01*
X169741202Y-105134229D01*
X167944800Y-103337828D01*
X167944800Y-102230500D01*
X167882929Y-101919455D01*
X167843027Y-101859738D01*
X167706736Y-101655763D01*
X166441236Y-100390264D01*
X166177545Y-100214071D01*
X165866500Y-100152200D01*
X165075767Y-100152200D01*
X165073263Y-100148308D01*
X164971407Y-100078713D01*
X164850500Y-100054229D01*
X163950500Y-100054229D01*
X163837548Y-100075482D01*
X163733808Y-100142237D01*
X163664213Y-100244093D01*
X163639729Y-100365000D01*
X163639729Y-100703434D01*
X163587700Y-100965000D01*
X163639729Y-101226566D01*
X163639729Y-101565000D01*
X163660982Y-101677952D01*
X163727737Y-101781692D01*
X163829593Y-101851287D01*
X163950500Y-101875771D01*
X164850500Y-101875771D01*
X164963452Y-101854518D01*
X165067192Y-101787763D01*
X165073999Y-101777800D01*
X165529828Y-101777800D01*
X166319200Y-102567173D01*
X166319200Y-103674500D01*
X166370203Y-103930907D01*
X166381071Y-103985545D01*
X166557264Y-104249236D01*
X168539700Y-106231673D01*
X168539700Y-112630418D01*
X168478200Y-112939598D01*
X168478200Y-120948327D01*
X167176328Y-122250200D01*
X159303184Y-122250200D01*
X159473716Y-122179738D01*
X159770695Y-121883276D01*
X159931617Y-121495733D01*
X159931983Y-121076108D01*
X159771738Y-120688284D01*
X159475276Y-120391305D01*
X159087733Y-120230383D01*
X158971754Y-120230282D01*
X158701740Y-119960268D01*
X158701738Y-119960265D01*
X158464026Y-119722553D01*
X158776661Y-119815774D01*
X159194066Y-119772664D01*
X159379469Y-119695868D01*
X159467558Y-119551084D01*
X158877000Y-118960526D01*
X158862858Y-118974669D01*
X158647332Y-118759143D01*
X158661474Y-118745000D01*
X159092526Y-118745000D01*
X159683084Y-119335558D01*
X159827868Y-119247469D01*
X159947774Y-118845339D01*
X159904664Y-118427934D01*
X159827868Y-118242531D01*
X159683084Y-118154442D01*
X159092526Y-118745000D01*
X158661474Y-118745000D01*
X158070916Y-118154442D01*
X157926132Y-118242531D01*
X157806226Y-118644661D01*
X157849336Y-119062066D01*
X157881719Y-119140247D01*
X156989412Y-118247940D01*
X156989412Y-117938916D01*
X158286442Y-117938916D01*
X158877000Y-118529474D01*
X159467558Y-117938916D01*
X159379469Y-117794132D01*
X158977339Y-117674226D01*
X158559934Y-117717336D01*
X158374531Y-117794132D01*
X158286442Y-117938916D01*
X156989412Y-117938916D01*
X156989412Y-116413892D01*
X157822017Y-116413892D01*
X157982262Y-116801716D01*
X158278724Y-117098695D01*
X158666267Y-117259617D01*
X159085892Y-117259983D01*
X159473716Y-117099738D01*
X159770695Y-116803276D01*
X159931617Y-116415733D01*
X159931983Y-115996108D01*
X159771738Y-115608284D01*
X159475276Y-115311305D01*
X159087733Y-115150383D01*
X158668108Y-115150017D01*
X158280284Y-115310262D01*
X157983305Y-115606724D01*
X157822383Y-115994267D01*
X157822017Y-116413892D01*
X156989412Y-116413892D01*
X156989412Y-114471084D01*
X158286442Y-114471084D01*
X158374531Y-114615868D01*
X158776661Y-114735774D01*
X159194066Y-114692664D01*
X159379469Y-114615868D01*
X159467558Y-114471084D01*
X158877000Y-113880526D01*
X158286442Y-114471084D01*
X156989412Y-114471084D01*
X156989412Y-113564661D01*
X157806226Y-113564661D01*
X157849336Y-113982066D01*
X157926132Y-114167469D01*
X158070916Y-114255558D01*
X158661474Y-113665000D01*
X159092526Y-113665000D01*
X159683084Y-114255558D01*
X159827868Y-114167469D01*
X159947774Y-113765339D01*
X159904664Y-113347934D01*
X159827868Y-113162531D01*
X159683084Y-113074442D01*
X159092526Y-113665000D01*
X158661474Y-113665000D01*
X158070916Y-113074442D01*
X157926132Y-113162531D01*
X157806226Y-113564661D01*
X156989412Y-113564661D01*
X156989412Y-112858916D01*
X158286442Y-112858916D01*
X158877000Y-113449474D01*
X159467558Y-112858916D01*
X159379469Y-112714132D01*
X158977339Y-112594226D01*
X158559934Y-112637336D01*
X158374531Y-112714132D01*
X158286442Y-112858916D01*
X156989412Y-112858916D01*
X156989412Y-110386884D01*
X157822117Y-111219589D01*
X157822017Y-111333892D01*
X157982262Y-111721716D01*
X158278724Y-112018695D01*
X158666267Y-112179617D01*
X159085892Y-112179983D01*
X159473716Y-112019738D01*
X159770695Y-111723276D01*
X159931617Y-111335733D01*
X159931983Y-110916108D01*
X159771738Y-110528284D01*
X159475276Y-110231305D01*
X159087733Y-110070383D01*
X158971755Y-110070282D01*
X158464026Y-109562553D01*
X158776661Y-109655774D01*
X159194066Y-109612664D01*
X159379469Y-109535868D01*
X159467558Y-109391084D01*
X158877000Y-108800526D01*
X158862858Y-108814669D01*
X158647332Y-108599143D01*
X158661474Y-108585000D01*
X159092526Y-108585000D01*
X159683084Y-109175558D01*
X159827868Y-109087469D01*
X159947774Y-108685339D01*
X159904664Y-108267934D01*
X159827868Y-108082531D01*
X159818778Y-108077000D01*
X162636200Y-108077000D01*
X162636200Y-108712000D01*
X162698071Y-109023045D01*
X162874264Y-109286736D01*
X163137955Y-109462929D01*
X163449000Y-109524800D01*
X164719000Y-109524800D01*
X165030045Y-109462929D01*
X165293736Y-109286736D01*
X165469929Y-109023045D01*
X165531800Y-108712000D01*
X165531800Y-108077000D01*
X165469929Y-107765955D01*
X165293736Y-107502264D01*
X165030045Y-107326071D01*
X164848800Y-107290019D01*
X164848800Y-106857800D01*
X165377233Y-106857800D01*
X165379737Y-106861692D01*
X165481593Y-106931287D01*
X165602500Y-106955771D01*
X166502500Y-106955771D01*
X166615452Y-106934518D01*
X166719192Y-106867763D01*
X166788787Y-106765907D01*
X166813271Y-106645000D01*
X166813271Y-106306566D01*
X166865300Y-106045000D01*
X166813271Y-105783434D01*
X166813271Y-105445000D01*
X166792018Y-105332048D01*
X166725263Y-105228308D01*
X166623407Y-105158713D01*
X166502500Y-105134229D01*
X165602500Y-105134229D01*
X165489548Y-105155482D01*
X165385808Y-105222237D01*
X165379001Y-105232200D01*
X164846771Y-105232200D01*
X164846771Y-104795000D01*
X164825518Y-104682048D01*
X164758763Y-104578308D01*
X164656907Y-104508713D01*
X164536000Y-104484229D01*
X163536000Y-104484229D01*
X163423048Y-104505482D01*
X163319308Y-104572237D01*
X163249713Y-104674093D01*
X163225229Y-104795000D01*
X163225229Y-106034800D01*
X163223200Y-106045000D01*
X163223200Y-107309115D01*
X163137955Y-107326071D01*
X162874264Y-107502264D01*
X162698071Y-107765955D01*
X162636200Y-108077000D01*
X159818778Y-108077000D01*
X159683084Y-107994442D01*
X159092526Y-108585000D01*
X158661474Y-108585000D01*
X158647332Y-108570858D01*
X158862858Y-108355332D01*
X158877000Y-108369474D01*
X159467558Y-107778916D01*
X159379469Y-107634132D01*
X158977339Y-107514226D01*
X158559934Y-107557336D01*
X158374531Y-107634132D01*
X158286443Y-107778914D01*
X158228599Y-107721070D01*
X158228599Y-106888483D01*
X158278724Y-106938695D01*
X158666267Y-107099617D01*
X159085892Y-107099983D01*
X159473716Y-106939738D01*
X159555797Y-106857800D01*
X160225229Y-106857800D01*
X160225229Y-107295000D01*
X160246482Y-107407952D01*
X160313237Y-107511692D01*
X160415093Y-107581287D01*
X160536000Y-107605771D01*
X161536000Y-107605771D01*
X161648952Y-107584518D01*
X161752692Y-107517763D01*
X161822287Y-107415907D01*
X161846771Y-107295000D01*
X161846771Y-106055200D01*
X161848800Y-106045000D01*
X161848800Y-104115672D01*
X163261737Y-102702736D01*
X163437929Y-102439045D01*
X163499800Y-102128000D01*
X163499800Y-98281172D01*
X164335202Y-97445771D01*
X164496500Y-97445771D01*
X164609452Y-97424518D01*
X164713192Y-97357763D01*
X164782787Y-97255907D01*
X164807271Y-97135000D01*
X164807271Y-96645200D01*
X164809300Y-96635000D01*
X164809300Y-96570800D01*
X164974432Y-96570800D01*
X165022767Y-96619135D01*
X165245257Y-96767798D01*
X165507701Y-96820001D01*
X170604417Y-96820001D01*
X170866862Y-96767798D01*
X171089351Y-96619135D01*
X171324200Y-96384286D01*
X171324200Y-123699200D01*
G36*
X142616574Y-67220961D02*
X142524305Y-67443170D01*
X142524162Y-67607477D01*
X142467713Y-67690093D01*
X142443229Y-67811000D01*
X142443229Y-68131508D01*
X141529969Y-69044769D01*
X141471600Y-68986400D01*
X140995400Y-68986400D01*
X140995400Y-69006400D01*
X140690600Y-69006400D01*
X140690600Y-68986400D01*
X140214400Y-68986400D01*
X140138200Y-69062600D01*
X140138200Y-69107401D01*
X140053771Y-69107401D01*
X140053771Y-68459000D01*
X140042364Y-68398371D01*
X140138200Y-68398371D01*
X140138200Y-68605400D01*
X140214400Y-68681600D01*
X140690600Y-68681600D01*
X140690600Y-68230400D01*
X140995400Y-68230400D01*
X140995400Y-68681600D01*
X141471600Y-68681600D01*
X141547800Y-68605400D01*
X141547800Y-68398371D01*
X141501397Y-68286344D01*
X141415655Y-68200603D01*
X141303628Y-68154200D01*
X141071600Y-68154200D01*
X140995400Y-68230400D01*
X140690600Y-68230400D01*
X140614400Y-68154200D01*
X140382372Y-68154200D01*
X140270345Y-68200603D01*
X140184603Y-68286344D01*
X140138200Y-68398371D01*
X140042364Y-68398371D01*
X140032518Y-68346048D01*
X139965763Y-68242308D01*
X139863907Y-68172713D01*
X139743000Y-68148229D01*
X138943000Y-68148229D01*
X138830048Y-68169482D01*
X138780085Y-68201632D01*
X138773039Y-68194574D01*
X138550830Y-68102305D01*
X138310226Y-68102095D01*
X138087856Y-68193976D01*
X137917574Y-68363961D01*
X137825305Y-68586170D01*
X137825095Y-68826774D01*
X137916976Y-69049144D01*
X138070555Y-69202991D01*
X137968668Y-69271070D01*
X133843869Y-73395869D01*
X133722736Y-73577156D01*
X133680200Y-73791000D01*
X133680200Y-73998540D01*
X133622048Y-74009482D01*
X133518308Y-74076237D01*
X133448713Y-74178093D01*
X133424229Y-74299000D01*
X133424229Y-75307000D01*
X133445482Y-75419952D01*
X133512237Y-75523692D01*
X133614093Y-75593287D01*
X133735000Y-75617771D01*
X134743000Y-75617771D01*
X134855952Y-75596518D01*
X134959692Y-75529763D01*
X135029287Y-75427907D01*
X135042674Y-75361800D01*
X135658538Y-75361800D01*
X136653939Y-76357201D01*
X136532226Y-76357095D01*
X136309856Y-76448976D01*
X136139574Y-76618961D01*
X136047305Y-76841170D01*
X136047095Y-77081774D01*
X136138976Y-77304144D01*
X136241183Y-77406529D01*
X136139574Y-77507961D01*
X136047305Y-77730170D01*
X136047173Y-77881091D01*
X135905423Y-78022841D01*
X135884465Y-77917477D01*
X135796368Y-77785632D01*
X135026435Y-77015699D01*
X135047659Y-76964586D01*
X135047940Y-76642826D01*
X134925067Y-76345450D01*
X134697746Y-76117733D01*
X134400586Y-75994341D01*
X134078826Y-75994060D01*
X133781450Y-76116933D01*
X133553733Y-76344254D01*
X133430341Y-76641414D01*
X133430060Y-76963174D01*
X133552933Y-77260550D01*
X133780254Y-77488267D01*
X134077414Y-77611659D01*
X134399174Y-77611940D01*
X134451559Y-77590295D01*
X135102600Y-78241336D01*
X135102600Y-79100864D01*
X135026435Y-79024699D01*
X135047659Y-78973586D01*
X135047940Y-78651826D01*
X134925067Y-78354450D01*
X134697746Y-78126733D01*
X134400586Y-78003341D01*
X134078826Y-78003060D01*
X133781450Y-78125933D01*
X133553733Y-78353254D01*
X133430341Y-78650414D01*
X133430060Y-78972174D01*
X133552933Y-79269550D01*
X133780254Y-79497267D01*
X134077414Y-79620659D01*
X134399174Y-79620940D01*
X134451559Y-79599295D01*
X134661212Y-79808948D01*
X134661212Y-80111563D01*
X134400586Y-80003341D01*
X134078826Y-80003060D01*
X133781450Y-80125933D01*
X133553733Y-80353254D01*
X133430341Y-80650414D01*
X133430060Y-80972174D01*
X133552933Y-81269550D01*
X133780254Y-81497267D01*
X134077414Y-81620659D01*
X134399174Y-81620940D01*
X134661212Y-81512668D01*
X134661212Y-82111563D01*
X134400586Y-82003341D01*
X134078826Y-82003060D01*
X133781450Y-82125933D01*
X133553733Y-82353254D01*
X133430341Y-82650414D01*
X133430060Y-82972174D01*
X133552933Y-83269550D01*
X133780254Y-83497267D01*
X134077414Y-83620659D01*
X134399174Y-83620940D01*
X134661212Y-83512668D01*
X134661212Y-84111563D01*
X134400586Y-84003341D01*
X134078826Y-84003060D01*
X133781450Y-84125933D01*
X133553733Y-84353254D01*
X133430341Y-84650414D01*
X133430060Y-84972174D01*
X133552933Y-85269550D01*
X133780254Y-85497267D01*
X134077414Y-85620659D01*
X134399174Y-85620940D01*
X134661212Y-85512668D01*
X134661212Y-86111563D01*
X134400586Y-86003341D01*
X134078826Y-86003060D01*
X133781450Y-86125933D01*
X133553733Y-86353254D01*
X133430341Y-86650414D01*
X133430060Y-86972174D01*
X133552933Y-87269550D01*
X133780254Y-87497267D01*
X134077414Y-87620659D01*
X134399174Y-87620940D01*
X134661212Y-87512668D01*
X134661212Y-88111563D01*
X134400586Y-88003341D01*
X134078826Y-88003060D01*
X133781450Y-88125933D01*
X133553733Y-88353254D01*
X133430341Y-88650414D01*
X133430060Y-88972174D01*
X133552933Y-89269550D01*
X133780254Y-89497267D01*
X134077414Y-89620659D01*
X134399174Y-89620940D01*
X134661212Y-89512668D01*
X134661212Y-90102563D01*
X134400586Y-89994341D01*
X134078826Y-89994060D01*
X133781450Y-90116933D01*
X133553733Y-90344254D01*
X133430341Y-90641414D01*
X133430060Y-90963174D01*
X133552933Y-91260550D01*
X133780254Y-91488267D01*
X134077414Y-91611659D01*
X134399174Y-91611940D01*
X134661212Y-91503668D01*
X134661212Y-92165259D01*
X134649379Y-92177092D01*
X134592071Y-92057762D01*
X134280005Y-91979375D01*
X133961696Y-92026377D01*
X133885929Y-92057762D01*
X133828620Y-92177094D01*
X134239000Y-92587474D01*
X134253143Y-92573332D01*
X134468669Y-92788858D01*
X134454526Y-92803000D01*
X134468669Y-92817143D01*
X134253143Y-93032669D01*
X134239000Y-93018526D01*
X133828620Y-93428906D01*
X133885929Y-93548238D01*
X134197995Y-93626625D01*
X134516304Y-93579623D01*
X134592071Y-93548238D01*
X134649379Y-93428908D01*
X134661212Y-93440741D01*
X134661212Y-102805516D01*
X134583640Y-102773305D01*
X134343036Y-102773095D01*
X134120666Y-102864976D01*
X133950384Y-103034961D01*
X133858115Y-103257170D01*
X133857905Y-103497774D01*
X133949786Y-103720144D01*
X134056410Y-103826954D01*
X134056410Y-107938854D01*
X133951632Y-108043632D01*
X133863535Y-108175477D01*
X133832600Y-108331000D01*
X133832600Y-108839000D01*
X133863535Y-108994523D01*
X133927689Y-109090535D01*
X133951632Y-109126368D01*
X135602632Y-110777368D01*
X135734478Y-110865466D01*
X135890000Y-110896400D01*
X138364597Y-110896400D01*
X138332383Y-110973980D01*
X138332173Y-111214584D01*
X138399681Y-111377967D01*
X138390713Y-111391093D01*
X138366229Y-111512000D01*
X138366229Y-111729941D01*
X138265039Y-111628574D01*
X138042830Y-111536305D01*
X137802226Y-111536095D01*
X137579856Y-111627976D01*
X137409574Y-111797961D01*
X137317305Y-112020170D01*
X137317095Y-112260774D01*
X137408976Y-112483144D01*
X137515600Y-112589954D01*
X137515600Y-113919000D01*
X137546535Y-114074523D01*
X137586373Y-114134144D01*
X137634632Y-114206368D01*
X138351831Y-114923568D01*
X138483677Y-115011665D01*
X138639199Y-115042599D01*
X139896200Y-115042599D01*
X139896200Y-115087400D01*
X139972400Y-115163600D01*
X140448600Y-115163600D01*
X140448600Y-115143600D01*
X140753400Y-115143600D01*
X140753400Y-115163600D01*
X141229600Y-115163600D01*
X141305800Y-115087400D01*
X141305800Y-115042599D01*
X141390229Y-115042599D01*
X141390229Y-115691000D01*
X141411482Y-115803952D01*
X141478237Y-115907692D01*
X141580093Y-115977287D01*
X141701000Y-116001771D01*
X142501000Y-116001771D01*
X142613952Y-115980518D01*
X142717692Y-115913763D01*
X142787287Y-115811907D01*
X142811771Y-115691000D01*
X142811771Y-115468400D01*
X142934120Y-115468400D01*
X143039961Y-115574426D01*
X143262170Y-115666695D01*
X143502774Y-115666905D01*
X143725144Y-115575024D01*
X143895426Y-115405039D01*
X143987695Y-115182830D01*
X143987905Y-114942226D01*
X143896024Y-114719856D01*
X143726039Y-114549574D01*
X143503830Y-114457305D01*
X143352910Y-114457173D01*
X143292458Y-114396721D01*
X143502774Y-114396905D01*
X143675830Y-114325400D01*
X144881600Y-114325400D01*
X144881600Y-118576664D01*
X144746632Y-118711632D01*
X144658535Y-118843477D01*
X144627600Y-118999000D01*
X144627600Y-121932642D01*
X144658535Y-122088165D01*
X144715889Y-122174000D01*
X144746632Y-122220010D01*
X144987990Y-122461368D01*
X145119835Y-122549465D01*
X145275358Y-122580400D01*
X146871120Y-122580400D01*
X146976961Y-122686426D01*
X147088463Y-122732726D01*
X147224868Y-122869131D01*
X147406156Y-122990264D01*
X147619999Y-123032799D01*
X150096501Y-123032799D01*
X150310345Y-122990263D01*
X150491632Y-122869130D01*
X151271131Y-122089631D01*
X151333852Y-121995763D01*
X151392264Y-121908344D01*
X151434800Y-121694500D01*
X151434800Y-121476799D01*
X151438952Y-121476018D01*
X151542692Y-121409263D01*
X151612287Y-121307407D01*
X151636771Y-121186500D01*
X151636771Y-119986500D01*
X151615518Y-119873548D01*
X151548763Y-119769808D01*
X151446907Y-119700213D01*
X151326000Y-119675729D01*
X150426000Y-119675729D01*
X150313048Y-119696982D01*
X150209308Y-119763737D01*
X150139713Y-119865593D01*
X150115229Y-119986500D01*
X150115229Y-121186500D01*
X150136482Y-121299452D01*
X150203237Y-121403192D01*
X150305093Y-121472787D01*
X150307054Y-121473184D01*
X149865039Y-121915199D01*
X149694739Y-121915199D01*
X149709287Y-121893907D01*
X149733771Y-121773000D01*
X149733771Y-119273000D01*
X149712518Y-119160048D01*
X149645763Y-119056308D01*
X149543907Y-118986713D01*
X149529800Y-118983856D01*
X149529800Y-118334887D01*
X149574504Y-118316416D01*
X149644705Y-118246337D01*
X150901690Y-118246337D01*
X150991267Y-118392366D01*
X151397775Y-118514291D01*
X151819998Y-118471371D01*
X152010733Y-118392366D01*
X152100310Y-118246337D01*
X151501000Y-117647026D01*
X150901690Y-118246337D01*
X149644705Y-118246337D01*
X149874862Y-118016583D01*
X150037615Y-117624631D01*
X150037873Y-117328275D01*
X150418209Y-117328275D01*
X150461129Y-117750498D01*
X150540134Y-117941233D01*
X150686163Y-118030810D01*
X151285474Y-117431500D01*
X151716526Y-117431500D01*
X152315837Y-118030810D01*
X152461866Y-117941233D01*
X152583791Y-117534725D01*
X152540871Y-117112502D01*
X152461866Y-116921767D01*
X152315837Y-116832190D01*
X151716526Y-117431500D01*
X151285474Y-117431500D01*
X150686163Y-116832190D01*
X150540134Y-116921767D01*
X150418209Y-117328275D01*
X150037873Y-117328275D01*
X150037985Y-117200231D01*
X149875916Y-116807996D01*
X149684918Y-116616663D01*
X150901690Y-116616663D01*
X151501000Y-117215974D01*
X152100310Y-116616663D01*
X152010733Y-116470634D01*
X151604225Y-116348709D01*
X151182002Y-116391629D01*
X150991267Y-116470634D01*
X150901690Y-116616663D01*
X149684918Y-116616663D01*
X149656800Y-116588496D01*
X149656800Y-115939620D01*
X149657287Y-115938907D01*
X149681771Y-115818000D01*
X149681771Y-115671600D01*
X149766200Y-115671600D01*
X149766200Y-115878629D01*
X149812603Y-115990656D01*
X149898345Y-116076397D01*
X150010372Y-116122800D01*
X150242400Y-116122800D01*
X150318600Y-116046600D01*
X150318600Y-115595400D01*
X150623400Y-115595400D01*
X150623400Y-116046600D01*
X150699600Y-116122800D01*
X150931628Y-116122800D01*
X151043655Y-116076397D01*
X151129397Y-115990656D01*
X151175800Y-115878629D01*
X151175800Y-115671600D01*
X151846200Y-115671600D01*
X151846200Y-115878629D01*
X151892603Y-115990656D01*
X151978345Y-116076397D01*
X152090372Y-116122800D01*
X152322400Y-116122800D01*
X152398600Y-116046600D01*
X152398600Y-115595400D01*
X152703400Y-115595400D01*
X152703400Y-116046600D01*
X152779600Y-116122800D01*
X153011628Y-116122800D01*
X153123655Y-116076397D01*
X153209397Y-115990656D01*
X153255800Y-115878629D01*
X153255800Y-115671600D01*
X153179600Y-115595400D01*
X152703400Y-115595400D01*
X152398600Y-115595400D01*
X151922400Y-115595400D01*
X151846200Y-115671600D01*
X151175800Y-115671600D01*
X151099600Y-115595400D01*
X150623400Y-115595400D01*
X150318600Y-115595400D01*
X149842400Y-115595400D01*
X149766200Y-115671600D01*
X149681771Y-115671600D01*
X149681771Y-115068000D01*
X149670364Y-115007371D01*
X149766200Y-115007371D01*
X149766200Y-115214400D01*
X149842400Y-115290600D01*
X150318600Y-115290600D01*
X150318600Y-114839400D01*
X150623400Y-114839400D01*
X150623400Y-115290600D01*
X151099600Y-115290600D01*
X151175800Y-115214400D01*
X151175800Y-115007371D01*
X151846200Y-115007371D01*
X151846200Y-115214400D01*
X151922400Y-115290600D01*
X152398600Y-115290600D01*
X152398600Y-114839400D01*
X152703400Y-114839400D01*
X152703400Y-115290600D01*
X153179600Y-115290600D01*
X153255800Y-115214400D01*
X153255800Y-115007371D01*
X153209397Y-114895344D01*
X153123655Y-114809603D01*
X153011628Y-114763200D01*
X152779600Y-114763200D01*
X152703400Y-114839400D01*
X152398600Y-114839400D01*
X152322400Y-114763200D01*
X152090372Y-114763200D01*
X151978345Y-114809603D01*
X151892603Y-114895344D01*
X151846200Y-115007371D01*
X151175800Y-115007371D01*
X151129397Y-114895344D01*
X151043655Y-114809603D01*
X150931628Y-114763200D01*
X150699600Y-114763200D01*
X150623400Y-114839400D01*
X150318600Y-114839400D01*
X150242400Y-114763200D01*
X150010372Y-114763200D01*
X149898345Y-114809603D01*
X149812603Y-114895344D01*
X149766200Y-115007371D01*
X149670364Y-115007371D01*
X149660518Y-114955048D01*
X149593763Y-114851308D01*
X149491907Y-114781713D01*
X149371000Y-114757229D01*
X148971146Y-114757229D01*
X148971000Y-114757200D01*
X148970854Y-114757229D01*
X148571000Y-114757229D01*
X148458048Y-114778482D01*
X148354308Y-114845237D01*
X148284713Y-114947093D01*
X148260229Y-115068000D01*
X148260229Y-115818000D01*
X148281482Y-115930952D01*
X148285200Y-115936730D01*
X148285200Y-116588736D01*
X148067138Y-116806417D01*
X147904385Y-117198369D01*
X147904015Y-117622769D01*
X148066084Y-118015004D01*
X148365917Y-118315362D01*
X148412200Y-118334580D01*
X148412200Y-118964261D01*
X148310048Y-118983482D01*
X148206308Y-119050237D01*
X148136713Y-119152093D01*
X148112229Y-119273000D01*
X148112229Y-121773000D01*
X148133482Y-121885952D01*
X148152302Y-121915199D01*
X147867460Y-121915199D01*
X147833024Y-121831856D01*
X147663039Y-121661574D01*
X147440830Y-121569305D01*
X147200226Y-121569095D01*
X146977856Y-121660976D01*
X146871046Y-121767600D01*
X146733771Y-121767600D01*
X146733771Y-119273000D01*
X146712518Y-119160048D01*
X146645763Y-119056308D01*
X146543907Y-118986713D01*
X146481800Y-118974136D01*
X146481800Y-112420038D01*
X146470825Y-112364862D01*
X146439265Y-112206195D01*
X146318132Y-112024907D01*
X144703726Y-110410502D01*
X144658024Y-110299894D01*
X144488039Y-110129612D01*
X144376536Y-110083312D01*
X143687800Y-109394576D01*
X143687800Y-108426547D01*
X148426320Y-103688027D01*
X148428691Y-103684479D01*
X148547453Y-103506740D01*
X148589989Y-103292896D01*
X148589989Y-96713725D01*
X149834600Y-97958336D01*
X149834600Y-102447664D01*
X149796433Y-102485831D01*
X149784137Y-102504233D01*
X149191632Y-103096738D01*
X149103535Y-103228583D01*
X149072600Y-103384106D01*
X149072600Y-106765664D01*
X148556632Y-107281632D01*
X148468535Y-107413477D01*
X148437600Y-107569000D01*
X148437600Y-108077000D01*
X148468535Y-108232523D01*
X148537693Y-108336024D01*
X148556632Y-108364368D01*
X148945600Y-108753337D01*
X148945600Y-110109000D01*
X148976535Y-110264523D01*
X149023278Y-110334478D01*
X149064632Y-110396368D01*
X149421632Y-110753368D01*
X149553477Y-110841465D01*
X149635229Y-110857726D01*
X149635229Y-111116000D01*
X149654736Y-111219672D01*
X149635229Y-111316000D01*
X149635229Y-111616000D01*
X149654736Y-111719672D01*
X149635229Y-111816000D01*
X149635229Y-112116000D01*
X149656482Y-112228952D01*
X149723237Y-112332692D01*
X149825093Y-112402287D01*
X149946000Y-112426771D01*
X150746000Y-112426771D01*
X150858952Y-112405518D01*
X150962692Y-112338763D01*
X151032287Y-112236907D01*
X151056771Y-112116000D01*
X151056771Y-111816000D01*
X151037264Y-111712328D01*
X151056771Y-111616000D01*
X151056771Y-111316000D01*
X151435229Y-111316000D01*
X151435229Y-111616000D01*
X151454736Y-111719672D01*
X151435229Y-111816000D01*
X151435229Y-112116000D01*
X151456482Y-112228952D01*
X151523237Y-112332692D01*
X151625093Y-112402287D01*
X151746000Y-112426771D01*
X152546000Y-112426771D01*
X152658952Y-112405518D01*
X152762692Y-112338763D01*
X152832287Y-112236907D01*
X152856771Y-112116000D01*
X152856771Y-111816000D01*
X152842772Y-111741600D01*
X153246200Y-111741600D01*
X153246200Y-112327628D01*
X153292603Y-112439655D01*
X153378344Y-112525397D01*
X153490371Y-112571800D01*
X154076400Y-112571800D01*
X154152600Y-112495600D01*
X154152600Y-111665400D01*
X154457400Y-111665400D01*
X154457400Y-112495600D01*
X154533600Y-112571800D01*
X155119629Y-112571800D01*
X155231656Y-112525397D01*
X155317397Y-112439655D01*
X155363800Y-112327628D01*
X155363800Y-111741600D01*
X155287600Y-111665400D01*
X154457400Y-111665400D01*
X154152600Y-111665400D01*
X153322400Y-111665400D01*
X153246200Y-111741600D01*
X152842772Y-111741600D01*
X152837264Y-111712328D01*
X152856771Y-111616000D01*
X152856771Y-111316000D01*
X152836873Y-111210251D01*
X152850800Y-111176629D01*
X152850800Y-111117200D01*
X152774600Y-111041000D01*
X152683426Y-111041000D01*
X152666907Y-111029713D01*
X152546000Y-111005229D01*
X151746000Y-111005229D01*
X151633048Y-111026482D01*
X151610486Y-111041000D01*
X151517400Y-111041000D01*
X151441200Y-111117200D01*
X151441200Y-111176629D01*
X151456145Y-111212710D01*
X151435229Y-111316000D01*
X151056771Y-111316000D01*
X151037264Y-111212328D01*
X151056771Y-111116000D01*
X151056771Y-110816000D01*
X151037264Y-110712328D01*
X151056771Y-110616000D01*
X151056771Y-110316000D01*
X151037264Y-110212328D01*
X151056771Y-110116000D01*
X151056771Y-109816000D01*
X151037264Y-109712328D01*
X151056771Y-109616000D01*
X151056771Y-109554707D01*
X151255432Y-109753368D01*
X151387277Y-109841465D01*
X151435229Y-109851003D01*
X151435229Y-110116000D01*
X151454736Y-110219672D01*
X151435229Y-110316000D01*
X151435229Y-110616000D01*
X151455127Y-110721749D01*
X151441200Y-110755371D01*
X151441200Y-110814800D01*
X151517400Y-110891000D01*
X151608574Y-110891000D01*
X151625093Y-110902287D01*
X151746000Y-110926771D01*
X152546000Y-110926771D01*
X152658952Y-110905518D01*
X152681514Y-110891000D01*
X152774600Y-110891000D01*
X152850800Y-110814800D01*
X152850800Y-110755371D01*
X152835855Y-110719290D01*
X152840090Y-110698372D01*
X153246200Y-110698372D01*
X153246200Y-111284400D01*
X153322400Y-111360600D01*
X154152600Y-111360600D01*
X154152600Y-110530400D01*
X154457400Y-110530400D01*
X154457400Y-111360600D01*
X155287600Y-111360600D01*
X155363800Y-111284400D01*
X155363800Y-110698372D01*
X155317397Y-110586345D01*
X155231656Y-110500603D01*
X155119629Y-110454200D01*
X154533600Y-110454200D01*
X154457400Y-110530400D01*
X154152600Y-110530400D01*
X154076400Y-110454200D01*
X153490371Y-110454200D01*
X153378344Y-110500603D01*
X153292603Y-110586345D01*
X153246200Y-110698372D01*
X152840090Y-110698372D01*
X152856771Y-110616000D01*
X152856771Y-110316000D01*
X152837264Y-110212328D01*
X152856771Y-110116000D01*
X152856771Y-109816000D01*
X152837264Y-109712328D01*
X152856771Y-109616000D01*
X152856771Y-109316000D01*
X152836873Y-109210251D01*
X152850800Y-109176629D01*
X152850800Y-109117200D01*
X152774600Y-109041000D01*
X152683426Y-109041000D01*
X152666907Y-109029713D01*
X152546000Y-109005229D01*
X151973600Y-109005229D01*
X151973600Y-108926771D01*
X152546000Y-108926771D01*
X152658952Y-108905518D01*
X152681514Y-108891000D01*
X152774600Y-108891000D01*
X152793200Y-108872400D01*
X153246322Y-108872400D01*
X153246017Y-109222684D01*
X153406870Y-109611978D01*
X153704455Y-109910083D01*
X154093468Y-110071616D01*
X154514684Y-110071983D01*
X154903978Y-109911130D01*
X155202083Y-109613545D01*
X155363616Y-109224532D01*
X155363812Y-108999577D01*
X155363812Y-118584612D01*
X155415178Y-118842843D01*
X155425683Y-118895657D01*
X155601876Y-119159348D01*
X157552265Y-121109738D01*
X157552268Y-121109740D01*
X157822117Y-121379589D01*
X157822017Y-121493892D01*
X157982262Y-121881716D01*
X158278724Y-122178695D01*
X158450927Y-122250200D01*
X155373173Y-122250200D01*
X154988800Y-121865828D01*
X154988800Y-117930769D01*
X155107615Y-117644631D01*
X155107985Y-117220231D01*
X154945916Y-116827996D01*
X154736800Y-116618514D01*
X154736800Y-115939620D01*
X154737287Y-115938907D01*
X154761771Y-115818000D01*
X154761771Y-115068000D01*
X154740518Y-114955048D01*
X154673763Y-114851308D01*
X154571907Y-114781713D01*
X154451000Y-114757229D01*
X154051146Y-114757229D01*
X154051000Y-114757200D01*
X154050854Y-114757229D01*
X153651000Y-114757229D01*
X153538048Y-114778482D01*
X153434308Y-114845237D01*
X153364713Y-114947093D01*
X153340229Y-115068000D01*
X153340229Y-115818000D01*
X153361482Y-115930952D01*
X153365200Y-115936730D01*
X153365200Y-116598754D01*
X153137138Y-116826417D01*
X152974385Y-117218369D01*
X152974015Y-117642769D01*
X153136084Y-118035004D01*
X153363200Y-118262518D01*
X153363200Y-122202500D01*
X153414692Y-122461368D01*
X153425071Y-122513545D01*
X153601264Y-122777236D01*
X154461764Y-123637737D01*
X154553750Y-123699200D01*
X132967800Y-123699200D01*
X132967800Y-121023000D01*
X139574229Y-121023000D01*
X139574229Y-121523000D01*
X139595482Y-121635952D01*
X139662237Y-121739692D01*
X139764093Y-121809287D01*
X139885000Y-121833771D01*
X140182035Y-121833771D01*
X140492226Y-122143962D01*
X140492095Y-122293774D01*
X140583976Y-122516144D01*
X140669328Y-122601645D01*
X140608437Y-122662430D01*
X140516168Y-122884639D01*
X140515958Y-123125243D01*
X140607839Y-123347613D01*
X140777824Y-123517895D01*
X141000033Y-123610164D01*
X141240637Y-123610374D01*
X141463007Y-123518493D01*
X141633289Y-123348508D01*
X141725558Y-123126299D01*
X141725690Y-122975378D01*
X142273368Y-122427700D01*
X142279781Y-122418102D01*
X142361465Y-122295855D01*
X142392400Y-122140332D01*
X142392400Y-121845771D01*
X142436000Y-121845771D01*
X142548952Y-121824518D01*
X142652692Y-121757763D01*
X142722287Y-121655907D01*
X142746771Y-121535000D01*
X142746771Y-121035000D01*
X142725518Y-120922048D01*
X142658763Y-120818308D01*
X142556907Y-120748713D01*
X142436000Y-120724229D01*
X141536000Y-120724229D01*
X141423048Y-120745482D01*
X141319308Y-120812237D01*
X141249713Y-120914093D01*
X141225229Y-121035000D01*
X141225229Y-121535000D01*
X141232858Y-121575545D01*
X141217830Y-121569305D01*
X141086417Y-121569190D01*
X141095771Y-121523000D01*
X141095771Y-121023000D01*
X141074518Y-120910048D01*
X141007763Y-120806308D01*
X140905907Y-120736713D01*
X140785000Y-120712229D01*
X139885000Y-120712229D01*
X139772048Y-120733482D01*
X139668308Y-120800237D01*
X139598713Y-120902093D01*
X139574229Y-121023000D01*
X132967800Y-121023000D01*
X132967800Y-119523000D01*
X139574229Y-119523000D01*
X139574229Y-120023000D01*
X139595482Y-120135952D01*
X139662237Y-120239692D01*
X139764093Y-120309287D01*
X139885000Y-120333771D01*
X140785000Y-120333771D01*
X140897952Y-120312518D01*
X141001692Y-120245763D01*
X141071287Y-120143907D01*
X141095771Y-120023000D01*
X141095771Y-119535000D01*
X141225229Y-119535000D01*
X141225229Y-120035000D01*
X141246482Y-120147952D01*
X141313237Y-120251692D01*
X141415093Y-120321287D01*
X141536000Y-120345771D01*
X142436000Y-120345771D01*
X142548952Y-120324518D01*
X142652692Y-120257763D01*
X142722287Y-120155907D01*
X142746771Y-120035000D01*
X142746771Y-119535000D01*
X142725518Y-119422048D01*
X142658763Y-119318308D01*
X142556907Y-119248713D01*
X142436000Y-119224229D01*
X142265400Y-119224229D01*
X142265400Y-118177880D01*
X142371426Y-118072039D01*
X142463695Y-117849830D01*
X142463905Y-117609226D01*
X142372024Y-117386856D01*
X142202039Y-117216574D01*
X141979830Y-117124305D01*
X141739226Y-117124095D01*
X141516856Y-117215976D01*
X141346574Y-117385961D01*
X141254305Y-117608170D01*
X141254095Y-117848774D01*
X141345976Y-118071144D01*
X141452600Y-118177954D01*
X141452600Y-119239922D01*
X141423048Y-119245482D01*
X141319308Y-119312237D01*
X141249713Y-119414093D01*
X141225229Y-119535000D01*
X141095771Y-119535000D01*
X141095771Y-119523000D01*
X141074518Y-119410048D01*
X141007763Y-119306308D01*
X140905907Y-119236713D01*
X140785000Y-119212229D01*
X140614400Y-119212229D01*
X140614400Y-118177880D01*
X140720426Y-118072039D01*
X140812695Y-117849830D01*
X140812905Y-117609226D01*
X140721024Y-117386856D01*
X140551039Y-117216574D01*
X140328830Y-117124305D01*
X140088226Y-117124095D01*
X139865856Y-117215976D01*
X139695574Y-117385961D01*
X139603305Y-117608170D01*
X139603095Y-117848774D01*
X139694976Y-118071144D01*
X139801600Y-118177954D01*
X139801600Y-119227922D01*
X139772048Y-119233482D01*
X139668308Y-119300237D01*
X139598713Y-119402093D01*
X139574229Y-119523000D01*
X132967800Y-119523000D01*
X132967800Y-116974576D01*
X133120280Y-117741143D01*
X133561559Y-118401564D01*
X134221980Y-118842843D01*
X135001000Y-118997800D01*
X135780020Y-118842843D01*
X136440441Y-118401564D01*
X136881720Y-117741143D01*
X137036677Y-116962123D01*
X136881720Y-116183103D01*
X136455087Y-115544600D01*
X139896200Y-115544600D01*
X139896200Y-115751629D01*
X139942603Y-115863656D01*
X140028345Y-115949397D01*
X140140372Y-115995800D01*
X140372400Y-115995800D01*
X140448600Y-115919600D01*
X140448600Y-115468400D01*
X140753400Y-115468400D01*
X140753400Y-115919600D01*
X140829600Y-115995800D01*
X141061628Y-115995800D01*
X141173655Y-115949397D01*
X141259397Y-115863656D01*
X141305800Y-115751629D01*
X141305800Y-115544600D01*
X141229600Y-115468400D01*
X140753400Y-115468400D01*
X140448600Y-115468400D01*
X139972400Y-115468400D01*
X139896200Y-115544600D01*
X136455087Y-115544600D01*
X136440441Y-115522682D01*
X135780020Y-115081403D01*
X135001000Y-114926446D01*
X134221980Y-115081403D01*
X133561559Y-115522682D01*
X133120280Y-116183103D01*
X132967800Y-116949670D01*
X132967800Y-92761995D01*
X133415375Y-92761995D01*
X133462377Y-93080304D01*
X133493762Y-93156071D01*
X133613094Y-93213380D01*
X134023474Y-92803000D01*
X133613094Y-92392620D01*
X133493762Y-92449929D01*
X133415375Y-92761995D01*
X132967800Y-92761995D01*
X132967800Y-67054800D01*
X142783025Y-67054800D01*
X142616574Y-67220961D01*
X142616574Y-67220961D01*
G37*
X142616574Y-67220961D02*
X142524305Y-67443170D01*
X142524162Y-67607477D01*
X142467713Y-67690093D01*
X142443229Y-67811000D01*
X142443229Y-68131508D01*
X141529969Y-69044769D01*
X141471600Y-68986400D01*
X140995400Y-68986400D01*
X140995400Y-69006400D01*
X140690600Y-69006400D01*
X140690600Y-68986400D01*
X140214400Y-68986400D01*
X140138200Y-69062600D01*
X140138200Y-69107401D01*
X140053771Y-69107401D01*
X140053771Y-68459000D01*
X140042364Y-68398371D01*
X140138200Y-68398371D01*
X140138200Y-68605400D01*
X140214400Y-68681600D01*
X140690600Y-68681600D01*
X140690600Y-68230400D01*
X140995400Y-68230400D01*
X140995400Y-68681600D01*
X141471600Y-68681600D01*
X141547800Y-68605400D01*
X141547800Y-68398371D01*
X141501397Y-68286344D01*
X141415655Y-68200603D01*
X141303628Y-68154200D01*
X141071600Y-68154200D01*
X140995400Y-68230400D01*
X140690600Y-68230400D01*
X140614400Y-68154200D01*
X140382372Y-68154200D01*
X140270345Y-68200603D01*
X140184603Y-68286344D01*
X140138200Y-68398371D01*
X140042364Y-68398371D01*
X140032518Y-68346048D01*
X139965763Y-68242308D01*
X139863907Y-68172713D01*
X139743000Y-68148229D01*
X138943000Y-68148229D01*
X138830048Y-68169482D01*
X138780085Y-68201632D01*
X138773039Y-68194574D01*
X138550830Y-68102305D01*
X138310226Y-68102095D01*
X138087856Y-68193976D01*
X137917574Y-68363961D01*
X137825305Y-68586170D01*
X137825095Y-68826774D01*
X137916976Y-69049144D01*
X138070555Y-69202991D01*
X137968668Y-69271070D01*
X133843869Y-73395869D01*
X133722736Y-73577156D01*
X133680200Y-73791000D01*
X133680200Y-73998540D01*
X133622048Y-74009482D01*
X133518308Y-74076237D01*
X133448713Y-74178093D01*
X133424229Y-74299000D01*
X133424229Y-75307000D01*
X133445482Y-75419952D01*
X133512237Y-75523692D01*
X133614093Y-75593287D01*
X133735000Y-75617771D01*
X134743000Y-75617771D01*
X134855952Y-75596518D01*
X134959692Y-75529763D01*
X135029287Y-75427907D01*
X135042674Y-75361800D01*
X135658538Y-75361800D01*
X136653939Y-76357201D01*
X136532226Y-76357095D01*
X136309856Y-76448976D01*
X136139574Y-76618961D01*
X136047305Y-76841170D01*
X136047095Y-77081774D01*
X136138976Y-77304144D01*
X136241183Y-77406529D01*
X136139574Y-77507961D01*
X136047305Y-77730170D01*
X136047173Y-77881091D01*
X135905423Y-78022841D01*
X135884465Y-77917477D01*
X135796368Y-77785632D01*
X135026435Y-77015699D01*
X135047659Y-76964586D01*
X135047940Y-76642826D01*
X134925067Y-76345450D01*
X134697746Y-76117733D01*
X134400586Y-75994341D01*
X134078826Y-75994060D01*
X133781450Y-76116933D01*
X133553733Y-76344254D01*
X133430341Y-76641414D01*
X133430060Y-76963174D01*
X133552933Y-77260550D01*
X133780254Y-77488267D01*
X134077414Y-77611659D01*
X134399174Y-77611940D01*
X134451559Y-77590295D01*
X135102600Y-78241336D01*
X135102600Y-79100864D01*
X135026435Y-79024699D01*
X135047659Y-78973586D01*
X135047940Y-78651826D01*
X134925067Y-78354450D01*
X134697746Y-78126733D01*
X134400586Y-78003341D01*
X134078826Y-78003060D01*
X133781450Y-78125933D01*
X133553733Y-78353254D01*
X133430341Y-78650414D01*
X133430060Y-78972174D01*
X133552933Y-79269550D01*
X133780254Y-79497267D01*
X134077414Y-79620659D01*
X134399174Y-79620940D01*
X134451559Y-79599295D01*
X134661212Y-79808948D01*
X134661212Y-80111563D01*
X134400586Y-80003341D01*
X134078826Y-80003060D01*
X133781450Y-80125933D01*
X133553733Y-80353254D01*
X133430341Y-80650414D01*
X133430060Y-80972174D01*
X133552933Y-81269550D01*
X133780254Y-81497267D01*
X134077414Y-81620659D01*
X134399174Y-81620940D01*
X134661212Y-81512668D01*
X134661212Y-82111563D01*
X134400586Y-82003341D01*
X134078826Y-82003060D01*
X133781450Y-82125933D01*
X133553733Y-82353254D01*
X133430341Y-82650414D01*
X133430060Y-82972174D01*
X133552933Y-83269550D01*
X133780254Y-83497267D01*
X134077414Y-83620659D01*
X134399174Y-83620940D01*
X134661212Y-83512668D01*
X134661212Y-84111563D01*
X134400586Y-84003341D01*
X134078826Y-84003060D01*
X133781450Y-84125933D01*
X133553733Y-84353254D01*
X133430341Y-84650414D01*
X133430060Y-84972174D01*
X133552933Y-85269550D01*
X133780254Y-85497267D01*
X134077414Y-85620659D01*
X134399174Y-85620940D01*
X134661212Y-85512668D01*
X134661212Y-86111563D01*
X134400586Y-86003341D01*
X134078826Y-86003060D01*
X133781450Y-86125933D01*
X133553733Y-86353254D01*
X133430341Y-86650414D01*
X133430060Y-86972174D01*
X133552933Y-87269550D01*
X133780254Y-87497267D01*
X134077414Y-87620659D01*
X134399174Y-87620940D01*
X134661212Y-87512668D01*
X134661212Y-88111563D01*
X134400586Y-88003341D01*
X134078826Y-88003060D01*
X133781450Y-88125933D01*
X133553733Y-88353254D01*
X133430341Y-88650414D01*
X133430060Y-88972174D01*
X133552933Y-89269550D01*
X133780254Y-89497267D01*
X134077414Y-89620659D01*
X134399174Y-89620940D01*
X134661212Y-89512668D01*
X134661212Y-90102563D01*
X134400586Y-89994341D01*
X134078826Y-89994060D01*
X133781450Y-90116933D01*
X133553733Y-90344254D01*
X133430341Y-90641414D01*
X133430060Y-90963174D01*
X133552933Y-91260550D01*
X133780254Y-91488267D01*
X134077414Y-91611659D01*
X134399174Y-91611940D01*
X134661212Y-91503668D01*
X134661212Y-92165259D01*
X134649379Y-92177092D01*
X134592071Y-92057762D01*
X134280005Y-91979375D01*
X133961696Y-92026377D01*
X133885929Y-92057762D01*
X133828620Y-92177094D01*
X134239000Y-92587474D01*
X134253143Y-92573332D01*
X134468669Y-92788858D01*
X134454526Y-92803000D01*
X134468669Y-92817143D01*
X134253143Y-93032669D01*
X134239000Y-93018526D01*
X133828620Y-93428906D01*
X133885929Y-93548238D01*
X134197995Y-93626625D01*
X134516304Y-93579623D01*
X134592071Y-93548238D01*
X134649379Y-93428908D01*
X134661212Y-93440741D01*
X134661212Y-102805516D01*
X134583640Y-102773305D01*
X134343036Y-102773095D01*
X134120666Y-102864976D01*
X133950384Y-103034961D01*
X133858115Y-103257170D01*
X133857905Y-103497774D01*
X133949786Y-103720144D01*
X134056410Y-103826954D01*
X134056410Y-107938854D01*
X133951632Y-108043632D01*
X133863535Y-108175477D01*
X133832600Y-108331000D01*
X133832600Y-108839000D01*
X133863535Y-108994523D01*
X133927689Y-109090535D01*
X133951632Y-109126368D01*
X135602632Y-110777368D01*
X135734478Y-110865466D01*
X135890000Y-110896400D01*
X138364597Y-110896400D01*
X138332383Y-110973980D01*
X138332173Y-111214584D01*
X138399681Y-111377967D01*
X138390713Y-111391093D01*
X138366229Y-111512000D01*
X138366229Y-111729941D01*
X138265039Y-111628574D01*
X138042830Y-111536305D01*
X137802226Y-111536095D01*
X137579856Y-111627976D01*
X137409574Y-111797961D01*
X137317305Y-112020170D01*
X137317095Y-112260774D01*
X137408976Y-112483144D01*
X137515600Y-112589954D01*
X137515600Y-113919000D01*
X137546535Y-114074523D01*
X137586373Y-114134144D01*
X137634632Y-114206368D01*
X138351831Y-114923568D01*
X138483677Y-115011665D01*
X138639199Y-115042599D01*
X139896200Y-115042599D01*
X139896200Y-115087400D01*
X139972400Y-115163600D01*
X140448600Y-115163600D01*
X140448600Y-115143600D01*
X140753400Y-115143600D01*
X140753400Y-115163600D01*
X141229600Y-115163600D01*
X141305800Y-115087400D01*
X141305800Y-115042599D01*
X141390229Y-115042599D01*
X141390229Y-115691000D01*
X141411482Y-115803952D01*
X141478237Y-115907692D01*
X141580093Y-115977287D01*
X141701000Y-116001771D01*
X142501000Y-116001771D01*
X142613952Y-115980518D01*
X142717692Y-115913763D01*
X142787287Y-115811907D01*
X142811771Y-115691000D01*
X142811771Y-115468400D01*
X142934120Y-115468400D01*
X143039961Y-115574426D01*
X143262170Y-115666695D01*
X143502774Y-115666905D01*
X143725144Y-115575024D01*
X143895426Y-115405039D01*
X143987695Y-115182830D01*
X143987905Y-114942226D01*
X143896024Y-114719856D01*
X143726039Y-114549574D01*
X143503830Y-114457305D01*
X143352910Y-114457173D01*
X143292458Y-114396721D01*
X143502774Y-114396905D01*
X143675830Y-114325400D01*
X144881600Y-114325400D01*
X144881600Y-118576664D01*
X144746632Y-118711632D01*
X144658535Y-118843477D01*
X144627600Y-118999000D01*
X144627600Y-121932642D01*
X144658535Y-122088165D01*
X144715889Y-122174000D01*
X144746632Y-122220010D01*
X144987990Y-122461368D01*
X145119835Y-122549465D01*
X145275358Y-122580400D01*
X146871120Y-122580400D01*
X146976961Y-122686426D01*
X147088463Y-122732726D01*
X147224868Y-122869131D01*
X147406156Y-122990264D01*
X147619999Y-123032799D01*
X150096501Y-123032799D01*
X150310345Y-122990263D01*
X150491632Y-122869130D01*
X151271131Y-122089631D01*
X151333852Y-121995763D01*
X151392264Y-121908344D01*
X151434800Y-121694500D01*
X151434800Y-121476799D01*
X151438952Y-121476018D01*
X151542692Y-121409263D01*
X151612287Y-121307407D01*
X151636771Y-121186500D01*
X151636771Y-119986500D01*
X151615518Y-119873548D01*
X151548763Y-119769808D01*
X151446907Y-119700213D01*
X151326000Y-119675729D01*
X150426000Y-119675729D01*
X150313048Y-119696982D01*
X150209308Y-119763737D01*
X150139713Y-119865593D01*
X150115229Y-119986500D01*
X150115229Y-121186500D01*
X150136482Y-121299452D01*
X150203237Y-121403192D01*
X150305093Y-121472787D01*
X150307054Y-121473184D01*
X149865039Y-121915199D01*
X149694739Y-121915199D01*
X149709287Y-121893907D01*
X149733771Y-121773000D01*
X149733771Y-119273000D01*
X149712518Y-119160048D01*
X149645763Y-119056308D01*
X149543907Y-118986713D01*
X149529800Y-118983856D01*
X149529800Y-118334887D01*
X149574504Y-118316416D01*
X149644705Y-118246337D01*
X150901690Y-118246337D01*
X150991267Y-118392366D01*
X151397775Y-118514291D01*
X151819998Y-118471371D01*
X152010733Y-118392366D01*
X152100310Y-118246337D01*
X151501000Y-117647026D01*
X150901690Y-118246337D01*
X149644705Y-118246337D01*
X149874862Y-118016583D01*
X150037615Y-117624631D01*
X150037873Y-117328275D01*
X150418209Y-117328275D01*
X150461129Y-117750498D01*
X150540134Y-117941233D01*
X150686163Y-118030810D01*
X151285474Y-117431500D01*
X151716526Y-117431500D01*
X152315837Y-118030810D01*
X152461866Y-117941233D01*
X152583791Y-117534725D01*
X152540871Y-117112502D01*
X152461866Y-116921767D01*
X152315837Y-116832190D01*
X151716526Y-117431500D01*
X151285474Y-117431500D01*
X150686163Y-116832190D01*
X150540134Y-116921767D01*
X150418209Y-117328275D01*
X150037873Y-117328275D01*
X150037985Y-117200231D01*
X149875916Y-116807996D01*
X149684918Y-116616663D01*
X150901690Y-116616663D01*
X151501000Y-117215974D01*
X152100310Y-116616663D01*
X152010733Y-116470634D01*
X151604225Y-116348709D01*
X151182002Y-116391629D01*
X150991267Y-116470634D01*
X150901690Y-116616663D01*
X149684918Y-116616663D01*
X149656800Y-116588496D01*
X149656800Y-115939620D01*
X149657287Y-115938907D01*
X149681771Y-115818000D01*
X149681771Y-115671600D01*
X149766200Y-115671600D01*
X149766200Y-115878629D01*
X149812603Y-115990656D01*
X149898345Y-116076397D01*
X150010372Y-116122800D01*
X150242400Y-116122800D01*
X150318600Y-116046600D01*
X150318600Y-115595400D01*
X150623400Y-115595400D01*
X150623400Y-116046600D01*
X150699600Y-116122800D01*
X150931628Y-116122800D01*
X151043655Y-116076397D01*
X151129397Y-115990656D01*
X151175800Y-115878629D01*
X151175800Y-115671600D01*
X151846200Y-115671600D01*
X151846200Y-115878629D01*
X151892603Y-115990656D01*
X151978345Y-116076397D01*
X152090372Y-116122800D01*
X152322400Y-116122800D01*
X152398600Y-116046600D01*
X152398600Y-115595400D01*
X152703400Y-115595400D01*
X152703400Y-116046600D01*
X152779600Y-116122800D01*
X153011628Y-116122800D01*
X153123655Y-116076397D01*
X153209397Y-115990656D01*
X153255800Y-115878629D01*
X153255800Y-115671600D01*
X153179600Y-115595400D01*
X152703400Y-115595400D01*
X152398600Y-115595400D01*
X151922400Y-115595400D01*
X151846200Y-115671600D01*
X151175800Y-115671600D01*
X151099600Y-115595400D01*
X150623400Y-115595400D01*
X150318600Y-115595400D01*
X149842400Y-115595400D01*
X149766200Y-115671600D01*
X149681771Y-115671600D01*
X149681771Y-115068000D01*
X149670364Y-115007371D01*
X149766200Y-115007371D01*
X149766200Y-115214400D01*
X149842400Y-115290600D01*
X150318600Y-115290600D01*
X150318600Y-114839400D01*
X150623400Y-114839400D01*
X150623400Y-115290600D01*
X151099600Y-115290600D01*
X151175800Y-115214400D01*
X151175800Y-115007371D01*
X151846200Y-115007371D01*
X151846200Y-115214400D01*
X151922400Y-115290600D01*
X152398600Y-115290600D01*
X152398600Y-114839400D01*
X152703400Y-114839400D01*
X152703400Y-115290600D01*
X153179600Y-115290600D01*
X153255800Y-115214400D01*
X153255800Y-115007371D01*
X153209397Y-114895344D01*
X153123655Y-114809603D01*
X153011628Y-114763200D01*
X152779600Y-114763200D01*
X152703400Y-114839400D01*
X152398600Y-114839400D01*
X152322400Y-114763200D01*
X152090372Y-114763200D01*
X151978345Y-114809603D01*
X151892603Y-114895344D01*
X151846200Y-115007371D01*
X151175800Y-115007371D01*
X151129397Y-114895344D01*
X151043655Y-114809603D01*
X150931628Y-114763200D01*
X150699600Y-114763200D01*
X150623400Y-114839400D01*
X150318600Y-114839400D01*
X150242400Y-114763200D01*
X150010372Y-114763200D01*
X149898345Y-114809603D01*
X149812603Y-114895344D01*
X149766200Y-115007371D01*
X149670364Y-115007371D01*
X149660518Y-114955048D01*
X149593763Y-114851308D01*
X149491907Y-114781713D01*
X149371000Y-114757229D01*
X148971146Y-114757229D01*
X148971000Y-114757200D01*
X148970854Y-114757229D01*
X148571000Y-114757229D01*
X148458048Y-114778482D01*
X148354308Y-114845237D01*
X148284713Y-114947093D01*
X148260229Y-115068000D01*
X148260229Y-115818000D01*
X148281482Y-115930952D01*
X148285200Y-115936730D01*
X148285200Y-116588736D01*
X148067138Y-116806417D01*
X147904385Y-117198369D01*
X147904015Y-117622769D01*
X148066084Y-118015004D01*
X148365917Y-118315362D01*
X148412200Y-118334580D01*
X148412200Y-118964261D01*
X148310048Y-118983482D01*
X148206308Y-119050237D01*
X148136713Y-119152093D01*
X148112229Y-119273000D01*
X148112229Y-121773000D01*
X148133482Y-121885952D01*
X148152302Y-121915199D01*
X147867460Y-121915199D01*
X147833024Y-121831856D01*
X147663039Y-121661574D01*
X147440830Y-121569305D01*
X147200226Y-121569095D01*
X146977856Y-121660976D01*
X146871046Y-121767600D01*
X146733771Y-121767600D01*
X146733771Y-119273000D01*
X146712518Y-119160048D01*
X146645763Y-119056308D01*
X146543907Y-118986713D01*
X146481800Y-118974136D01*
X146481800Y-112420038D01*
X146470825Y-112364862D01*
X146439265Y-112206195D01*
X146318132Y-112024907D01*
X144703726Y-110410502D01*
X144658024Y-110299894D01*
X144488039Y-110129612D01*
X144376536Y-110083312D01*
X143687800Y-109394576D01*
X143687800Y-108426547D01*
X148426320Y-103688027D01*
X148428691Y-103684479D01*
X148547453Y-103506740D01*
X148589989Y-103292896D01*
X148589989Y-96713725D01*
X149834600Y-97958336D01*
X149834600Y-102447664D01*
X149796433Y-102485831D01*
X149784137Y-102504233D01*
X149191632Y-103096738D01*
X149103535Y-103228583D01*
X149072600Y-103384106D01*
X149072600Y-106765664D01*
X148556632Y-107281632D01*
X148468535Y-107413477D01*
X148437600Y-107569000D01*
X148437600Y-108077000D01*
X148468535Y-108232523D01*
X148537693Y-108336024D01*
X148556632Y-108364368D01*
X148945600Y-108753337D01*
X148945600Y-110109000D01*
X148976535Y-110264523D01*
X149023278Y-110334478D01*
X149064632Y-110396368D01*
X149421632Y-110753368D01*
X149553477Y-110841465D01*
X149635229Y-110857726D01*
X149635229Y-111116000D01*
X149654736Y-111219672D01*
X149635229Y-111316000D01*
X149635229Y-111616000D01*
X149654736Y-111719672D01*
X149635229Y-111816000D01*
X149635229Y-112116000D01*
X149656482Y-112228952D01*
X149723237Y-112332692D01*
X149825093Y-112402287D01*
X149946000Y-112426771D01*
X150746000Y-112426771D01*
X150858952Y-112405518D01*
X150962692Y-112338763D01*
X151032287Y-112236907D01*
X151056771Y-112116000D01*
X151056771Y-111816000D01*
X151037264Y-111712328D01*
X151056771Y-111616000D01*
X151056771Y-111316000D01*
X151435229Y-111316000D01*
X151435229Y-111616000D01*
X151454736Y-111719672D01*
X151435229Y-111816000D01*
X151435229Y-112116000D01*
X151456482Y-112228952D01*
X151523237Y-112332692D01*
X151625093Y-112402287D01*
X151746000Y-112426771D01*
X152546000Y-112426771D01*
X152658952Y-112405518D01*
X152762692Y-112338763D01*
X152832287Y-112236907D01*
X152856771Y-112116000D01*
X152856771Y-111816000D01*
X152842772Y-111741600D01*
X153246200Y-111741600D01*
X153246200Y-112327628D01*
X153292603Y-112439655D01*
X153378344Y-112525397D01*
X153490371Y-112571800D01*
X154076400Y-112571800D01*
X154152600Y-112495600D01*
X154152600Y-111665400D01*
X154457400Y-111665400D01*
X154457400Y-112495600D01*
X154533600Y-112571800D01*
X155119629Y-112571800D01*
X155231656Y-112525397D01*
X155317397Y-112439655D01*
X155363800Y-112327628D01*
X155363800Y-111741600D01*
X155287600Y-111665400D01*
X154457400Y-111665400D01*
X154152600Y-111665400D01*
X153322400Y-111665400D01*
X153246200Y-111741600D01*
X152842772Y-111741600D01*
X152837264Y-111712328D01*
X152856771Y-111616000D01*
X152856771Y-111316000D01*
X152836873Y-111210251D01*
X152850800Y-111176629D01*
X152850800Y-111117200D01*
X152774600Y-111041000D01*
X152683426Y-111041000D01*
X152666907Y-111029713D01*
X152546000Y-111005229D01*
X151746000Y-111005229D01*
X151633048Y-111026482D01*
X151610486Y-111041000D01*
X151517400Y-111041000D01*
X151441200Y-111117200D01*
X151441200Y-111176629D01*
X151456145Y-111212710D01*
X151435229Y-111316000D01*
X151056771Y-111316000D01*
X151037264Y-111212328D01*
X151056771Y-111116000D01*
X151056771Y-110816000D01*
X151037264Y-110712328D01*
X151056771Y-110616000D01*
X151056771Y-110316000D01*
X151037264Y-110212328D01*
X151056771Y-110116000D01*
X151056771Y-109816000D01*
X151037264Y-109712328D01*
X151056771Y-109616000D01*
X151056771Y-109554707D01*
X151255432Y-109753368D01*
X151387277Y-109841465D01*
X151435229Y-109851003D01*
X151435229Y-110116000D01*
X151454736Y-110219672D01*
X151435229Y-110316000D01*
X151435229Y-110616000D01*
X151455127Y-110721749D01*
X151441200Y-110755371D01*
X151441200Y-110814800D01*
X151517400Y-110891000D01*
X151608574Y-110891000D01*
X151625093Y-110902287D01*
X151746000Y-110926771D01*
X152546000Y-110926771D01*
X152658952Y-110905518D01*
X152681514Y-110891000D01*
X152774600Y-110891000D01*
X152850800Y-110814800D01*
X152850800Y-110755371D01*
X152835855Y-110719290D01*
X152840090Y-110698372D01*
X153246200Y-110698372D01*
X153246200Y-111284400D01*
X153322400Y-111360600D01*
X154152600Y-111360600D01*
X154152600Y-110530400D01*
X154457400Y-110530400D01*
X154457400Y-111360600D01*
X155287600Y-111360600D01*
X155363800Y-111284400D01*
X155363800Y-110698372D01*
X155317397Y-110586345D01*
X155231656Y-110500603D01*
X155119629Y-110454200D01*
X154533600Y-110454200D01*
X154457400Y-110530400D01*
X154152600Y-110530400D01*
X154076400Y-110454200D01*
X153490371Y-110454200D01*
X153378344Y-110500603D01*
X153292603Y-110586345D01*
X153246200Y-110698372D01*
X152840090Y-110698372D01*
X152856771Y-110616000D01*
X152856771Y-110316000D01*
X152837264Y-110212328D01*
X152856771Y-110116000D01*
X152856771Y-109816000D01*
X152837264Y-109712328D01*
X152856771Y-109616000D01*
X152856771Y-109316000D01*
X152836873Y-109210251D01*
X152850800Y-109176629D01*
X152850800Y-109117200D01*
X152774600Y-109041000D01*
X152683426Y-109041000D01*
X152666907Y-109029713D01*
X152546000Y-109005229D01*
X151973600Y-109005229D01*
X151973600Y-108926771D01*
X152546000Y-108926771D01*
X152658952Y-108905518D01*
X152681514Y-108891000D01*
X152774600Y-108891000D01*
X152793200Y-108872400D01*
X153246322Y-108872400D01*
X153246017Y-109222684D01*
X153406870Y-109611978D01*
X153704455Y-109910083D01*
X154093468Y-110071616D01*
X154514684Y-110071983D01*
X154903978Y-109911130D01*
X155202083Y-109613545D01*
X155363616Y-109224532D01*
X155363812Y-108999577D01*
X155363812Y-118584612D01*
X155415178Y-118842843D01*
X155425683Y-118895657D01*
X155601876Y-119159348D01*
X157552265Y-121109738D01*
X157552268Y-121109740D01*
X157822117Y-121379589D01*
X157822017Y-121493892D01*
X157982262Y-121881716D01*
X158278724Y-122178695D01*
X158450927Y-122250200D01*
X155373173Y-122250200D01*
X154988800Y-121865828D01*
X154988800Y-117930769D01*
X155107615Y-117644631D01*
X155107985Y-117220231D01*
X154945916Y-116827996D01*
X154736800Y-116618514D01*
X154736800Y-115939620D01*
X154737287Y-115938907D01*
X154761771Y-115818000D01*
X154761771Y-115068000D01*
X154740518Y-114955048D01*
X154673763Y-114851308D01*
X154571907Y-114781713D01*
X154451000Y-114757229D01*
X154051146Y-114757229D01*
X154051000Y-114757200D01*
X154050854Y-114757229D01*
X153651000Y-114757229D01*
X153538048Y-114778482D01*
X153434308Y-114845237D01*
X153364713Y-114947093D01*
X153340229Y-115068000D01*
X153340229Y-115818000D01*
X153361482Y-115930952D01*
X153365200Y-115936730D01*
X153365200Y-116598754D01*
X153137138Y-116826417D01*
X152974385Y-117218369D01*
X152974015Y-117642769D01*
X153136084Y-118035004D01*
X153363200Y-118262518D01*
X153363200Y-122202500D01*
X153414692Y-122461368D01*
X153425071Y-122513545D01*
X153601264Y-122777236D01*
X154461764Y-123637737D01*
X154553750Y-123699200D01*
X132967800Y-123699200D01*
X132967800Y-121023000D01*
X139574229Y-121023000D01*
X139574229Y-121523000D01*
X139595482Y-121635952D01*
X139662237Y-121739692D01*
X139764093Y-121809287D01*
X139885000Y-121833771D01*
X140182035Y-121833771D01*
X140492226Y-122143962D01*
X140492095Y-122293774D01*
X140583976Y-122516144D01*
X140669328Y-122601645D01*
X140608437Y-122662430D01*
X140516168Y-122884639D01*
X140515958Y-123125243D01*
X140607839Y-123347613D01*
X140777824Y-123517895D01*
X141000033Y-123610164D01*
X141240637Y-123610374D01*
X141463007Y-123518493D01*
X141633289Y-123348508D01*
X141725558Y-123126299D01*
X141725690Y-122975378D01*
X142273368Y-122427700D01*
X142279781Y-122418102D01*
X142361465Y-122295855D01*
X142392400Y-122140332D01*
X142392400Y-121845771D01*
X142436000Y-121845771D01*
X142548952Y-121824518D01*
X142652692Y-121757763D01*
X142722287Y-121655907D01*
X142746771Y-121535000D01*
X142746771Y-121035000D01*
X142725518Y-120922048D01*
X142658763Y-120818308D01*
X142556907Y-120748713D01*
X142436000Y-120724229D01*
X141536000Y-120724229D01*
X141423048Y-120745482D01*
X141319308Y-120812237D01*
X141249713Y-120914093D01*
X141225229Y-121035000D01*
X141225229Y-121535000D01*
X141232858Y-121575545D01*
X141217830Y-121569305D01*
X141086417Y-121569190D01*
X141095771Y-121523000D01*
X141095771Y-121023000D01*
X141074518Y-120910048D01*
X141007763Y-120806308D01*
X140905907Y-120736713D01*
X140785000Y-120712229D01*
X139885000Y-120712229D01*
X139772048Y-120733482D01*
X139668308Y-120800237D01*
X139598713Y-120902093D01*
X139574229Y-121023000D01*
X132967800Y-121023000D01*
X132967800Y-119523000D01*
X139574229Y-119523000D01*
X139574229Y-120023000D01*
X139595482Y-120135952D01*
X139662237Y-120239692D01*
X139764093Y-120309287D01*
X139885000Y-120333771D01*
X140785000Y-120333771D01*
X140897952Y-120312518D01*
X141001692Y-120245763D01*
X141071287Y-120143907D01*
X141095771Y-120023000D01*
X141095771Y-119535000D01*
X141225229Y-119535000D01*
X141225229Y-120035000D01*
X141246482Y-120147952D01*
X141313237Y-120251692D01*
X141415093Y-120321287D01*
X141536000Y-120345771D01*
X142436000Y-120345771D01*
X142548952Y-120324518D01*
X142652692Y-120257763D01*
X142722287Y-120155907D01*
X142746771Y-120035000D01*
X142746771Y-119535000D01*
X142725518Y-119422048D01*
X142658763Y-119318308D01*
X142556907Y-119248713D01*
X142436000Y-119224229D01*
X142265400Y-119224229D01*
X142265400Y-118177880D01*
X142371426Y-118072039D01*
X142463695Y-117849830D01*
X142463905Y-117609226D01*
X142372024Y-117386856D01*
X142202039Y-117216574D01*
X141979830Y-117124305D01*
X141739226Y-117124095D01*
X141516856Y-117215976D01*
X141346574Y-117385961D01*
X141254305Y-117608170D01*
X141254095Y-117848774D01*
X141345976Y-118071144D01*
X141452600Y-118177954D01*
X141452600Y-119239922D01*
X141423048Y-119245482D01*
X141319308Y-119312237D01*
X141249713Y-119414093D01*
X141225229Y-119535000D01*
X141095771Y-119535000D01*
X141095771Y-119523000D01*
X141074518Y-119410048D01*
X141007763Y-119306308D01*
X140905907Y-119236713D01*
X140785000Y-119212229D01*
X140614400Y-119212229D01*
X140614400Y-118177880D01*
X140720426Y-118072039D01*
X140812695Y-117849830D01*
X140812905Y-117609226D01*
X140721024Y-117386856D01*
X140551039Y-117216574D01*
X140328830Y-117124305D01*
X140088226Y-117124095D01*
X139865856Y-117215976D01*
X139695574Y-117385961D01*
X139603305Y-117608170D01*
X139603095Y-117848774D01*
X139694976Y-118071144D01*
X139801600Y-118177954D01*
X139801600Y-119227922D01*
X139772048Y-119233482D01*
X139668308Y-119300237D01*
X139598713Y-119402093D01*
X139574229Y-119523000D01*
X132967800Y-119523000D01*
X132967800Y-116974576D01*
X133120280Y-117741143D01*
X133561559Y-118401564D01*
X134221980Y-118842843D01*
X135001000Y-118997800D01*
X135780020Y-118842843D01*
X136440441Y-118401564D01*
X136881720Y-117741143D01*
X137036677Y-116962123D01*
X136881720Y-116183103D01*
X136455087Y-115544600D01*
X139896200Y-115544600D01*
X139896200Y-115751629D01*
X139942603Y-115863656D01*
X140028345Y-115949397D01*
X140140372Y-115995800D01*
X140372400Y-115995800D01*
X140448600Y-115919600D01*
X140448600Y-115468400D01*
X140753400Y-115468400D01*
X140753400Y-115919600D01*
X140829600Y-115995800D01*
X141061628Y-115995800D01*
X141173655Y-115949397D01*
X141259397Y-115863656D01*
X141305800Y-115751629D01*
X141305800Y-115544600D01*
X141229600Y-115468400D01*
X140753400Y-115468400D01*
X140448600Y-115468400D01*
X139972400Y-115468400D01*
X139896200Y-115544600D01*
X136455087Y-115544600D01*
X136440441Y-115522682D01*
X135780020Y-115081403D01*
X135001000Y-114926446D01*
X134221980Y-115081403D01*
X133561559Y-115522682D01*
X133120280Y-116183103D01*
X132967800Y-116949670D01*
X132967800Y-92761995D01*
X133415375Y-92761995D01*
X133462377Y-93080304D01*
X133493762Y-93156071D01*
X133613094Y-93213380D01*
X134023474Y-92803000D01*
X133613094Y-92392620D01*
X133493762Y-92449929D01*
X133415375Y-92761995D01*
X132967800Y-92761995D01*
X132967800Y-67054800D01*
X142783025Y-67054800D01*
X142616574Y-67220961D01*
G36*
X136549819Y-109423902D02*
X136681664Y-109511999D01*
X136806472Y-109536825D01*
X136918412Y-109648960D01*
X137140621Y-109741229D01*
X137381225Y-109741439D01*
X137603595Y-109649558D01*
X137773877Y-109479573D01*
X137852439Y-109290372D01*
X139326200Y-109290372D01*
X139326200Y-109399800D01*
X139402400Y-109476000D01*
X139928600Y-109476000D01*
X139928600Y-109122400D01*
X140233400Y-109122400D01*
X140233400Y-109476000D01*
X140759600Y-109476000D01*
X140835800Y-109399800D01*
X140835800Y-109290372D01*
X140789397Y-109178345D01*
X140703656Y-109092603D01*
X140591629Y-109046200D01*
X140309600Y-109046200D01*
X140233400Y-109122400D01*
X139928600Y-109122400D01*
X139852400Y-109046200D01*
X139570371Y-109046200D01*
X139458344Y-109092603D01*
X139372603Y-109178345D01*
X139326200Y-109290372D01*
X137852439Y-109290372D01*
X137866146Y-109257364D01*
X137866356Y-109016760D01*
X137866174Y-109016321D01*
X138010144Y-108956834D01*
X138180426Y-108786849D01*
X138272695Y-108564640D01*
X138272745Y-108507400D01*
X139369440Y-108507400D01*
X139408237Y-108567692D01*
X139510093Y-108637287D01*
X139631000Y-108661771D01*
X140531000Y-108661771D01*
X140643952Y-108640518D01*
X140677436Y-108618972D01*
X144881600Y-112823136D01*
X144881600Y-113512600D01*
X143921949Y-113512600D01*
X143896024Y-113449856D01*
X143726039Y-113279574D01*
X143503830Y-113187305D01*
X143263226Y-113187095D01*
X143040856Y-113278976D01*
X142870574Y-113448961D01*
X142844149Y-113512600D01*
X142805863Y-113512600D01*
X142790518Y-113431048D01*
X142723763Y-113327308D01*
X142621907Y-113257713D01*
X142501000Y-113233229D01*
X141701000Y-113233229D01*
X141588048Y-113254482D01*
X141484308Y-113321237D01*
X141414713Y-113423093D01*
X141390229Y-113544000D01*
X141390229Y-114229799D01*
X141305800Y-114229799D01*
X141305800Y-114147600D01*
X141229600Y-114071400D01*
X140753400Y-114071400D01*
X140753400Y-114091400D01*
X140448600Y-114091400D01*
X140448600Y-114071400D01*
X139972400Y-114071400D01*
X139896200Y-114147600D01*
X139896200Y-114229799D01*
X138807536Y-114229799D01*
X138328400Y-113750664D01*
X138328400Y-113483371D01*
X139896200Y-113483371D01*
X139896200Y-113690400D01*
X139972400Y-113766600D01*
X140448600Y-113766600D01*
X140448600Y-113315400D01*
X140753400Y-113315400D01*
X140753400Y-113766600D01*
X141229600Y-113766600D01*
X141305800Y-113690400D01*
X141305800Y-113483371D01*
X141259397Y-113371344D01*
X141173655Y-113285603D01*
X141061628Y-113239200D01*
X140829600Y-113239200D01*
X140753400Y-113315400D01*
X140448600Y-113315400D01*
X140372400Y-113239200D01*
X140140372Y-113239200D01*
X140028345Y-113285603D01*
X139942603Y-113371344D01*
X139896200Y-113483371D01*
X138328400Y-113483371D01*
X138328400Y-112589880D01*
X138434426Y-112484039D01*
X138443545Y-112462077D01*
X138454237Y-112478692D01*
X138556093Y-112548287D01*
X138677000Y-112572771D01*
X139477000Y-112572771D01*
X139589952Y-112551518D01*
X139693692Y-112484763D01*
X139763287Y-112382907D01*
X139787771Y-112262000D01*
X139787771Y-111512000D01*
X139766518Y-111399048D01*
X139699763Y-111295308D01*
X139597907Y-111225713D01*
X139541774Y-111214346D01*
X139541983Y-110975036D01*
X139509491Y-110896400D01*
X139589864Y-110896400D01*
X139973933Y-111280469D01*
X139960308Y-111289237D01*
X139890713Y-111391093D01*
X139866229Y-111512000D01*
X139866229Y-112262000D01*
X139887482Y-112374952D01*
X139954237Y-112478692D01*
X140056093Y-112548287D01*
X140177000Y-112572771D01*
X140977000Y-112572771D01*
X141089952Y-112551518D01*
X141193692Y-112484763D01*
X141263287Y-112382907D01*
X141287771Y-112262000D01*
X141287771Y-111512000D01*
X141266518Y-111399048D01*
X141199763Y-111295308D01*
X141097907Y-111225713D01*
X140977000Y-111201229D01*
X140962003Y-111201229D01*
X140952465Y-111153277D01*
X140864368Y-111021432D01*
X140045568Y-110202632D01*
X140019479Y-110185200D01*
X139913723Y-110114535D01*
X139896993Y-110111207D01*
X139928600Y-110079600D01*
X139928600Y-109726000D01*
X140233400Y-109726000D01*
X140233400Y-110079600D01*
X140309600Y-110155800D01*
X140591629Y-110155800D01*
X140703656Y-110109397D01*
X140789397Y-110023655D01*
X140835800Y-109911628D01*
X140835800Y-109802200D01*
X140759600Y-109726000D01*
X140233400Y-109726000D01*
X139928600Y-109726000D01*
X139402400Y-109726000D01*
X139326200Y-109802200D01*
X139326200Y-109911628D01*
X139372603Y-110023655D01*
X139432547Y-110083600D01*
X136058336Y-110083600D01*
X135181576Y-109206840D01*
X135299291Y-109158202D01*
X135469573Y-108988217D01*
X135561842Y-108766008D01*
X135562052Y-108525404D01*
X135499195Y-108373278D01*
X136549819Y-109423902D01*
X136549819Y-109423902D01*
G37*
X136549819Y-109423902D02*
X136681664Y-109511999D01*
X136806472Y-109536825D01*
X136918412Y-109648960D01*
X137140621Y-109741229D01*
X137381225Y-109741439D01*
X137603595Y-109649558D01*
X137773877Y-109479573D01*
X137852439Y-109290372D01*
X139326200Y-109290372D01*
X139326200Y-109399800D01*
X139402400Y-109476000D01*
X139928600Y-109476000D01*
X139928600Y-109122400D01*
X140233400Y-109122400D01*
X140233400Y-109476000D01*
X140759600Y-109476000D01*
X140835800Y-109399800D01*
X140835800Y-109290372D01*
X140789397Y-109178345D01*
X140703656Y-109092603D01*
X140591629Y-109046200D01*
X140309600Y-109046200D01*
X140233400Y-109122400D01*
X139928600Y-109122400D01*
X139852400Y-109046200D01*
X139570371Y-109046200D01*
X139458344Y-109092603D01*
X139372603Y-109178345D01*
X139326200Y-109290372D01*
X137852439Y-109290372D01*
X137866146Y-109257364D01*
X137866356Y-109016760D01*
X137866174Y-109016321D01*
X138010144Y-108956834D01*
X138180426Y-108786849D01*
X138272695Y-108564640D01*
X138272745Y-108507400D01*
X139369440Y-108507400D01*
X139408237Y-108567692D01*
X139510093Y-108637287D01*
X139631000Y-108661771D01*
X140531000Y-108661771D01*
X140643952Y-108640518D01*
X140677436Y-108618972D01*
X144881600Y-112823136D01*
X144881600Y-113512600D01*
X143921949Y-113512600D01*
X143896024Y-113449856D01*
X143726039Y-113279574D01*
X143503830Y-113187305D01*
X143263226Y-113187095D01*
X143040856Y-113278976D01*
X142870574Y-113448961D01*
X142844149Y-113512600D01*
X142805863Y-113512600D01*
X142790518Y-113431048D01*
X142723763Y-113327308D01*
X142621907Y-113257713D01*
X142501000Y-113233229D01*
X141701000Y-113233229D01*
X141588048Y-113254482D01*
X141484308Y-113321237D01*
X141414713Y-113423093D01*
X141390229Y-113544000D01*
X141390229Y-114229799D01*
X141305800Y-114229799D01*
X141305800Y-114147600D01*
X141229600Y-114071400D01*
X140753400Y-114071400D01*
X140753400Y-114091400D01*
X140448600Y-114091400D01*
X140448600Y-114071400D01*
X139972400Y-114071400D01*
X139896200Y-114147600D01*
X139896200Y-114229799D01*
X138807536Y-114229799D01*
X138328400Y-113750664D01*
X138328400Y-113483371D01*
X139896200Y-113483371D01*
X139896200Y-113690400D01*
X139972400Y-113766600D01*
X140448600Y-113766600D01*
X140448600Y-113315400D01*
X140753400Y-113315400D01*
X140753400Y-113766600D01*
X141229600Y-113766600D01*
X141305800Y-113690400D01*
X141305800Y-113483371D01*
X141259397Y-113371344D01*
X141173655Y-113285603D01*
X141061628Y-113239200D01*
X140829600Y-113239200D01*
X140753400Y-113315400D01*
X140448600Y-113315400D01*
X140372400Y-113239200D01*
X140140372Y-113239200D01*
X140028345Y-113285603D01*
X139942603Y-113371344D01*
X139896200Y-113483371D01*
X138328400Y-113483371D01*
X138328400Y-112589880D01*
X138434426Y-112484039D01*
X138443545Y-112462077D01*
X138454237Y-112478692D01*
X138556093Y-112548287D01*
X138677000Y-112572771D01*
X139477000Y-112572771D01*
X139589952Y-112551518D01*
X139693692Y-112484763D01*
X139763287Y-112382907D01*
X139787771Y-112262000D01*
X139787771Y-111512000D01*
X139766518Y-111399048D01*
X139699763Y-111295308D01*
X139597907Y-111225713D01*
X139541774Y-111214346D01*
X139541983Y-110975036D01*
X139509491Y-110896400D01*
X139589864Y-110896400D01*
X139973933Y-111280469D01*
X139960308Y-111289237D01*
X139890713Y-111391093D01*
X139866229Y-111512000D01*
X139866229Y-112262000D01*
X139887482Y-112374952D01*
X139954237Y-112478692D01*
X140056093Y-112548287D01*
X140177000Y-112572771D01*
X140977000Y-112572771D01*
X141089952Y-112551518D01*
X141193692Y-112484763D01*
X141263287Y-112382907D01*
X141287771Y-112262000D01*
X141287771Y-111512000D01*
X141266518Y-111399048D01*
X141199763Y-111295308D01*
X141097907Y-111225713D01*
X140977000Y-111201229D01*
X140962003Y-111201229D01*
X140952465Y-111153277D01*
X140864368Y-111021432D01*
X140045568Y-110202632D01*
X140019479Y-110185200D01*
X139913723Y-110114535D01*
X139896993Y-110111207D01*
X139928600Y-110079600D01*
X139928600Y-109726000D01*
X140233400Y-109726000D01*
X140233400Y-110079600D01*
X140309600Y-110155800D01*
X140591629Y-110155800D01*
X140703656Y-110109397D01*
X140789397Y-110023655D01*
X140835800Y-109911628D01*
X140835800Y-109802200D01*
X140759600Y-109726000D01*
X140233400Y-109726000D01*
X139928600Y-109726000D01*
X139402400Y-109726000D01*
X139326200Y-109802200D01*
X139326200Y-109911628D01*
X139372603Y-110023655D01*
X139432547Y-110083600D01*
X136058336Y-110083600D01*
X135181576Y-109206840D01*
X135299291Y-109158202D01*
X135469573Y-108988217D01*
X135561842Y-108766008D01*
X135562052Y-108525404D01*
X135499195Y-108373278D01*
X136549819Y-109423902D01*
G36*
X155363812Y-106302902D02*
X155203130Y-105914022D01*
X154905545Y-105615917D01*
X154516532Y-105454384D01*
X154095316Y-105454017D01*
X153706022Y-105614870D01*
X153407917Y-105912455D01*
X153246384Y-106301468D01*
X153246017Y-106722684D01*
X153326294Y-106916970D01*
X152837348Y-107405916D01*
X152856771Y-107310000D01*
X152856771Y-107010000D01*
X152837264Y-106906328D01*
X152856771Y-106810000D01*
X152856771Y-106510000D01*
X152836873Y-106404251D01*
X152850800Y-106370629D01*
X152850800Y-106311200D01*
X152774600Y-106235000D01*
X152683426Y-106235000D01*
X152666907Y-106223713D01*
X152546000Y-106199229D01*
X151746000Y-106199229D01*
X151633048Y-106220482D01*
X151610486Y-106235000D01*
X151517400Y-106235000D01*
X151441200Y-106311200D01*
X151441200Y-106370629D01*
X151456145Y-106406710D01*
X151435229Y-106510000D01*
X151435229Y-106810000D01*
X151454736Y-106913672D01*
X151435229Y-107010000D01*
X151435229Y-107310000D01*
X151456482Y-107422952D01*
X151459045Y-107426934D01*
X151355477Y-107447535D01*
X151223632Y-107535632D01*
X150969632Y-107789632D01*
X150881535Y-107921477D01*
X150860273Y-108028370D01*
X150746000Y-108005229D01*
X150731003Y-108005229D01*
X150721465Y-107957277D01*
X150633368Y-107825432D01*
X150428707Y-107620771D01*
X150746000Y-107620771D01*
X150858952Y-107599518D01*
X150962692Y-107532763D01*
X151032287Y-107430907D01*
X151056771Y-107310000D01*
X151056771Y-107010000D01*
X151037264Y-106906328D01*
X151056771Y-106810000D01*
X151056771Y-106510000D01*
X151037264Y-106406328D01*
X151056771Y-106310000D01*
X151056771Y-106056500D01*
X151162523Y-106035465D01*
X151294368Y-105947368D01*
X151435229Y-105806507D01*
X151435229Y-105810000D01*
X151455127Y-105915749D01*
X151441200Y-105949371D01*
X151441200Y-106008800D01*
X151517400Y-106085000D01*
X151608574Y-106085000D01*
X151625093Y-106096287D01*
X151746000Y-106120771D01*
X152546000Y-106120771D01*
X152658952Y-106099518D01*
X152681514Y-106085000D01*
X152774600Y-106085000D01*
X152850800Y-106008800D01*
X152850800Y-105949371D01*
X152835855Y-105913290D01*
X152856771Y-105810000D01*
X152856771Y-105510000D01*
X152837264Y-105406328D01*
X152856771Y-105310000D01*
X152856771Y-105010000D01*
X152837264Y-104906328D01*
X152856771Y-104810000D01*
X152856771Y-104510000D01*
X152837264Y-104406328D01*
X152856771Y-104310000D01*
X152856771Y-104066400D01*
X153246153Y-104066400D01*
X153246017Y-104222684D01*
X153406870Y-104611978D01*
X153704455Y-104910083D01*
X154093468Y-105071616D01*
X154514684Y-105071983D01*
X154903978Y-104911130D01*
X155202083Y-104613545D01*
X155363616Y-104224532D01*
X155363812Y-103999577D01*
X155363812Y-106302902D01*
X155363812Y-106302902D01*
G37*
X155363812Y-106302902D02*
X155203130Y-105914022D01*
X154905545Y-105615917D01*
X154516532Y-105454384D01*
X154095316Y-105454017D01*
X153706022Y-105614870D01*
X153407917Y-105912455D01*
X153246384Y-106301468D01*
X153246017Y-106722684D01*
X153326294Y-106916970D01*
X152837348Y-107405916D01*
X152856771Y-107310000D01*
X152856771Y-107010000D01*
X152837264Y-106906328D01*
X152856771Y-106810000D01*
X152856771Y-106510000D01*
X152836873Y-106404251D01*
X152850800Y-106370629D01*
X152850800Y-106311200D01*
X152774600Y-106235000D01*
X152683426Y-106235000D01*
X152666907Y-106223713D01*
X152546000Y-106199229D01*
X151746000Y-106199229D01*
X151633048Y-106220482D01*
X151610486Y-106235000D01*
X151517400Y-106235000D01*
X151441200Y-106311200D01*
X151441200Y-106370629D01*
X151456145Y-106406710D01*
X151435229Y-106510000D01*
X151435229Y-106810000D01*
X151454736Y-106913672D01*
X151435229Y-107010000D01*
X151435229Y-107310000D01*
X151456482Y-107422952D01*
X151459045Y-107426934D01*
X151355477Y-107447535D01*
X151223632Y-107535632D01*
X150969632Y-107789632D01*
X150881535Y-107921477D01*
X150860273Y-108028370D01*
X150746000Y-108005229D01*
X150731003Y-108005229D01*
X150721465Y-107957277D01*
X150633368Y-107825432D01*
X150428707Y-107620771D01*
X150746000Y-107620771D01*
X150858952Y-107599518D01*
X150962692Y-107532763D01*
X151032287Y-107430907D01*
X151056771Y-107310000D01*
X151056771Y-107010000D01*
X151037264Y-106906328D01*
X151056771Y-106810000D01*
X151056771Y-106510000D01*
X151037264Y-106406328D01*
X151056771Y-106310000D01*
X151056771Y-106056500D01*
X151162523Y-106035465D01*
X151294368Y-105947368D01*
X151435229Y-105806507D01*
X151435229Y-105810000D01*
X151455127Y-105915749D01*
X151441200Y-105949371D01*
X151441200Y-106008800D01*
X151517400Y-106085000D01*
X151608574Y-106085000D01*
X151625093Y-106096287D01*
X151746000Y-106120771D01*
X152546000Y-106120771D01*
X152658952Y-106099518D01*
X152681514Y-106085000D01*
X152774600Y-106085000D01*
X152850800Y-106008800D01*
X152850800Y-105949371D01*
X152835855Y-105913290D01*
X152856771Y-105810000D01*
X152856771Y-105510000D01*
X152837264Y-105406328D01*
X152856771Y-105310000D01*
X152856771Y-105010000D01*
X152837264Y-104906328D01*
X152856771Y-104810000D01*
X152856771Y-104510000D01*
X152837264Y-104406328D01*
X152856771Y-104310000D01*
X152856771Y-104066400D01*
X153246153Y-104066400D01*
X153246017Y-104222684D01*
X153406870Y-104611978D01*
X153704455Y-104910083D01*
X154093468Y-105071616D01*
X154514684Y-105071983D01*
X154903978Y-104911130D01*
X155202083Y-104613545D01*
X155363616Y-104224532D01*
X155363812Y-103999577D01*
X155363812Y-106302902D01*
G36*
X137622131Y-81119632D02*
X137653869Y-81167131D01*
X138441387Y-81954650D01*
X138622675Y-82075783D01*
X138836518Y-82118318D01*
X142778792Y-82118318D01*
X142889320Y-82164213D01*
X143129924Y-82164423D01*
X143241507Y-82118318D01*
X143385962Y-82118318D01*
X143385962Y-82177636D01*
X143279936Y-82283477D01*
X143187667Y-82505686D01*
X143187457Y-82746290D01*
X143279338Y-82968660D01*
X143449323Y-83138942D01*
X143671532Y-83231211D01*
X143912136Y-83231421D01*
X144134506Y-83139540D01*
X144304788Y-82969555D01*
X144397057Y-82747346D01*
X144397267Y-82506742D01*
X144305386Y-82284372D01*
X144240927Y-82219800D01*
X146080733Y-82219800D01*
X146016631Y-82262632D01*
X145508632Y-82770632D01*
X145420535Y-82902477D01*
X145389600Y-83058000D01*
X145389600Y-83820000D01*
X145420535Y-83975523D01*
X145464040Y-84040632D01*
X145508632Y-84107368D01*
X145643600Y-84242336D01*
X145643600Y-88985664D01*
X144738664Y-89890600D01*
X140783880Y-89890600D01*
X140678039Y-89784574D01*
X140455830Y-89692305D01*
X140215226Y-89692095D01*
X139992856Y-89783976D01*
X139822574Y-89953961D01*
X139730305Y-90176170D01*
X139730095Y-90416774D01*
X139821976Y-90639144D01*
X139991961Y-90809426D01*
X140214170Y-90901695D01*
X140454774Y-90901905D01*
X140677144Y-90810024D01*
X140783954Y-90703400D01*
X144907000Y-90703400D01*
X145062523Y-90672465D01*
X145194368Y-90584368D01*
X146091644Y-89687092D01*
X146091644Y-95776619D01*
X144230664Y-97637600D01*
X140783880Y-97637600D01*
X140678039Y-97531574D01*
X140455830Y-97439305D01*
X140215226Y-97439095D01*
X139992856Y-97530976D01*
X139822574Y-97700961D01*
X139730305Y-97923170D01*
X139730095Y-98163774D01*
X139821976Y-98386144D01*
X139991961Y-98556426D01*
X140214170Y-98648695D01*
X140454774Y-98648905D01*
X140677144Y-98557024D01*
X140783954Y-98450400D01*
X144399000Y-98450400D01*
X144554523Y-98419465D01*
X144686368Y-98331368D01*
X146785412Y-96232325D01*
X146873509Y-96100479D01*
X146881508Y-96060263D01*
X146904444Y-95944956D01*
X146904444Y-83947836D01*
X147010470Y-83841995D01*
X147102739Y-83619786D01*
X147102812Y-83535833D01*
X147185774Y-83535905D01*
X147345389Y-83469954D01*
X147345389Y-84814321D01*
X147280428Y-84879282D01*
X147159295Y-85060569D01*
X147116759Y-85274413D01*
X147116759Y-96014837D01*
X147159295Y-96228681D01*
X147280428Y-96409968D01*
X147472389Y-96601929D01*
X147472389Y-103061434D01*
X143004194Y-107529629D01*
X142983407Y-107479322D01*
X142893755Y-107389513D01*
X143006426Y-107277039D01*
X143098695Y-107054830D01*
X143098905Y-106814226D01*
X143007024Y-106591856D01*
X142900400Y-106485046D01*
X142900400Y-105657892D01*
X142869465Y-105502369D01*
X142781368Y-105370524D01*
X140531674Y-103120830D01*
X140479606Y-103086039D01*
X140399829Y-103032733D01*
X140244306Y-103001798D01*
X139536694Y-103001798D01*
X139393061Y-103030368D01*
X139381171Y-103032733D01*
X139249325Y-103120830D01*
X138509556Y-103860600D01*
X137532621Y-103860600D01*
X137672426Y-103721039D01*
X137764695Y-103498830D01*
X137764905Y-103258226D01*
X137673024Y-103035856D01*
X137566400Y-102929046D01*
X137566400Y-102362000D01*
X141733200Y-102362000D01*
X141888157Y-103141020D01*
X142329436Y-103801441D01*
X142989857Y-104242720D01*
X143768877Y-104397677D01*
X144547897Y-104242720D01*
X145208318Y-103801441D01*
X145649597Y-103141020D01*
X145804554Y-102362000D01*
X145649597Y-101582980D01*
X145208318Y-100922559D01*
X144547897Y-100481280D01*
X143768877Y-100326323D01*
X142989857Y-100481280D01*
X142329436Y-100922559D01*
X141888157Y-101582980D01*
X141733200Y-102362000D01*
X137566400Y-102362000D01*
X137566400Y-81036225D01*
X137622131Y-81119632D01*
X137622131Y-81119632D01*
G37*
X137622131Y-81119632D02*
X137653869Y-81167131D01*
X138441387Y-81954650D01*
X138622675Y-82075783D01*
X138836518Y-82118318D01*
X142778792Y-82118318D01*
X142889320Y-82164213D01*
X143129924Y-82164423D01*
X143241507Y-82118318D01*
X143385962Y-82118318D01*
X143385962Y-82177636D01*
X143279936Y-82283477D01*
X143187667Y-82505686D01*
X143187457Y-82746290D01*
X143279338Y-82968660D01*
X143449323Y-83138942D01*
X143671532Y-83231211D01*
X143912136Y-83231421D01*
X144134506Y-83139540D01*
X144304788Y-82969555D01*
X144397057Y-82747346D01*
X144397267Y-82506742D01*
X144305386Y-82284372D01*
X144240927Y-82219800D01*
X146080733Y-82219800D01*
X146016631Y-82262632D01*
X145508632Y-82770632D01*
X145420535Y-82902477D01*
X145389600Y-83058000D01*
X145389600Y-83820000D01*
X145420535Y-83975523D01*
X145464040Y-84040632D01*
X145508632Y-84107368D01*
X145643600Y-84242336D01*
X145643600Y-88985664D01*
X144738664Y-89890600D01*
X140783880Y-89890600D01*
X140678039Y-89784574D01*
X140455830Y-89692305D01*
X140215226Y-89692095D01*
X139992856Y-89783976D01*
X139822574Y-89953961D01*
X139730305Y-90176170D01*
X139730095Y-90416774D01*
X139821976Y-90639144D01*
X139991961Y-90809426D01*
X140214170Y-90901695D01*
X140454774Y-90901905D01*
X140677144Y-90810024D01*
X140783954Y-90703400D01*
X144907000Y-90703400D01*
X145062523Y-90672465D01*
X145194368Y-90584368D01*
X146091644Y-89687092D01*
X146091644Y-95776619D01*
X144230664Y-97637600D01*
X140783880Y-97637600D01*
X140678039Y-97531574D01*
X140455830Y-97439305D01*
X140215226Y-97439095D01*
X139992856Y-97530976D01*
X139822574Y-97700961D01*
X139730305Y-97923170D01*
X139730095Y-98163774D01*
X139821976Y-98386144D01*
X139991961Y-98556426D01*
X140214170Y-98648695D01*
X140454774Y-98648905D01*
X140677144Y-98557024D01*
X140783954Y-98450400D01*
X144399000Y-98450400D01*
X144554523Y-98419465D01*
X144686368Y-98331368D01*
X146785412Y-96232325D01*
X146873509Y-96100479D01*
X146881508Y-96060263D01*
X146904444Y-95944956D01*
X146904444Y-83947836D01*
X147010470Y-83841995D01*
X147102739Y-83619786D01*
X147102812Y-83535833D01*
X147185774Y-83535905D01*
X147345389Y-83469954D01*
X147345389Y-84814321D01*
X147280428Y-84879282D01*
X147159295Y-85060569D01*
X147116759Y-85274413D01*
X147116759Y-96014837D01*
X147159295Y-96228681D01*
X147280428Y-96409968D01*
X147472389Y-96601929D01*
X147472389Y-103061434D01*
X143004194Y-107529629D01*
X142983407Y-107479322D01*
X142893755Y-107389513D01*
X143006426Y-107277039D01*
X143098695Y-107054830D01*
X143098905Y-106814226D01*
X143007024Y-106591856D01*
X142900400Y-106485046D01*
X142900400Y-105657892D01*
X142869465Y-105502369D01*
X142781368Y-105370524D01*
X140531674Y-103120830D01*
X140479606Y-103086039D01*
X140399829Y-103032733D01*
X140244306Y-103001798D01*
X139536694Y-103001798D01*
X139393061Y-103030368D01*
X139381171Y-103032733D01*
X139249325Y-103120830D01*
X138509556Y-103860600D01*
X137532621Y-103860600D01*
X137672426Y-103721039D01*
X137764695Y-103498830D01*
X137764905Y-103258226D01*
X137673024Y-103035856D01*
X137566400Y-102929046D01*
X137566400Y-102362000D01*
X141733200Y-102362000D01*
X141888157Y-103141020D01*
X142329436Y-103801441D01*
X142989857Y-104242720D01*
X143768877Y-104397677D01*
X144547897Y-104242720D01*
X145208318Y-103801441D01*
X145649597Y-103141020D01*
X145804554Y-102362000D01*
X145649597Y-101582980D01*
X145208318Y-100922559D01*
X144547897Y-100481280D01*
X143768877Y-100326323D01*
X142989857Y-100481280D01*
X142329436Y-100922559D01*
X141888157Y-101582980D01*
X141733200Y-102362000D01*
X137566400Y-102362000D01*
X137566400Y-81036225D01*
X137622131Y-81119632D01*
G36*
X142087600Y-105826228D02*
X142087600Y-106485120D01*
X141981574Y-106590961D01*
X141932587Y-106708934D01*
X140936086Y-105712433D01*
X140857615Y-105660000D01*
X140804241Y-105624336D01*
X140648718Y-105593401D01*
X139363800Y-105593401D01*
X139363800Y-105523600D01*
X139287600Y-105447400D01*
X138836400Y-105447400D01*
X138836400Y-105467400D01*
X138531600Y-105467400D01*
X138531600Y-105447400D01*
X138080400Y-105447400D01*
X138004200Y-105523600D01*
X138004200Y-105593401D01*
X137205199Y-105593401D01*
X137049676Y-105624336D01*
X136917831Y-105712433D01*
X136618632Y-106011632D01*
X136530535Y-106143477D01*
X136499600Y-106299000D01*
X136499600Y-106671600D01*
X136423400Y-106595400D01*
X136423400Y-104359136D01*
X136618632Y-104554368D01*
X136750477Y-104642465D01*
X136906000Y-104673400D01*
X138099547Y-104673400D01*
X138050603Y-104722345D01*
X138004200Y-104834372D01*
X138004200Y-105066400D01*
X138080400Y-105142600D01*
X138531600Y-105142600D01*
X138531600Y-105122600D01*
X138836400Y-105122600D01*
X138836400Y-105142600D01*
X139287600Y-105142600D01*
X139363800Y-105066400D01*
X139363800Y-104834372D01*
X139317397Y-104722345D01*
X139231656Y-104636603D01*
X139119629Y-104590200D01*
X138912600Y-104590200D01*
X138836402Y-104666398D01*
X138836402Y-104640469D01*
X138965260Y-104554368D01*
X139705031Y-103814598D01*
X140075970Y-103814598D01*
X142087600Y-105826228D01*
X142087600Y-105826228D01*
G37*
X142087600Y-105826228D02*
X142087600Y-106485120D01*
X141981574Y-106590961D01*
X141932587Y-106708934D01*
X140936086Y-105712433D01*
X140857615Y-105660000D01*
X140804241Y-105624336D01*
X140648718Y-105593401D01*
X139363800Y-105593401D01*
X139363800Y-105523600D01*
X139287600Y-105447400D01*
X138836400Y-105447400D01*
X138836400Y-105467400D01*
X138531600Y-105467400D01*
X138531600Y-105447400D01*
X138080400Y-105447400D01*
X138004200Y-105523600D01*
X138004200Y-105593401D01*
X137205199Y-105593401D01*
X137049676Y-105624336D01*
X136917831Y-105712433D01*
X136618632Y-106011632D01*
X136530535Y-106143477D01*
X136499600Y-106299000D01*
X136499600Y-106671600D01*
X136423400Y-106595400D01*
X136423400Y-104359136D01*
X136618632Y-104554368D01*
X136750477Y-104642465D01*
X136906000Y-104673400D01*
X138099547Y-104673400D01*
X138050603Y-104722345D01*
X138004200Y-104834372D01*
X138004200Y-105066400D01*
X138080400Y-105142600D01*
X138531600Y-105142600D01*
X138531600Y-105122600D01*
X138836400Y-105122600D01*
X138836400Y-105142600D01*
X139287600Y-105142600D01*
X139363800Y-105066400D01*
X139363800Y-104834372D01*
X139317397Y-104722345D01*
X139231656Y-104636603D01*
X139119629Y-104590200D01*
X138912600Y-104590200D01*
X138836402Y-104666398D01*
X138836402Y-104640469D01*
X138965260Y-104554368D01*
X139705031Y-103814598D01*
X140075970Y-103814598D01*
X142087600Y-105826228D01*
G36*
X161874200Y-101791327D02*
X160461264Y-103204264D01*
X160285071Y-103467955D01*
X160223200Y-103779000D01*
X160223200Y-105232200D01*
X159556030Y-105232200D01*
X159475276Y-105151305D01*
X159087733Y-104990383D01*
X158668108Y-104990017D01*
X158280284Y-105150262D01*
X158228599Y-105201857D01*
X158228599Y-104368930D01*
X158286443Y-104311086D01*
X158374531Y-104455868D01*
X158776661Y-104575774D01*
X159194066Y-104532664D01*
X159379469Y-104455868D01*
X159467558Y-104311084D01*
X158877000Y-103720526D01*
X158862858Y-103734669D01*
X158647332Y-103519143D01*
X158661474Y-103505000D01*
X159092526Y-103505000D01*
X159683084Y-104095558D01*
X159827868Y-104007469D01*
X159947774Y-103605339D01*
X159904664Y-103187934D01*
X159827868Y-103002531D01*
X159683084Y-102914442D01*
X159092526Y-103505000D01*
X158661474Y-103505000D01*
X158647332Y-103490858D01*
X158862858Y-103275332D01*
X158877000Y-103289474D01*
X159467558Y-102698916D01*
X159379469Y-102554132D01*
X158977339Y-102434226D01*
X158559934Y-102477336D01*
X158374531Y-102554132D01*
X158286443Y-102698914D01*
X158228599Y-102641070D01*
X158228599Y-101808483D01*
X158278724Y-101858695D01*
X158666267Y-102019617D01*
X159085892Y-102019983D01*
X159473716Y-101859738D01*
X159555797Y-101777800D01*
X160425233Y-101777800D01*
X160427737Y-101781692D01*
X160529593Y-101851287D01*
X160650500Y-101875771D01*
X161550500Y-101875771D01*
X161663452Y-101854518D01*
X161767192Y-101787763D01*
X161836787Y-101685907D01*
X161861271Y-101565000D01*
X161861271Y-101226566D01*
X161874200Y-101161568D01*
X161874200Y-101791327D01*
X161874200Y-101791327D01*
G37*
X161874200Y-101791327D02*
X160461264Y-103204264D01*
X160285071Y-103467955D01*
X160223200Y-103779000D01*
X160223200Y-105232200D01*
X159556030Y-105232200D01*
X159475276Y-105151305D01*
X159087733Y-104990383D01*
X158668108Y-104990017D01*
X158280284Y-105150262D01*
X158228599Y-105201857D01*
X158228599Y-104368930D01*
X158286443Y-104311086D01*
X158374531Y-104455868D01*
X158776661Y-104575774D01*
X159194066Y-104532664D01*
X159379469Y-104455868D01*
X159467558Y-104311084D01*
X158877000Y-103720526D01*
X158862858Y-103734669D01*
X158647332Y-103519143D01*
X158661474Y-103505000D01*
X159092526Y-103505000D01*
X159683084Y-104095558D01*
X159827868Y-104007469D01*
X159947774Y-103605339D01*
X159904664Y-103187934D01*
X159827868Y-103002531D01*
X159683084Y-102914442D01*
X159092526Y-103505000D01*
X158661474Y-103505000D01*
X158647332Y-103490858D01*
X158862858Y-103275332D01*
X158877000Y-103289474D01*
X159467558Y-102698916D01*
X159379469Y-102554132D01*
X158977339Y-102434226D01*
X158559934Y-102477336D01*
X158374531Y-102554132D01*
X158286443Y-102698914D01*
X158228599Y-102641070D01*
X158228599Y-101808483D01*
X158278724Y-101858695D01*
X158666267Y-102019617D01*
X159085892Y-102019983D01*
X159473716Y-101859738D01*
X159555797Y-101777800D01*
X160425233Y-101777800D01*
X160427737Y-101781692D01*
X160529593Y-101851287D01*
X160650500Y-101875771D01*
X161550500Y-101875771D01*
X161663452Y-101854518D01*
X161767192Y-101787763D01*
X161836787Y-101685907D01*
X161861271Y-101565000D01*
X161861271Y-101226566D01*
X161874200Y-101161568D01*
X161874200Y-101791327D01*
G36*
X155363812Y-100633284D02*
X155363812Y-103802902D01*
X155203130Y-103414022D01*
X154905545Y-103115917D01*
X154516532Y-102954384D01*
X154095316Y-102954017D01*
X153706022Y-103114870D01*
X153567050Y-103253600D01*
X152710648Y-103253600D01*
X152666907Y-103223713D01*
X152546000Y-103199229D01*
X151783038Y-103199229D01*
X151896426Y-103086039D01*
X151988695Y-102863830D01*
X151988905Y-102623226D01*
X151897024Y-102400856D01*
X151727039Y-102230574D01*
X151663400Y-102204149D01*
X151663400Y-97656500D01*
X151632465Y-97500977D01*
X151544368Y-97369132D01*
X149984036Y-95808800D01*
X150368000Y-95808800D01*
X150510903Y-95780375D01*
X155363812Y-100633284D01*
X155363812Y-100633284D01*
G37*
X155363812Y-100633284D02*
X155363812Y-103802902D01*
X155203130Y-103414022D01*
X154905545Y-103115917D01*
X154516532Y-102954384D01*
X154095316Y-102954017D01*
X153706022Y-103114870D01*
X153567050Y-103253600D01*
X152710648Y-103253600D01*
X152666907Y-103223713D01*
X152546000Y-103199229D01*
X151783038Y-103199229D01*
X151896426Y-103086039D01*
X151988695Y-102863830D01*
X151988905Y-102623226D01*
X151897024Y-102400856D01*
X151727039Y-102230574D01*
X151663400Y-102204149D01*
X151663400Y-97656500D01*
X151632465Y-97500977D01*
X151544368Y-97369132D01*
X149984036Y-95808800D01*
X150368000Y-95808800D01*
X150510903Y-95780375D01*
X155363812Y-100633284D01*
G36*
X169646600Y-75479336D02*
X169646600Y-85175664D01*
X169122664Y-85699600D01*
X167259000Y-85699600D01*
X167103477Y-85730535D01*
X166971632Y-85818632D01*
X166590632Y-86199632D01*
X166502535Y-86331477D01*
X166471600Y-86487000D01*
X166471600Y-87649286D01*
X166464907Y-87644713D01*
X166344000Y-87620229D01*
X166297921Y-87620229D01*
X166139045Y-87514071D01*
X166114406Y-87509170D01*
X165828000Y-87452200D01*
X159619530Y-87452200D01*
X159538776Y-87371305D01*
X159151233Y-87210383D01*
X158731608Y-87210017D01*
X158343784Y-87370262D01*
X158046805Y-87666724D01*
X157885883Y-88054267D01*
X157885517Y-88473892D01*
X158045762Y-88861716D01*
X158342224Y-89158695D01*
X158729767Y-89319617D01*
X159149392Y-89319983D01*
X159537216Y-89159738D01*
X159619297Y-89077800D01*
X165576776Y-89077800D01*
X165582955Y-89081929D01*
X165894000Y-89143799D01*
X166205045Y-89081929D01*
X166265146Y-89041771D01*
X166344000Y-89041771D01*
X166456952Y-89020518D01*
X166560692Y-88953763D01*
X166630287Y-88851907D01*
X166654771Y-88731000D01*
X166654771Y-88592565D01*
X166692940Y-88400676D01*
X166971632Y-88679368D01*
X167103477Y-88767465D01*
X167156727Y-88778057D01*
X167139200Y-88820371D01*
X167139200Y-89052400D01*
X167215400Y-89128600D01*
X167741600Y-89128600D01*
X167741600Y-89108600D01*
X168046400Y-89108600D01*
X168046400Y-89128600D01*
X168572600Y-89128600D01*
X168648800Y-89052400D01*
X168648800Y-88820371D01*
X168639699Y-88798400D01*
X169057857Y-88798400D01*
X169044200Y-88831372D01*
X169044200Y-88940800D01*
X169120400Y-89017000D01*
X169646600Y-89017000D01*
X169646600Y-88969600D01*
X169951400Y-88969600D01*
X169951400Y-89017000D01*
X170477600Y-89017000D01*
X170553800Y-88940800D01*
X170553800Y-88831372D01*
X170540143Y-88798400D01*
X170604264Y-88798400D01*
X170759787Y-88767465D01*
X170891632Y-88679368D01*
X171229368Y-88341632D01*
X171299631Y-88236477D01*
X171317465Y-88209787D01*
X171324200Y-88175927D01*
X171324200Y-90852332D01*
X171172934Y-90701066D01*
X170950445Y-90552403D01*
X170688000Y-90500200D01*
X165923568Y-90500200D01*
X165743434Y-90320066D01*
X165520945Y-90171403D01*
X165258500Y-90119200D01*
X164807271Y-90119200D01*
X164807271Y-89555000D01*
X164798729Y-89509600D01*
X167139200Y-89509600D01*
X167139200Y-89741629D01*
X167185603Y-89853656D01*
X167271345Y-89939397D01*
X167383372Y-89985800D01*
X167665400Y-89985800D01*
X167741600Y-89909600D01*
X167741600Y-89433400D01*
X168046400Y-89433400D01*
X168046400Y-89909600D01*
X168122600Y-89985800D01*
X168404628Y-89985800D01*
X168516655Y-89939397D01*
X168602397Y-89853656D01*
X168648800Y-89741629D01*
X168648800Y-89509600D01*
X168572600Y-89433400D01*
X168046400Y-89433400D01*
X167741600Y-89433400D01*
X167215400Y-89433400D01*
X167139200Y-89509600D01*
X164798729Y-89509600D01*
X164786018Y-89442048D01*
X164722411Y-89343200D01*
X169044200Y-89343200D01*
X169044200Y-89452628D01*
X169090603Y-89564655D01*
X169176344Y-89650397D01*
X169288371Y-89696800D01*
X169570400Y-89696800D01*
X169646600Y-89620600D01*
X169646600Y-89267000D01*
X169951400Y-89267000D01*
X169951400Y-89620600D01*
X170027600Y-89696800D01*
X170309629Y-89696800D01*
X170421656Y-89650397D01*
X170507397Y-89564655D01*
X170553800Y-89452628D01*
X170553800Y-89343200D01*
X170477600Y-89267000D01*
X169951400Y-89267000D01*
X169646600Y-89267000D01*
X169120400Y-89267000D01*
X169044200Y-89343200D01*
X164722411Y-89343200D01*
X164719263Y-89338308D01*
X164617407Y-89268713D01*
X164496500Y-89244229D01*
X163496500Y-89244229D01*
X163383548Y-89265482D01*
X163279808Y-89332237D01*
X163210213Y-89434093D01*
X163185729Y-89555000D01*
X163185729Y-92055000D01*
X163206982Y-92167952D01*
X163273737Y-92271692D01*
X163375593Y-92341287D01*
X163496500Y-92365771D01*
X164496500Y-92365771D01*
X164609452Y-92344518D01*
X164713192Y-92277763D01*
X164782787Y-92175907D01*
X164807271Y-92055000D01*
X164807271Y-91490800D01*
X164974432Y-91490800D01*
X165154566Y-91670934D01*
X165377056Y-91819597D01*
X165639500Y-91871800D01*
X167144812Y-91871800D01*
X167133229Y-91929000D01*
X167133229Y-92729000D01*
X167154482Y-92841952D01*
X167221237Y-92945692D01*
X167323093Y-93015287D01*
X167444000Y-93039771D01*
X168344000Y-93039771D01*
X168367929Y-93035268D01*
X168439961Y-93107426D01*
X168662170Y-93199695D01*
X168902774Y-93199905D01*
X169125144Y-93108024D01*
X169153142Y-93080075D01*
X169228093Y-93131287D01*
X169349000Y-93155771D01*
X170249000Y-93155771D01*
X170361952Y-93134518D01*
X170383200Y-93120845D01*
X170383200Y-93570674D01*
X170309629Y-93540200D01*
X170027600Y-93540200D01*
X169951400Y-93616400D01*
X169951400Y-93970000D01*
X169971400Y-93970000D01*
X169971400Y-94220000D01*
X169951400Y-94220000D01*
X169951400Y-94573600D01*
X170027600Y-94649800D01*
X170309629Y-94649800D01*
X170383200Y-94619326D01*
X170383200Y-95385550D01*
X170320349Y-95448401D01*
X165791769Y-95448401D01*
X165743434Y-95400066D01*
X165520945Y-95251403D01*
X165258500Y-95199200D01*
X164807271Y-95199200D01*
X164807271Y-94635000D01*
X164786018Y-94522048D01*
X164744547Y-94457600D01*
X167139200Y-94457600D01*
X167139200Y-94689629D01*
X167185603Y-94801656D01*
X167271345Y-94887397D01*
X167383372Y-94933800D01*
X167665400Y-94933800D01*
X167741600Y-94857600D01*
X167741600Y-94381400D01*
X168046400Y-94381400D01*
X168046400Y-94857600D01*
X168122600Y-94933800D01*
X168404628Y-94933800D01*
X168516655Y-94887397D01*
X168602397Y-94801656D01*
X168648800Y-94689629D01*
X168648800Y-94457600D01*
X168572600Y-94381400D01*
X168046400Y-94381400D01*
X167741600Y-94381400D01*
X167215400Y-94381400D01*
X167139200Y-94457600D01*
X164744547Y-94457600D01*
X164719263Y-94418308D01*
X164617407Y-94348713D01*
X164496500Y-94324229D01*
X163496500Y-94324229D01*
X163383548Y-94345482D01*
X163279808Y-94412237D01*
X163210213Y-94514093D01*
X163185729Y-94635000D01*
X163185729Y-95874800D01*
X163183700Y-95885000D01*
X163183700Y-96298327D01*
X162112264Y-97369764D01*
X161936071Y-97633455D01*
X161874200Y-97944500D01*
X161874200Y-100768432D01*
X161861271Y-100703434D01*
X161861271Y-100365000D01*
X161840018Y-100252048D01*
X161773263Y-100148308D01*
X161671407Y-100078713D01*
X161550500Y-100054229D01*
X160650500Y-100054229D01*
X160537548Y-100075482D01*
X160433808Y-100142237D01*
X160427001Y-100152200D01*
X159556030Y-100152200D01*
X159475276Y-100071305D01*
X159087733Y-99910383D01*
X158668108Y-99910017D01*
X158280284Y-100070262D01*
X158228599Y-100121857D01*
X158228599Y-99288930D01*
X158286443Y-99231086D01*
X158374531Y-99375868D01*
X158776661Y-99495774D01*
X159194066Y-99452664D01*
X159379469Y-99375868D01*
X159467558Y-99231084D01*
X158877000Y-98640526D01*
X158862858Y-98654669D01*
X158647332Y-98439143D01*
X158661474Y-98425000D01*
X159092526Y-98425000D01*
X159683084Y-99015558D01*
X159827868Y-98927469D01*
X159947774Y-98525339D01*
X159904664Y-98107934D01*
X159827868Y-97922531D01*
X159683084Y-97834442D01*
X159092526Y-98425000D01*
X158661474Y-98425000D01*
X158647332Y-98410858D01*
X158862858Y-98195332D01*
X158877000Y-98209474D01*
X159467558Y-97618916D01*
X159379469Y-97474132D01*
X158977339Y-97354226D01*
X158559934Y-97397336D01*
X158374531Y-97474132D01*
X158286443Y-97618914D01*
X158228599Y-97561070D01*
X158228599Y-96728483D01*
X158278724Y-96778695D01*
X158666267Y-96939617D01*
X159085892Y-96939983D01*
X159473716Y-96779738D01*
X159555797Y-96697800D01*
X160185729Y-96697800D01*
X160185729Y-97135000D01*
X160206982Y-97247952D01*
X160273737Y-97351692D01*
X160375593Y-97421287D01*
X160496500Y-97445771D01*
X161496500Y-97445771D01*
X161609452Y-97424518D01*
X161713192Y-97357763D01*
X161782787Y-97255907D01*
X161807271Y-97135000D01*
X161807271Y-95895200D01*
X161809300Y-95885000D01*
X161807271Y-95874800D01*
X161807271Y-94635000D01*
X161786018Y-94522048D01*
X161719263Y-94418308D01*
X161617407Y-94348713D01*
X161496500Y-94324229D01*
X160496500Y-94324229D01*
X160383548Y-94345482D01*
X160279808Y-94412237D01*
X160210213Y-94514093D01*
X160185729Y-94635000D01*
X160185729Y-95072200D01*
X159556030Y-95072200D01*
X159475276Y-94991305D01*
X159087733Y-94830383D01*
X158668108Y-94830017D01*
X158280284Y-94990262D01*
X157983305Y-95286724D01*
X157885570Y-95522097D01*
X155902501Y-93539028D01*
X156077414Y-93611659D01*
X156399174Y-93611940D01*
X156539661Y-93553892D01*
X157822017Y-93553892D01*
X157982262Y-93941716D01*
X158278724Y-94238695D01*
X158666267Y-94399617D01*
X159085892Y-94399983D01*
X159337067Y-94296200D01*
X169044200Y-94296200D01*
X169044200Y-94405628D01*
X169090603Y-94517655D01*
X169176344Y-94603397D01*
X169288371Y-94649800D01*
X169570400Y-94649800D01*
X169646600Y-94573600D01*
X169646600Y-94220000D01*
X169120400Y-94220000D01*
X169044200Y-94296200D01*
X159337067Y-94296200D01*
X159473716Y-94239738D01*
X159555797Y-94157800D01*
X165828000Y-94157800D01*
X166139045Y-94095929D01*
X166297921Y-93989771D01*
X166344000Y-93989771D01*
X166456952Y-93968518D01*
X166560692Y-93901763D01*
X166630287Y-93799907D01*
X166636673Y-93768371D01*
X167139200Y-93768371D01*
X167139200Y-94000400D01*
X167215400Y-94076600D01*
X167741600Y-94076600D01*
X167741600Y-93600400D01*
X168046400Y-93600400D01*
X168046400Y-94076600D01*
X168572600Y-94076600D01*
X168648800Y-94000400D01*
X168648800Y-93784372D01*
X169044200Y-93784372D01*
X169044200Y-93893800D01*
X169120400Y-93970000D01*
X169646600Y-93970000D01*
X169646600Y-93616400D01*
X169570400Y-93540200D01*
X169288371Y-93540200D01*
X169176344Y-93586603D01*
X169090603Y-93672345D01*
X169044200Y-93784372D01*
X168648800Y-93784372D01*
X168648800Y-93768371D01*
X168602397Y-93656344D01*
X168516655Y-93570603D01*
X168404628Y-93524200D01*
X168122600Y-93524200D01*
X168046400Y-93600400D01*
X167741600Y-93600400D01*
X167665400Y-93524200D01*
X167383372Y-93524200D01*
X167271345Y-93570603D01*
X167185603Y-93656344D01*
X167139200Y-93768371D01*
X166636673Y-93768371D01*
X166654771Y-93679000D01*
X166654771Y-93540565D01*
X166706799Y-93279000D01*
X166654771Y-93017435D01*
X166654771Y-92879000D01*
X166633518Y-92766048D01*
X166566763Y-92662308D01*
X166464907Y-92592713D01*
X166344000Y-92568229D01*
X166265146Y-92568229D01*
X166205045Y-92528071D01*
X165894000Y-92466201D01*
X165582955Y-92528071D01*
X165576776Y-92532200D01*
X159556030Y-92532200D01*
X159475276Y-92451305D01*
X159087733Y-92290383D01*
X158668108Y-92290017D01*
X158280284Y-92450262D01*
X157983305Y-92746724D01*
X157822383Y-93134267D01*
X157822017Y-93553892D01*
X156539661Y-93553892D01*
X156696550Y-93489067D01*
X156924267Y-93261746D01*
X157047659Y-92964586D01*
X157047940Y-92642826D01*
X156925067Y-92345450D01*
X156697746Y-92117733D01*
X156400586Y-91994341D01*
X156078826Y-91994060D01*
X155781450Y-92116933D01*
X155625800Y-92272312D01*
X155625800Y-91333544D01*
X155780254Y-91488267D01*
X156077414Y-91611659D01*
X156399174Y-91611940D01*
X156696550Y-91489067D01*
X156924267Y-91261746D01*
X157027185Y-91013892D01*
X157822017Y-91013892D01*
X157982262Y-91401716D01*
X158278724Y-91698695D01*
X158666267Y-91859617D01*
X159085892Y-91859983D01*
X159473716Y-91699738D01*
X159555797Y-91617800D01*
X160185729Y-91617800D01*
X160185729Y-92055000D01*
X160206982Y-92167952D01*
X160273737Y-92271692D01*
X160375593Y-92341287D01*
X160496500Y-92365771D01*
X161496500Y-92365771D01*
X161609452Y-92344518D01*
X161713192Y-92277763D01*
X161782787Y-92175907D01*
X161807271Y-92055000D01*
X161807271Y-90815200D01*
X161809300Y-90805000D01*
X161807271Y-90794800D01*
X161807271Y-89555000D01*
X161786018Y-89442048D01*
X161719263Y-89338308D01*
X161617407Y-89268713D01*
X161496500Y-89244229D01*
X160496500Y-89244229D01*
X160383548Y-89265482D01*
X160279808Y-89332237D01*
X160210213Y-89434093D01*
X160185729Y-89555000D01*
X160185729Y-89992200D01*
X159556030Y-89992200D01*
X159475276Y-89911305D01*
X159087733Y-89750383D01*
X158668108Y-89750017D01*
X158280284Y-89910262D01*
X157983305Y-90206724D01*
X157822383Y-90594267D01*
X157822017Y-91013892D01*
X157027185Y-91013892D01*
X157047659Y-90964586D01*
X157047940Y-90642826D01*
X156925067Y-90345450D01*
X156697746Y-90117733D01*
X156400586Y-89994341D01*
X156078826Y-89994060D01*
X155781450Y-90116933D01*
X155625800Y-90272312D01*
X155625800Y-89333544D01*
X155780254Y-89488267D01*
X156077414Y-89611659D01*
X156399174Y-89611940D01*
X156696550Y-89489067D01*
X156924267Y-89261746D01*
X157047659Y-88964586D01*
X157047940Y-88642826D01*
X156925067Y-88345450D01*
X156697746Y-88117733D01*
X156400586Y-87994341D01*
X156078826Y-87994060D01*
X155781450Y-88116933D01*
X155625800Y-88272312D01*
X155625800Y-88011000D01*
X155563929Y-87699955D01*
X155529123Y-87647864D01*
X155387736Y-87436263D01*
X154914647Y-86963174D01*
X155430060Y-86963174D01*
X155552933Y-87260550D01*
X155780254Y-87488267D01*
X156077414Y-87611659D01*
X156399174Y-87611940D01*
X156696550Y-87489067D01*
X156924267Y-87261746D01*
X157047659Y-86964586D01*
X157047940Y-86642826D01*
X156925067Y-86345450D01*
X156697746Y-86117733D01*
X156400586Y-85994341D01*
X156078826Y-85994060D01*
X155781450Y-86116933D01*
X155553733Y-86344254D01*
X155430341Y-86641414D01*
X155430060Y-86963174D01*
X154914647Y-86963174D01*
X154117736Y-86166264D01*
X153854045Y-85990071D01*
X153798548Y-85979032D01*
X153543000Y-85928200D01*
X151120171Y-85928200D01*
X151118929Y-85921955D01*
X151055208Y-85826590D01*
X151755561Y-85826590D01*
X151911084Y-85795655D01*
X152042929Y-85707558D01*
X152778312Y-84972174D01*
X155430060Y-84972174D01*
X155552933Y-85269550D01*
X155780254Y-85497267D01*
X156077414Y-85620659D01*
X156399174Y-85620940D01*
X156696550Y-85498067D01*
X156924267Y-85270746D01*
X156973288Y-85152689D01*
X167157837Y-85152689D01*
X167270646Y-85318251D01*
X167745649Y-85471753D01*
X168243237Y-85431794D01*
X168517354Y-85318251D01*
X168630163Y-85152689D01*
X167894000Y-84416526D01*
X167157837Y-85152689D01*
X156973288Y-85152689D01*
X157047659Y-84973586D01*
X157047940Y-84651826D01*
X156992516Y-84517689D01*
X162331837Y-84517689D01*
X162444646Y-84683251D01*
X162919649Y-84836753D01*
X163417237Y-84796794D01*
X163691354Y-84683251D01*
X163804163Y-84517689D01*
X163068000Y-83781526D01*
X162331837Y-84517689D01*
X156992516Y-84517689D01*
X156925067Y-84354450D01*
X156697746Y-84126733D01*
X156400586Y-84003341D01*
X156078826Y-84003060D01*
X155781450Y-84125933D01*
X155553733Y-84353254D01*
X155430341Y-84650414D01*
X155430060Y-84972174D01*
X152778312Y-84972174D01*
X152814368Y-84936118D01*
X152902465Y-84804273D01*
X152933400Y-84648750D01*
X152933400Y-82963174D01*
X155430060Y-82963174D01*
X155552933Y-83260550D01*
X155780254Y-83488267D01*
X156077414Y-83611659D01*
X156399174Y-83611940D01*
X156696550Y-83489067D01*
X156768092Y-83417649D01*
X161797247Y-83417649D01*
X161837206Y-83915237D01*
X161950749Y-84189354D01*
X162116311Y-84302163D01*
X162852474Y-83566000D01*
X163283526Y-83566000D01*
X164019689Y-84302163D01*
X164185251Y-84189354D01*
X164229428Y-84052649D01*
X166623247Y-84052649D01*
X166663206Y-84550237D01*
X166776749Y-84824354D01*
X166942311Y-84937163D01*
X167678474Y-84201000D01*
X168109526Y-84201000D01*
X168845689Y-84937163D01*
X169011251Y-84824354D01*
X169164753Y-84349351D01*
X169124794Y-83851763D01*
X169011251Y-83577646D01*
X168845689Y-83464837D01*
X168109526Y-84201000D01*
X167678474Y-84201000D01*
X166942311Y-83464837D01*
X166776749Y-83577646D01*
X166623247Y-84052649D01*
X164229428Y-84052649D01*
X164338753Y-83714351D01*
X164301408Y-83249311D01*
X167157837Y-83249311D01*
X167894000Y-83985474D01*
X168630163Y-83249311D01*
X168517354Y-83083749D01*
X168042351Y-82930247D01*
X167544763Y-82970206D01*
X167270646Y-83083749D01*
X167157837Y-83249311D01*
X164301408Y-83249311D01*
X164298794Y-83216763D01*
X164185251Y-82942646D01*
X164019689Y-82829837D01*
X163283526Y-83566000D01*
X162852474Y-83566000D01*
X162116311Y-82829837D01*
X161950749Y-82942646D01*
X161797247Y-83417649D01*
X156768092Y-83417649D01*
X156924267Y-83261746D01*
X157047659Y-82964586D01*
X157047940Y-82642826D01*
X157036158Y-82614311D01*
X162331837Y-82614311D01*
X163068000Y-83350474D01*
X163804163Y-82614311D01*
X163691354Y-82448749D01*
X163216351Y-82295247D01*
X162718763Y-82335206D01*
X162444646Y-82448749D01*
X162331837Y-82614311D01*
X157036158Y-82614311D01*
X156925067Y-82345450D01*
X156697746Y-82117733D01*
X156400586Y-81994341D01*
X156078826Y-81994060D01*
X155781450Y-82116933D01*
X155553733Y-82344254D01*
X155430341Y-82641414D01*
X155430060Y-82963174D01*
X152933400Y-82963174D01*
X152933400Y-82414843D01*
X152945961Y-82427426D01*
X153168170Y-82519695D01*
X153408774Y-82519905D01*
X153631144Y-82428024D01*
X153801426Y-82258039D01*
X153893695Y-82035830D01*
X153893905Y-81795226D01*
X153802024Y-81572856D01*
X153695400Y-81466046D01*
X153695400Y-80972174D01*
X155430060Y-80972174D01*
X155552933Y-81269550D01*
X155780254Y-81497267D01*
X156077414Y-81620659D01*
X156399174Y-81620940D01*
X156696550Y-81498067D01*
X156924267Y-81270746D01*
X157047659Y-80973586D01*
X157047940Y-80651826D01*
X156925067Y-80354450D01*
X156697746Y-80126733D01*
X156400586Y-80003341D01*
X156078826Y-80003060D01*
X155781450Y-80125933D01*
X155553733Y-80353254D01*
X155430341Y-80650414D01*
X155430060Y-80972174D01*
X153695400Y-80972174D01*
X153695400Y-78963174D01*
X155430060Y-78963174D01*
X155552933Y-79260550D01*
X155780254Y-79488267D01*
X156077414Y-79611659D01*
X156399174Y-79611940D01*
X156696550Y-79489067D01*
X156924267Y-79261746D01*
X157047659Y-78964586D01*
X157047940Y-78642826D01*
X156925067Y-78345450D01*
X156697746Y-78117733D01*
X156400586Y-77994341D01*
X156078826Y-77994060D01*
X155781450Y-78116933D01*
X155553733Y-78344254D01*
X155430341Y-78641414D01*
X155430060Y-78963174D01*
X153695400Y-78963174D01*
X153695400Y-76963174D01*
X155430060Y-76963174D01*
X155552933Y-77260550D01*
X155780254Y-77488267D01*
X156077414Y-77611659D01*
X156399174Y-77611940D01*
X156696550Y-77489067D01*
X156924267Y-77261746D01*
X157047659Y-76964586D01*
X157047940Y-76642826D01*
X156925067Y-76345450D01*
X156697746Y-76117733D01*
X156400586Y-75994341D01*
X156078826Y-75994060D01*
X155781450Y-76116933D01*
X155553733Y-76344254D01*
X155430341Y-76641414D01*
X155430060Y-76963174D01*
X153695400Y-76963174D01*
X153695400Y-76648880D01*
X153801426Y-76543039D01*
X153893695Y-76320830D01*
X153893905Y-76080226D01*
X153848939Y-75971400D01*
X154279974Y-75971400D01*
X154435497Y-75940465D01*
X154567342Y-75852368D01*
X155437801Y-74981909D01*
X155552933Y-75260550D01*
X155780254Y-75488267D01*
X156077414Y-75611659D01*
X156399174Y-75611940D01*
X156696550Y-75489067D01*
X156924267Y-75261746D01*
X157047659Y-74964586D01*
X157047940Y-74642826D01*
X156925067Y-74345450D01*
X156900061Y-74320400D01*
X168487664Y-74320400D01*
X169646600Y-75479336D01*
X169646600Y-75479336D01*
G37*
X169646600Y-75479336D02*
X169646600Y-85175664D01*
X169122664Y-85699600D01*
X167259000Y-85699600D01*
X167103477Y-85730535D01*
X166971632Y-85818632D01*
X166590632Y-86199632D01*
X166502535Y-86331477D01*
X166471600Y-86487000D01*
X166471600Y-87649286D01*
X166464907Y-87644713D01*
X166344000Y-87620229D01*
X166297921Y-87620229D01*
X166139045Y-87514071D01*
X166114406Y-87509170D01*
X165828000Y-87452200D01*
X159619530Y-87452200D01*
X159538776Y-87371305D01*
X159151233Y-87210383D01*
X158731608Y-87210017D01*
X158343784Y-87370262D01*
X158046805Y-87666724D01*
X157885883Y-88054267D01*
X157885517Y-88473892D01*
X158045762Y-88861716D01*
X158342224Y-89158695D01*
X158729767Y-89319617D01*
X159149392Y-89319983D01*
X159537216Y-89159738D01*
X159619297Y-89077800D01*
X165576776Y-89077800D01*
X165582955Y-89081929D01*
X165894000Y-89143799D01*
X166205045Y-89081929D01*
X166265146Y-89041771D01*
X166344000Y-89041771D01*
X166456952Y-89020518D01*
X166560692Y-88953763D01*
X166630287Y-88851907D01*
X166654771Y-88731000D01*
X166654771Y-88592565D01*
X166692940Y-88400676D01*
X166971632Y-88679368D01*
X167103477Y-88767465D01*
X167156727Y-88778057D01*
X167139200Y-88820371D01*
X167139200Y-89052400D01*
X167215400Y-89128600D01*
X167741600Y-89128600D01*
X167741600Y-89108600D01*
X168046400Y-89108600D01*
X168046400Y-89128600D01*
X168572600Y-89128600D01*
X168648800Y-89052400D01*
X168648800Y-88820371D01*
X168639699Y-88798400D01*
X169057857Y-88798400D01*
X169044200Y-88831372D01*
X169044200Y-88940800D01*
X169120400Y-89017000D01*
X169646600Y-89017000D01*
X169646600Y-88969600D01*
X169951400Y-88969600D01*
X169951400Y-89017000D01*
X170477600Y-89017000D01*
X170553800Y-88940800D01*
X170553800Y-88831372D01*
X170540143Y-88798400D01*
X170604264Y-88798400D01*
X170759787Y-88767465D01*
X170891632Y-88679368D01*
X171229368Y-88341632D01*
X171299631Y-88236477D01*
X171317465Y-88209787D01*
X171324200Y-88175927D01*
X171324200Y-90852332D01*
X171172934Y-90701066D01*
X170950445Y-90552403D01*
X170688000Y-90500200D01*
X165923568Y-90500200D01*
X165743434Y-90320066D01*
X165520945Y-90171403D01*
X165258500Y-90119200D01*
X164807271Y-90119200D01*
X164807271Y-89555000D01*
X164798729Y-89509600D01*
X167139200Y-89509600D01*
X167139200Y-89741629D01*
X167185603Y-89853656D01*
X167271345Y-89939397D01*
X167383372Y-89985800D01*
X167665400Y-89985800D01*
X167741600Y-89909600D01*
X167741600Y-89433400D01*
X168046400Y-89433400D01*
X168046400Y-89909600D01*
X168122600Y-89985800D01*
X168404628Y-89985800D01*
X168516655Y-89939397D01*
X168602397Y-89853656D01*
X168648800Y-89741629D01*
X168648800Y-89509600D01*
X168572600Y-89433400D01*
X168046400Y-89433400D01*
X167741600Y-89433400D01*
X167215400Y-89433400D01*
X167139200Y-89509600D01*
X164798729Y-89509600D01*
X164786018Y-89442048D01*
X164722411Y-89343200D01*
X169044200Y-89343200D01*
X169044200Y-89452628D01*
X169090603Y-89564655D01*
X169176344Y-89650397D01*
X169288371Y-89696800D01*
X169570400Y-89696800D01*
X169646600Y-89620600D01*
X169646600Y-89267000D01*
X169951400Y-89267000D01*
X169951400Y-89620600D01*
X170027600Y-89696800D01*
X170309629Y-89696800D01*
X170421656Y-89650397D01*
X170507397Y-89564655D01*
X170553800Y-89452628D01*
X170553800Y-89343200D01*
X170477600Y-89267000D01*
X169951400Y-89267000D01*
X169646600Y-89267000D01*
X169120400Y-89267000D01*
X169044200Y-89343200D01*
X164722411Y-89343200D01*
X164719263Y-89338308D01*
X164617407Y-89268713D01*
X164496500Y-89244229D01*
X163496500Y-89244229D01*
X163383548Y-89265482D01*
X163279808Y-89332237D01*
X163210213Y-89434093D01*
X163185729Y-89555000D01*
X163185729Y-92055000D01*
X163206982Y-92167952D01*
X163273737Y-92271692D01*
X163375593Y-92341287D01*
X163496500Y-92365771D01*
X164496500Y-92365771D01*
X164609452Y-92344518D01*
X164713192Y-92277763D01*
X164782787Y-92175907D01*
X164807271Y-92055000D01*
X164807271Y-91490800D01*
X164974432Y-91490800D01*
X165154566Y-91670934D01*
X165377056Y-91819597D01*
X165639500Y-91871800D01*
X167144812Y-91871800D01*
X167133229Y-91929000D01*
X167133229Y-92729000D01*
X167154482Y-92841952D01*
X167221237Y-92945692D01*
X167323093Y-93015287D01*
X167444000Y-93039771D01*
X168344000Y-93039771D01*
X168367929Y-93035268D01*
X168439961Y-93107426D01*
X168662170Y-93199695D01*
X168902774Y-93199905D01*
X169125144Y-93108024D01*
X169153142Y-93080075D01*
X169228093Y-93131287D01*
X169349000Y-93155771D01*
X170249000Y-93155771D01*
X170361952Y-93134518D01*
X170383200Y-93120845D01*
X170383200Y-93570674D01*
X170309629Y-93540200D01*
X170027600Y-93540200D01*
X169951400Y-93616400D01*
X169951400Y-93970000D01*
X169971400Y-93970000D01*
X169971400Y-94220000D01*
X169951400Y-94220000D01*
X169951400Y-94573600D01*
X170027600Y-94649800D01*
X170309629Y-94649800D01*
X170383200Y-94619326D01*
X170383200Y-95385550D01*
X170320349Y-95448401D01*
X165791769Y-95448401D01*
X165743434Y-95400066D01*
X165520945Y-95251403D01*
X165258500Y-95199200D01*
X164807271Y-95199200D01*
X164807271Y-94635000D01*
X164786018Y-94522048D01*
X164744547Y-94457600D01*
X167139200Y-94457600D01*
X167139200Y-94689629D01*
X167185603Y-94801656D01*
X167271345Y-94887397D01*
X167383372Y-94933800D01*
X167665400Y-94933800D01*
X167741600Y-94857600D01*
X167741600Y-94381400D01*
X168046400Y-94381400D01*
X168046400Y-94857600D01*
X168122600Y-94933800D01*
X168404628Y-94933800D01*
X168516655Y-94887397D01*
X168602397Y-94801656D01*
X168648800Y-94689629D01*
X168648800Y-94457600D01*
X168572600Y-94381400D01*
X168046400Y-94381400D01*
X167741600Y-94381400D01*
X167215400Y-94381400D01*
X167139200Y-94457600D01*
X164744547Y-94457600D01*
X164719263Y-94418308D01*
X164617407Y-94348713D01*
X164496500Y-94324229D01*
X163496500Y-94324229D01*
X163383548Y-94345482D01*
X163279808Y-94412237D01*
X163210213Y-94514093D01*
X163185729Y-94635000D01*
X163185729Y-95874800D01*
X163183700Y-95885000D01*
X163183700Y-96298327D01*
X162112264Y-97369764D01*
X161936071Y-97633455D01*
X161874200Y-97944500D01*
X161874200Y-100768432D01*
X161861271Y-100703434D01*
X161861271Y-100365000D01*
X161840018Y-100252048D01*
X161773263Y-100148308D01*
X161671407Y-100078713D01*
X161550500Y-100054229D01*
X160650500Y-100054229D01*
X160537548Y-100075482D01*
X160433808Y-100142237D01*
X160427001Y-100152200D01*
X159556030Y-100152200D01*
X159475276Y-100071305D01*
X159087733Y-99910383D01*
X158668108Y-99910017D01*
X158280284Y-100070262D01*
X158228599Y-100121857D01*
X158228599Y-99288930D01*
X158286443Y-99231086D01*
X158374531Y-99375868D01*
X158776661Y-99495774D01*
X159194066Y-99452664D01*
X159379469Y-99375868D01*
X159467558Y-99231084D01*
X158877000Y-98640526D01*
X158862858Y-98654669D01*
X158647332Y-98439143D01*
X158661474Y-98425000D01*
X159092526Y-98425000D01*
X159683084Y-99015558D01*
X159827868Y-98927469D01*
X159947774Y-98525339D01*
X159904664Y-98107934D01*
X159827868Y-97922531D01*
X159683084Y-97834442D01*
X159092526Y-98425000D01*
X158661474Y-98425000D01*
X158647332Y-98410858D01*
X158862858Y-98195332D01*
X158877000Y-98209474D01*
X159467558Y-97618916D01*
X159379469Y-97474132D01*
X158977339Y-97354226D01*
X158559934Y-97397336D01*
X158374531Y-97474132D01*
X158286443Y-97618914D01*
X158228599Y-97561070D01*
X158228599Y-96728483D01*
X158278724Y-96778695D01*
X158666267Y-96939617D01*
X159085892Y-96939983D01*
X159473716Y-96779738D01*
X159555797Y-96697800D01*
X160185729Y-96697800D01*
X160185729Y-97135000D01*
X160206982Y-97247952D01*
X160273737Y-97351692D01*
X160375593Y-97421287D01*
X160496500Y-97445771D01*
X161496500Y-97445771D01*
X161609452Y-97424518D01*
X161713192Y-97357763D01*
X161782787Y-97255907D01*
X161807271Y-97135000D01*
X161807271Y-95895200D01*
X161809300Y-95885000D01*
X161807271Y-95874800D01*
X161807271Y-94635000D01*
X161786018Y-94522048D01*
X161719263Y-94418308D01*
X161617407Y-94348713D01*
X161496500Y-94324229D01*
X160496500Y-94324229D01*
X160383548Y-94345482D01*
X160279808Y-94412237D01*
X160210213Y-94514093D01*
X160185729Y-94635000D01*
X160185729Y-95072200D01*
X159556030Y-95072200D01*
X159475276Y-94991305D01*
X159087733Y-94830383D01*
X158668108Y-94830017D01*
X158280284Y-94990262D01*
X157983305Y-95286724D01*
X157885570Y-95522097D01*
X155902501Y-93539028D01*
X156077414Y-93611659D01*
X156399174Y-93611940D01*
X156539661Y-93553892D01*
X157822017Y-93553892D01*
X157982262Y-93941716D01*
X158278724Y-94238695D01*
X158666267Y-94399617D01*
X159085892Y-94399983D01*
X159337067Y-94296200D01*
X169044200Y-94296200D01*
X169044200Y-94405628D01*
X169090603Y-94517655D01*
X169176344Y-94603397D01*
X169288371Y-94649800D01*
X169570400Y-94649800D01*
X169646600Y-94573600D01*
X169646600Y-94220000D01*
X169120400Y-94220000D01*
X169044200Y-94296200D01*
X159337067Y-94296200D01*
X159473716Y-94239738D01*
X159555797Y-94157800D01*
X165828000Y-94157800D01*
X166139045Y-94095929D01*
X166297921Y-93989771D01*
X166344000Y-93989771D01*
X166456952Y-93968518D01*
X166560692Y-93901763D01*
X166630287Y-93799907D01*
X166636673Y-93768371D01*
X167139200Y-93768371D01*
X167139200Y-94000400D01*
X167215400Y-94076600D01*
X167741600Y-94076600D01*
X167741600Y-93600400D01*
X168046400Y-93600400D01*
X168046400Y-94076600D01*
X168572600Y-94076600D01*
X168648800Y-94000400D01*
X168648800Y-93784372D01*
X169044200Y-93784372D01*
X169044200Y-93893800D01*
X169120400Y-93970000D01*
X169646600Y-93970000D01*
X169646600Y-93616400D01*
X169570400Y-93540200D01*
X169288371Y-93540200D01*
X169176344Y-93586603D01*
X169090603Y-93672345D01*
X169044200Y-93784372D01*
X168648800Y-93784372D01*
X168648800Y-93768371D01*
X168602397Y-93656344D01*
X168516655Y-93570603D01*
X168404628Y-93524200D01*
X168122600Y-93524200D01*
X168046400Y-93600400D01*
X167741600Y-93600400D01*
X167665400Y-93524200D01*
X167383372Y-93524200D01*
X167271345Y-93570603D01*
X167185603Y-93656344D01*
X167139200Y-93768371D01*
X166636673Y-93768371D01*
X166654771Y-93679000D01*
X166654771Y-93540565D01*
X166706799Y-93279000D01*
X166654771Y-93017435D01*
X166654771Y-92879000D01*
X166633518Y-92766048D01*
X166566763Y-92662308D01*
X166464907Y-92592713D01*
X166344000Y-92568229D01*
X166265146Y-92568229D01*
X166205045Y-92528071D01*
X165894000Y-92466201D01*
X165582955Y-92528071D01*
X165576776Y-92532200D01*
X159556030Y-92532200D01*
X159475276Y-92451305D01*
X159087733Y-92290383D01*
X158668108Y-92290017D01*
X158280284Y-92450262D01*
X157983305Y-92746724D01*
X157822383Y-93134267D01*
X157822017Y-93553892D01*
X156539661Y-93553892D01*
X156696550Y-93489067D01*
X156924267Y-93261746D01*
X157047659Y-92964586D01*
X157047940Y-92642826D01*
X156925067Y-92345450D01*
X156697746Y-92117733D01*
X156400586Y-91994341D01*
X156078826Y-91994060D01*
X155781450Y-92116933D01*
X155625800Y-92272312D01*
X155625800Y-91333544D01*
X155780254Y-91488267D01*
X156077414Y-91611659D01*
X156399174Y-91611940D01*
X156696550Y-91489067D01*
X156924267Y-91261746D01*
X157027185Y-91013892D01*
X157822017Y-91013892D01*
X157982262Y-91401716D01*
X158278724Y-91698695D01*
X158666267Y-91859617D01*
X159085892Y-91859983D01*
X159473716Y-91699738D01*
X159555797Y-91617800D01*
X160185729Y-91617800D01*
X160185729Y-92055000D01*
X160206982Y-92167952D01*
X160273737Y-92271692D01*
X160375593Y-92341287D01*
X160496500Y-92365771D01*
X161496500Y-92365771D01*
X161609452Y-92344518D01*
X161713192Y-92277763D01*
X161782787Y-92175907D01*
X161807271Y-92055000D01*
X161807271Y-90815200D01*
X161809300Y-90805000D01*
X161807271Y-90794800D01*
X161807271Y-89555000D01*
X161786018Y-89442048D01*
X161719263Y-89338308D01*
X161617407Y-89268713D01*
X161496500Y-89244229D01*
X160496500Y-89244229D01*
X160383548Y-89265482D01*
X160279808Y-89332237D01*
X160210213Y-89434093D01*
X160185729Y-89555000D01*
X160185729Y-89992200D01*
X159556030Y-89992200D01*
X159475276Y-89911305D01*
X159087733Y-89750383D01*
X158668108Y-89750017D01*
X158280284Y-89910262D01*
X157983305Y-90206724D01*
X157822383Y-90594267D01*
X157822017Y-91013892D01*
X157027185Y-91013892D01*
X157047659Y-90964586D01*
X157047940Y-90642826D01*
X156925067Y-90345450D01*
X156697746Y-90117733D01*
X156400586Y-89994341D01*
X156078826Y-89994060D01*
X155781450Y-90116933D01*
X155625800Y-90272312D01*
X155625800Y-89333544D01*
X155780254Y-89488267D01*
X156077414Y-89611659D01*
X156399174Y-89611940D01*
X156696550Y-89489067D01*
X156924267Y-89261746D01*
X157047659Y-88964586D01*
X157047940Y-88642826D01*
X156925067Y-88345450D01*
X156697746Y-88117733D01*
X156400586Y-87994341D01*
X156078826Y-87994060D01*
X155781450Y-88116933D01*
X155625800Y-88272312D01*
X155625800Y-88011000D01*
X155563929Y-87699955D01*
X155529123Y-87647864D01*
X155387736Y-87436263D01*
X154914647Y-86963174D01*
X155430060Y-86963174D01*
X155552933Y-87260550D01*
X155780254Y-87488267D01*
X156077414Y-87611659D01*
X156399174Y-87611940D01*
X156696550Y-87489067D01*
X156924267Y-87261746D01*
X157047659Y-86964586D01*
X157047940Y-86642826D01*
X156925067Y-86345450D01*
X156697746Y-86117733D01*
X156400586Y-85994341D01*
X156078826Y-85994060D01*
X155781450Y-86116933D01*
X155553733Y-86344254D01*
X155430341Y-86641414D01*
X155430060Y-86963174D01*
X154914647Y-86963174D01*
X154117736Y-86166264D01*
X153854045Y-85990071D01*
X153798548Y-85979032D01*
X153543000Y-85928200D01*
X151120171Y-85928200D01*
X151118929Y-85921955D01*
X151055208Y-85826590D01*
X151755561Y-85826590D01*
X151911084Y-85795655D01*
X152042929Y-85707558D01*
X152778312Y-84972174D01*
X155430060Y-84972174D01*
X155552933Y-85269550D01*
X155780254Y-85497267D01*
X156077414Y-85620659D01*
X156399174Y-85620940D01*
X156696550Y-85498067D01*
X156924267Y-85270746D01*
X156973288Y-85152689D01*
X167157837Y-85152689D01*
X167270646Y-85318251D01*
X167745649Y-85471753D01*
X168243237Y-85431794D01*
X168517354Y-85318251D01*
X168630163Y-85152689D01*
X167894000Y-84416526D01*
X167157837Y-85152689D01*
X156973288Y-85152689D01*
X157047659Y-84973586D01*
X157047940Y-84651826D01*
X156992516Y-84517689D01*
X162331837Y-84517689D01*
X162444646Y-84683251D01*
X162919649Y-84836753D01*
X163417237Y-84796794D01*
X163691354Y-84683251D01*
X163804163Y-84517689D01*
X163068000Y-83781526D01*
X162331837Y-84517689D01*
X156992516Y-84517689D01*
X156925067Y-84354450D01*
X156697746Y-84126733D01*
X156400586Y-84003341D01*
X156078826Y-84003060D01*
X155781450Y-84125933D01*
X155553733Y-84353254D01*
X155430341Y-84650414D01*
X155430060Y-84972174D01*
X152778312Y-84972174D01*
X152814368Y-84936118D01*
X152902465Y-84804273D01*
X152933400Y-84648750D01*
X152933400Y-82963174D01*
X155430060Y-82963174D01*
X155552933Y-83260550D01*
X155780254Y-83488267D01*
X156077414Y-83611659D01*
X156399174Y-83611940D01*
X156696550Y-83489067D01*
X156768092Y-83417649D01*
X161797247Y-83417649D01*
X161837206Y-83915237D01*
X161950749Y-84189354D01*
X162116311Y-84302163D01*
X162852474Y-83566000D01*
X163283526Y-83566000D01*
X164019689Y-84302163D01*
X164185251Y-84189354D01*
X164229428Y-84052649D01*
X166623247Y-84052649D01*
X166663206Y-84550237D01*
X166776749Y-84824354D01*
X166942311Y-84937163D01*
X167678474Y-84201000D01*
X168109526Y-84201000D01*
X168845689Y-84937163D01*
X169011251Y-84824354D01*
X169164753Y-84349351D01*
X169124794Y-83851763D01*
X169011251Y-83577646D01*
X168845689Y-83464837D01*
X168109526Y-84201000D01*
X167678474Y-84201000D01*
X166942311Y-83464837D01*
X166776749Y-83577646D01*
X166623247Y-84052649D01*
X164229428Y-84052649D01*
X164338753Y-83714351D01*
X164301408Y-83249311D01*
X167157837Y-83249311D01*
X167894000Y-83985474D01*
X168630163Y-83249311D01*
X168517354Y-83083749D01*
X168042351Y-82930247D01*
X167544763Y-82970206D01*
X167270646Y-83083749D01*
X167157837Y-83249311D01*
X164301408Y-83249311D01*
X164298794Y-83216763D01*
X164185251Y-82942646D01*
X164019689Y-82829837D01*
X163283526Y-83566000D01*
X162852474Y-83566000D01*
X162116311Y-82829837D01*
X161950749Y-82942646D01*
X161797247Y-83417649D01*
X156768092Y-83417649D01*
X156924267Y-83261746D01*
X157047659Y-82964586D01*
X157047940Y-82642826D01*
X157036158Y-82614311D01*
X162331837Y-82614311D01*
X163068000Y-83350474D01*
X163804163Y-82614311D01*
X163691354Y-82448749D01*
X163216351Y-82295247D01*
X162718763Y-82335206D01*
X162444646Y-82448749D01*
X162331837Y-82614311D01*
X157036158Y-82614311D01*
X156925067Y-82345450D01*
X156697746Y-82117733D01*
X156400586Y-81994341D01*
X156078826Y-81994060D01*
X155781450Y-82116933D01*
X155553733Y-82344254D01*
X155430341Y-82641414D01*
X155430060Y-82963174D01*
X152933400Y-82963174D01*
X152933400Y-82414843D01*
X152945961Y-82427426D01*
X153168170Y-82519695D01*
X153408774Y-82519905D01*
X153631144Y-82428024D01*
X153801426Y-82258039D01*
X153893695Y-82035830D01*
X153893905Y-81795226D01*
X153802024Y-81572856D01*
X153695400Y-81466046D01*
X153695400Y-80972174D01*
X155430060Y-80972174D01*
X155552933Y-81269550D01*
X155780254Y-81497267D01*
X156077414Y-81620659D01*
X156399174Y-81620940D01*
X156696550Y-81498067D01*
X156924267Y-81270746D01*
X157047659Y-80973586D01*
X157047940Y-80651826D01*
X156925067Y-80354450D01*
X156697746Y-80126733D01*
X156400586Y-80003341D01*
X156078826Y-80003060D01*
X155781450Y-80125933D01*
X155553733Y-80353254D01*
X155430341Y-80650414D01*
X155430060Y-80972174D01*
X153695400Y-80972174D01*
X153695400Y-78963174D01*
X155430060Y-78963174D01*
X155552933Y-79260550D01*
X155780254Y-79488267D01*
X156077414Y-79611659D01*
X156399174Y-79611940D01*
X156696550Y-79489067D01*
X156924267Y-79261746D01*
X157047659Y-78964586D01*
X157047940Y-78642826D01*
X156925067Y-78345450D01*
X156697746Y-78117733D01*
X156400586Y-77994341D01*
X156078826Y-77994060D01*
X155781450Y-78116933D01*
X155553733Y-78344254D01*
X155430341Y-78641414D01*
X155430060Y-78963174D01*
X153695400Y-78963174D01*
X153695400Y-76963174D01*
X155430060Y-76963174D01*
X155552933Y-77260550D01*
X155780254Y-77488267D01*
X156077414Y-77611659D01*
X156399174Y-77611940D01*
X156696550Y-77489067D01*
X156924267Y-77261746D01*
X157047659Y-76964586D01*
X157047940Y-76642826D01*
X156925067Y-76345450D01*
X156697746Y-76117733D01*
X156400586Y-75994341D01*
X156078826Y-75994060D01*
X155781450Y-76116933D01*
X155553733Y-76344254D01*
X155430341Y-76641414D01*
X155430060Y-76963174D01*
X153695400Y-76963174D01*
X153695400Y-76648880D01*
X153801426Y-76543039D01*
X153893695Y-76320830D01*
X153893905Y-76080226D01*
X153848939Y-75971400D01*
X154279974Y-75971400D01*
X154435497Y-75940465D01*
X154567342Y-75852368D01*
X155437801Y-74981909D01*
X155552933Y-75260550D01*
X155780254Y-75488267D01*
X156077414Y-75611659D01*
X156399174Y-75611940D01*
X156696550Y-75489067D01*
X156924267Y-75261746D01*
X157047659Y-74964586D01*
X157047940Y-74642826D01*
X156925067Y-74345450D01*
X156900061Y-74320400D01*
X168487664Y-74320400D01*
X169646600Y-75479336D01*
G36*
X154000200Y-88347673D02*
X154000200Y-93599000D01*
X154051951Y-93859170D01*
X154062071Y-93910045D01*
X154238264Y-94173736D01*
X156602999Y-96538472D01*
X156602999Y-99573527D01*
X151180800Y-94151328D01*
X151180800Y-93980000D01*
X151118929Y-93668955D01*
X150942736Y-93405264D01*
X150679045Y-93229071D01*
X150368000Y-93167200D01*
X149860000Y-93167200D01*
X149548955Y-93229071D01*
X149453591Y-93292791D01*
X149453591Y-87936209D01*
X149548955Y-87999929D01*
X149860000Y-88061800D01*
X150368000Y-88061800D01*
X150679045Y-87999929D01*
X150942736Y-87823736D01*
X151118929Y-87560045D01*
X151120171Y-87553800D01*
X153206328Y-87553800D01*
X154000200Y-88347673D01*
X154000200Y-88347673D01*
G37*
X154000200Y-88347673D02*
X154000200Y-93599000D01*
X154051951Y-93859170D01*
X154062071Y-93910045D01*
X154238264Y-94173736D01*
X156602999Y-96538472D01*
X156602999Y-99573527D01*
X151180800Y-94151328D01*
X151180800Y-93980000D01*
X151118929Y-93668955D01*
X150942736Y-93405264D01*
X150679045Y-93229071D01*
X150368000Y-93167200D01*
X149860000Y-93167200D01*
X149548955Y-93229071D01*
X149453591Y-93292791D01*
X149453591Y-87936209D01*
X149548955Y-87999929D01*
X149860000Y-88061800D01*
X150368000Y-88061800D01*
X150679045Y-87999929D01*
X150942736Y-87823736D01*
X151118929Y-87560045D01*
X151120171Y-87553800D01*
X153206328Y-87553800D01*
X154000200Y-88347673D01*
G36*
X171324200Y-87156803D02*
X171285039Y-87117574D01*
X171062830Y-87025305D01*
X170822226Y-87025095D01*
X170599856Y-87116976D01*
X170499008Y-87217648D01*
X170471763Y-87175308D01*
X170369907Y-87105713D01*
X170249000Y-87081229D01*
X170205400Y-87081229D01*
X170205400Y-86401336D01*
X170848368Y-85758368D01*
X170860021Y-85740928D01*
X170936465Y-85626523D01*
X170967400Y-85471000D01*
X170967400Y-75057000D01*
X170936466Y-74901478D01*
X170848368Y-74769632D01*
X169197368Y-73118632D01*
X169065523Y-73030535D01*
X168910000Y-72999600D01*
X155829000Y-72999600D01*
X155673477Y-73030535D01*
X155541632Y-73118632D01*
X153908075Y-74752189D01*
X153859497Y-74752189D01*
X153893695Y-74669830D01*
X153893905Y-74429226D01*
X153802024Y-74206856D01*
X153695400Y-74100046D01*
X153695400Y-73727880D01*
X153801426Y-73622039D01*
X153893695Y-73399830D01*
X153893905Y-73159226D01*
X153802024Y-72936856D01*
X153632039Y-72766574D01*
X153409830Y-72674305D01*
X153169226Y-72674095D01*
X152946856Y-72765976D01*
X152776574Y-72935961D01*
X152684305Y-73158170D01*
X152684095Y-73398774D01*
X152775976Y-73621144D01*
X152882600Y-73727954D01*
X152882600Y-74100120D01*
X152776574Y-74205961D01*
X152684305Y-74428170D01*
X152684095Y-74668774D01*
X152718561Y-74752189D01*
X150009427Y-74752189D01*
X149976048Y-74718810D01*
X149949992Y-74701400D01*
X149844203Y-74630713D01*
X149688680Y-74599778D01*
X149499313Y-74599778D01*
X149575695Y-74415830D01*
X149575905Y-74175226D01*
X149484024Y-73952856D01*
X149314039Y-73782574D01*
X149240387Y-73751991D01*
X150401368Y-72591010D01*
X150448468Y-72520520D01*
X150449345Y-72521397D01*
X150561372Y-72567800D01*
X151155400Y-72567800D01*
X151231600Y-72491600D01*
X151231600Y-71653400D01*
X151536400Y-71653400D01*
X151536400Y-72491600D01*
X151612600Y-72567800D01*
X152206628Y-72567800D01*
X152318655Y-72521397D01*
X152404397Y-72435656D01*
X152450800Y-72323629D01*
X152450800Y-71729600D01*
X152374600Y-71653400D01*
X151536400Y-71653400D01*
X151231600Y-71653400D01*
X151211600Y-71653400D01*
X151211600Y-71348600D01*
X151231600Y-71348600D01*
X151231600Y-70510400D01*
X151536400Y-70510400D01*
X151536400Y-71348600D01*
X152374600Y-71348600D01*
X152450800Y-71272400D01*
X152450800Y-70678371D01*
X152404397Y-70566344D01*
X152318655Y-70480603D01*
X152206628Y-70434200D01*
X151612600Y-70434200D01*
X151536400Y-70510400D01*
X151231600Y-70510400D01*
X151155400Y-70434200D01*
X150561372Y-70434200D01*
X150520400Y-70451171D01*
X150520400Y-70013197D01*
X150622000Y-70033771D01*
X152146000Y-70033771D01*
X152258952Y-70012518D01*
X152362692Y-69945763D01*
X152432287Y-69843907D01*
X152456771Y-69723000D01*
X152456771Y-69215000D01*
X155190323Y-69215000D01*
X155345280Y-69994020D01*
X155786559Y-70654441D01*
X156446980Y-71095720D01*
X157226000Y-71250677D01*
X158005020Y-71095720D01*
X158665441Y-70654441D01*
X159076204Y-70039689D01*
X162331837Y-70039689D01*
X162444646Y-70205251D01*
X162919649Y-70358753D01*
X163417237Y-70318794D01*
X163691354Y-70205251D01*
X163804163Y-70039689D01*
X163068000Y-69303526D01*
X162331837Y-70039689D01*
X159076204Y-70039689D01*
X159106720Y-69994020D01*
X159261677Y-69215000D01*
X159206907Y-68939649D01*
X161797247Y-68939649D01*
X161837206Y-69437237D01*
X161950749Y-69711354D01*
X162116311Y-69824163D01*
X162852474Y-69088000D01*
X163283526Y-69088000D01*
X164019689Y-69824163D01*
X164185251Y-69711354D01*
X164284352Y-69404689D01*
X167157837Y-69404689D01*
X167270646Y-69570251D01*
X167745649Y-69723753D01*
X168243237Y-69683794D01*
X168517354Y-69570251D01*
X168630163Y-69404689D01*
X167894000Y-68668526D01*
X167157837Y-69404689D01*
X164284352Y-69404689D01*
X164338753Y-69236351D01*
X164298794Y-68738763D01*
X164185251Y-68464646D01*
X164019689Y-68351837D01*
X163283526Y-69088000D01*
X162852474Y-69088000D01*
X162116311Y-68351837D01*
X161950749Y-68464646D01*
X161797247Y-68939649D01*
X159206907Y-68939649D01*
X159106720Y-68435980D01*
X158906488Y-68136311D01*
X162331837Y-68136311D01*
X163068000Y-68872474D01*
X163635825Y-68304649D01*
X166623247Y-68304649D01*
X166663206Y-68802237D01*
X166776749Y-69076354D01*
X166942311Y-69189163D01*
X167678474Y-68453000D01*
X168109526Y-68453000D01*
X168845689Y-69189163D01*
X169011251Y-69076354D01*
X169164753Y-68601351D01*
X169124794Y-68103763D01*
X169011251Y-67829646D01*
X168845689Y-67716837D01*
X168109526Y-68453000D01*
X167678474Y-68453000D01*
X166942311Y-67716837D01*
X166776749Y-67829646D01*
X166623247Y-68304649D01*
X163635825Y-68304649D01*
X163804163Y-68136311D01*
X163691354Y-67970749D01*
X163216351Y-67817247D01*
X162718763Y-67857206D01*
X162444646Y-67970749D01*
X162331837Y-68136311D01*
X158906488Y-68136311D01*
X158665441Y-67775559D01*
X158255000Y-67501311D01*
X167157837Y-67501311D01*
X167894000Y-68237474D01*
X168630163Y-67501311D01*
X168517354Y-67335749D01*
X168042351Y-67182247D01*
X167544763Y-67222206D01*
X167270646Y-67335749D01*
X167157837Y-67501311D01*
X158255000Y-67501311D01*
X158005020Y-67334280D01*
X157226000Y-67179323D01*
X156446980Y-67334280D01*
X155786559Y-67775559D01*
X155345280Y-68435980D01*
X155190323Y-69215000D01*
X152456771Y-69215000D01*
X152456771Y-68199000D01*
X152435518Y-68086048D01*
X152368763Y-67982308D01*
X152266907Y-67912713D01*
X152146000Y-67888229D01*
X150622000Y-67888229D01*
X150509048Y-67909482D01*
X150405308Y-67976237D01*
X150335713Y-68078093D01*
X150311229Y-68199000D01*
X150311229Y-68575997D01*
X150263277Y-68585535D01*
X150131432Y-68673632D01*
X149916771Y-68888293D01*
X149916771Y-68199000D01*
X149895518Y-68086048D01*
X149828763Y-67982308D01*
X149726907Y-67912713D01*
X149606000Y-67888229D01*
X148082000Y-67888229D01*
X147969048Y-67909482D01*
X147865308Y-67976237D01*
X147795713Y-68078093D01*
X147771229Y-68199000D01*
X147771229Y-68906598D01*
X147734368Y-68851432D01*
X147556568Y-68673632D01*
X147492961Y-68631131D01*
X147424723Y-68585535D01*
X147376771Y-68575997D01*
X147376771Y-68199000D01*
X147355518Y-68086048D01*
X147288763Y-67982308D01*
X147186907Y-67912713D01*
X147066000Y-67888229D01*
X145542000Y-67888229D01*
X145429048Y-67909482D01*
X145325308Y-67976237D01*
X145255713Y-68078093D01*
X145231229Y-68199000D01*
X145231229Y-69522967D01*
X143814771Y-68106509D01*
X143814771Y-67811000D01*
X143793518Y-67698048D01*
X143733765Y-67605189D01*
X143733905Y-67444226D01*
X143642024Y-67221856D01*
X143475259Y-67054800D01*
X171324200Y-67054800D01*
X171324200Y-87156803D01*
X171324200Y-87156803D01*
G37*
X171324200Y-87156803D02*
X171285039Y-87117574D01*
X171062830Y-87025305D01*
X170822226Y-87025095D01*
X170599856Y-87116976D01*
X170499008Y-87217648D01*
X170471763Y-87175308D01*
X170369907Y-87105713D01*
X170249000Y-87081229D01*
X170205400Y-87081229D01*
X170205400Y-86401336D01*
X170848368Y-85758368D01*
X170860021Y-85740928D01*
X170936465Y-85626523D01*
X170967400Y-85471000D01*
X170967400Y-75057000D01*
X170936466Y-74901478D01*
X170848368Y-74769632D01*
X169197368Y-73118632D01*
X169065523Y-73030535D01*
X168910000Y-72999600D01*
X155829000Y-72999600D01*
X155673477Y-73030535D01*
X155541632Y-73118632D01*
X153908075Y-74752189D01*
X153859497Y-74752189D01*
X153893695Y-74669830D01*
X153893905Y-74429226D01*
X153802024Y-74206856D01*
X153695400Y-74100046D01*
X153695400Y-73727880D01*
X153801426Y-73622039D01*
X153893695Y-73399830D01*
X153893905Y-73159226D01*
X153802024Y-72936856D01*
X153632039Y-72766574D01*
X153409830Y-72674305D01*
X153169226Y-72674095D01*
X152946856Y-72765976D01*
X152776574Y-72935961D01*
X152684305Y-73158170D01*
X152684095Y-73398774D01*
X152775976Y-73621144D01*
X152882600Y-73727954D01*
X152882600Y-74100120D01*
X152776574Y-74205961D01*
X152684305Y-74428170D01*
X152684095Y-74668774D01*
X152718561Y-74752189D01*
X150009427Y-74752189D01*
X149976048Y-74718810D01*
X149949992Y-74701400D01*
X149844203Y-74630713D01*
X149688680Y-74599778D01*
X149499313Y-74599778D01*
X149575695Y-74415830D01*
X149575905Y-74175226D01*
X149484024Y-73952856D01*
X149314039Y-73782574D01*
X149240387Y-73751991D01*
X150401368Y-72591010D01*
X150448468Y-72520520D01*
X150449345Y-72521397D01*
X150561372Y-72567800D01*
X151155400Y-72567800D01*
X151231600Y-72491600D01*
X151231600Y-71653400D01*
X151536400Y-71653400D01*
X151536400Y-72491600D01*
X151612600Y-72567800D01*
X152206628Y-72567800D01*
X152318655Y-72521397D01*
X152404397Y-72435656D01*
X152450800Y-72323629D01*
X152450800Y-71729600D01*
X152374600Y-71653400D01*
X151536400Y-71653400D01*
X151231600Y-71653400D01*
X151211600Y-71653400D01*
X151211600Y-71348600D01*
X151231600Y-71348600D01*
X151231600Y-70510400D01*
X151536400Y-70510400D01*
X151536400Y-71348600D01*
X152374600Y-71348600D01*
X152450800Y-71272400D01*
X152450800Y-70678371D01*
X152404397Y-70566344D01*
X152318655Y-70480603D01*
X152206628Y-70434200D01*
X151612600Y-70434200D01*
X151536400Y-70510400D01*
X151231600Y-70510400D01*
X151155400Y-70434200D01*
X150561372Y-70434200D01*
X150520400Y-70451171D01*
X150520400Y-70013197D01*
X150622000Y-70033771D01*
X152146000Y-70033771D01*
X152258952Y-70012518D01*
X152362692Y-69945763D01*
X152432287Y-69843907D01*
X152456771Y-69723000D01*
X152456771Y-69215000D01*
X155190323Y-69215000D01*
X155345280Y-69994020D01*
X155786559Y-70654441D01*
X156446980Y-71095720D01*
X157226000Y-71250677D01*
X158005020Y-71095720D01*
X158665441Y-70654441D01*
X159076204Y-70039689D01*
X162331837Y-70039689D01*
X162444646Y-70205251D01*
X162919649Y-70358753D01*
X163417237Y-70318794D01*
X163691354Y-70205251D01*
X163804163Y-70039689D01*
X163068000Y-69303526D01*
X162331837Y-70039689D01*
X159076204Y-70039689D01*
X159106720Y-69994020D01*
X159261677Y-69215000D01*
X159206907Y-68939649D01*
X161797247Y-68939649D01*
X161837206Y-69437237D01*
X161950749Y-69711354D01*
X162116311Y-69824163D01*
X162852474Y-69088000D01*
X163283526Y-69088000D01*
X164019689Y-69824163D01*
X164185251Y-69711354D01*
X164284352Y-69404689D01*
X167157837Y-69404689D01*
X167270646Y-69570251D01*
X167745649Y-69723753D01*
X168243237Y-69683794D01*
X168517354Y-69570251D01*
X168630163Y-69404689D01*
X167894000Y-68668526D01*
X167157837Y-69404689D01*
X164284352Y-69404689D01*
X164338753Y-69236351D01*
X164298794Y-68738763D01*
X164185251Y-68464646D01*
X164019689Y-68351837D01*
X163283526Y-69088000D01*
X162852474Y-69088000D01*
X162116311Y-68351837D01*
X161950749Y-68464646D01*
X161797247Y-68939649D01*
X159206907Y-68939649D01*
X159106720Y-68435980D01*
X158906488Y-68136311D01*
X162331837Y-68136311D01*
X163068000Y-68872474D01*
X163635825Y-68304649D01*
X166623247Y-68304649D01*
X166663206Y-68802237D01*
X166776749Y-69076354D01*
X166942311Y-69189163D01*
X167678474Y-68453000D01*
X168109526Y-68453000D01*
X168845689Y-69189163D01*
X169011251Y-69076354D01*
X169164753Y-68601351D01*
X169124794Y-68103763D01*
X169011251Y-67829646D01*
X168845689Y-67716837D01*
X168109526Y-68453000D01*
X167678474Y-68453000D01*
X166942311Y-67716837D01*
X166776749Y-67829646D01*
X166623247Y-68304649D01*
X163635825Y-68304649D01*
X163804163Y-68136311D01*
X163691354Y-67970749D01*
X163216351Y-67817247D01*
X162718763Y-67857206D01*
X162444646Y-67970749D01*
X162331837Y-68136311D01*
X158906488Y-68136311D01*
X158665441Y-67775559D01*
X158255000Y-67501311D01*
X167157837Y-67501311D01*
X167894000Y-68237474D01*
X168630163Y-67501311D01*
X168517354Y-67335749D01*
X168042351Y-67182247D01*
X167544763Y-67222206D01*
X167270646Y-67335749D01*
X167157837Y-67501311D01*
X158255000Y-67501311D01*
X158005020Y-67334280D01*
X157226000Y-67179323D01*
X156446980Y-67334280D01*
X155786559Y-67775559D01*
X155345280Y-68435980D01*
X155190323Y-69215000D01*
X152456771Y-69215000D01*
X152456771Y-68199000D01*
X152435518Y-68086048D01*
X152368763Y-67982308D01*
X152266907Y-67912713D01*
X152146000Y-67888229D01*
X150622000Y-67888229D01*
X150509048Y-67909482D01*
X150405308Y-67976237D01*
X150335713Y-68078093D01*
X150311229Y-68199000D01*
X150311229Y-68575997D01*
X150263277Y-68585535D01*
X150131432Y-68673632D01*
X149916771Y-68888293D01*
X149916771Y-68199000D01*
X149895518Y-68086048D01*
X149828763Y-67982308D01*
X149726907Y-67912713D01*
X149606000Y-67888229D01*
X148082000Y-67888229D01*
X147969048Y-67909482D01*
X147865308Y-67976237D01*
X147795713Y-68078093D01*
X147771229Y-68199000D01*
X147771229Y-68906598D01*
X147734368Y-68851432D01*
X147556568Y-68673632D01*
X147492961Y-68631131D01*
X147424723Y-68585535D01*
X147376771Y-68575997D01*
X147376771Y-68199000D01*
X147355518Y-68086048D01*
X147288763Y-67982308D01*
X147186907Y-67912713D01*
X147066000Y-67888229D01*
X145542000Y-67888229D01*
X145429048Y-67909482D01*
X145325308Y-67976237D01*
X145255713Y-68078093D01*
X145231229Y-68199000D01*
X145231229Y-69522967D01*
X143814771Y-68106509D01*
X143814771Y-67811000D01*
X143793518Y-67698048D01*
X143733765Y-67605189D01*
X143733905Y-67444226D01*
X143642024Y-67221856D01*
X143475259Y-67054800D01*
X171324200Y-67054800D01*
X171324200Y-87156803D01*
G36*
X146865062Y-77985619D02*
X146933244Y-78088426D01*
X147463574Y-78618756D01*
X147558471Y-78683597D01*
X147679029Y-78709749D01*
X147755162Y-78695424D01*
X147765200Y-78705462D01*
X147765200Y-81102200D01*
X143964580Y-81102200D01*
X143876362Y-81043254D01*
X143723407Y-81012830D01*
X145272327Y-79463910D01*
X146303616Y-79463910D01*
X146303616Y-79571673D01*
X146364266Y-79632323D01*
X146450007Y-79718065D01*
X146562034Y-79764468D01*
X146683291Y-79764468D01*
X146795318Y-79718064D01*
X146959387Y-79553996D01*
X146959387Y-79446233D01*
X146640340Y-79127186D01*
X146303616Y-79463910D01*
X145272327Y-79463910D01*
X145787532Y-78948705D01*
X145787532Y-78989966D01*
X145833935Y-79101993D01*
X145919677Y-79187734D01*
X145980327Y-79248384D01*
X146088090Y-79248384D01*
X146424814Y-78911660D01*
X146855866Y-78911660D01*
X147174913Y-79230707D01*
X147282676Y-79230707D01*
X147446744Y-79066638D01*
X147493148Y-78954611D01*
X147493148Y-78833354D01*
X147446745Y-78721327D01*
X147361003Y-78635586D01*
X147300353Y-78574936D01*
X147192590Y-78574936D01*
X146855866Y-78911660D01*
X146424814Y-78911660D01*
X146410672Y-78897518D01*
X146626198Y-78681992D01*
X146640340Y-78696134D01*
X146977064Y-78359410D01*
X146977064Y-78251647D01*
X146916414Y-78190997D01*
X146830673Y-78105255D01*
X146718646Y-78058852D01*
X146677385Y-78058852D01*
X146846939Y-77889298D01*
X146865062Y-77985619D01*
X146865062Y-77985619D01*
G37*
X146865062Y-77985619D02*
X146933244Y-78088426D01*
X147463574Y-78618756D01*
X147558471Y-78683597D01*
X147679029Y-78709749D01*
X147755162Y-78695424D01*
X147765200Y-78705462D01*
X147765200Y-81102200D01*
X143964580Y-81102200D01*
X143876362Y-81043254D01*
X143723407Y-81012830D01*
X145272327Y-79463910D01*
X146303616Y-79463910D01*
X146303616Y-79571673D01*
X146364266Y-79632323D01*
X146450007Y-79718065D01*
X146562034Y-79764468D01*
X146683291Y-79764468D01*
X146795318Y-79718064D01*
X146959387Y-79553996D01*
X146959387Y-79446233D01*
X146640340Y-79127186D01*
X146303616Y-79463910D01*
X145272327Y-79463910D01*
X145787532Y-78948705D01*
X145787532Y-78989966D01*
X145833935Y-79101993D01*
X145919677Y-79187734D01*
X145980327Y-79248384D01*
X146088090Y-79248384D01*
X146424814Y-78911660D01*
X146855866Y-78911660D01*
X147174913Y-79230707D01*
X147282676Y-79230707D01*
X147446744Y-79066638D01*
X147493148Y-78954611D01*
X147493148Y-78833354D01*
X147446745Y-78721327D01*
X147361003Y-78635586D01*
X147300353Y-78574936D01*
X147192590Y-78574936D01*
X146855866Y-78911660D01*
X146424814Y-78911660D01*
X146410672Y-78897518D01*
X146626198Y-78681992D01*
X146640340Y-78696134D01*
X146977064Y-78359410D01*
X146977064Y-78251647D01*
X146916414Y-78190997D01*
X146830673Y-78105255D01*
X146718646Y-78058852D01*
X146677385Y-78058852D01*
X146846939Y-77889298D01*
X146865062Y-77985619D01*
G36*
X143281400Y-69558600D02*
X143686338Y-69558600D01*
X145231229Y-71103491D01*
X145231229Y-71615763D01*
X145027830Y-71531305D01*
X144787226Y-71531095D01*
X144564856Y-71622976D01*
X144458046Y-71729600D01*
X143510000Y-71729600D01*
X143354477Y-71760535D01*
X143230845Y-71843144D01*
X143222632Y-71848632D01*
X140174632Y-74896632D01*
X140086535Y-75028477D01*
X140055600Y-75184000D01*
X140055600Y-80010000D01*
X140086535Y-80165523D01*
X140156823Y-80270715D01*
X140174632Y-80297368D01*
X140877982Y-81000718D01*
X139067981Y-81000718D01*
X138607800Y-80540538D01*
X138607800Y-76962000D01*
X138565264Y-76748156D01*
X138444131Y-76566869D01*
X136285131Y-74407869D01*
X136272883Y-74399685D01*
X136103844Y-74286736D01*
X135890000Y-74244200D01*
X135043460Y-74244200D01*
X135032518Y-74186048D01*
X134965763Y-74082308D01*
X134863907Y-74012713D01*
X134817040Y-74003222D01*
X137199488Y-71620774D01*
X137825095Y-71620774D01*
X137916976Y-71843144D01*
X138086961Y-72013426D01*
X138309170Y-72105695D01*
X138549774Y-72105905D01*
X138681671Y-72051407D01*
X138708237Y-72092692D01*
X138810093Y-72162287D01*
X138931000Y-72186771D01*
X139731000Y-72186771D01*
X139843952Y-72165518D01*
X139947692Y-72098763D01*
X140017287Y-71996907D01*
X140041771Y-71876000D01*
X140041771Y-71729600D01*
X140126200Y-71729600D01*
X140126200Y-71936629D01*
X140172603Y-72048656D01*
X140258345Y-72134397D01*
X140370372Y-72180800D01*
X140602400Y-72180800D01*
X140678600Y-72104600D01*
X140678600Y-71653400D01*
X140983400Y-71653400D01*
X140983400Y-72104600D01*
X141059600Y-72180800D01*
X141291628Y-72180800D01*
X141403655Y-72134397D01*
X141489397Y-72048656D01*
X141535800Y-71936629D01*
X141535800Y-71729600D01*
X141459600Y-71653400D01*
X140983400Y-71653400D01*
X140678600Y-71653400D01*
X140202400Y-71653400D01*
X140126200Y-71729600D01*
X140041771Y-71729600D01*
X140041771Y-71126000D01*
X140030364Y-71065371D01*
X140126200Y-71065371D01*
X140126200Y-71272400D01*
X140202400Y-71348600D01*
X140678600Y-71348600D01*
X140678600Y-70897400D01*
X140983400Y-70897400D01*
X140983400Y-71348600D01*
X141459600Y-71348600D01*
X141535800Y-71272400D01*
X141535800Y-71065371D01*
X141489397Y-70953344D01*
X141403655Y-70867603D01*
X141291628Y-70821200D01*
X141059600Y-70821200D01*
X140983400Y-70897400D01*
X140678600Y-70897400D01*
X140602400Y-70821200D01*
X140370372Y-70821200D01*
X140258345Y-70867603D01*
X140172603Y-70953344D01*
X140126200Y-71065371D01*
X140030364Y-71065371D01*
X140020518Y-71013048D01*
X139953763Y-70909308D01*
X139851907Y-70839713D01*
X139731000Y-70815229D01*
X138931000Y-70815229D01*
X138818048Y-70836482D01*
X138714308Y-70903237D01*
X138681867Y-70950716D01*
X138550830Y-70896305D01*
X138310226Y-70896095D01*
X138087856Y-70987976D01*
X137917574Y-71157961D01*
X137825305Y-71380170D01*
X137825095Y-71620774D01*
X137199488Y-71620774D01*
X138595261Y-70225001D01*
X141698799Y-70225001D01*
X141912643Y-70182465D01*
X142093930Y-70061332D01*
X142215662Y-69939600D01*
X142449200Y-69939600D01*
X142449200Y-70171628D01*
X142495603Y-70283655D01*
X142581344Y-70369397D01*
X142693371Y-70415800D01*
X142900400Y-70415800D01*
X142976600Y-70339600D01*
X142976600Y-69863400D01*
X143281400Y-69863400D01*
X143281400Y-70339600D01*
X143357600Y-70415800D01*
X143564629Y-70415800D01*
X143676656Y-70369397D01*
X143762397Y-70283655D01*
X143808800Y-70171628D01*
X143808800Y-69939600D01*
X143732600Y-69863400D01*
X143281400Y-69863400D01*
X142976600Y-69863400D01*
X142525400Y-69863400D01*
X142449200Y-69939600D01*
X142215662Y-69939600D01*
X142596662Y-69558600D01*
X142976600Y-69558600D01*
X142976600Y-69538600D01*
X143281400Y-69538600D01*
X143281400Y-69558600D01*
X143281400Y-69558600D01*
G37*
X143281400Y-69558600D02*
X143686338Y-69558600D01*
X145231229Y-71103491D01*
X145231229Y-71615763D01*
X145027830Y-71531305D01*
X144787226Y-71531095D01*
X144564856Y-71622976D01*
X144458046Y-71729600D01*
X143510000Y-71729600D01*
X143354477Y-71760535D01*
X143230845Y-71843144D01*
X143222632Y-71848632D01*
X140174632Y-74896632D01*
X140086535Y-75028477D01*
X140055600Y-75184000D01*
X140055600Y-80010000D01*
X140086535Y-80165523D01*
X140156823Y-80270715D01*
X140174632Y-80297368D01*
X140877982Y-81000718D01*
X139067981Y-81000718D01*
X138607800Y-80540538D01*
X138607800Y-76962000D01*
X138565264Y-76748156D01*
X138444131Y-76566869D01*
X136285131Y-74407869D01*
X136272883Y-74399685D01*
X136103844Y-74286736D01*
X135890000Y-74244200D01*
X135043460Y-74244200D01*
X135032518Y-74186048D01*
X134965763Y-74082308D01*
X134863907Y-74012713D01*
X134817040Y-74003222D01*
X137199488Y-71620774D01*
X137825095Y-71620774D01*
X137916976Y-71843144D01*
X138086961Y-72013426D01*
X138309170Y-72105695D01*
X138549774Y-72105905D01*
X138681671Y-72051407D01*
X138708237Y-72092692D01*
X138810093Y-72162287D01*
X138931000Y-72186771D01*
X139731000Y-72186771D01*
X139843952Y-72165518D01*
X139947692Y-72098763D01*
X140017287Y-71996907D01*
X140041771Y-71876000D01*
X140041771Y-71729600D01*
X140126200Y-71729600D01*
X140126200Y-71936629D01*
X140172603Y-72048656D01*
X140258345Y-72134397D01*
X140370372Y-72180800D01*
X140602400Y-72180800D01*
X140678600Y-72104600D01*
X140678600Y-71653400D01*
X140983400Y-71653400D01*
X140983400Y-72104600D01*
X141059600Y-72180800D01*
X141291628Y-72180800D01*
X141403655Y-72134397D01*
X141489397Y-72048656D01*
X141535800Y-71936629D01*
X141535800Y-71729600D01*
X141459600Y-71653400D01*
X140983400Y-71653400D01*
X140678600Y-71653400D01*
X140202400Y-71653400D01*
X140126200Y-71729600D01*
X140041771Y-71729600D01*
X140041771Y-71126000D01*
X140030364Y-71065371D01*
X140126200Y-71065371D01*
X140126200Y-71272400D01*
X140202400Y-71348600D01*
X140678600Y-71348600D01*
X140678600Y-70897400D01*
X140983400Y-70897400D01*
X140983400Y-71348600D01*
X141459600Y-71348600D01*
X141535800Y-71272400D01*
X141535800Y-71065371D01*
X141489397Y-70953344D01*
X141403655Y-70867603D01*
X141291628Y-70821200D01*
X141059600Y-70821200D01*
X140983400Y-70897400D01*
X140678600Y-70897400D01*
X140602400Y-70821200D01*
X140370372Y-70821200D01*
X140258345Y-70867603D01*
X140172603Y-70953344D01*
X140126200Y-71065371D01*
X140030364Y-71065371D01*
X140020518Y-71013048D01*
X139953763Y-70909308D01*
X139851907Y-70839713D01*
X139731000Y-70815229D01*
X138931000Y-70815229D01*
X138818048Y-70836482D01*
X138714308Y-70903237D01*
X138681867Y-70950716D01*
X138550830Y-70896305D01*
X138310226Y-70896095D01*
X138087856Y-70987976D01*
X137917574Y-71157961D01*
X137825305Y-71380170D01*
X137825095Y-71620774D01*
X137199488Y-71620774D01*
X138595261Y-70225001D01*
X141698799Y-70225001D01*
X141912643Y-70182465D01*
X142093930Y-70061332D01*
X142215662Y-69939600D01*
X142449200Y-69939600D01*
X142449200Y-70171628D01*
X142495603Y-70283655D01*
X142581344Y-70369397D01*
X142693371Y-70415800D01*
X142900400Y-70415800D01*
X142976600Y-70339600D01*
X142976600Y-69863400D01*
X143281400Y-69863400D01*
X143281400Y-70339600D01*
X143357600Y-70415800D01*
X143564629Y-70415800D01*
X143676656Y-70369397D01*
X143762397Y-70283655D01*
X143808800Y-70171628D01*
X143808800Y-69939600D01*
X143732600Y-69863400D01*
X143281400Y-69863400D01*
X142976600Y-69863400D01*
X142525400Y-69863400D01*
X142449200Y-69939600D01*
X142215662Y-69939600D01*
X142596662Y-69558600D01*
X142976600Y-69558600D01*
X142976600Y-69538600D01*
X143281400Y-69538600D01*
X143281400Y-69558600D01*
M02*
