G04 #@! TF.FileFunction,Soldermask,Top*
%FSLAX46Y46*%
G04 Gerber Fmt 4.6, Leading zero omitted, Abs format (unit mm)*
G04 Created by KiCad (PCBNEW 4.0.5+dfsg1-4) date Sat Dec 30 21:31:50 2017*
%MOMM*%
%LPD*%
G01*
G04 APERTURE LIST*
%ADD10C,0.100000*%
%ADD11R,1.150000X1.200000*%
%ADD12R,1.200000X1.200000*%
%ADD13R,1.400000X2.300000*%
%ADD14R,1.900000X2.500000*%
%ADD15R,0.850000X1.780000*%
%ADD16R,1.908000X1.908000*%
%ADD17C,1.908000*%
%ADD18R,2.200000X0.700000*%
%ADD19C,2.300000*%
%ADD20C,1.900000*%
%ADD21R,1.300000X0.900000*%
%ADD22R,1.050000X0.700000*%
%ADD23R,1.175000X1.640000*%
%ADD24R,1.200000X0.750000*%
%ADD25R,0.750000X1.200000*%
%ADD26R,1.650000X1.650000*%
%ADD27C,1.924000*%
%ADD28R,2.940000X2.940000*%
%ADD29R,1.950000X1.000000*%
%ADD30R,2.200000X1.600000*%
%ADD31R,1.900000X0.850000*%
%ADD32R,1.408000X1.408000*%
%ADD33C,1.408000*%
G04 APERTURE END LIST*
D10*
D11*
X134874000Y-68211000D03*
X134874000Y-69711000D03*
X134874000Y-71259000D03*
X134874000Y-72759000D03*
D12*
X153289000Y-69253000D03*
X153289000Y-67653000D03*
D13*
X143256000Y-121793000D03*
X138756000Y-121793000D03*
D14*
X143506000Y-119293000D03*
X138506000Y-119293000D03*
D15*
X141006000Y-118943000D03*
X141606000Y-118943000D03*
X142206000Y-118943000D03*
X140406000Y-118943000D03*
X139806000Y-118943000D03*
D16*
X154305000Y-111513000D03*
D17*
X154305000Y-109013000D03*
X154305000Y-106513000D03*
X154305000Y-104013000D03*
D18*
X161464000Y-71831000D03*
X161464000Y-72331000D03*
X161464000Y-72831000D03*
X161464000Y-73331000D03*
X161464000Y-74331000D03*
X161464000Y-75331000D03*
X161464000Y-73831000D03*
X161464000Y-74831000D03*
X161464000Y-76831000D03*
X161464000Y-79331000D03*
X161464000Y-77831000D03*
X161464000Y-78331000D03*
X161464000Y-76331000D03*
X161464000Y-77331000D03*
X161464000Y-75831000D03*
X161464000Y-78831000D03*
X161464000Y-79831000D03*
X161464000Y-80331000D03*
X161464000Y-80831000D03*
D19*
X167894000Y-68453000D03*
X163068000Y-69088000D03*
X163068000Y-83566000D03*
X167894000Y-84201000D03*
D20*
X158877000Y-116205000D03*
X158877000Y-118745000D03*
X158877000Y-121285000D03*
X158877000Y-113665000D03*
X158877000Y-108585000D03*
X158877000Y-111125000D03*
X158877000Y-95885000D03*
X158877000Y-93345000D03*
X158877000Y-98425000D03*
X158877000Y-106045000D03*
X158877000Y-100965000D03*
X158877000Y-103505000D03*
X158877000Y-90805000D03*
X158940500Y-88265000D03*
D21*
X153289000Y-70612000D03*
X153289000Y-72112000D03*
D22*
X138505000Y-106839000D03*
X138505000Y-107339000D03*
X138505000Y-107839000D03*
X138505000Y-108339000D03*
X138505000Y-108839000D03*
X141605000Y-108839000D03*
X141605000Y-108339000D03*
X141605000Y-107839000D03*
X141605000Y-107339000D03*
X141605000Y-106839000D03*
D23*
X140442500Y-108459000D03*
X140442500Y-107219000D03*
X139667500Y-108459000D03*
X139667500Y-107219000D03*
D24*
X138113000Y-112858000D03*
X138113000Y-113508000D03*
X138113000Y-114158000D03*
X138113000Y-114808000D03*
D25*
X139138000Y-115833000D03*
X139788000Y-115833000D03*
X140438000Y-115833000D03*
X141088000Y-115833000D03*
D24*
X142113000Y-114808000D03*
X142113000Y-114158000D03*
X142113000Y-113508000D03*
X142113000Y-112858000D03*
D25*
X141088000Y-111833000D03*
X140438000Y-111833000D03*
X139788000Y-111833000D03*
X139138000Y-111833000D03*
D26*
X140738000Y-114458000D03*
X140738000Y-113208000D03*
X139488000Y-114458000D03*
X139488000Y-113208000D03*
D10*
G36*
X142623789Y-80466830D02*
X142164170Y-80007211D01*
X142941987Y-79229394D01*
X143401606Y-79689013D01*
X142623789Y-80466830D01*
X142623789Y-80466830D01*
G37*
G36*
X142977342Y-80820384D02*
X142517723Y-80360765D01*
X143295540Y-79582948D01*
X143755159Y-80042567D01*
X142977342Y-80820384D01*
X142977342Y-80820384D01*
G37*
G36*
X143330896Y-81173937D02*
X142871277Y-80714318D01*
X143649094Y-79936501D01*
X144108713Y-80396120D01*
X143330896Y-81173937D01*
X143330896Y-81173937D01*
G37*
G36*
X143684449Y-81527491D02*
X143224830Y-81067872D01*
X144002647Y-80290055D01*
X144462266Y-80749674D01*
X143684449Y-81527491D01*
X143684449Y-81527491D01*
G37*
G36*
X144038002Y-81881044D02*
X143578383Y-81421425D01*
X144356200Y-80643608D01*
X144815819Y-81103227D01*
X144038002Y-81881044D01*
X144038002Y-81881044D01*
G37*
G36*
X144391556Y-82234597D02*
X143931937Y-81774978D01*
X144709754Y-80997161D01*
X145169373Y-81456780D01*
X144391556Y-82234597D01*
X144391556Y-82234597D01*
G37*
G36*
X144745109Y-82588151D02*
X144285490Y-82128532D01*
X145063307Y-81350715D01*
X145522926Y-81810334D01*
X144745109Y-82588151D01*
X144745109Y-82588151D01*
G37*
G36*
X145098663Y-82941704D02*
X144639044Y-82482085D01*
X145416861Y-81704268D01*
X145876480Y-82163887D01*
X145098663Y-82941704D01*
X145098663Y-82941704D01*
G37*
G36*
X146795718Y-82482085D02*
X146336099Y-82941704D01*
X145558282Y-82163887D01*
X146017901Y-81704268D01*
X146795718Y-82482085D01*
X146795718Y-82482085D01*
G37*
G36*
X147149272Y-82128532D02*
X146689653Y-82588151D01*
X145911836Y-81810334D01*
X146371455Y-81350715D01*
X147149272Y-82128532D01*
X147149272Y-82128532D01*
G37*
G36*
X147502825Y-81774978D02*
X147043206Y-82234597D01*
X146265389Y-81456780D01*
X146725008Y-80997161D01*
X147502825Y-81774978D01*
X147502825Y-81774978D01*
G37*
G36*
X147856379Y-81421425D02*
X147396760Y-81881044D01*
X146618943Y-81103227D01*
X147078562Y-80643608D01*
X147856379Y-81421425D01*
X147856379Y-81421425D01*
G37*
G36*
X148209932Y-81067872D02*
X147750313Y-81527491D01*
X146972496Y-80749674D01*
X147432115Y-80290055D01*
X148209932Y-81067872D01*
X148209932Y-81067872D01*
G37*
G36*
X148563485Y-80714318D02*
X148103866Y-81173937D01*
X147326049Y-80396120D01*
X147785668Y-79936501D01*
X148563485Y-80714318D01*
X148563485Y-80714318D01*
G37*
G36*
X148917039Y-80360765D02*
X148457420Y-80820384D01*
X147679603Y-80042567D01*
X148139222Y-79582948D01*
X148917039Y-80360765D01*
X148917039Y-80360765D01*
G37*
G36*
X149270592Y-80007211D02*
X148810973Y-80466830D01*
X148033156Y-79689013D01*
X148492775Y-79229394D01*
X149270592Y-80007211D01*
X149270592Y-80007211D01*
G37*
G36*
X148492775Y-79547592D02*
X148033156Y-79087973D01*
X148810973Y-78310156D01*
X149270592Y-78769775D01*
X148492775Y-79547592D01*
X148492775Y-79547592D01*
G37*
G36*
X148139222Y-79194038D02*
X147679603Y-78734419D01*
X148457420Y-77956602D01*
X148917039Y-78416221D01*
X148139222Y-79194038D01*
X148139222Y-79194038D01*
G37*
G36*
X147785668Y-78840485D02*
X147326049Y-78380866D01*
X148103866Y-77603049D01*
X148563485Y-78062668D01*
X147785668Y-78840485D01*
X147785668Y-78840485D01*
G37*
G36*
X147432115Y-78486931D02*
X146972496Y-78027312D01*
X147750313Y-77249495D01*
X148209932Y-77709114D01*
X147432115Y-78486931D01*
X147432115Y-78486931D01*
G37*
G36*
X147078562Y-78133378D02*
X146618943Y-77673759D01*
X147396760Y-76895942D01*
X147856379Y-77355561D01*
X147078562Y-78133378D01*
X147078562Y-78133378D01*
G37*
G36*
X146725008Y-77779825D02*
X146265389Y-77320206D01*
X147043206Y-76542389D01*
X147502825Y-77002008D01*
X146725008Y-77779825D01*
X146725008Y-77779825D01*
G37*
G36*
X146371455Y-77426271D02*
X145911836Y-76966652D01*
X146689653Y-76188835D01*
X147149272Y-76648454D01*
X146371455Y-77426271D01*
X146371455Y-77426271D01*
G37*
G36*
X146017901Y-77072718D02*
X145558282Y-76613099D01*
X146336099Y-75835282D01*
X146795718Y-76294901D01*
X146017901Y-77072718D01*
X146017901Y-77072718D01*
G37*
G36*
X145876480Y-76613099D02*
X145416861Y-77072718D01*
X144639044Y-76294901D01*
X145098663Y-75835282D01*
X145876480Y-76613099D01*
X145876480Y-76613099D01*
G37*
G36*
X145522926Y-76966652D02*
X145063307Y-77426271D01*
X144285490Y-76648454D01*
X144745109Y-76188835D01*
X145522926Y-76966652D01*
X145522926Y-76966652D01*
G37*
G36*
X145169373Y-77320206D02*
X144709754Y-77779825D01*
X143931937Y-77002008D01*
X144391556Y-76542389D01*
X145169373Y-77320206D01*
X145169373Y-77320206D01*
G37*
G36*
X144815819Y-77673759D02*
X144356200Y-78133378D01*
X143578383Y-77355561D01*
X144038002Y-76895942D01*
X144815819Y-77673759D01*
X144815819Y-77673759D01*
G37*
G36*
X144462266Y-78027312D02*
X144002647Y-78486931D01*
X143224830Y-77709114D01*
X143684449Y-77249495D01*
X144462266Y-78027312D01*
X144462266Y-78027312D01*
G37*
G36*
X144108713Y-78380866D02*
X143649094Y-78840485D01*
X142871277Y-78062668D01*
X143330896Y-77603049D01*
X144108713Y-78380866D01*
X144108713Y-78380866D01*
G37*
G36*
X143755159Y-78734419D02*
X143295540Y-79194038D01*
X142517723Y-78416221D01*
X142977342Y-77956602D01*
X143755159Y-78734419D01*
X143755159Y-78734419D01*
G37*
G36*
X143401606Y-79087973D02*
X142941987Y-79547592D01*
X142164170Y-78769775D01*
X142623789Y-78310156D01*
X143401606Y-79087973D01*
X143401606Y-79087973D01*
G37*
G36*
X146937140Y-80891095D02*
X145434538Y-79388493D01*
X146937140Y-77885891D01*
X148439742Y-79388493D01*
X146937140Y-80891095D01*
X146937140Y-80891095D01*
G37*
G36*
X145717381Y-79671336D02*
X144214779Y-78168734D01*
X145717381Y-76666132D01*
X147219983Y-78168734D01*
X145717381Y-79671336D01*
X145717381Y-79671336D01*
G37*
G36*
X145717381Y-82110854D02*
X144214779Y-80608252D01*
X145717381Y-79105650D01*
X147219983Y-80608252D01*
X145717381Y-82110854D01*
X145717381Y-82110854D01*
G37*
G36*
X144497622Y-80891095D02*
X142995020Y-79388493D01*
X144497622Y-77885891D01*
X146000224Y-79388493D01*
X144497622Y-80891095D01*
X144497622Y-80891095D01*
G37*
D27*
X148971000Y-117411500D03*
X151501000Y-117431500D03*
X154041000Y-117431500D03*
D28*
X140335000Y-94488000D03*
X140335000Y-98044000D03*
X152400000Y-94488000D03*
X152400000Y-98044000D03*
X140335000Y-86741000D03*
X140335000Y-90297000D03*
X152400000Y-86741000D03*
X152400000Y-90297000D03*
D29*
X146050000Y-106442000D03*
X146050000Y-107442000D03*
X146050000Y-108442000D03*
X146050000Y-109442000D03*
X146050000Y-110442000D03*
X146050000Y-111442000D03*
D30*
X148550000Y-105442000D03*
X148550000Y-112442000D03*
D31*
X137131000Y-68210000D03*
X137131000Y-68860000D03*
X137131000Y-69510000D03*
X137131000Y-70160000D03*
X137131000Y-70810000D03*
X137131000Y-71460000D03*
X137131000Y-72110000D03*
X137131000Y-72760000D03*
X143031000Y-72760000D03*
X143031000Y-72110000D03*
X143031000Y-71460000D03*
X143031000Y-70810000D03*
X143031000Y-70160000D03*
X143031000Y-69510000D03*
X143031000Y-68860000D03*
X143031000Y-68210000D03*
D32*
X134239000Y-74803000D03*
D33*
X134239000Y-76803000D03*
X134239000Y-78812000D03*
X134239000Y-80812000D03*
X134239000Y-82812000D03*
X134239000Y-84812000D03*
X134239000Y-86812000D03*
X134239000Y-88812000D03*
X134239000Y-90803000D03*
X134239000Y-92803000D03*
X156239000Y-74803000D03*
X156239000Y-76803000D03*
X156239000Y-78803000D03*
X156239000Y-80812000D03*
X156239000Y-82803000D03*
X156239000Y-84812000D03*
X156239000Y-86803000D03*
X156239000Y-88803000D03*
X156239000Y-90803000D03*
X156239000Y-92803000D03*
M02*
